<?xml version="1.0" encoding="UTF-8" standalone="no"?><!DOCTYPE svg PUBLIC "-//W3C//DTD SVG 1.1//EN" "http://www.w3.org/Graphics/SVG/1.1/DTD/svg11.dtd"><svg width="100%" height="100%" viewBox="0 0 490 374" version="1.1" xmlns="http://www.w3.org/2000/svg" xmlns:xlink="http://www.w3.org/1999/xlink" xml:space="preserve" xmlns:serif="http://www.serif.com/" style="fill-rule:evenodd;clip-rule:evenodd;stroke-linejoin:round;stroke-miterlimit:2;"><g><g><path d="M440.38,198.609c-3.55,-8.93 -9,-17 -13.87,-27c-6.4,-13.15 -10.88,-28.15 -10.11,-42.86c0.55,-10.56 3,-21.49 -0.52,-31.46c-4.35,-12.36 -17,-20.12 -29.84,-22.88c-12.84,-2.76 -26.08,-1.5 -39.18,-1.43c-14.92,0 -28.26,-5.2 -42.87,-6.32c-16.62,-1.27 -32.39,-1.57 -48.3,4.31c-14.29,5.27 -27.2,14.18 -42,17.87c-16.36,4.09 -33.56,1.43 -50.21,-1.24c-19.11,-3.06 -34.64,-6.08 -53,1.7c-14.06,6 -26.58,16.72 -31.56,31.5c-8,23.82 4.64,49.21 6.6,74.27c0.546,5.193 0.208,10.441 -1,15.52c-2.48,9.34 -11.55,14.63 -12.84,23.5c-1.8,12.35 4.16,25 13.44,33.35c21.41,19.27 48.93,13.31 75.24,14.41l90.11,3.76l94.77,4c27.9,1.16 54.74,-2.14 76.39,-21.11c12.88,-11.29 20.86,-28.76 22.33,-46c0.759,-8.135 -0.469,-16.334 -3.58,-23.89Z" style="fill:url(#_Linear1);fill-rule:nonzero;"/><path d="M271.45,196.399c-3.09,-4 1.6,-9.53 5.77,-6.75c7.333,4.925 16.35,6.692 25,4.9c35.63,-6.49 17.81,-95.95 85.43,-101c85,-6.38 58.12,56.48 34.19,82.57c-18.72,20.37 -109.9,73.23 -150.39,20.28Z" style="fill-opacity:0.2;fill-rule:nonzero;"/></g></g><defs><linearGradient id="_Linear1" x1="0" y1="0" x2="1" y2="0" gradientUnits="userSpaceOnUse" gradientTransform="matrix(-362.93,1.37,-1.37,-362.93,395.04,177.529)"><stop offset="0" style="stop-color:#d1daed;stop-opacity:1"/><stop offset="1" style="stop-color:#e2e8f5;stop-opacity:1"/></linearGradient></defs></svg>