<?xml version="1.0" encoding="UTF-8" standalone="no"?><!DOCTYPE svg PUBLIC "-//W3C//DTD SVG 1.1//EN" "http://www.w3.org/Graphics/SVG/1.1/DTD/svg11.dtd"><svg width="100%" height="100%" viewBox="0 0 490 374" version="1.1" xmlns="http://www.w3.org/2000/svg" xmlns:xlink="http://www.w3.org/1999/xlink" xml:space="preserve" xmlns:serif="http://www.serif.com/" style="fill-rule:evenodd;clip-rule:evenodd;stroke-linejoin:round;stroke-miterlimit:2;"><g><g><g><path d="M365.97,239.159l-14.17,0c-0.965,0 -1.76,-0.794 -1.76,-1.76c0,-0.003 0,-0.006 0,-0.01c0,-0.965 0.795,-1.76 1.76,-1.76l14.17,0c0.966,0 1.76,0.795 1.76,1.76c0,0.004 0,0.007 0,0.01c0,0.966 -0.794,1.76 -1.76,1.76Z" style="fill:#86a7d6;fill-rule:nonzero;"/><path d="M419.79,239.159l-45.55,0c-0.965,0 -1.76,-0.794 -1.76,-1.76c0,-0.003 0,-0.006 0,-0.01c0,-0.965 0.795,-1.76 1.76,-1.76l45.55,0c0.966,0 1.76,0.795 1.76,1.76c0,0.004 0,0.007 0,0.01c0,0.966 -0.794,1.76 -1.76,1.76Z" style="fill:#86a7d6;fill-opacity:0.6;fill-rule:nonzero;"/><path d="M425.26,246.059l-45.55,0c-0.965,0 -1.76,-0.794 -1.76,-1.76c0,-0.003 0,-0.006 0,-0.01c0,-0.965 0.795,-1.76 1.76,-1.76l45.55,0c0.971,0 1.77,0.799 1.77,1.77c0,0 0,0 0,0c0,0.966 -0.794,1.76 -1.76,1.76c-0.003,0 -0.007,0 -0.01,0Z" style="fill:#86a7d6;fill-opacity:0.53;fill-rule:nonzero;"/><path d="M412.31,259.869l-32.6,0c-0.965,0 -1.76,-0.794 -1.76,-1.76c0,-0.003 0,-0.006 0,-0.01c0,-0.965 0.795,-1.76 1.76,-1.76l32.6,0c0.966,0 1.76,0.795 1.76,1.76c0,0.004 0,0.007 0,0.01c0,0.966 -0.794,1.76 -1.76,1.76Z" style="fill:#86a7d6;fill-opacity:0.53;fill-rule:nonzero;"/><path d="M430.37,252.979l-45.55,0c-0.965,0 -1.76,-0.794 -1.76,-1.76c0,-0.965 0.795,-1.76 1.76,-1.76l45.55,0c0.003,0 0.007,0 0.01,0c0.966,0 1.76,0.795 1.76,1.76l0,0c0,0.966 -0.794,1.76 -1.76,1.76c-0.003,0 -0.007,0 -0.01,0Z" style="fill:#86a7d6;fill-opacity:0.6;fill-rule:nonzero;"/></g><g><g><path d="M221.23,183.689c-1.1,0.57 6.15,-11.9 6.71,-22.89c0.56,-10.99 3,-29.74 12.51,-41c9.51,-11.26 19.85,-12.24 32.92,-2c10.9,8.5 17.69,12.79 21.68,13.58c0.69,0.152 1.186,0.769 1.186,1.475c-0,0.253 -0.064,0.503 -0.186,0.725c-2.56,4.71 -9.78,15.52 -21.92,14.76c-15.48,-1 -34.24,-11 -40,-2.64c-5.76,8.36 -5,13.09 -5.16,17.07c-0.16,3.98 -0.51,17.1 -7.74,20.92Z" style="fill:#f7d495;fill-rule:nonzero;"/><path d="M268.59,131.709c-1.84,-1.374 -3.775,-2.617 -5.79,-3.72c-1.991,-1.098 -4.093,-1.983 -6.27,-2.64c-1.072,-0.313 -2.17,-0.533 -3.28,-0.66c-1.089,-0.13 -2.19,-0.13 -3.28,0c-0.27,0.05 -0.54,0.07 -0.8,0.14c-0.26,0.07 -0.53,0.11 -0.79,0.19l-1.62,0.49l-1.57,0.6l-1.52,0.72c-1.985,1.021 -3.781,2.374 -5.31,4c-1.524,1.671 -2.819,3.538 -3.85,5.55c-0.27,0.5 -0.54,1 -0.77,1.53c-0.23,0.53 -0.48,1 -0.7,1.57c-0.4,1.07 -0.84,2.13 -1.18,3.23c-0.76,2.17 -1.3,4.43 -1.86,6.67c-0.026,0.131 -0.142,0.226 -0.275,0.226c-0.154,-0 -0.28,-0.127 -0.28,-0.281c-0,-0.018 0.001,-0.037 0.005,-0.055c0.35,-2.313 0.834,-4.603 1.45,-6.86c0.28,-1.14 0.68,-2.25 1.05,-3.37c0.21,-0.55 0.44,-1.09 0.66,-1.64c0.11,-0.27 0.21,-0.55 0.34,-0.82l0.39,-0.8c1.021,-2.173 2.34,-4.192 3.92,-6c1.612,-1.804 3.532,-3.307 5.67,-4.44l1.63,-0.78l1.67,-0.65l1.72,-0.54c0.29,-0.08 0.6,-0.14 0.9,-0.21c0.3,-0.07 0.61,-0.09 0.92,-0.14c1.219,-0.145 2.451,-0.145 3.67,0c1.194,0.165 2.372,0.432 3.52,0.8c2.261,0.749 4.42,1.773 6.43,3.05c2.002,1.244 3.875,2.684 5.59,4.3c0.114,0.116 0.114,0.304 0,0.42c-0.107,0.099 -0.273,0.099 -0.38,0l-0.01,0.12Z" style="fill:#fbf7c7;fill-rule:nonzero;"/><path d="M187.3,264.539c2.1,1.27 -18.39,-29.56 -21.7,-75.52c-1.56,-21.65 0.69,-48.42 -10.6,-59.78c-9.39,-9.45 -44.33,-7 -55.78,-5.89c-0.85,0.102 -1.498,0.832 -1.498,1.688c0,0.451 0.179,0.884 0.498,1.202c5,5 15.67,16.71 17.76,27.77c2.76,14.57 15.51,24.78 27.42,28.26c11.91,3.48 18.44,6.44 22.68,26.32c4.24,19.88 15.25,52.39 21.22,55.95Z" style="fill:#87a99f;fill-rule:nonzero;"/><path d="M114.56,130.769c7.257,0.982 14.247,3.399 20.56,7.11c3.182,1.863 6.115,4.121 8.73,6.72c2.615,2.622 4.826,5.618 6.56,8.89l0.64,1.24c0.21,0.41 0.38,0.84 0.57,1.26c0.19,0.42 0.38,0.85 0.54,1.27l0.5,1.27c0.667,1.68 1.333,3.37 2,5.07c1.293,3.387 2.53,6.797 3.71,10.23c2.37,6.86 4.53,13.79 6.25,20.85c0.008,0.029 0.012,0.058 0.012,0.087c0,0.151 -0.105,0.281 -0.252,0.313c-0.166,0.04 -0.337,-0.057 -0.39,-0.22c-1.06,-3.45 -2.18,-6.9 -3.36,-10.31c-1.18,-3.41 -2.38,-6.83 -3.63,-10.22l-1.88,-5.1l-1.95,-5.06c-0.64,-1.69 -1.31,-3.37 -2,-5.05l-0.5,-1.26c-0.16,-0.42 -0.35,-0.81 -0.53,-1.22c-0.18,-0.41 -0.34,-0.82 -0.54,-1.21l-0.6,-1.19c-1.65,-3.143 -3.749,-6.03 -6.23,-8.57c-1.253,-1.277 -2.589,-2.469 -4,-3.57l-0.52,-0.42l-0.53,-0.4c-0.36,-0.26 -0.71,-0.54 -1.08,-0.79c-0.74,-0.51 -1.47,-1 -2.23,-1.48c-3.044,-1.895 -6.266,-3.49 -9.62,-4.76c-3.35,-1.316 -6.815,-2.321 -10.35,-3c-0.124,-0.021 -0.216,-0.13 -0.216,-0.256c0,-0.018 0.002,-0.036 0.006,-0.054c0.029,-0.109 0.129,-0.186 0.242,-0.186c0.03,0 0.06,0.006 0.088,0.016Z" style="fill:#b0c5d4;fill-rule:nonzero;"/><path d="M190.77,279.549c1.38,0.52 -9.11,-13.18 -11.44,-26.12c-2.33,-12.94 -8.11,-34.82 -21.05,-46.68c-12.94,-11.86 -25.4,-11.51 -39.36,2.57c-11.63,11.73 -19,17.85 -23.65,19.4c-0.722,0.255 -1.208,0.941 -1.208,1.707c0,0.378 0.118,0.746 0.338,1.053c3.75,5.19 14,16.92 28.24,14.18c18.21,-3.5 38.94,-18.28 47,-9.2c8.06,9.08 7.9,14.78 8.71,19.47c0.81,4.69 3.26,20.2 12.42,23.62Z" style="fill:#86a7d6;fill-rule:nonzero;"/><path d="M126.21,224.659c0.898,-1.08 1.853,-2.111 2.86,-3.09c0.999,-0.988 2.047,-1.926 3.14,-2.81c2.19,-1.804 4.591,-3.335 7.15,-4.56c1.286,-0.61 2.625,-1.102 4,-1.47c1.412,-0.361 2.863,-0.552 4.32,-0.57l1.1,0c0.36,0 0.74,0.06 1.1,0.12l2.1,0.37l2.08,0.51l2,0.68c2.692,1.015 5.184,2.498 7.36,4.38c2.145,1.878 4.011,4.054 5.54,6.46l0.58,0.88c0.2,0.3 0.36,0.61 0.54,0.92c0.34,0.61 0.7,1.22 1,1.84l0.93,1.89c0.33,0.62 0.57,1.28 0.85,1.92c1.077,2.579 2.008,5.217 2.79,7.9c0.04,0.156 -0.048,0.318 -0.2,0.37c-0.147,0.037 -0.301,-0.04 -0.36,-0.18c-1,-2.58 -2,-5.18 -3.18,-7.65c-0.57,-1.26 -1.25,-2.45 -1.89,-3.67c-0.33,-0.6 -0.7,-1.17 -1.06,-1.76c-0.18,-0.29 -0.34,-0.59 -0.54,-0.87l-0.59,-0.84c-1.541,-2.227 -3.367,-4.244 -5.43,-6c-2.074,-1.716 -4.424,-3.069 -6.95,-4l-1.91,-0.62l-2,-0.48l-2,-0.34c-0.33,-0.05 -0.65,-0.07 -1,-0.1c-0.35,-0.03 -0.65,0 -1,0c-1.322,-0.001 -2.639,0.164 -3.92,0.49c-1.305,0.317 -2.58,0.749 -3.81,1.29c-2.474,1.118 -4.821,2.499 -7,4.12c-1.1,0.81 -2.19,1.65 -3.24,2.54c-1.05,0.89 -2.07,1.83 -3,2.79c-0.056,0.058 -0.134,0.091 -0.215,0.091c-0.081,-0 -0.158,-0.033 -0.215,-0.091c-0.044,-0.056 -0.068,-0.125 -0.068,-0.197c0,-0.105 0.052,-0.203 0.138,-0.263Z" style="fill:#d4dcef;fill-rule:nonzero;"/><path d="M75.55,253.469c-12.94,-11.87 -25.43,-11.49 -39.37,2.57c-11.63,11.73 -19,17.85 -23.65,19.4c-0.72,0.252 -1.206,0.936 -1.206,1.699c0,0.382 0.121,0.753 0.346,1.061c3.74,5.19 14,16.92 28.24,14.18c18.21,-3.5 38.93,-18.28 47,-9.2c8.07,9.08 1.58,-17.85 -11.36,-29.71Z" style="fill:#eca74e;fill-rule:nonzero;"/><path d="M43.48,271.379c0.89,-1.084 1.841,-2.116 2.85,-3.09c1,-1 2,-1.93 3.14,-2.81c2.19,-1.804 4.591,-3.335 7.15,-4.56c1.287,-0.608 2.626,-1.1 4,-1.47c1.412,-0.361 2.863,-0.552 4.32,-0.57l1.1,0c0.37,0 0.73,0.06 1.09,0.12l2.11,0.37l2.08,0.51l2,0.68c2.726,1.02 5.249,2.516 7.45,4.42c2.139,1.881 4.001,4.056 5.53,6.46l0.58,0.88c0.2,0.3 0.36,0.61 0.54,0.92c0.34,0.61 0.71,1.22 1,1.84l0.94,1.89c0.32,0.62 1.12,4.82 -0.11,2.35c-0.57,-1.26 -1.24,-2.45 -1.88,-3.67c-0.34,-0.6 -0.71,-1.17 -1.06,-1.76c-0.18,-0.29 -0.35,-0.59 -0.55,-0.87l-0.58,-0.84c-1.542,-2.23 -3.371,-4.247 -5.44,-6c-2.069,-1.718 -4.416,-3.071 -6.94,-4l-1.92,-0.62l-2,-0.48l-2,-0.34c-0.34,0 -0.66,-0.07 -1,-0.1c-0.34,-0.03 -0.66,0 -1,0c-1.325,-0.001 -2.646,0.163 -3.93,0.49c-1.302,0.317 -2.574,0.749 -3.8,1.29c-2.474,1.118 -4.821,2.499 -7,4.12c-1.11,0.81 -2.2,1.65 -3.25,2.54c-1.05,0.89 -2.07,1.83 -3,2.79c-0.056,0.058 -0.134,0.091 -0.215,0.091c-0.081,-0 -0.158,-0.033 -0.215,-0.091c-0.073,-0.059 -0.115,-0.147 -0.115,-0.241c-0,-0.098 0.046,-0.19 0.125,-0.249Z" style="fill:#fefceb;fill-rule:nonzero;"/><path d="M210.5,211.089c0,0 1.18,-31 -13,-39.54c-14.18,-8.54 -41.29,-14.1 -41.67,-58.68c-0.22,-26.1 -0.7,-37.52 -1.06,-42.5c-0.005,-0.073 -0.008,-0.146 -0.008,-0.219c-0,-1.608 1.323,-2.93 2.93,-2.93c0.197,-0 0.395,0.02 0.588,0.059c13.5,2.74 57.34,13.87 66.13,44c10.43,35.77 -13.91,99.81 -13.91,99.81Z" style="fill:#86a7d6;fill-rule:nonzero;"/><path d="M168.52,79.889c1,1 2,1.93 3,2.93c0.49,0.49 1,1 1.45,1.51c0.45,0.51 1,1 1.43,1.53c0.93,1 1.88,2.06 2.79,3.12l1.37,1.57l1.35,1.61l1.33,1.61l1.3,1.65l1.3,1.64c0.43,0.55 0.84,1.11 1.26,1.67l1.25,1.68l0.63,0.83l0.61,0.86l2.41,3.42c1.55,2.32 3.13,4.63 4.58,7l1.1,1.78l0.56,0.9l0.52,0.9l2.1,3.63l0.52,0.91l0.5,0.93l2,3.7l0.49,0.93l0.46,0.94c1.21,2.52 2.5,5 3.59,7.6c0.29,0.65 0.54,1.31 0.81,2c0.27,0.69 0.52,1.3 0.77,2l0.72,2l0.35,1l0.33,1l0.65,2l0.59,2c0.41,1.35 0.72,2.72 1.07,4.08c1.307,5.464 2.22,11.015 2.73,16.61c0.521,5.584 0.678,11.196 0.47,16.8c-0.11,2.8 -0.31,5.6 -0.6,8.38c-0.29,2.78 -0.65,5.55 -1.21,8.34c-0.07,0.402 -0.422,0.698 -0.83,0.698c-0.462,-0 -0.842,-0.381 -0.842,-0.843c-0,-0.048 0.004,-0.097 0.012,-0.145c0.774,-5.45 1.179,-10.945 1.21,-16.45c0.069,-5.507 -0.188,-11.013 -0.77,-16.49c-0.571,-5.466 -1.506,-10.888 -2.8,-16.23c-1.307,-5.327 -3.033,-10.543 -5.16,-15.6c-4.466,-10.12 -9.75,-19.859 -15.8,-29.12l-2.31,-3.44l-0.58,-0.86l-0.59,-0.85l-1.2,-1.69c-0.4,-0.57 -0.79,-1.14 -1.19,-1.7l-1.23,-1.67l-1.23,-1.66l-1.27,-1.65c-3.342,-4.405 -6.91,-8.634 -10.69,-12.67c-0.089,-0.089 -0.139,-0.209 -0.139,-0.335c0,-0.26 0.214,-0.474 0.474,-0.474c0.126,0 0.246,0.05 0.335,0.139l0.02,-0.02Z" style="fill:#d4dcef;fill-rule:nonzero;"/><path d="M206.24,286.039c0,0 -0.88,-23.22 9.72,-29.59c10.6,-6.37 30.89,-10.55 31.18,-43.91c0.17,-19.53 0.53,-28.07 0.8,-31.8c0.004,-0.051 0.005,-0.102 0.005,-0.153c0,-1.207 -0.993,-2.2 -2.2,-2.2c-0.146,-0 -0.292,0.014 -0.435,0.043c-10.11,2.05 -42.91,10.38 -49.48,32.94c-7.8,26.75 10.41,74.67 10.41,74.67Z" style="fill:#87a99f;fill-rule:nonzero;"/><path d="M238.23,188.469c-0.7,0.74 -1.39,1.52 -2.07,2.3c-0.68,0.78 -1.34,1.56 -2,2.36c-0.66,0.8 -1.32,1.6 -1.95,2.42l-1,1.21l-0.89,1.22l-0.94,1.23l-0.91,1.26c-0.61,0.83 -1.22,1.66 -1.8,2.52c-1.2,1.68 -2.33,3.41 -3.47,5.13c-4.478,6.913 -8.398,14.173 -11.72,21.71c-1.58,3.768 -2.864,7.653 -3.84,11.62c-0.963,3.98 -1.668,8.019 -2.11,12.09c-0.438,4.085 -0.642,8.192 -0.61,12.3c0.01,4.107 0.287,8.209 0.83,12.28c0.008,0.048 0.013,0.097 0.013,0.145c-0,0.462 -0.381,0.843 -0.843,0.843c-0.408,-0 -0.76,-0.296 -0.83,-0.698c-0.43,-2.1 -0.73,-4.16 -0.95,-6.26c-0.22,-2.1 -0.38,-4.18 -0.48,-6.28c-0.172,-4.205 -0.068,-8.418 0.31,-12.61c0.367,-4.202 1.035,-8.373 2,-12.48c0.5,-2.05 1,-4.09 1.73,-6.1c0.32,-1 0.71,-2 1.06,-3c0.35,-1 0.76,-2 1.18,-2.95c0.82,-2 1.79,-3.81 2.71,-5.7c0.22,-0.48 0.46,-0.94 0.71,-1.4l0.74,-1.39l0.75,-1.39c0.24,-0.46 0.49,-0.92 0.76,-1.37l1.58,-2.72c0.52,-0.91 1.1,-1.79 1.65,-2.68c1.09,-1.79 2.27,-3.52 3.44,-5.25c4.731,-6.92 10.174,-13.325 16.24,-19.11c0.089,-0.089 0.21,-0.139 0.335,-0.139c0.26,0 0.474,0.214 0.474,0.474c-0,0.126 -0.05,0.246 -0.139,0.335l0.04,0.08Z" style="fill:#b0c5d4;fill-rule:nonzero;"/><path d="M206.12,285.619c-0.78,0.41 4.38,-8.46 4.77,-16.27c0.39,-7.81 2.16,-21.15 8.9,-29.13c6.74,-7.98 14.12,-8.71 23.42,-1.46c7.74,6.05 12.58,9.1 15.41,9.67c0.494,0.104 0.851,0.543 0.851,1.048c-0,0.179 -0.045,0.355 -0.131,0.512c-1.82,3.35 -7,11 -15.59,10.5c-11,-0.69 -24.35,-7.85 -28.42,-1.88c-4.07,5.97 -3.54,9.31 -3.67,12.14c-0.13,2.83 -0.39,12.16 -5.54,14.87Z" style="fill:#86a7d6;fill-rule:nonzero;"/><path d="M239.76,248.719c-1.328,-0.94 -2.714,-1.795 -4.15,-2.56c-1.414,-0.756 -2.902,-1.366 -4.44,-1.82c-0.749,-0.214 -1.515,-0.365 -2.29,-0.45c-0.758,-0.085 -1.522,-0.085 -2.28,0c-0.371,0.053 -0.739,0.13 -1.1,0.23l-1.14,0.35l-1.1,0.41l-1.06,0.51c-1.394,0.718 -2.655,1.669 -3.73,2.81c-1.077,1.171 -1.995,2.479 -2.73,3.89c-0.39,0.7 -0.71,1.44 -1.05,2.18c-0.34,0.74 -0.61,1.5 -0.86,2.28c-0.56,1.53 -1,3.13 -1.38,4.72c-0.028,0.129 -0.143,0.222 -0.275,0.222c-0.154,-0 -0.281,-0.127 -0.281,-0.282c-0,-0.02 0.002,-0.04 0.006,-0.06c0.229,-1.653 0.563,-3.289 1,-4.9c0.413,-1.639 0.985,-3.233 1.71,-4.76c0.719,-1.559 1.659,-3.008 2.79,-4.3c1.161,-1.308 2.546,-2.399 4.09,-3.22l1.17,-0.56l1.21,-0.48l1.23,-0.38c0.436,-0.122 0.881,-0.209 1.33,-0.26c0.884,-0.105 1.777,-0.105 2.66,0c0.865,0.123 1.719,0.321 2.55,0.59c1.618,0.548 3.16,1.297 4.59,2.23c1.404,0.918 2.708,1.98 3.89,3.17c0.067,0.056 0.106,0.138 0.106,0.225c0,0.16 -0.131,0.291 -0.291,0.291c-0.067,0 -0.133,-0.023 -0.185,-0.066l0.01,-0.01Z" style="fill:#d4dcef;fill-rule:nonzero;"/></g><g><g><rect x="261.27" y="177.819" width="5.85" height="82.65" style="fill:url(#_Linear1);"/><path d="M271.4,258.719c0,0.004 0,0.007 0,0.01c0,0.96 -0.79,1.75 -1.75,1.75l-11.31,0c-0.96,0 -1.75,-0.79 -1.75,-1.75c0,-0.003 0,-0.006 0,-0.01c0,-0.96 0.79,-1.75 1.75,-1.75l11.31,0c0.96,0 1.75,0.79 1.75,1.75Z" style="fill:url(#_Linear2);fill-rule:nonzero;"/></g><g><rect x="402.4" y="177.819" width="5.85" height="82.65" style="fill:url(#_Linear3);"/><path d="M412.54,258.719c0,0.966 -0.794,1.76 -1.76,1.76l-11.31,0c-0.962,-0.005 -1.75,-0.798 -1.75,-1.76c0,-0.96 0.79,-1.75 1.75,-1.75l11.31,0c0.003,0 0.007,0 0.01,0c0.96,0 1.75,0.79 1.75,1.75c0,0 0,0 0,0Z" style="fill:url(#_Linear4);fill-rule:nonzero;"/></g><g><rect x="285.83" y="95.169" width="3.9" height="14.04" style="fill:url(#_Linear5);"/><path d="M295.06,93.609l-13.4,0c-1.494,0.017 -2.741,1.19 -2.85,2.68l0,0.69c0.048,0.715 0.375,1.383 0.91,1.86c0.52,0.493 1.214,0.759 1.93,0.74l13.36,-0.27c1.401,-0.027 2.532,-1.199 2.51,-2.6l0,-0.42c0.002,-0.044 0.004,-0.087 0.004,-0.131c-0,-1.366 -1.098,-2.502 -2.464,-2.549Z" style="fill:url(#_Linear6);fill-rule:nonzero;"/><rect x="331.83" y="95.169" width="4.29" height="14.04" style="fill:url(#_Linear7);"/><path d="M341.21,93.609l-13.4,0c-1.532,-0.009 -2.837,1.157 -3,2.68l0,0.69c0.201,1.492 1.495,2.614 3,2.6l13.3,-0.27c1.36,-0.031 2.461,-1.159 2.461,-2.519c0,-0.027 -0,-0.054 -0.001,-0.081l0,-0.42c0.008,-0.08 0.012,-0.16 0.012,-0.241c0,-1.313 -1.06,-2.402 -2.372,-2.439Z" style="fill:url(#_Linear8);fill-rule:nonzero;"/><rect x="378.23" y="95.169" width="3.9" height="14.04" style="fill:url(#_Linear9);"/><path d="M387.35,93.609l-13.39,0c-1.44,0 -3.14,1.24 -3.14,2.68l0,0.69c0.244,1.493 1.547,2.6 3.06,2.6l13.25,-0.27c1.33,-0.036 2.404,-1.139 2.404,-2.469c-0,-0.044 -0.002,-0.087 -0.004,-0.131l0,-0.42c0,-1.44 -0.74,-2.68 -2.18,-2.68Z" style="fill:url(#_Linear10);fill-rule:nonzero;"/><path d="M412.54,106.119c0,-1.308 -1.062,-2.37 -2.37,-2.37l-151.21,0c-1.308,0 -2.37,1.062 -2.37,2.37l0,75.18c0,1.308 1.062,2.37 2.37,2.37l151.21,0c1.308,0 2.37,-1.062 2.37,-2.37l0,-75.18Z" style="fill:url(#_Linear11);"/><path d="M406.3,112.479c0,-1.589 -1.29,-2.88 -2.88,-2.88l-138.49,0c-1.589,0 -2.88,1.291 -2.88,2.88l0,62.86c0,1.59 1.291,2.88 2.88,2.88l138.49,0c1.59,0 2.88,-1.29 2.88,-2.88l0,-62.86Z" style="fill:url(#_Linear12);"/></g></g></g></g></g><defs><linearGradient id="_Linear1" x1="0" y1="0" x2="1" y2="0" gradientUnits="userSpaceOnUse" gradientTransform="matrix(34.164,0,0,34.164,1806.55,20110.5)"><stop offset="0" style="stop-color:#325d9f;stop-opacity:1"/><stop offset="1" style="stop-color:#5e86c1;stop-opacity:1"/></linearGradient><linearGradient id="_Linear2" x1="0" y1="0" x2="1" y2="0" gradientUnits="userSpaceOnUse" gradientTransform="matrix(219.337,0,0,219.337,4099.36,1242.37)"><stop offset="0" style="stop-color:#325d9f;stop-opacity:1"/><stop offset="1" style="stop-color:#5e86c1;stop-opacity:1"/></linearGradient><linearGradient id="_Linear3" x1="0" y1="0" x2="1" y2="0" gradientUnits="userSpaceOnUse" gradientTransform="matrix(34.2225,0,0,34.2225,2773.29,20110.5)"><stop offset="0" style="stop-color:#325d9f;stop-opacity:1"/><stop offset="1" style="stop-color:#5e86c1;stop-opacity:1"/></linearGradient><linearGradient id="_Linear4" x1="0" y1="0" x2="1" y2="0" gradientUnits="userSpaceOnUse" gradientTransform="matrix(219.632,0,0,219.632,6334.61,1242.37)"><stop offset="0" style="stop-color:#325d9f;stop-opacity:1"/><stop offset="1" style="stop-color:#5e86c1;stop-opacity:1"/></linearGradient><linearGradient id="_Linear5" x1="0" y1="0" x2="1" y2="0" gradientUnits="userSpaceOnUse" gradientTransform="matrix(3.9,0,0,3.9,285.83,102.189)"><stop offset="0" style="stop-color:#325d9f;stop-opacity:1"/><stop offset="1" style="stop-color:#5e86c1;stop-opacity:1"/></linearGradient><linearGradient id="_Linear6" x1="0" y1="0" x2="1" y2="0" gradientUnits="userSpaceOnUse" gradientTransform="matrix(-196.491,154.528,-154.528,-196.491,5798.32,744.086)"><stop offset="0" style="stop-color:#325d9f;stop-opacity:1"/><stop offset="1" style="stop-color:#5e86c1;stop-opacity:1"/></linearGradient><linearGradient id="_Linear7" x1="0" y1="0" x2="1" y2="0" gradientUnits="userSpaceOnUse" gradientTransform="matrix(18.4041,0,0,18.4041,1767.74,1839.08)"><stop offset="0" style="stop-color:#325d9f;stop-opacity:1"/><stop offset="1" style="stop-color:#5e86c1;stop-opacity:1"/></linearGradient><linearGradient id="_Linear8" x1="0" y1="0" x2="1" y2="0" gradientUnits="userSpaceOnUse" gradientTransform="matrix(-197.293,154.687,-154.687,-197.293,6725.66,743.76)"><stop offset="0" style="stop-color:#325d9f;stop-opacity:1"/><stop offset="1" style="stop-color:#5e86c1;stop-opacity:1"/></linearGradient><linearGradient id="_Linear9" x1="0" y1="0" x2="1" y2="0" gradientUnits="userSpaceOnUse" gradientTransform="matrix(24.726,16.848,-16.848,24.726,1859.8,1830.65)"><stop offset="0" style="stop-color:#325d9f;stop-opacity:1"/><stop offset="1" style="stop-color:#5e86c1;stop-opacity:1"/></linearGradient><linearGradient id="_Linear10" x1="0" y1="0" x2="1" y2="0" gradientUnits="userSpaceOnUse" gradientTransform="matrix(-197.053,154.922,-154.922,-197.053,7613.31,743.444)"><stop offset="0" style="stop-color:#325d9f;stop-opacity:1"/><stop offset="1" style="stop-color:#5e86c1;stop-opacity:1"/></linearGradient><linearGradient id="_Linear11" x1="0" y1="0" x2="1" y2="0" gradientUnits="userSpaceOnUse" gradientTransform="matrix(-12000.4,6765.23,-6765.23,-12000.4,57379.5,10812.2)"><stop offset="0" style="stop-color:#325d9f;stop-opacity:1"/><stop offset="1" style="stop-color:#5e86c1;stop-opacity:1"/></linearGradient><linearGradient id="_Linear12" x1="0" y1="0" x2="1" y2="0" gradientUnits="userSpaceOnUse" gradientTransform="matrix(13.99,77.65,-77.65,13.99,315.79,41.8892)"><stop offset="0" style="stop-color:#5e86c1;stop-opacity:1"/><stop offset="1" style="stop-color:#7796ca;stop-opacity:1"/></linearGradient></defs></svg>