<?xml version="1.0" encoding="UTF-8" standalone="no"?><!DOCTYPE svg PUBLIC "-//W3C//DTD SVG 1.1//EN" "http://www.w3.org/Graphics/SVG/1.1/DTD/svg11.dtd"><svg width="100%" height="100%" viewBox="0 0 490 374" version="1.1" xmlns="http://www.w3.org/2000/svg" xmlns:xlink="http://www.w3.org/1999/xlink" xml:space="preserve" xmlns:serif="http://www.serif.com/" style="fill-rule:evenodd;clip-rule:evenodd;stroke-linejoin:round;stroke-miterlimit:2;"><g><g><path d="M158.26,206.419c0,0 22.83,60.21 30,72.74c8.37,14.54 32.83,5.27 31.61,-6.9c-1.22,-12.17 -29.75,-62.46 -29.75,-62.46l-31.86,-3.38Z" style="fill:url(#_Linear1);fill-rule:nonzero;"/><path d="M189.11,162.559l141.89,-49.2l-1.49,133.14l-144.28,-32.19l3.88,-51.75Z" style="fill:url(#_Linear2);fill-rule:nonzero;"/><ellipse cx="331.13" cy="180.319" rx="13.94" ry="68.42" style="fill:url(#_Linear3);"/><path d="M332.19,244.059c-1.26,-1.28 -4,-6.22 -6.36,-19c-2.27,-12.35 -3.52,-28.38 -3.52,-45.12c0,-16.74 1.25,-32.76 3.52,-45.12c2.36,-12.78 5.1,-17.72 6.36,-19c1.26,1.28 4,6.22 6.36,19c2.27,12.35 3.57,28.37 3.57,45.16c0,16.79 -1.26,32.77 -3.53,45.12c-2.39,12.74 -5.14,17.68 -6.4,18.96Z" style="fill:url(#_Linear4);fill-rule:nonzero;"/><path d="M329.009,158.487c0.785,-0.078 1.583,-0.118 2.391,-0.118c12.39,0 18.66,9.43 18.66,21.05c0,11.63 -6.26,21.05 -18.66,21.05c-1.495,0 -2.956,-0.137 -4.37,-0.398c-1.567,-13.396 0.31,-30.469 1.979,-41.584Z" style="fill:url(#_Linear5);fill-rule:nonzero;"/><path d="M166.22,159.699c8.876,-1.068 17.868,-0.636 26.6,1.28c-3.41,17.81 -2.9,36.37 1,55.6l-29.15,0c-4.64,0.001 -8.628,-3.415 -9.34,-8c-1.46,-9.22 -3.24,-24.7 -1.34,-37.14c0.972,-6.198 5.997,-11.022 12.23,-11.74Z" style="fill:url(#_Linear6);fill-rule:nonzero;"/><path d="M183.74,173.339l-22.74,0c-0.005,0 -0.01,0 -0.016,0c-1.135,0 -2.07,-0.934 -2.07,-2.07c0,-0.401 0.117,-0.794 0.336,-1.13c0.107,-0.166 0.291,-0.267 0.489,-0.267c0.114,-0 0.226,0.034 0.321,0.097c0.27,0.174 0.351,0.538 0.18,0.81c-0.175,0.281 -0.175,0.639 0,0.92c0.157,0.294 0.467,0.476 0.8,0.47l22.74,0c0.494,0 0.9,-0.406 0.9,-0.9l0,-1.62c0,-0.494 -0.406,-0.9 -0.9,-0.9l-22.95,0c-0.324,0 -0.59,-0.266 -0.59,-0.59c0,0 0,0 0,0c0,-0.318 0.262,-0.58 0.58,-0.58c0.003,0 0.007,0 0.01,0l22.91,0c1.136,0 2.07,0.935 2.07,2.07l0,1.62c0,1.136 -0.934,2.07 -2.07,2.07Z" style="fill:#fefceb;fill-rule:nonzero;"/><path d="M181.71,183.409l-22.74,0c-0.002,0 -0.004,0 -0.006,0c-1.135,0 -2.07,-0.934 -2.07,-2.07c0,-0.401 0.117,-0.794 0.336,-1.13c0.174,-0.265 0.534,-0.342 0.8,-0.17c0.27,0.174 0.351,0.538 0.18,0.81c-0.175,0.281 -0.175,0.639 0,0.92c0.157,0.294 0.467,0.476 0.8,0.47l22.74,0c0.494,0 0.9,-0.406 0.9,-0.9l0,-1.62c0,-0.494 -0.406,-0.9 -0.9,-0.9l-22.95,0c-0.025,0.004 -0.051,0.005 -0.077,0.005c-0.323,0 -0.59,-0.266 -0.59,-0.59c0,-0.323 0.267,-0.59 0.59,-0.59c0.026,0 0.052,0.002 0.077,0.005l22.91,0c1.136,0 2.07,0.935 2.07,2.07l0,1.62c0,1.136 -0.934,2.07 -2.07,2.07Z" style="fill:#fefceb;fill-rule:nonzero;"/><path d="M209.72,158.979c-0.251,-0.005 -0.473,-0.17 -0.55,-0.41c-0.018,-0.057 -0.027,-0.116 -0.027,-0.176c-0,-0.253 0.165,-0.478 0.407,-0.554l107.47,-34.2c0.057,-0.018 0.116,-0.027 0.175,-0.027c0.319,0 0.582,0.263 0.582,0.582c0,0.253 -0.165,0.479 -0.407,0.555l-107.47,34.23c-0.06,0.01 -0.12,0.01 -0.18,0Z" style="fill:#fefceb;fill-rule:nonzero;"/><path d="M195.19,164.899c-0.235,-0.001 -0.448,-0.143 -0.54,-0.36c-0.117,-0.299 0.025,-0.642 0.32,-0.77l5.53,-2.26c0.07,-0.029 0.146,-0.044 0.222,-0.044c0.236,0 0.45,0.145 0.538,0.364c0.118,0.299 -0.025,0.642 -0.32,0.77l-5.53,2.26c-0.07,0.028 -0.145,0.042 -0.22,0.04Z" style="fill:#fefceb;fill-rule:nonzero;"/><path d="M183.74,195.209l-22.74,0c-0.005,0 -0.01,0 -0.016,0c-1.135,0 -2.07,-0.934 -2.07,-2.07c0,-0.401 0.117,-0.794 0.336,-1.13c0.108,-0.171 0.297,-0.276 0.5,-0.276c0.324,0 0.591,0.267 0.591,0.591c0,0.112 -0.031,0.221 -0.091,0.315c-0.174,0.285 -0.174,0.645 0,0.93c0.159,0.292 0.467,0.474 0.8,0.47l22.74,0c0.494,0 0.9,-0.406 0.9,-0.9l0,-1.62c0,-0.003 0,-0.006 0,-0.01c0,-0.494 -0.406,-0.9 -0.9,-0.9l-22.96,0c-0.003,0 -0.007,0 -0.01,0c-0.318,0 -0.58,-0.262 -0.58,-0.58c0,0 0,0 0,0c0,-0.323 0.266,-0.59 0.59,-0.59l22.91,0c1.137,0.006 2.07,0.943 2.07,2.08l0,1.62c0,1.136 -0.934,2.07 -2.07,2.07Z" style="fill:#fefceb;fill-rule:nonzero;"/><path d="M185.87,208.299l-22.75,0c-0.002,0 -0.004,0 -0.006,0c-1.135,0 -2.07,-0.934 -2.07,-2.07c0,-0.401 0.117,-0.794 0.336,-1.13c0.109,-0.17 0.298,-0.273 0.5,-0.273c0.326,-0 0.594,0.268 0.594,0.593c-0,0.114 -0.033,0.225 -0.094,0.32c-0.095,0.146 -0.145,0.316 -0.145,0.49c0,0.492 0.403,0.898 0.895,0.9l22.75,0c0.494,0 0.9,-0.406 0.9,-0.9l0,-1.62c0,-0.494 -0.406,-0.9 -0.9,-0.9l-22.92,0c-0.025,0.004 -0.051,0.005 -0.077,0.005c-0.323,0 -0.59,-0.266 -0.59,-0.59c0,-0.323 0.267,-0.59 0.59,-0.59c0.026,0 0.052,0.002 0.077,0.005l22.91,0c1.136,0 2.07,0.935 2.07,2.07l0,1.62c0,1.136 -0.934,2.07 -2.07,2.07Z" style="fill:#fefceb;fill-rule:nonzero;"/><path d="M206.18,279.489c-5.808,0.003 -11.102,-3.415 -13.49,-8.71l-18.17,-40.36c-0.128,-0.294 0.001,-0.641 0.29,-0.78c0.075,-0.033 0.156,-0.051 0.237,-0.051c0.232,0 0.442,0.139 0.533,0.351l18.17,40.36c1.756,3.938 5.294,6.807 9.51,7.71c4.127,0.918 8.453,-0.199 11.62,-3l0.52,-0.47c0.102,-0.077 0.227,-0.119 0.356,-0.119c0.323,0 0.59,0.266 0.59,0.59c-0,0.148 -0.056,0.29 -0.156,0.399l-0.54,0.48c-2.613,2.311 -5.981,3.591 -9.47,3.6Z" style="fill:#fefceb;fill-rule:nonzero;"/><path d="M172.36,224.789c-0.228,0.001 -0.436,-0.132 -0.53,-0.34l-2,-4.5c-0.034,-0.075 -0.051,-0.157 -0.051,-0.24c-0,-0.233 0.138,-0.445 0.351,-0.54c0.075,-0.033 0.156,-0.051 0.237,-0.051c0.232,0 0.442,0.139 0.533,0.351l2,4.5c0.034,0.075 0.051,0.156 0.051,0.237c-0,0.232 -0.138,0.442 -0.351,0.533c-0.074,0.037 -0.157,0.054 -0.24,0.05Z" style="fill:#fefceb;fill-rule:nonzero;"/><path d="M346.74,178.819c-0.307,0.001 -0.564,-0.243 -0.58,-0.55c-0.41,-5.69 -2.38,-9.94 -5.87,-12.62c-6,-4.63 -14.65,-3 -14.73,-3c-0.058,0.019 -0.118,0.028 -0.179,0.028c-0.323,-0 -0.59,-0.266 -0.59,-0.59c0,-0.304 0.236,-0.561 0.539,-0.588c0.38,-0.07 9.22,-1.7 15.67,3.24c3.77,2.9 5.89,7.43 6.32,13.47c0.018,0.319 -0.222,0.599 -0.54,0.63l-0.04,-0.02Z" style="fill:#fefceb;fill-rule:nonzero;"/></g></g><defs><linearGradient id="_Linear1" x1="0" y1="0" x2="1" y2="0" gradientUnits="userSpaceOnUse" gradientTransform="matrix(49.89,-66.92,66.92,49.89,153.54,289.059)"><stop offset="0" style="stop-color:#e27d45;stop-opacity:1"/><stop offset="1" style="stop-color:#e38343;stop-opacity:1"/></linearGradient><linearGradient id="_Linear2" x1="0" y1="0" x2="1" y2="0" gradientUnits="userSpaceOnUse" gradientTransform="matrix(90.8,161.73,-161.73,90.8,237.56,127.219)"><stop offset="0" style="stop-color:#efb34b;stop-opacity:1"/><stop offset="1" style="stop-color:#e48643;stop-opacity:1"/></linearGradient><linearGradient id="_Linear3" x1="0" y1="0" x2="1" y2="0" gradientUnits="userSpaceOnUse" gradientTransform="matrix(-2578.34,5272.45,-5272.45,-2578.34,11797.6,23366.5)"><stop offset="0" style="stop-color:#e27d45;stop-opacity:1"/><stop offset="1" style="stop-color:#e38343;stop-opacity:1"/></linearGradient><linearGradient id="_Linear4" x1="0" y1="0" x2="1" y2="0" gradientUnits="userSpaceOnUse" gradientTransform="matrix(727.027,-428.322,428.322,727.027,6633.78,26206.2)"><stop offset="0" style="stop-color:#efb34b;stop-opacity:1"/><stop offset="1" style="stop-color:#e48643;stop-opacity:1"/></linearGradient><linearGradient id="_Linear5" x1="0" y1="0" x2="1" y2="0" gradientUnits="userSpaceOnUse" gradientTransform="matrix(-4067.67,239.128,-239.128,-4067.67,15306.4,8565.32)"><stop offset="0" style="stop-color:#e27d45;stop-opacity:1"/><stop offset="1" style="stop-color:#e38343;stop-opacity:1"/></linearGradient><linearGradient id="_Linear6" x1="0" y1="0" x2="1" y2="0" gradientUnits="userSpaceOnUse" gradientTransform="matrix(-148.392,-5277.47,5277.47,-148.392,7366.62,13651.6)"><stop offset="0" style="stop-color:#e27d45;stop-opacity:1"/><stop offset="1" style="stop-color:#e38343;stop-opacity:1"/></linearGradient></defs></svg>