<?xml version="1.0" encoding="UTF-8" standalone="no"?><!DOCTYPE svg PUBLIC "-//W3C//DTD SVG 1.1//EN" "http://www.w3.org/Graphics/SVG/1.1/DTD/svg11.dtd"><svg width="100%" height="100%" viewBox="0 0 490 374" version="1.1" xmlns="http://www.w3.org/2000/svg" xmlns:xlink="http://www.w3.org/1999/xlink" xml:space="preserve" xmlns:serif="http://www.serif.com/" style="fill-rule:evenodd;clip-rule:evenodd;stroke-linejoin:round;stroke-miterlimit:2;"><g><g><g><path d="M423.5,212.419l-22.46,1.28c-1.87,0.103 -3.502,-1.332 -3.64,-3.2l-1.87,-26.05c-0.006,-0.083 -0.009,-0.166 -0.009,-0.25c0,-1.892 1.557,-3.449 3.449,-3.45l24.33,0c1.893,0 3.45,1.558 3.45,3.45l0,24.78c0.003,1.818 -1.435,3.34 -3.25,3.44Z" style="fill:url(#_Linear1);fill-rule:nonzero;"/><path d="M411.12,210.669c-1.15,0.002 -2.219,-0.603 -2.81,-1.59c-3.32,-5.48 -7.27,-12.7 -7.27,-16c0,-5.13 4.52,-9.31 10.08,-9.31c5.56,0 10.09,4.18 10.09,9.31c0,3.28 -4,10.5 -7.27,16c-0.592,0.99 -1.666,1.595 -2.82,1.59Zm0,-25.45c-4.77,0 -8.65,3.54 -8.65,7.88c0,2.27 2.57,7.82 7.06,15.24c0.336,0.56 0.942,0.903 1.595,0.903c0.653,0 1.259,-0.343 1.595,-0.903c4.48,-7.42 7.06,-13 7.06,-15.24c0.01,-4.34 -3.87,-7.88 -8.66,-7.88Z" style="fill:#d4dcef;fill-rule:nonzero;"/><path d="M410.36,199.629c-3.443,-0.005 -6.274,-2.837 -6.28,-6.28c-0.003,-0.028 -0.005,-0.056 -0.005,-0.085c0,-0.394 0.325,-0.72 0.72,-0.72c0.395,0 0.72,0.326 0.72,0.72c0,0.029 -0.002,0.057 -0.005,0.085c-0,0.018 -0,0.036 -0,0.054c-0,2.666 2.194,4.86 4.86,4.86c2.666,-0 4.86,-2.194 4.86,-4.86c-0,-2.667 -2.194,-4.86 -4.86,-4.86c-1.512,-0 -2.941,0.705 -3.86,1.906c-0.134,0.18 -0.345,0.286 -0.569,0.286c-0.156,-0 -0.307,-0.051 -0.431,-0.146c-0.313,-0.235 -0.38,-0.684 -0.15,-1c1.183,-1.608 3.064,-2.56 5.06,-2.56c3.445,0 6.28,2.835 6.28,6.28c-0,3.446 -2.835,6.28 -6.28,6.28c-0.02,0 -0.04,0 -0.06,0l0,0.04Z" style="fill:#d4dcef;fill-rule:nonzero;"/></g><g><path d="M350.71,143.979l-14.33,1.51c-0.103,0.011 -0.206,0.016 -0.31,0.016c-1.646,0 -3,-1.354 -3,-3c0,-0.005 0,-0.01 0,-0.016l0,-16.51c-0.015,-1.495 1.09,-2.785 2.57,-3l14.32,-2c0.143,-0.02 0.286,-0.031 0.43,-0.031c1.646,0 3,1.354 3,3c0,0.011 0,0.021 0,0.031l0,17c0.009,1.532 -1.157,2.837 -2.68,3Z" style="fill:#efb453;fill-rule:nonzero;"/><path d="M339.12,140.979c-0.003,0 -0.007,0 -0.01,0c-1.168,0 -2.13,-0.961 -2.13,-2.13c0,-1.168 0.962,-2.13 2.13,-2.13c1.169,0 2.13,0.962 2.13,2.13c0,0.004 0,0.007 0,0.01c-0.005,1.161 -0.959,2.115 -2.12,2.12Zm0,-3.4c-0.702,0 -1.28,0.578 -1.28,1.28c0,0.702 0.578,1.28 1.28,1.28c0.702,0 1.28,-0.578 1.28,-1.28c0,-0.702 -0.578,-1.28 -1.28,-1.28Z" style="fill:url(#_Linear2);fill-rule:nonzero;"/><path d="M339.12,134.279c2.485,0 4.53,2.045 4.53,4.53c0.01,0.153 0.01,0.307 0,0.46c-0.001,0.012 -0.002,0.023 -0.002,0.035c0,0.17 0.14,0.31 0.31,0.31c0.018,-0 0.035,-0.002 0.052,-0.005l0.66,-0.1c0.144,-0.023 0.253,-0.144 0.26,-0.29l0,-0.41c0,-0.017 0,-0.033 0,-0.05c0,-3.155 -2.595,-5.75 -5.75,-5.75c-0.254,-0 -0.508,0.017 -0.76,0.05c-0.151,0.017 -0.266,0.146 -0.266,0.298c-0,0.021 0.002,0.042 0.006,0.062l0.1,0.64c0.03,0.163 0.186,0.274 0.35,0.25c0.169,-0.019 0.34,-0.029 0.51,-0.03Z" style="fill:url(#_Linear3);fill-rule:nonzero;"/><path d="M339.12,130.979c4.277,0.006 7.795,3.523 7.8,7.8c0,0.001 0,0.002 0,0.003c0,0.17 0.14,0.31 0.31,0.31c0.013,-0 0.027,-0.001 0.04,-0.003l0.64,-0.1l0.27,-0.31c-0.06,-4.933 -4.135,-8.959 -9.069,-8.959c-0.425,-0 -0.85,0.03 -1.271,0.089c-0.147,0.022 -0.257,0.149 -0.257,0.297c0,0.021 0.003,0.042 0.007,0.063l0.11,0.63c0.019,0.15 0.147,0.263 0.298,0.263c0.014,0 0.028,-0.001 0.042,-0.003c0.358,-0.052 0.719,-0.079 1.08,-0.08Z" style="fill:url(#_Linear4);fill-rule:nonzero;"/><path d="M339.12,127.749c5.888,0.005 10.795,4.708 11.05,10.59c0.009,0.163 0.146,0.293 0.31,0.293c0.013,-0 0.027,-0.001 0.04,-0.003l0.64,-0.09c0.159,-0.02 0.277,-0.16 0.27,-0.32c-0.297,-6.53 -5.751,-11.74 -12.287,-11.74c-0.62,-0 -1.24,0.047 -1.853,0.14c-0.167,0.03 -0.28,0.193 -0.25,0.36l0.11,0.63c0.026,0.167 0.183,0.284 0.35,0.26c0.536,-0.08 1.078,-0.12 1.62,-0.12Z" style="fill:url(#_Linear5);fill-rule:nonzero;"/></g><g><path d="M348.59,214.739c-0.05,2.4 -0.51,10.1 0.66,11.75c1.66,2.33 15.58,1.22 19,0.3c3.42,-0.92 1.75,-9.57 1.38,-12.05c-0.37,-2.48 -7.25,-2.58 -12.32,-2.49c-5.07,0.09 -8.67,0.37 -8.72,2.49Z" style="fill:#e17842;fill-rule:nonzero;"/><path d="M369.12,218.669c-0.003,0 -0.007,0.001 -0.01,0.001c-0.068,-0 -0.125,-0.053 -0.13,-0.121c-0.12,-1 -0.27,-2 -0.38,-2.69l-0.05,-0.28c0.017,-0.065 0.077,-0.111 0.145,-0.111c0.068,-0 0.128,0.046 0.145,0.111l0,0.29c0.11,0.69 0.26,1.65 0.38,2.7c0,0.004 0,0.007 0,0.011c0,0.073 -0.057,0.134 -0.13,0.139l0.03,-0.05Z" style="fill:url(#_Linear6);fill-rule:nonzero;"/><path d="M364.91,226.759c-0.065,-0.017 -0.111,-0.077 -0.111,-0.145c-0,-0.068 0.046,-0.127 0.111,-0.145c0.837,-0.102 1.669,-0.249 2.49,-0.44c1.34,-0.37 1.94,-2.25 1.77,-5.59c-0.003,-0.012 -0.005,-0.025 -0.005,-0.038c0,-0.082 0.068,-0.15 0.15,-0.15c0.082,-0 0.15,0.068 0.15,0.15c0,0.013 -0.002,0.026 -0.005,0.038c0.17,3.49 -0.49,5.47 -2,5.87c-0.834,0.201 -1.679,0.355 -2.53,0.46l-0.02,-0.01Z" style="fill:url(#_Linear7);fill-rule:nonzero;"/><path d="M349.6,223.519c-0.073,0.006 -0.14,-0.047 -0.15,-0.12c-0.06,-0.71 -0.1,-1.56 -0.11,-2.54c-0,-0.078 0.062,-0.145 0.14,-0.15c0.079,0 0.145,0.062 0.15,0.14c0,1 0.05,1.82 0.11,2.52c0.001,0.007 0.002,0.014 0.002,0.02c-0,0.072 -0.059,0.13 -0.13,0.13l-0.012,0Z" style="fill:url(#_Linear8);fill-rule:nonzero;"/><path d="M349.53,217.749c-0.078,-0.005 -0.14,-0.071 -0.14,-0.15c0,-0.46 0,-0.89 0.05,-1.28c0.05,-0.39 0,-0.8 0,-1.09c0,-1.71 2.33,-2.17 5.74,-2.33c0.079,0 0.145,0.062 0.15,0.14c0.001,0.007 0.002,0.014 0.002,0.02c-0,0.072 -0.059,0.13 -0.13,0.13c-0.001,0 -0.001,0 -0.002,0c-3.86,0.18 -5.44,0.77 -5.47,2l0,2.37c0.015,0.023 0.024,0.05 0.024,0.078c-0,0.077 -0.064,0.14 -0.14,0.14c-0.03,-0 -0.06,-0.01 -0.084,-0.028Z" style="fill:url(#_Linear9);fill-rule:nonzero;"/><path d="M357.12,222.879c-0.151,-0.005 -0.275,-0.128 -0.28,-0.28l-0.13,-4.87c-0.009,-0.161 0.072,-0.315 0.21,-0.4c0.135,-0.08 0.305,-0.08 0.44,0l4.82,2.25c0.156,0.073 0.257,0.228 0.26,0.4c0.009,0.175 -0.085,0.339 -0.24,0.42l-4.25,2.27c-0.035,0.014 -0.072,0.022 -0.109,0.022c-0.159,-0 -0.29,-0.131 -0.29,-0.29c-0,-0.097 0.048,-0.188 0.129,-0.242l4.05,-2.16l-4.45,-2.08l0.13,4.69c0,0.157 -0.123,0.29 -0.28,0.3l-0.01,-0.03Z" style="fill:url(#_Linear10);fill-rule:nonzero;"/></g><g><path d="M356.12,172.889l-0.33,20.73c-0.005,1.286 1.045,2.349 2.33,2.36l23.86,0c1.287,-0.005 2.345,-1.063 2.35,-2.35l0,-20.65c-0.005,-1.287 -1.063,-2.344 -2.35,-2.35l-23.5,0c-1.26,-0.006 -2.312,1.001 -2.36,2.26Z" style="fill:#e17842;fill-rule:nonzero;"/><path d="M370.17,192.809l-0.52,0c-5.88,-0.26 -10.48,-4.95 -10.24,-10.45c0.13,-2.695 1.386,-5.214 3.46,-6.94c2.134,-1.797 4.874,-2.716 7.66,-2.57c5.88,0.26 10.48,4.94 10.24,10.45c-0.13,2.692 -1.386,5.209 -3.46,6.93c-1.998,1.68 -4.53,2.595 -7.14,2.58Zm-0.16,-18.58c-2.278,-0.017 -4.489,0.781 -6.23,2.25c-1.789,1.466 -2.879,3.621 -3,5.93c-0.21,4.73 3.78,8.75 8.9,9c2.429,0.126 4.818,-0.675 6.68,-2.24c1.789,-1.461 2.879,-3.613 3,-5.92c0.21,-4.73 -3.78,-8.76 -8.9,-9l-0.45,-0.02Z" style="fill:url(#_Linear11);fill-rule:nonzero;"/><path d="M372.64,182.859c0.012,1.639 -0.122,3.275 -0.4,4.89c-0.07,0.41 -0.16,0.81 -0.26,1.21c-0.1,0.396 -0.22,0.787 -0.36,1.17c-0.133,0.391 -0.315,0.764 -0.54,1.11c-0.108,0.177 -0.243,0.335 -0.4,0.47c-0.078,0.069 -0.165,0.127 -0.26,0.17c-0.095,0.051 -0.202,0.079 -0.31,0.08c-0.106,0.001 -0.211,-0.02 -0.31,-0.06c-0.096,-0.041 -0.187,-0.095 -0.27,-0.16c-0.16,-0.134 -0.299,-0.293 -0.41,-0.47c-0.223,-0.345 -0.407,-0.714 -0.55,-1.1c-0.139,-0.387 -0.26,-0.781 -0.36,-1.18c-0.1,-0.39 -0.19,-0.79 -0.26,-1.2c-0.148,-0.803 -0.252,-1.615 -0.31,-2.43c-0.07,-0.82 -0.11,-1.64 -0.11,-2.46l0,-1.23c0,-0.41 0,-0.82 0.07,-1.23c0.06,-0.81 0.15,-1.63 0.29,-2.44c0.06,-0.4 0.14,-0.8 0.24,-1.2c0.088,-0.4 0.201,-0.794 0.34,-1.18c0.065,-0.194 0.141,-0.385 0.23,-0.57c0.083,-0.19 0.18,-0.374 0.29,-0.55c0.109,-0.173 0.244,-0.328 0.4,-0.46c0.08,-0.068 0.172,-0.122 0.27,-0.16c0.095,-0.04 0.197,-0.06 0.3,-0.06c0.106,0.008 0.211,0.032 0.31,0.07c0.093,0.047 0.18,0.104 0.26,0.17c0.157,0.134 0.295,0.289 0.41,0.46c0.226,0.342 0.414,0.708 0.56,1.09c0.155,0.381 0.286,0.772 0.39,1.17c0.11,0.39 0.2,0.79 0.28,1.19c0.316,1.611 0.474,3.249 0.47,4.89Zm-0.12,0c0,-0.81 0,-1.63 -0.1,-2.44c-0.049,-0.819 -0.149,-1.634 -0.3,-2.44c-0.07,-0.4 -0.16,-0.8 -0.26,-1.19c-0.1,-0.39 -0.23,-0.79 -0.37,-1.17c-0.141,-0.38 -0.325,-0.742 -0.55,-1.08c-0.109,-0.173 -0.244,-0.328 -0.4,-0.46c-0.075,-0.064 -0.16,-0.118 -0.25,-0.16c-0.091,-0.043 -0.189,-0.067 -0.29,-0.07c-0.099,0.001 -0.196,0.018 -0.29,0.05c-0.089,0.044 -0.173,0.098 -0.25,0.16c-0.153,0.132 -0.285,0.287 -0.39,0.46c-0.109,0.172 -0.203,0.352 -0.28,0.54c-0.086,0.185 -0.16,0.375 -0.22,0.57c-0.136,0.386 -0.246,0.78 -0.33,1.18c-0.09,0.39 -0.16,0.8 -0.23,1.2c-0.12,0.8 -0.2,1.62 -0.25,2.43c-0.05,0.81 -0.07,1.63 -0.07,2.45c0,0.82 0,1.63 0.08,2.45c0.08,0.82 0.16,1.62 0.3,2.42c0.07,0.41 0.15,0.81 0.25,1.2c0.096,0.396 0.212,0.787 0.35,1.17c0.13,0.385 0.308,0.751 0.53,1.09c0.108,0.171 0.239,0.326 0.39,0.46c0.077,0.06 0.161,0.11 0.25,0.15c0.095,0.025 0.195,0.025 0.29,0c0.098,0.002 0.195,-0.022 0.28,-0.07c0.091,-0.04 0.175,-0.094 0.25,-0.16c0.148,-0.134 0.276,-0.289 0.38,-0.46c0.215,-0.345 0.39,-0.714 0.52,-1.1c0.138,-0.383 0.255,-0.774 0.35,-1.17c0.1,-0.39 0.18,-0.79 0.25,-1.19c0.14,-0.81 0.23,-1.62 0.29,-2.43c0.06,-0.81 0.07,-1.57 0.07,-2.39Z" style="fill:url(#_Linear12);fill-rule:nonzero;"/><path d="M370.12,192.199c-0.131,-0.001 -0.26,-0.029 -0.38,-0.08c-0.118,-0.048 -0.229,-0.112 -0.33,-0.19c-0.175,-0.152 -0.33,-0.327 -0.46,-0.52c-0.235,-0.362 -0.427,-0.752 -0.57,-1.16c-0.15,-0.391 -0.273,-0.792 -0.37,-1.2c-0.1,-0.38 -0.19,-0.78 -0.27,-1.21c-0.144,-0.817 -0.248,-1.642 -0.31,-2.47c-0.07,-0.8 -0.1,-1.63 -0.11,-2.47l0,-1.24c0,-0.37 0,-0.83 0.06,-1.23c0.07,-0.89 0.16,-1.7 0.29,-2.46c0.07,-0.44 0.15,-0.84 0.24,-1.23c0.09,-0.39 0.23,-0.84 0.35,-1.2c0.12,-0.36 0.16,-0.41 0.24,-0.59c0.089,-0.201 0.193,-0.394 0.31,-0.58c0.124,-0.194 0.276,-0.369 0.45,-0.52c0.101,-0.078 0.212,-0.142 0.33,-0.19c0.127,-0.054 0.263,-0.081 0.4,-0.08c0.135,0.01 0.267,0.044 0.39,0.1c0.115,0.048 0.223,0.112 0.32,0.19c0.175,0.147 0.326,0.319 0.45,0.51c0.245,0.353 0.443,0.736 0.59,1.14c0.159,0.388 0.293,0.785 0.4,1.19c0.11,0.39 0.2,0.78 0.29,1.22c0.301,1.626 0.451,3.277 0.45,4.93c0.01,1.656 -0.127,3.309 -0.41,4.94c-0.08,0.43 -0.16,0.83 -0.26,1.22c-0.1,0.407 -0.223,0.808 -0.37,1.2c-0.138,0.405 -0.326,0.792 -0.56,1.15c-0.121,0.197 -0.269,0.375 -0.44,0.53c-0.099,0.079 -0.206,0.146 -0.32,0.2c-0.13,0.057 -0.268,0.091 -0.41,0.1l0.01,0Zm-0.13,-18.1c-0.06,-0.009 -0.12,-0.009 -0.18,0c-0.068,0.033 -0.131,0.073 -0.19,0.12c-0.135,0.117 -0.25,0.256 -0.34,0.41c-0.1,0.165 -0.19,0.335 -0.27,0.51c-0.07,0.16 -0.14,0.34 -0.21,0.55c-0.127,0.377 -0.234,0.761 -0.32,1.15c-0.08,0.37 -0.15,0.76 -0.22,1.19c-0.12,0.75 -0.2,1.54 -0.26,2.41c-0.06,0.87 -0.06,1.54 -0.06,2.43c0,0.89 0,1.64 0.08,2.43c0.08,0.79 0.16,1.65 0.29,2.4c0.08,0.43 0.16,0.81 0.25,1.18c0.092,0.39 0.205,0.774 0.34,1.15c0.128,0.353 0.3,0.689 0.51,1c0.09,0.152 0.205,0.287 0.34,0.4l0.19,0.12l0.19,0c0.066,-0.007 0.13,-0.024 0.19,-0.05c0.07,-0.033 0.134,-0.077 0.19,-0.13c0.135,-0.117 0.25,-0.255 0.34,-0.41c0.206,-0.33 0.373,-0.682 0.5,-1.05c0.134,-0.374 0.247,-0.754 0.34,-1.14c0.09,-0.37 0.17,-0.76 0.24,-1.18c0.138,-0.798 0.235,-1.602 0.29,-2.41c0.06,-0.793 0.09,-1.603 0.09,-2.43c0,-0.82 0,-1.64 -0.09,-2.42c-0.065,-0.808 -0.172,-1.613 -0.32,-2.41c-0.08,-0.41 -0.16,-0.8 -0.26,-1.17c-0.098,-0.386 -0.218,-0.767 -0.36,-1.14c-0.14,-0.351 -0.318,-0.686 -0.53,-1c-0.096,-0.153 -0.214,-0.291 -0.35,-0.41c-0.062,-0.047 -0.129,-0.087 -0.2,-0.12c-0.063,-0.012 -0.127,-0.012 -0.19,0l-0.02,0.02Z" style="fill:url(#_Linear13);fill-rule:nonzero;"/><path d="M376.76,182.859c-0.003,1.058 -0.147,2.111 -0.43,3.13c-0.277,1.02 -0.716,1.989 -1.3,2.87c-0.293,0.438 -0.628,0.846 -1,1.22c-0.37,0.379 -0.783,0.715 -1.23,1c-0.447,0.28 -0.927,0.502 -1.43,0.66c-0.503,0.151 -1.025,0.229 -1.55,0.23c-0.528,-0.001 -1.054,-0.079 -1.56,-0.23c-0.503,-0.156 -0.984,-0.378 -1.43,-0.66c-0.445,-0.287 -0.858,-0.622 -1.23,-1c-0.374,-0.371 -0.709,-0.78 -1,-1.22c-0.584,-0.882 -1.027,-1.85 -1.31,-2.87c-0.141,-0.509 -0.248,-1.027 -0.32,-1.55c-0.063,-0.524 -0.097,-1.052 -0.1,-1.58c0.002,-0.528 0.039,-1.056 0.11,-1.58c0.069,-0.523 0.172,-1.041 0.31,-1.55c0.283,-1.016 0.725,-1.982 1.31,-2.86c0.297,-0.438 0.632,-0.85 1,-1.23c0.37,-0.379 0.783,-0.715 1.23,-1c0.443,-0.28 0.92,-0.502 1.42,-0.66c0.506,-0.151 1.032,-0.228 1.56,-0.23c0.526,0 1.049,0.081 1.55,0.24c0.503,0.153 0.984,0.371 1.43,0.65c0.444,0.285 0.854,0.621 1.22,1c0.371,0.375 0.706,0.783 1,1.22c0.581,0.883 1.02,1.851 1.3,2.87c0.286,1.02 0.437,2.072 0.45,3.13Zm-0.14,0c0.004,-1.044 -0.134,-2.083 -0.41,-3.09c-0.266,-1.011 -0.691,-1.973 -1.26,-2.85c-0.293,-0.438 -0.628,-0.847 -1,-1.22c-0.365,-0.376 -0.771,-0.712 -1.21,-1c-0.437,-0.282 -0.911,-0.501 -1.41,-0.65c-0.494,-0.16 -1.01,-0.241 -1.53,-0.24c-0.523,0 -1.042,0.081 -1.54,0.24c-0.498,0.151 -0.972,0.37 -1.41,0.65c-0.437,0.286 -0.84,0.621 -1.2,1c-0.37,0.376 -0.704,0.784 -1,1.22c-0.84,1.326 -1.373,2.822 -1.56,4.38c-0.133,1.036 -0.133,2.084 0,3.12c0.064,0.517 0.165,1.028 0.3,1.53c0.272,1.009 0.697,1.97 1.26,2.85c0.299,0.434 0.633,0.842 1,1.22c0.364,0.375 0.766,0.71 1.2,1c0.439,0.282 0.913,0.504 1.41,0.66c0.5,0.151 1.018,0.229 1.54,0.23c0.519,-0.001 1.034,-0.079 1.53,-0.23c0.496,-0.154 0.97,-0.373 1.41,-0.65c0.438,-0.285 0.84,-0.621 1.2,-1c0.372,-0.373 0.707,-0.782 1,-1.22c0.565,-0.879 0.99,-1.84 1.26,-2.85c0.281,-1.009 0.422,-2.052 0.42,-3.1Z" style="fill:url(#_Linear14);fill-rule:nonzero;"/><path d="M369.83,192.199c-0.552,0 -1.101,-0.08 -1.63,-0.24c-0.521,-0.164 -1.019,-0.396 -1.48,-0.69c-0.462,-0.281 -0.888,-0.617 -1.27,-1c-0.372,-0.387 -0.707,-0.809 -1,-1.26c-0.593,-0.902 -1.045,-1.891 -1.34,-2.93c-0.282,-1.043 -0.426,-2.119 -0.43,-3.2c0.002,-0.538 0.038,-1.076 0.11,-1.61c0.07,-0.533 0.177,-1.061 0.32,-1.58c0.293,-1.043 0.745,-2.035 1.34,-2.94c0.293,-0.447 0.628,-0.866 1,-1.25c0.385,-0.379 0.811,-0.715 1.27,-1c0.464,-0.29 0.965,-0.515 1.49,-0.67c1.054,-0.333 2.186,-0.333 3.24,0c0.523,0.156 1.021,0.385 1.48,0.68c0.462,0.282 0.888,0.617 1.27,1c0.375,0.385 0.71,0.807 1,1.26c0.603,0.897 1.056,1.887 1.34,2.93c0.286,1.039 0.431,2.112 0.43,3.19c0.002,1.078 -0.143,2.151 -0.43,3.19c-0.285,1.044 -0.734,2.037 -1.33,2.94c-0.292,0.451 -0.627,0.873 -1,1.26c-0.383,0.378 -0.805,0.713 -1.26,1c-0.463,0.294 -0.964,0.523 -1.49,0.68c-0.529,0.16 -1.078,0.24 -1.63,0.24Zm0,-18.14c-0.498,0.003 -0.993,0.077 -1.47,0.22c-0.474,0.154 -0.927,0.366 -1.35,0.63c-0.423,0.289 -0.812,0.624 -1.16,1c-0.353,0.364 -0.668,0.763 -0.94,1.19c-0.555,0.852 -0.97,1.787 -1.23,2.77c-0.132,0.493 -0.233,0.994 -0.3,1.5c-0.063,0.508 -0.097,1.019 -0.1,1.53c0.003,0.512 0.036,1.023 0.1,1.53c0.067,0.506 0.168,1.007 0.3,1.5c0.266,0.984 0.681,1.922 1.23,2.78c0.275,0.423 0.59,0.818 0.94,1.18c0.347,0.362 0.737,0.681 1.16,0.95c0.418,0.272 0.873,0.484 1.35,0.63c0.953,0.307 1.978,0.307 2.93,0c0.476,-0.144 0.93,-0.353 1.35,-0.62c0.427,-0.283 0.817,-0.619 1.16,-1c0.354,-0.362 0.672,-0.757 0.95,-1.18c0.551,-0.857 0.966,-1.795 1.23,-2.78c0.533,-1.984 0.533,-4.075 0,-6.06c-0.262,-0.985 -0.677,-1.923 -1.23,-2.78c-0.275,-0.422 -0.589,-0.818 -0.94,-1.18c-0.348,-0.376 -0.737,-0.711 -1.16,-1c-0.426,-0.264 -0.883,-0.476 -1.36,-0.63c-0.476,-0.128 -0.967,-0.189 -1.46,-0.18Z" style="fill:url(#_Linear15);fill-rule:nonzero;"/><path d="M361.74,179.259l16.65,0l-16.65,0Z" style="fill:url(#_Linear16);fill-rule:nonzero;"/><path d="M370.06,179.549l-6.24,-0.01l-2.18,-0.02l-0.14,-0.15l-0.01,-0.11l0.01,-0.23l0.24,-0.01l4.16,-0.02l4.16,-0.01l6.25,0.02l2.32,0.02l0,0.48l-0.24,0.01l-4.16,0.02l-4.17,0.01Z" style="fill:url(#_Linear17);fill-rule:nonzero;"/><path d="M364.12,175.759l11.81,0l-11.81,0Z" style="fill:url(#_Linear18);fill-rule:nonzero;"/><path d="M370.12,176.049l-6.2,0l0,-0.49l12.33,0l0,0.42l-3.22,0l-2.91,0.07Z" style="fill:url(#_Linear19);fill-rule:nonzero;"/><path d="M361.02,182.759l2.26,0l-2.26,0Z" style="fill:url(#_Linear20);fill-rule:nonzero;"/><path d="M370.06,183.049l-6.78,-0.01l-2.5,-0.02l-0.01,-0.49l0.25,-0.01l4.52,-0.02l4.52,-0.01l6.79,0.02l2.36,0.02l0.15,0.14l-0.01,0.34l-0.24,0l-4.52,0.03l-4.53,0.01Z" style="fill:url(#_Linear21);fill-rule:nonzero;"/><path d="M361.74,186.259l16.65,0l-16.65,0Z" style="fill:url(#_Linear22);fill-rule:nonzero;"/><path d="M370.06,186.549l-6.24,-0.02l-2.18,-0.01l-0.14,-0.15l-0.01,-0.11l0.01,-0.23l0.24,-0.01l4.16,-0.03l4.16,0l6.25,0.02l2.32,0.02l0,0.48l-0.24,0l-4.16,0.03l-4.17,0.01Z" style="fill:url(#_Linear23);fill-rule:nonzero;"/><path d="M376.27,189.799l-11.82,0l11.82,-0.06l0,0.06Z" style="fill:url(#_Linear24);fill-rule:nonzero;"/><path d="M376.27,190.039l-11.82,0c-0.148,0 -0.27,-0.122 -0.27,-0.27c0,-0.148 0.122,-0.27 0.27,-0.27l11.82,0c0.148,0 0.27,0.122 0.27,0.27c0,0.148 -0.122,0.27 -0.27,0.27Z" style="fill:url(#_Linear25);fill-rule:nonzero;"/></g><g><path d="M397.93,115.559l-21.81,0c-1.646,0 -3,-1.354 -3,-3l0,-21.86c-0.004,-1.562 1.212,-2.88 2.77,-3l23.23,-1.89c0.089,-0.008 0.178,-0.012 0.267,-0.012c1.646,0 3,1.355 3,3c-0,0.068 -0.002,0.135 -0.007,0.202l-1.43,23.72c-0.085,1.593 -1.425,2.853 -3.02,2.84Z" style="fill:#e17842;fill-rule:nonzero;"/><path d="M379.25,111.309c-1.265,-0.005 -2.304,-1.045 -2.31,-2.31l0,-14.02c0.043,-0.36 0.352,-0.635 0.715,-0.635c0.363,-0 0.672,0.275 0.715,0.635l0,14c0,0.001 0,0.002 0,0.002c0,0.478 0.393,0.87 0.87,0.87c0.02,0 0.04,-0 0.06,-0.002l16.6,-1c0.46,-0.031 0.821,-0.419 0.82,-0.88l0,-13.71c0.002,-0.248 -0.104,-0.485 -0.29,-0.65c-0.179,-0.17 -0.425,-0.251 -0.67,-0.22l-13.81,1.37c-0.312,0.026 -0.586,0.223 -0.71,0.51c-0.13,0.285 -0.096,0.619 0.09,0.87l5.27,7.27c0.159,0.229 0.422,0.364 0.7,0.36c0.275,-0.001 0.534,-0.13 0.7,-0.35l5.8,-7.73c0.135,-0.179 0.346,-0.284 0.57,-0.284c0.392,0 0.714,0.323 0.714,0.714c0,0.155 -0.05,0.306 -0.144,0.43l-5.82,7.73c-0.43,0.594 -1.127,0.938 -1.86,0.92c-0.743,-0.008 -1.436,-0.383 -1.85,-1l-5.24,-7.22c-0.284,-0.393 -0.437,-0.866 -0.437,-1.352c0,-1.179 0.904,-2.179 2.077,-2.298l13.81,-1.35c0.646,-0.071 1.292,0.141 1.77,0.58c0.485,0.436 0.762,1.058 0.76,1.71l0,13.71c0.002,1.214 -0.958,2.232 -2.17,2.3l-16.59,1l-0.14,0.03Z" style="fill:url(#_Linear26);fill-rule:nonzero;"/></g><g><path d="M367.12,126.849l1.59,32.35c0.085,2.014 1.68,3.666 3.69,3.82l48.36,4.12c2.007,0.193 3.861,-1.16 4.29,-3.13c1.6,-7.13 5,-23.77 4,-34.78c-0.157,-1.843 -1.555,-3.357 -3.38,-3.66c-19.28,-3.12 -37.71,-4.4 -54.88,-3c-2.177,0.175 -3.83,2.102 -3.67,4.28Z" style="fill:url(#_Linear27);fill-rule:nonzero;"/><path d="M370.12,128.669l1.47,29.8c0.089,1.852 1.553,3.367 3.4,3.52l44.55,3.8c1.842,0.155 3.534,-1.086 3.94,-2.89c1.48,-6.56 4.57,-21.89 3.71,-32c-0.135,-1.706 -1.43,-3.109 -3.12,-3.38c-17.76,-2.88 -34.73,-4 -50.55,-2.71c-1.972,0.169 -3.482,1.883 -3.4,3.86Z" style="fill:url(#_Linear28);fill-rule:nonzero;"/><circle cx="382.13" cy="134.639" r="2.97" style="fill:#b4c5e4;"/><path d="M420.96,138.079c-0.109,0.015 -0.22,0.015 -0.33,0c-8.5,-2.12 -18.21,-2.79 -29.67,-2c-0.03,0.002 -0.06,0.003 -0.09,0.003c-0.748,0 -1.363,-0.615 -1.363,-1.363c0,-0.714 0.561,-1.313 1.273,-1.36c11.75,-0.77 21.73,-0.08 30.51,2.11c0.592,0.164 1.005,0.707 1.005,1.321c-0,0.738 -0.597,1.35 -1.335,1.369l0,-0.08Z" style="fill:#b4c5e4;fill-rule:nonzero;"/><path d="M419.75,145.049c-0.149,0.002 -0.298,-0.022 -0.44,-0.07c-11.42,-3.89 -28.1,-1.79 -28.27,-1.77c-0.091,0.019 -0.183,0.028 -0.275,0.028c-0.752,0 -1.37,-0.618 -1.37,-1.37c-0,-0.723 0.573,-1.328 1.295,-1.368c0.71,-0.09 17.49,-2.2 29.5,1.9c0.705,0.245 1.087,1.023 0.85,1.73c-0.185,0.552 -0.708,0.925 -1.29,0.92Z" style="fill:#b4c5e4;fill-rule:nonzero;"/><path d="M419.75,151.539c-0.149,0.002 -0.298,-0.022 -0.44,-0.07c-11.41,-3.89 -28.1,-1.8 -28.27,-1.77c-0.025,0.002 -0.05,0.002 -0.074,0.002c-0.752,0 -1.37,-0.618 -1.37,-1.37c-0,-0.648 0.459,-1.212 1.094,-1.342c0.71,-0.09 17.49,-2.2 29.5,1.89c0.707,0.249 1.088,1.03 0.85,1.74c-0.188,0.55 -0.709,0.922 -1.29,0.92Z" style="fill:#b4c5e4;fill-rule:nonzero;"/></g><g><path d="M234.12,88.659l0,12.32c0.004,1.452 1.16,2.661 2.61,2.73l15.38,0.72c0.043,0.002 0.087,0.003 0.13,0.003c1.498,0 2.73,-1.232 2.73,-2.73c0,-0.001 0,-0.002 0,-0.003l0,-13c0,-1.497 -1.232,-2.73 -2.73,-2.73l-15.39,0c-1.481,0.005 -2.703,1.21 -2.73,2.69Z" style="fill:#efb453;fill-rule:nonzero;"/><path d="M239.68,101.399l-0.5,0c-0.006,0 -0.011,0.001 -0.017,0.001c-0.247,-0 -0.45,-0.204 -0.45,-0.45c-0,-0.212 0.15,-0.397 0.357,-0.441c1.173,-0.362 2.316,-0.813 3.42,-1.35c-4.52,-0.37 -5.43,-2.69 -5.6,-3.76c-0.44,-2.68 1.88,-5.71 5.18,-6.75c3.3,-1.04 6.78,-0.69 8.69,1c1,0.88 2.12,2.57 1.6,5.62c-0.97,5.71 -9.86,6.13 -12.68,6.13Zm6.05,-3.06l-1.43,0.8c-0.933,0.508 -1.891,0.969 -2.87,1.38c3.49,-0.21 9.4,-1.19 10.12,-5.42c0.36,-2.14 -0.08,-3.78 -1.33,-4.86c-1.93,-1.69 -5.36,-1.63 -7.9,-0.82c-2.87,0.91 -5,3.59 -4.62,5.84c0.34,2 2.67,3.19 6.39,3.11l1.64,-0.03Z" style="fill:url(#_Linear29);fill-rule:nonzero;"/></g></g></g><defs><linearGradient id="_Linear1" x1="0" y1="0" x2="1" y2="0" gradientUnits="userSpaceOnUse" gradientTransform="matrix(31.23,0,0,31.23,395.52,197.229)"><stop offset="0" style="stop-color:#4359a3;stop-opacity:1"/><stop offset="1" style="stop-color:#4b5fa6;stop-opacity:1"/></linearGradient><linearGradient id="_Linear2" x1="0" y1="0" x2="1" y2="0" gradientUnits="userSpaceOnUse" gradientTransform="matrix(18.105,0,0,18.105,1784.83,821.855)"><stop offset="0" style="stop-color:#e6e7e8;stop-opacity:1"/><stop offset="1" style="stop-color:#fff;stop-opacity:1"/></linearGradient><linearGradient id="_Linear3" x1="0" y1="0" x2="1" y2="0" gradientUnits="userSpaceOnUse" gradientTransform="matrix(45.9458,0,0,45.9458,2649.07,1178.76)"><stop offset="0" style="stop-color:#e6e7e8;stop-opacity:1"/><stop offset="1" style="stop-color:#fff;stop-opacity:1"/></linearGradient><linearGradient id="_Linear4" x1="0" y1="0" x2="1" y2="0" gradientUnits="userSpaceOnUse" gradientTransform="matrix(112.325,0,0,112.325,3945.34,1595.98)"><stop offset="0" style="stop-color:#e6e7e8;stop-opacity:1"/><stop offset="1" style="stop-color:#fff;stop-opacity:1"/></linearGradient><linearGradient id="_Linear5" x1="0" y1="0" x2="1" y2="0" gradientUnits="userSpaceOnUse" gradientTransform="matrix(207.146,0,0,207.146,5230.23,2005.09)"><stop offset="0" style="stop-color:#e6e7e8;stop-opacity:1"/><stop offset="1" style="stop-color:#fff;stop-opacity:1"/></linearGradient><linearGradient id="_Linear6" x1="0" y1="0" x2="1" y2="0" gradientUnits="userSpaceOnUse" gradientTransform="matrix(0.71,0,0,0.71,368.57,217.039)"><stop offset="0" style="stop-color:#f9e4cd;stop-opacity:1"/><stop offset="1" style="stop-color:#fff;stop-opacity:1"/></linearGradient><linearGradient id="_Linear7" x1="0" y1="0" x2="1" y2="0" gradientUnits="userSpaceOnUse" gradientTransform="matrix(22.079,0,0,22.079,2088.18,1820.78)"><stop offset="0" style="stop-color:#f9e4cd;stop-opacity:1"/><stop offset="1" style="stop-color:#fff;stop-opacity:1"/></linearGradient><linearGradient id="_Linear8" x1="0" y1="0" x2="1" y2="0" gradientUnits="userSpaceOnUse" gradientTransform="matrix(0.16062,0,0,0.16062,490.774,906.855)"><stop offset="0" style="stop-color:#f9e4cd;stop-opacity:1"/><stop offset="1" style="stop-color:#fff;stop-opacity:1"/></linearGradient><linearGradient id="_Linear9" x1="0" y1="0" x2="1" y2="0" gradientUnits="userSpaceOnUse" gradientTransform="matrix(35.4711,0,0,35.4711,2442.36,1370.6)"><stop offset="0" style="stop-color:#f9e4cd;stop-opacity:1"/><stop offset="1" style="stop-color:#fff;stop-opacity:1"/></linearGradient><linearGradient id="_Linear10" x1="0" y1="0" x2="1" y2="0" gradientUnits="userSpaceOnUse" gradientTransform="matrix(32.8398,0,0,32.8398,2417.36,1582.77)"><stop offset="0" style="stop-color:#f9e4cd;stop-opacity:1"/><stop offset="1" style="stop-color:#fff;stop-opacity:1"/></linearGradient><linearGradient id="_Linear11" x1="0" y1="0" x2="1" y2="0" gradientUnits="userSpaceOnUse" gradientTransform="matrix(457.061,0,0,457.061,8104.21,4264.56)"><stop offset="0" style="stop-color:#f9e4cd;stop-opacity:1"/><stop offset="1" style="stop-color:#fff;stop-opacity:1"/></linearGradient><linearGradient id="_Linear12" x1="0" y1="0" x2="1" y2="0" gradientUnits="userSpaceOnUse" gradientTransform="matrix(26.116,0,0,26.116,2260.61,3890.89)"><stop offset="0" style="stop-color:#f9e4cd;stop-opacity:1"/><stop offset="1" style="stop-color:#fff;stop-opacity:1"/></linearGradient><linearGradient id="_Linear13" x1="0" y1="0" x2="1" y2="0" gradientUnits="userSpaceOnUse" gradientTransform="matrix(31.0831,0,0,31.0831,2425.64,3989.01)"><stop offset="0" style="stop-color:#f9e4cd;stop-opacity:1"/><stop offset="1" style="stop-color:#fff;stop-opacity:1"/></linearGradient><linearGradient id="_Linear14" x1="0" y1="0" x2="1" y2="0" gradientUnits="userSpaceOnUse" gradientTransform="matrix(192.654,0,0,192.654,5443.42,3906.66)"><stop offset="0" style="stop-color:#f9e4cd;stop-opacity:1"/><stop offset="1" style="stop-color:#fff;stop-opacity:1"/></linearGradient><linearGradient id="_Linear15" x1="0" y1="0" x2="1" y2="0" gradientUnits="userSpaceOnUse" gradientTransform="matrix(204.919,0,0,204.919,5586.11,3988.66)"><stop offset="0" style="stop-color:#f9e4cd;stop-opacity:1"/><stop offset="1" style="stop-color:#fff;stop-opacity:1"/></linearGradient><linearGradient id="_Linear16" x1="0" y1="0" x2="1" y2="0" gradientUnits="userSpaceOnUse" gradientTransform="matrix(2e-06,0,0,2e-06,-5709.18,179.259)"><stop offset="0" style="stop-color:#f9e4cd;stop-opacity:1"/><stop offset="1" style="stop-color:#fff;stop-opacity:1"/></linearGradient><linearGradient id="_Linear17" x1="0" y1="0" x2="1" y2="0" gradientUnits="userSpaceOnUse" gradientTransform="matrix(293.78,0,0,293.78,6606.79,291.712)"><stop offset="0" style="stop-color:#f9e4cd;stop-opacity:1"/><stop offset="1" style="stop-color:#fff;stop-opacity:1"/></linearGradient><linearGradient id="_Linear18" x1="0" y1="0" x2="1" y2="0" gradientUnits="userSpaceOnUse" gradientTransform="matrix(2e-06,0,0,2e-06,-3970.15,175.759)"><stop offset="0" style="stop-color:#f9e4cd;stop-opacity:1"/><stop offset="1" style="stop-color:#fff;stop-opacity:1"/></linearGradient><linearGradient id="_Linear19" x1="0" y1="0" x2="1" y2="0" gradientUnits="userSpaceOnUse" gradientTransform="matrix(151.782,0,0,151.782,4886.44,272.476)"><stop offset="0" style="stop-color:#f9e4cd;stop-opacity:1"/><stop offset="1" style="stop-color:#fff;stop-opacity:1"/></linearGradient><linearGradient id="_Linear20" x1="0" y1="0" x2="1" y2="0" gradientUnits="userSpaceOnUse" gradientTransform="matrix(2e-06,0,0,2e-06,-461.394,182.759)"><stop offset="0" style="stop-color:#f9e4cd;stop-opacity:1"/><stop offset="1" style="stop-color:#fff;stop-opacity:1"/></linearGradient><linearGradient id="_Linear21" x1="0" y1="0" x2="1" y2="0" gradientUnits="userSpaceOnUse" gradientTransform="matrix(345.588,0,0,345.588,7121.02,297.172)"><stop offset="0" style="stop-color:#f9e4cd;stop-opacity:1"/><stop offset="1" style="stop-color:#fff;stop-opacity:1"/></linearGradient><linearGradient id="_Linear22" x1="0" y1="0" x2="1" y2="0" gradientUnits="userSpaceOnUse" gradientTransform="matrix(2e-06,0,0,2e-06,-5709.18,186.259)"><stop offset="0" style="stop-color:#f9e4cd;stop-opacity:1"/><stop offset="1" style="stop-color:#fff;stop-opacity:1"/></linearGradient><linearGradient id="_Linear23" x1="0" y1="0" x2="1" y2="0" gradientUnits="userSpaceOnUse" gradientTransform="matrix(293.78,0,0,293.78,6606.79,302.632)"><stop offset="0" style="stop-color:#f9e4cd;stop-opacity:1"/><stop offset="1" style="stop-color:#fff;stop-opacity:1"/></linearGradient><linearGradient id="_Linear24" x1="0" y1="0" x2="1" y2="0" gradientUnits="userSpaceOnUse" gradientTransform="matrix(140.422,0,0,140.422,4705.94,202.447)"><stop offset="0" style="stop-color:#f9e4cd;stop-opacity:1"/><stop offset="1" style="stop-color:#fff;stop-opacity:1"/></linearGradient><linearGradient id="_Linear25" x1="0" y1="0" x2="1" y2="0" gradientUnits="userSpaceOnUse" gradientTransform="matrix(152.77,0,0,152.77,4901.04,303.866)"><stop offset="0" style="stop-color:#f9e4cd;stop-opacity:1"/><stop offset="1" style="stop-color:#fff;stop-opacity:1"/></linearGradient><linearGradient id="_Linear26" x1="0" y1="0" x2="1" y2="0" gradientUnits="userSpaceOnUse" gradientTransform="matrix(449.864,0,0,449.864,8432.93,2483.8)"><stop offset="0" style="stop-color:#f9e4cd;stop-opacity:1"/><stop offset="1" style="stop-color:#fff;stop-opacity:1"/></linearGradient><linearGradient id="_Linear27" x1="0" y1="0" x2="1" y2="0" gradientUnits="userSpaceOnUse" gradientTransform="matrix(3858.99,0,0,3858.99,23350.2,7644.89)"><stop offset="0" style="stop-color:#4359a3;stop-opacity:1"/><stop offset="1" style="stop-color:#4b5fa6;stop-opacity:1"/></linearGradient><linearGradient id="_Linear28" x1="0" y1="0" x2="1" y2="0" gradientUnits="userSpaceOnUse" gradientTransform="matrix(3274.23,0,0,3274.23,21711.5,7060.04)"><stop offset="0" style="stop-color:#4359a3;stop-opacity:1"/><stop offset="1" style="stop-color:#4b5fa6;stop-opacity:1"/></linearGradient><linearGradient id="_Linear29" x1="0" y1="0" x2="1" y2="0" gradientUnits="userSpaceOnUse" gradientTransform="matrix(15.65,0,0,15.65,236.84,94.7192)"><stop offset="0" style="stop-color:#e6e7e8;stop-opacity:1"/><stop offset="1" style="stop-color:#fff;stop-opacity:1"/></linearGradient></defs></svg>