<?xml version="1.0" encoding="UTF-8" standalone="no"?><!DOCTYPE svg PUBLIC "-//W3C//DTD SVG 1.1//EN" "http://www.w3.org/Graphics/SVG/1.1/DTD/svg11.dtd"><svg width="100%" height="100%" viewBox="0 0 490 374" version="1.1" xmlns="http://www.w3.org/2000/svg" xmlns:xlink="http://www.w3.org/1999/xlink" xml:space="preserve" xmlns:serif="http://www.serif.com/" style="fill-rule:evenodd;clip-rule:evenodd;stroke-linejoin:round;stroke-miterlimit:2;"><g><g><g><path d="M116.27,86.409c-0.131,0.001 -0.254,-0.063 -0.33,-0.17c-0.28,-0.43 -0.58,-0.85 -0.88,-1.26c-0.062,-0.071 -0.097,-0.162 -0.097,-0.257c0,-0.214 0.176,-0.39 0.39,-0.39c0.132,0 0.255,0.067 0.327,0.177c0.32,0.42 0.62,0.86 0.91,1.29c0.119,0.182 0.07,0.428 -0.11,0.55c-0.063,0.04 -0.136,0.061 -0.21,0.06Z" style="fill:#7789a7;fill-rule:nonzero;"/><path d="M90.67,134.189l-1,0c-0.214,0 -0.39,-0.176 -0.39,-0.39c0,-0.214 0.176,-0.39 0.39,-0.39l1,0c0.72,0 1.45,0 2.17,-0.08c0.214,0 0.39,0.176 0.39,0.39c0,0.214 -0.176,0.39 -0.39,0.39c-0.72,0.05 -1.43,0.08 -2.17,0.08Zm7.34,-0.9c-0.178,0.005 -0.338,-0.116 -0.38,-0.29c-0.009,-0.032 -0.013,-0.066 -0.013,-0.1c-0,-0.176 0.122,-0.33 0.293,-0.37l1.26,-0.34c0.6,-0.18 1.19,-0.37 1.77,-0.58c0.043,-0.016 0.089,-0.024 0.135,-0.024c0.216,0 0.394,0.178 0.394,0.394c-0,0.165 -0.104,0.314 -0.259,0.37c-0.6,0.21 -1.21,0.41 -1.82,0.59c-0.43,0.12 -0.86,0.24 -1.29,0.34l-0.09,0.01Zm7.8,-3.08c-0.14,-0.002 -0.27,-0.078 -0.34,-0.2c-0.035,-0.058 -0.053,-0.125 -0.053,-0.193c0,-0.141 0.078,-0.271 0.203,-0.337c0.91,-0.52 1.81,-1.09 2.67,-1.7c0.072,-0.066 0.166,-0.102 0.264,-0.102c0.214,-0 0.39,0.176 0.39,0.39c-0,0.142 -0.079,0.274 -0.204,0.342c-0.88,0.63 -1.8,1.21 -2.74,1.75c-0.059,0.031 -0.124,0.048 -0.19,0.05Zm6.67,-5.09c-0.103,0.001 -0.201,-0.043 -0.27,-0.12c-0.075,-0.071 -0.118,-0.171 -0.118,-0.275c0,-0.104 0.043,-0.203 0.118,-0.275c0.743,-0.751 1.447,-1.538 2.11,-2.36c0.074,-0.092 0.187,-0.146 0.305,-0.146c0.215,-0 0.391,0.177 0.391,0.391c0,0.089 -0.03,0.176 -0.086,0.245c-0.68,0.84 -1.4,1.65 -2.16,2.42c-0.075,0.079 -0.181,0.123 -0.29,0.12Zm5,-6.71c-0.066,-0.002 -0.131,-0.019 -0.19,-0.05c-0.182,-0.108 -0.248,-0.342 -0.15,-0.53c0.515,-0.922 0.982,-1.87 1.4,-2.84c0.082,-0.197 0.313,-0.292 0.51,-0.21c0.194,0.087 0.287,0.313 0.21,0.51c-0.427,0.999 -0.908,1.973 -1.44,2.92c-0.06,0.113 -0.173,0.188 -0.3,0.2l-0.04,0Zm3.1,-7.82l-0.14,0c-0.171,-0.04 -0.293,-0.194 -0.293,-0.37c-0,-0.034 0.004,-0.067 0.013,-0.1c0.245,-1.026 0.435,-2.064 0.57,-3.11c0.024,-0.195 0.191,-0.343 0.387,-0.343c0.018,-0 0.036,0.001 0.053,0.003c0.212,0.031 0.364,0.227 0.34,0.44c-0.145,1.073 -0.345,2.138 -0.6,3.19c-0.037,0.157 -0.17,0.273 -0.33,0.29Zm0.77,-8.36c-0.206,0 -0.379,-0.163 -0.39,-0.37c-0.041,-1.054 -0.138,-2.106 -0.29,-3.15c-0.029,-0.211 0.119,-0.409 0.33,-0.44c0.021,-0.003 0.042,-0.005 0.063,-0.005c0.191,0 0.355,0.145 0.377,0.335c0.16,1.07 0.261,2.149 0.3,3.23c0,0.007 0.001,0.014 0.001,0.02c-0,0.205 -0.166,0.375 -0.371,0.38l-0.02,0Zm-1.44,-8.25c-0.168,-0 -0.318,-0.11 -0.37,-0.27c-0.32,-1.02 -0.697,-2.022 -1.13,-3c-0.078,-0.195 0.01,-0.42 0.2,-0.51c0.051,-0.023 0.106,-0.035 0.162,-0.035c0.155,-0 0.297,0.093 0.358,0.235c0.434,0.98 0.818,1.981 1.15,3c0.014,0.041 0.022,0.083 0.022,0.126c-0,0.168 -0.111,0.316 -0.272,0.364c-0.03,0.042 -0.072,0.073 -0.12,0.09Z" style="fill:#7789a7;fill-rule:nonzero;"/><path d="M84.47,133.549l-0.08,0c-0.51,-0.11 -1,-0.23 -1.54,-0.36c-0.205,-0.058 -0.327,-0.274 -0.27,-0.48c0.04,-0.171 0.194,-0.293 0.37,-0.293c0.034,-0 0.068,0.004 0.1,0.013c0.49,0.13 1,0.25 1.5,0.35c0.177,0.041 0.303,0.199 0.303,0.38c-0,0.211 -0.172,0.386 -0.383,0.39Z" style="fill:#7789a7;fill-rule:nonzero;"/><path d="M64.53,119.609c-0.135,-0.001 -0.26,-0.074 -0.33,-0.19c-0.28,-0.44 -0.55,-0.9 -0.8,-1.36c-0.032,-0.058 -0.049,-0.123 -0.049,-0.19c0,-0.216 0.178,-0.394 0.394,-0.394c0.143,0 0.276,0.079 0.345,0.204c0.24,0.45 0.5,0.9 0.77,1.33c0.039,0.062 0.059,0.133 0.059,0.206c-0,0.137 -0.072,0.264 -0.189,0.334c-0.059,0.04 -0.129,0.06 -0.2,0.06Z" style="fill:#7789a7;fill-rule:nonzero;"/><path d="M61.66,113.579c-0.165,-0.002 -0.312,-0.105 -0.37,-0.26c-0.17,-0.51 -0.34,-1 -0.49,-1.55c-0.15,-0.55 -0.28,-1 -0.4,-1.52c-0.007,-0.029 -0.01,-0.059 -0.01,-0.09c-0,-0.214 0.176,-0.39 0.39,-0.39c0.181,-0 0.339,0.125 0.38,0.3c0.11,0.49 0.25,1 0.39,1.48c0.14,0.48 0.31,1 0.48,1.51c0.067,0.203 -0.04,0.426 -0.24,0.5l-0.13,0.02Zm-1.65,-8.09c-0.206,0 -0.379,-0.163 -0.39,-0.37c0,-0.68 -0.07,-1.38 -0.07,-2.08l0,-1.11c0.005,-0.21 0.18,-0.38 0.39,-0.38c0.003,0 0.007,0 0.01,0c0.216,0.011 0.386,0.194 0.38,0.41l0,1.08c0,0.68 0,1.36 0.07,2c0.012,0.216 -0.154,0.404 -0.37,0.42l-0.02,0.03Zm0.56,-8.24l-0.08,0c-0.208,-0.045 -0.343,-0.251 -0.3,-0.46c0.215,-1.044 0.485,-2.075 0.81,-3.09c0.035,-0.183 0.197,-0.317 0.383,-0.317c0.214,-0 0.39,0.176 0.39,0.39c0,0.054 -0.011,0.108 -0.033,0.157c-0.313,0.986 -0.577,1.988 -0.79,3c-0.033,0.183 -0.194,0.318 -0.38,0.32Zm2.74,-7.79c-0.056,0.015 -0.114,0.015 -0.17,0c-0.131,-0.063 -0.214,-0.196 -0.214,-0.342c-0,-0.062 0.015,-0.123 0.044,-0.178c0.483,-0.952 1.017,-1.876 1.6,-2.77c0.052,-0.148 0.192,-0.249 0.35,-0.249c0.071,0 0.14,0.021 0.2,0.059c0.115,0.069 0.186,0.193 0.186,0.327c-0,0.076 -0.023,0.15 -0.066,0.213c-0.566,0.869 -1.087,1.767 -1.56,2.69c-0.056,0.154 -0.206,0.256 -0.37,0.25Zm4.71,-6.79c-0.096,0 -0.189,-0.036 -0.26,-0.1c-0.075,-0.071 -0.118,-0.171 -0.118,-0.275c0,-0.104 0.043,-0.203 0.118,-0.275c0.717,-0.786 1.474,-1.534 2.27,-2.24c0.069,-0.056 0.156,-0.086 0.245,-0.086c0.214,-0 0.39,0.176 0.39,0.39c0,0.103 -0.041,0.203 -0.115,0.276c-0.777,0.692 -1.518,1.423 -2.22,2.19c-0.081,0.083 -0.194,0.127 -0.31,0.12Zm6.35,-5.28c-0.134,0.003 -0.259,-0.066 -0.33,-0.18c-0.04,-0.063 -0.061,-0.136 -0.061,-0.21c-0,-0.134 0.068,-0.258 0.181,-0.33c0.9,-0.56 1.84,-1.08 2.79,-1.55c0.055,-0.028 0.116,-0.043 0.178,-0.043c0.15,0 0.288,0.087 0.352,0.223c0.087,0.193 0.008,0.423 -0.18,0.52c-0.936,0.454 -1.848,0.958 -2.73,1.51c-0.059,0.04 -0.129,0.06 -0.2,0.06Zm7.53,-3.41c-0.014,0.002 -0.029,0.003 -0.043,0.003c-0.214,-0 -0.39,-0.176 -0.39,-0.39c-0,-0.186 0.131,-0.347 0.313,-0.383l0.19,0c0.961,-0.283 1.936,-0.516 2.92,-0.7c0.039,-0.013 0.081,-0.019 0.122,-0.019c0.214,-0 0.39,0.176 0.39,0.39c0,0.207 -0.165,0.38 -0.372,0.389c-0.958,0.181 -1.906,0.411 -2.84,0.69l-0.18,0l-0.11,0.02Zm11.31,-1.19c-1.037,-0.088 -2.079,-0.121 -3.12,-0.1c-0.007,0.001 -0.013,0.001 -0.02,0.001c-0.208,-0 -0.38,-0.172 -0.38,-0.38c0,-0 0,-0.001 0,-0.001c0.005,-0.214 0.177,-0.389 0.39,-0.4c1.064,-0.021 2.129,0.012 3.19,0.1c0.21,0.026 0.367,0.209 0.36,0.42c-0.005,0.211 -0.179,0.381 -0.39,0.381c-0.01,0 -0.02,-0 -0.03,-0.001l0,-0.02Z" style="fill:#7789a7;fill-rule:nonzero;"/><path d="M99.77,74.089l-0.11,0c-0.49,-0.15 -1,-0.29 -1.48,-0.42c-0.149,-0.058 -0.247,-0.203 -0.247,-0.363c0,-0.214 0.176,-0.39 0.39,-0.39c0.016,0 0.032,0.001 0.047,0.003c0.51,0.13 1,0.27 1.52,0.43c0.202,0.062 0.318,0.277 0.26,0.48c-0.061,0.156 -0.212,0.26 -0.38,0.26Z" style="fill:#7789a7;fill-rule:nonzero;"/><path d="M100.45,81.569c-0.129,-0.088 -0.301,-0.088 -0.43,0l-3.41,2.91c-2.031,-0.634 -4.152,-0.935 -6.28,-0.89l-2.47,-3.74c-0.087,-0.131 -0.247,-0.194 -0.4,-0.16l-5.22,1.34c-0.15,0.042 -0.259,0.175 -0.27,0.33l-0.36,4.47c-1.881,0.989 -3.59,2.275 -5.06,3.81l-4.4,-0.9c-0.155,-0.032 -0.314,0.041 -0.39,0.18l-2.74,4.66c-0.089,0.129 -0.089,0.301 0,0.43l2.91,3.42c-0.634,2.028 -0.935,4.146 -0.89,6.27l-3.74,2.48c-0.131,0.082 -0.196,0.24 -0.16,0.39l1.34,5.22c0.046,0.15 0.175,0.26 0.33,0.28l4.47,0.36c0.998,1.884 2.295,3.593 3.84,5.06l-0.9,4.4c-0.029,0.155 0.043,0.312 0.18,0.39l4.63,2.7c0.129,0.089 0.301,0.089 0.43,0l3.42,-2.91c2.016,0.642 4.124,0.95 6.24,0.91l2.48,3.75c0.083,0.13 0.242,0.192 0.39,0.15l5.22,-1.34c0.151,-0.043 0.262,-0.174 0.28,-0.33l0.36,-4.47c1.884,-0.985 3.593,-2.272 5.06,-3.81l4.4,0.9c0.152,0.028 0.307,-0.039 0.39,-0.17l2.74,-4.64c0.089,-0.129 0.089,-0.301 0,-0.43l-2.91,-3.41c0.639,-2.03 0.939,-4.152 0.89,-6.28l3.75,-2.47c0.13,-0.088 0.19,-0.249 0.15,-0.4l-1.34,-5.22c-0.039,-0.152 -0.173,-0.262 -0.33,-0.27l-4.47,-0.36c-0.985,-1.883 -2.272,-3.593 -3.81,-5.06l0.9,-4.4c0.031,-0.152 -0.037,-0.309 -0.17,-0.39l-4.65,-2.76Z" style="fill:#98a1b2;fill-rule:nonzero;"/><path d="M90.75,108.659c-1.964,-0 -3.778,-1.076 -4.72,-2.8c-0.685,-1.246 -0.843,-2.716 -0.44,-4.08c0.404,-1.365 1.332,-2.516 2.58,-3.2c0.788,-0.429 1.671,-0.653 2.568,-0.653c2.946,-0 5.37,2.424 5.37,5.37c-0,0.512 -0.073,1.022 -0.218,1.513c-0.676,2.269 -2.772,3.839 -5.14,3.85Zm-2,-9.05c-1.342,0.737 -2.18,2.151 -2.18,3.682c0,1.856 1.23,3.502 3.01,4.028c0.376,0.108 0.766,0.163 1.157,0.163c2.304,-0 4.2,-1.896 4.2,-4.2c-0,-0.684 -0.167,-1.358 -0.487,-1.963c-1.109,-2.017 -3.678,-2.769 -5.7,-1.67l0,-0.04Z" style="fill:url(#_Linear1);fill-rule:nonzero;"/><path d="M90.69,116.979c-0.01,0 -0.019,0 -0.029,0c-7.45,0 -13.58,-6.13 -13.58,-13.58c0,-6.189 4.231,-11.633 10.229,-13.16l0.07,0c0.767,-0.196 1.55,-0.323 2.34,-0.38l0.45,0l0,1.17c-0.884,0.041 -1.762,0.171 -2.62,0.39c-2.906,0.741 -5.444,2.52 -7.13,5c-0.16,0.24 -0.32,0.48 -0.46,0.72c-1.133,1.903 -1.73,4.076 -1.73,6.29c0.001,1.052 0.132,2.1 0.39,3.12c1.405,5.469 6.373,9.324 12.02,9.324c6.808,-0 12.41,-5.603 12.41,-12.41c0,-0.005 0,-0.009 0,-0.014c0.002,-1.042 -0.129,-2.081 -0.39,-3.09c-0.559,-2.171 -1.696,-4.152 -3.29,-5.73l0.82,-0.83c2.545,2.546 3.976,6.001 3.976,9.601c-0,7.41 -6.066,13.522 -13.476,13.579Z" style="fill:url(#_Linear2);fill-rule:nonzero;"/><path d="M68.12,125.559c-0.14,-0.002 -0.27,-0.078 -0.34,-0.2c-0.245,-0.438 -0.519,-0.858 -0.82,-1.26c-0.051,-0.068 -0.078,-0.15 -0.078,-0.235c0,-0.215 0.178,-0.393 0.393,-0.393c0.124,0 0.241,0.059 0.315,0.158c0.318,0.432 0.608,0.883 0.87,1.35c0.106,0.184 0.043,0.422 -0.14,0.53c-0.06,0.035 -0.13,0.053 -0.2,0.05Z" style="fill:#7789a7;fill-rule:nonzero;"/><path d="M60.19,144.119c-0.004,0 -0.009,0 -0.013,0c-0.214,0 -0.39,-0.176 -0.39,-0.39c-0,-0.181 0.126,-0.339 0.303,-0.38l0.42,-0.11c0.78,-0.232 1.537,-0.536 2.26,-0.91c0.074,-0.079 0.178,-0.124 0.286,-0.124c0.214,-0 0.39,0.176 0.39,0.39c-0,0.189 -0.139,0.353 -0.326,0.384c-0.766,0.41 -1.57,0.745 -2.4,1l-0.44,0.12l-0.09,0.02Zm6.5,-4c-0.091,0.001 -0.18,-0.031 -0.25,-0.09c-0.15,-0.151 -0.15,-0.399 0,-0.55c0.622,-0.73 1.158,-1.529 1.6,-2.38c0.097,-0.188 0.331,-0.264 0.52,-0.17c0.189,0.101 0.265,0.338 0.17,0.53c-0.469,0.902 -1.04,1.747 -1.7,2.52c-0.09,0.087 -0.216,0.127 -0.34,0.11l0,0.03Zm3,-7c-0.199,-0.019 -0.352,-0.188 -0.352,-0.388c-0,-0.014 0.001,-0.028 0.002,-0.042c0.04,-0.395 0.06,-0.792 0.06,-1.19c-0.002,-0.558 -0.039,-1.116 -0.11,-1.67c-0.006,-0.028 -0.01,-0.057 -0.01,-0.087c0,-0.214 0.176,-0.39 0.39,-0.39c0.209,0 0.383,0.168 0.39,0.377c0.08,0.587 0.12,1.178 0.12,1.77c0,0.42 0,0.85 -0.06,1.27c-0.052,0.183 -0.231,0.302 -0.42,0.28l-0.01,0.07Z" style="fill:#7789a7;fill-rule:nonzero;"/><path d="M55.41,144.399l-0.06,0c-0.529,-0.069 -1.054,-0.173 -1.57,-0.31c-0.195,-0.023 -0.343,-0.191 -0.343,-0.387c0,-0.214 0.176,-0.39 0.39,-0.39c0.049,0 0.098,0.009 0.143,0.027c0.492,0.122 0.989,0.219 1.49,0.29c0.179,0.039 0.308,0.198 0.308,0.382c0,0.201 -0.157,0.372 -0.358,0.388Z" style="fill:#7789a7;fill-rule:nonzero;"/><path d="M46.27,138.489c-0.134,0.003 -0.259,-0.066 -0.33,-0.18c-0.28,-0.458 -0.534,-0.932 -0.76,-1.42c-0.024,-0.052 -0.037,-0.108 -0.037,-0.166c0,-0.152 0.089,-0.29 0.227,-0.354c0.195,-0.086 0.426,-0.001 0.52,0.19c0.211,0.46 0.448,0.908 0.71,1.34c0.038,0.061 0.058,0.131 0.058,0.202c0,0.135 -0.072,0.26 -0.188,0.328c-0.059,0.04 -0.129,0.06 -0.2,0.06Z" style="fill:#7789a7;fill-rule:nonzero;"/><path d="M44.39,132.549c-0.205,-0.004 -0.375,-0.166 -0.39,-0.37l0,-0.76c0.004,-0.747 0.067,-1.493 0.19,-2.23c0.035,-0.183 0.197,-0.317 0.383,-0.317c0.026,-0 0.052,0.002 0.077,0.007c0.183,0.031 0.318,0.19 0.318,0.375c-0,0.025 -0.003,0.05 -0.008,0.075c-0.12,0.69 -0.18,1.39 -0.18,2.09l0,0.72c0.001,0.01 0.001,0.021 0.001,0.031c0,0.201 -0.16,0.369 -0.361,0.379l-0.03,0Zm1.82,-7.3c-0.071,0 -0.141,-0.02 -0.2,-0.06c-0.12,-0.067 -0.195,-0.194 -0.195,-0.332c-0,-0.07 0.019,-0.138 0.055,-0.198c0.519,-0.856 1.133,-1.651 1.83,-2.37c0.074,-0.089 0.184,-0.14 0.3,-0.14c0.214,-0 0.39,0.176 0.39,0.39c-0,0.111 -0.047,0.216 -0.13,0.29c-0.655,0.676 -1.232,1.424 -1.72,2.23c-0.069,0.116 -0.194,0.189 -0.33,0.19Zm5.62,-5c-0.153,0.003 -0.292,-0.088 -0.35,-0.23c-0.085,-0.192 0,-0.42 0.19,-0.51c0.564,-0.255 1.146,-0.468 1.74,-0.64c0.36,-0.11 0.74,-0.2 1.11,-0.28c0.211,-0.037 0.415,0.101 0.46,0.31c0.005,0.025 0.008,0.051 0.008,0.077c-0,0.187 -0.134,0.349 -0.318,0.383c-0.35,0.07 -0.7,0.16 -1,0.26c-0.557,0.161 -1.101,0.362 -1.63,0.6c-0.066,0.028 -0.138,0.039 -0.21,0.03Z" style="fill:#7789a7;fill-rule:nonzero;"/><path d="M60.82,119.689l-0.11,0c-0.482,-0.149 -0.973,-0.269 -1.47,-0.36c-0.21,-0.045 -0.351,-0.247 -0.32,-0.46c0.045,-0.209 0.25,-0.347 0.46,-0.31c0.528,0.093 1.049,0.219 1.56,0.38c0.159,0.053 0.267,0.203 0.267,0.37c-0,0.213 -0.174,0.388 -0.387,0.39l0,-0.01Z" style="fill:#7789a7;fill-rule:nonzero;"/><path d="M61.12,122.549c-0.05,-0.038 -0.12,-0.038 -0.17,0l-1.42,1.2c-0.837,-0.264 -1.712,-0.389 -2.59,-0.37l-1,-1.55c-0.033,-0.054 -0.099,-0.078 -0.16,-0.06l-2.16,0.55c-0.059,0.024 -0.1,0.077 -0.11,0.14l-0.15,1.85c-0.779,0.404 -1.485,0.935 -2.09,1.57l-1.82,-0.37c-0.063,-0.013 -0.127,0.015 -0.16,0.07l-1.17,1.93c-0.04,0.053 -0.04,0.127 0,0.18l1.2,1.41c-0.265,0.837 -0.39,1.712 -0.37,2.59l-1.55,1c-0.053,0.039 -0.077,0.107 -0.06,0.17l0.55,2.15c0.017,0.066 0.073,0.114 0.14,0.12l1.85,0.15c0.404,0.779 0.935,1.485 1.57,2.09l-0.33,1.83c-0.018,0.066 0.011,0.136 0.07,0.17l1.93,1.13c0.055,0.035 0.125,0.035 0.18,0l1.41,-1.2c0.837,0.265 1.712,0.39 2.59,0.37l1,1.54c0.038,0.055 0.105,0.082 0.17,0.07l2.15,-0.56c0.064,-0.012 0.113,-0.065 0.12,-0.13l0.15,-1.85c0.775,-0.409 1.481,-0.939 2.09,-1.57l1.81,0.37c0.062,0.011 0.125,-0.017 0.16,-0.07l1.17,-1.94c0.035,-0.051 0.035,-0.119 0,-0.17l-1.27,-1.38c0.265,-0.837 0.39,-1.712 0.37,-2.59l1.54,-1c0.055,-0.033 0.083,-0.097 0.07,-0.16l-0.56,-2.25c-0.012,-0.064 -0.065,-0.112 -0.13,-0.12l-1.85,-0.15c-0.407,-0.777 -0.937,-1.482 -1.57,-2.09l0.37,-1.82c0.008,-0.062 -0.019,-0.123 -0.07,-0.16l-1.9,-1.09Z" style="fill:#98a1b2;fill-rule:nonzero;"/><path d="M57.12,134.089c-0.247,-0.001 -0.493,-0.038 -0.73,-0.11c-0.653,-0.185 -1.202,-0.63 -1.52,-1.23c-0.341,-0.609 -0.417,-1.333 -0.21,-2c0.189,-0.651 0.632,-1.199 1.23,-1.52c0.349,-0.169 0.732,-0.257 1.119,-0.257c1.405,-0 2.56,1.155 2.56,2.56c0,1.362 -1.088,2.498 -2.449,2.557Zm0,-4c-0.23,0.003 -0.457,0.062 -0.66,0.17c-0.322,0.179 -0.563,0.477 -0.67,0.83c-0.1,0.354 -0.061,0.734 0.11,1.06c0.237,0.466 0.717,0.76 1.239,0.76c0.763,0 1.39,-0.627 1.39,-1.39c0,-0.762 -0.627,-1.39 -1.39,-1.39c-0.006,0 -0.013,0 -0.019,0l0,-0.04Z" style="fill:url(#_Linear3);fill-rule:nonzero;"/><path d="M57.12,137.519c-2.7,-0.019 -5.071,-1.858 -5.76,-4.47c-0.126,-0.483 -0.19,-0.98 -0.19,-1.48c0.014,-2.704 1.855,-5.08 4.47,-5.77c0.383,-0.099 0.775,-0.159 1.17,-0.18l0.08,0l0.05,1.17c-0.338,0.011 -0.674,0.061 -1,0.15c-2.091,0.552 -3.56,2.459 -3.56,4.622c0,2.622 2.158,4.78 4.78,4.78c2.615,-0 4.77,-2.147 4.78,-4.762c0.002,-0.405 -0.052,-0.809 -0.16,-1.2c-0.209,-0.838 -0.645,-1.603 -1.26,-2.21l0.82,-0.84c0.764,0.759 1.31,1.708 1.58,2.75c0.122,0.491 0.186,0.994 0.19,1.5c-0.001,1.057 -0.288,2.093 -0.83,3c-1.079,1.82 -3.044,2.94 -5.16,2.94Z" style="fill:url(#_Linear4);fill-rule:nonzero;"/></g><g><g><path d="M146.73,177.639l-1,-0.62c-0.134,-0.081 -0.216,-0.227 -0.216,-0.384c-0,-0.084 0.023,-0.165 0.066,-0.236c0.081,-0.138 0.229,-0.224 0.389,-0.224c0.081,0 0.161,0.022 0.231,0.064l1,0.64c0.129,0.081 0.208,0.223 0.208,0.375c-0,0.243 -0.2,0.443 -0.443,0.443c-0.083,-0 -0.164,-0.024 -0.235,-0.068l0,0.01Z" style="fill:url(#_Linear5);fill-rule:nonzero;"/><path d="M143.35,175.499l-1,-0.67c-0.217,-0.154 -0.275,-0.456 -0.13,-0.68c0.091,-0.136 0.244,-0.219 0.408,-0.219c0.101,0 0.2,0.031 0.282,0.089l1,0.68c0.128,0.089 0.204,0.235 0.204,0.39c0,0.26 -0.214,0.475 -0.474,0.475c-0.096,-0 -0.191,-0.03 -0.27,-0.085l-0.02,0.02Z" style="fill:url(#_Linear6);fill-rule:nonzero;"/><path d="M140.12,173.189l-1,-0.73c-0.225,-0.179 -0.269,-0.508 -0.1,-0.74c0.176,-0.229 0.509,-0.274 0.74,-0.1l0.93,0.74c0.103,0.098 0.161,0.234 0.161,0.376c0,0.286 -0.235,0.52 -0.52,0.52c-0.095,0 -0.189,-0.026 -0.271,-0.076l0.06,0.01Z" style="fill:url(#_Linear7);fill-rule:nonzero;"/><path d="M136.94,170.699l-0.92,-0.78c-0.124,-0.106 -0.195,-0.262 -0.195,-0.425c-0,-0.307 0.253,-0.56 0.56,-0.56c0.134,-0 0.264,0.048 0.365,0.135l0.89,0.78c0.109,0.104 0.17,0.248 0.17,0.398c0,0.302 -0.248,0.55 -0.55,0.55c-0.123,0 -0.243,-0.041 -0.34,-0.118l0.02,0.02Z" style="fill:url(#_Linear8);fill-rule:nonzero;"/><path d="M133.93,168.049l-0.87,-0.83c-0.112,-0.109 -0.175,-0.259 -0.175,-0.415c0,-0.156 0.063,-0.306 0.175,-0.415c0.229,-0.226 0.602,-0.226 0.83,0l0.85,0.83c0.115,0.11 0.18,0.262 0.18,0.42c0,0.318 -0.262,0.58 -0.58,0.58c-0.149,0 -0.292,-0.057 -0.4,-0.16l-0.01,-0.01Z" style="fill:url(#_Linear9);fill-rule:nonzero;"/><path d="M131.12,165.249l-0.83,-0.87c-0.144,-0.117 -0.227,-0.294 -0.227,-0.48c-0,-0.34 0.28,-0.62 0.62,-0.62c0.196,0 0.38,0.093 0.497,0.25l0.81,0.87c0.09,0.109 0.138,0.246 0.138,0.387c0,0.335 -0.275,0.61 -0.61,0.61c-0.15,0 -0.296,-0.056 -0.408,-0.157l0.01,0.01Z" style="fill:url(#_Linear10);fill-rule:nonzero;"/><path d="M128.35,162.299l-0.79,-0.91c-0.099,-0.117 -0.153,-0.266 -0.153,-0.42c0,-0.358 0.295,-0.653 0.653,-0.653c0.193,0 0.376,0.086 0.5,0.233l0.76,0.91c0.095,0.114 0.148,0.257 0.148,0.405c-0,0.188 -0.084,0.366 -0.228,0.485c-0.26,0.225 -0.657,0.203 -0.89,-0.05Z" style="fill:url(#_Linear11);fill-rule:nonzero;"/><path d="M125.79,159.209l-0.74,-0.95c-0.091,-0.117 -0.14,-0.261 -0.14,-0.41c0,-0.207 0.096,-0.403 0.26,-0.53c0.293,-0.219 0.712,-0.166 0.94,0.12l0.71,0.94c0.088,0.115 0.135,0.256 0.135,0.4c0,0.362 -0.298,0.66 -0.66,0.66c-0.206,0 -0.4,-0.096 -0.525,-0.26l0.02,0.03Z" style="fill:url(#_Linear12);fill-rule:nonzero;"/><path d="M123.39,155.979l-0.69,-1c-0.06,-0.106 -0.092,-0.225 -0.092,-0.347c-0,-0.384 0.316,-0.7 0.7,-0.7c0.21,-0 0.409,0.094 0.542,0.257l0.66,1c0.079,0.115 0.121,0.251 0.121,0.39c-0,0.379 -0.312,0.691 -0.691,0.691c-0.228,-0 -0.441,-0.113 -0.57,-0.301l0.02,0.01Z" style="fill:url(#_Linear13);fill-rule:nonzero;"/><path d="M121.12,152.649l-0.63,-1c-0.072,-0.114 -0.11,-0.247 -0.11,-0.382c0,-0.253 0.133,-0.488 0.35,-0.618c0.338,-0.208 0.787,-0.105 1,0.23l0.6,1c0.07,0.114 0.107,0.245 0.107,0.378c0,0.256 -0.136,0.493 -0.357,0.622c-0.328,0.188 -0.752,0.087 -0.96,-0.23Z" style="fill:url(#_Linear14);fill-rule:nonzero;"/><path d="M119.12,149.189l-0.58,-1.07c-0.058,-0.109 -0.089,-0.231 -0.089,-0.355c0,-0.413 0.341,-0.754 0.754,-0.754c0.278,0 0.534,0.154 0.665,0.399l0.55,1.05c0.058,0.108 0.088,0.228 0.088,0.35c-0,0.408 -0.335,0.743 -0.743,0.743c-0.274,-0 -0.526,-0.151 -0.655,-0.393l0.01,0.03Z" style="fill:url(#_Linear15);fill-rule:nonzero;"/><path d="M117.3,145.599l-0.51,-1.09c-0.168,-0.378 0.003,-0.828 0.38,-1c0.376,-0.164 0.821,0.001 1,0.37l0.48,1.07c0.162,0.379 -0.007,0.825 -0.38,1c-0.363,0.153 -0.788,0 -0.97,-0.35Z" style="fill:url(#_Linear16);fill-rule:nonzero;"/><path d="M115.69,141.919l-0.44,-1.13c-0.148,-0.398 0.054,-0.847 0.45,-1c0.089,-0.034 0.183,-0.052 0.278,-0.052c0.321,0 0.61,0.201 0.722,0.502l0.42,1.1c0.147,0.401 -0.06,0.851 -0.46,1c-0.381,0.144 -0.814,-0.043 -0.97,-0.42Z" style="fill:url(#_Linear17);fill-rule:nonzero;"/><path d="M114.31,138.129l-0.37,-1.15c-0.025,-0.079 -0.038,-0.162 -0.038,-0.245c-0,-0.44 0.362,-0.803 0.803,-0.803c0.348,-0 0.659,0.226 0.765,0.558l0.35,1.13c0.024,0.076 0.035,0.156 0.035,0.235c0,0.351 -0.23,0.662 -0.565,0.765c-0.403,0.126 -0.839,-0.092 -0.98,-0.49Z" style="fill:url(#_Linear18);fill-rule:nonzero;"/><path d="M113.18,134.259l-0.29,-1.17c-0.024,-0.078 -0.036,-0.16 -0.036,-0.242c-0,-0.45 0.37,-0.82 0.82,-0.82c0.394,0 0.735,0.284 0.806,0.672l0.27,1.14c0.015,0.062 0.023,0.126 0.023,0.19c-0,0.446 -0.367,0.813 -0.813,0.813c-0.374,-0 -0.702,-0.259 -0.79,-0.623l0.01,0.04Z" style="fill:url(#_Linear19);fill-rule:nonzero;"/><path d="M112.31,130.319l-0.2,-1.19c-0.012,-0.056 -0.018,-0.114 -0.018,-0.172c0,-0.407 0.297,-0.759 0.698,-0.828c0.059,-0.013 0.12,-0.02 0.18,-0.02c0.407,0 0.756,0.299 0.82,0.7l0.19,1.16c0.013,0.059 0.02,0.12 0.02,0.18c-0,0.407 -0.299,0.756 -0.7,0.82c-0.449,0.092 -0.895,-0.201 -0.99,-0.65Z" style="fill:url(#_Linear20);fill-rule:nonzero;"/><path d="M111.73,126.319l-0.11,-1.2c-0.001,-0.016 -0.001,-0.033 -0.001,-0.05c-0,-0.466 0.383,-0.85 0.85,-0.85c0.421,0 0.782,0.313 0.841,0.73l0.11,1.17c0,0.007 0,0.015 0,0.022c0,0.466 -0.383,0.85 -0.85,0.85c-0.418,0 -0.777,-0.308 -0.84,-0.722l0,0.05Z" style="fill:url(#_Linear21);fill-rule:nonzero;"/><path d="M111.45,122.289l0,-1.21c-0.003,-0.031 -0.005,-0.062 -0.005,-0.093c0,-0.477 0.393,-0.87 0.87,-0.87c0.477,0 0.87,0.393 0.87,0.87c0,0.031 -0.002,0.062 -0.005,0.093l0,1.21c0,0.007 0,0.014 0,0.02c0,0.468 -0.382,0.855 -0.85,0.86c-0.003,0 -0.007,0 -0.01,0c-0.477,0 -0.87,-0.392 -0.87,-0.87c0,-0.003 0,-0.006 0,-0.01Z" style="fill:url(#_Linear22);fill-rule:nonzero;"/><path d="M111.48,118.239l0.07,-1.21c0.065,-0.434 0.442,-0.758 0.88,-0.758c0.481,-0 0.879,0.388 0.89,0.868l-0.08,1.16c-0.03,0.455 -0.412,0.812 -0.868,0.812c-0.021,0 -0.041,-0 -0.062,-0.002c-0.462,-0.021 -0.83,-0.407 -0.83,-0.87Z" style="fill:url(#_Linear23);fill-rule:nonzero;"/><path d="M111.83,114.209l0.17,-1.2c0.04,-0.463 0.432,-0.822 0.897,-0.822c0.493,-0 0.9,0.406 0.9,0.9c-0,0.058 -0.006,0.115 -0.017,0.172l-0.17,1.16c-0.06,0.433 -0.434,0.76 -0.872,0.76c-0.043,-0 -0.085,-0.004 -0.128,-0.01c-0.471,-0.062 -0.816,-0.486 -0.78,-0.96Z" style="fill:url(#_Linear24);fill-rule:nonzero;"/><path d="M112.52,110.219l0.26,-1.19c0.118,-0.487 0.61,-0.796 1.1,-0.69c0.491,0.114 0.802,0.609 0.69,1.1l-0.27,1.14c-0.114,0.386 -0.47,0.653 -0.873,0.653c-0.499,0 -0.91,-0.411 -0.91,-0.91c0,-0.051 0.004,-0.102 0.013,-0.153l-0.01,0.05Z" style="fill:url(#_Linear25);fill-rule:nonzero;"/><path d="M113.52,106.289l0.36,-1.16c0.122,-0.387 0.484,-0.653 0.89,-0.653c0.512,0 0.933,0.421 0.933,0.933c0,0.095 -0.014,0.19 -0.043,0.28l-0.36,1.12c-0.138,0.358 -0.484,0.596 -0.868,0.596c-0.51,-0 -0.93,-0.42 -0.93,-0.93c0,-0.076 0.01,-0.152 0.028,-0.226l-0.01,0.04Z" style="fill:url(#_Linear26);fill-rule:nonzero;"/><path d="M114.83,102.459l0.45,-1.13c0.123,-0.397 0.492,-0.669 0.908,-0.669c0.521,-0 0.95,0.429 0.95,0.95c-0,0.145 -0.034,0.289 -0.098,0.419l-0.44,1.09c-0.144,0.356 -0.491,0.589 -0.875,0.589c-0.518,0 -0.944,-0.426 -0.944,-0.944c-0,-0.121 0.023,-0.242 0.069,-0.355l-0.02,0.05Z" style="fill:url(#_Linear27);fill-rule:nonzero;"/><path d="M116.43,98.739l0.53,-1.09c0.19,-0.212 0.461,-0.333 0.745,-0.333c0.549,0 1,0.452 1,1c0,0.058 -0.005,0.116 -0.015,0.173l-0.52,1c-0.189,0.205 -0.456,0.322 -0.735,0.322c-0.548,-0 -1,-0.451 -1,-1c0,-0.058 0.005,-0.115 0.015,-0.172l-0.02,0.1Z" style="fill:url(#_Linear28);fill-rule:nonzero;"/><path d="M118.29,95.149l0.61,-1c0.132,-0.414 0.519,-0.697 0.953,-0.697c0.549,0 1,0.452 1,1c0,0.26 -0.101,0.511 -0.283,0.697l-0.59,1c-0.131,0.414 -0.518,0.697 -0.953,0.697c-0.548,0 -1,-0.451 -1,-1c0,-0.26 0.102,-0.51 0.283,-0.697l-0.02,0Z" style="fill:url(#_Linear29);fill-rule:nonzero;"/><path d="M120.4,91.709l0.68,-1c0.308,-0.429 0.905,-0.544 1.35,-0.26c0.423,0.307 0.538,0.897 0.26,1.34l-0.66,1c-0.183,0.165 -0.421,0.256 -0.668,0.256c-0.549,0 -1,-0.451 -1,-1c-0,-0.114 0.02,-0.228 0.058,-0.336l-0.02,0Z" style="fill:url(#_Linear30);fill-rule:nonzero;"/><path d="M122.73,88.409l0.73,-1c0.333,-0.414 0.941,-0.494 1.37,-0.18c0.414,0.333 0.494,0.941 0.18,1.37l-0.72,0.94c-0.158,0.365 -0.52,0.603 -0.918,0.603c-0.548,0 -1,-0.451 -1,-1c0,-0.305 0.14,-0.593 0.378,-0.783l-0.02,0.05Z" style="fill:url(#_Linear31);fill-rule:nonzero;"/><path d="M125.25,85.249l0.79,-0.91c0.173,-0.327 0.514,-0.533 0.885,-0.533c0.548,-0 1,0.451 1,1c-0,0.316 -0.151,0.615 -0.405,0.803l-0.77,0.89c-0.174,0.325 -0.513,0.529 -0.882,0.529c-0.549,0 -1,-0.451 -1,-1c0,-0.32 0.153,-0.621 0.412,-0.809l-0.03,0.03Z" style="fill:url(#_Linear32);fill-rule:nonzero;"/><path d="M127.94,82.249l0.83,-0.87c0.17,-0.122 0.374,-0.188 0.584,-0.188c0.548,0 1,0.452 1,1c-0,0.195 -0.057,0.385 -0.164,0.548l-0.82,0.85c-0.183,0.289 -0.502,0.465 -0.845,0.465c-0.548,0 -1,-0.451 -1,-1c0,-0.329 0.163,-0.639 0.435,-0.825l-0.02,0.02Z" style="fill:url(#_Linear33);fill-rule:nonzero;"/><path d="M130.78,79.399l0.88,-0.83c0.165,-0.11 0.359,-0.17 0.558,-0.17c0.548,0 1,0.452 1,1c-0,0.221 -0.073,0.435 -0.208,0.61l-0.86,0.8c-0.162,0.105 -0.35,0.16 -0.542,0.16c-0.549,0 -1,-0.451 -1,-1c-0,-0.212 0.067,-0.419 0.192,-0.59l-0.02,0.02Z" style="fill:url(#_Linear34);fill-rule:nonzero;"/><path d="M133.76,76.689l0.92,-0.78c0.19,-0.219 0.466,-0.345 0.756,-0.345c0.549,-0 1,0.451 1,1c0,0.342 -0.176,0.662 -0.466,0.845l-0.9,0.77c-0.159,0.1 -0.343,0.153 -0.531,0.153c-0.549,-0 -1,-0.452 -1,-1c0,-0.244 0.089,-0.48 0.251,-0.663l-0.03,0.02Z" style="fill:url(#_Linear35);fill-rule:nonzero;"/><path d="M136.87,74.129l0.95,-0.74c0.43,-0.329 1.053,-0.253 1.39,0.17c0.336,0.431 0.259,1.062 -0.17,1.4l-0.94,0.72c-0.432,0.327 -1.055,0.246 -1.39,-0.18c-0.319,-0.424 -0.248,-1.031 0.16,-1.37Z" style="fill:url(#_Linear36);fill-rule:nonzero;"/><path d="M140.12,71.709l1,-0.7c0.169,-0.12 0.372,-0.185 0.58,-0.185c0.549,-0 1,0.451 1,1c0,0.324 -0.156,0.628 -0.42,0.815l-1,0.68c-0.185,0.172 -0.428,0.268 -0.681,0.268c-0.549,0 -1,-0.451 -1,-1c-0,-0.365 0.2,-0.703 0.521,-0.878Z" style="fill:url(#_Linear37);fill-rule:nonzero;"/><path d="M143.39,69.429l1,-0.65c0.164,-0.108 0.355,-0.165 0.551,-0.165c0.339,-0 0.655,0.171 0.839,0.455c0.296,0.461 0.16,1.083 -0.3,1.38l-1,0.64c-0.162,0.105 -0.351,0.162 -0.545,0.162c-0.549,-0 -1.001,-0.452 -1.001,-1.002c-0,-0.339 0.172,-0.655 0.456,-0.84l0,0.02Z" style="fill:url(#_Linear38);fill-rule:nonzero;"/><path d="M146.79,67.289l1,-0.61c0.171,-0.124 0.377,-0.191 0.588,-0.191c0.549,-0 1,0.451 1,1c0,0.392 -0.23,0.75 -0.588,0.911l-1,0.6c-0.143,0.075 -0.302,0.114 -0.463,0.114c-0.549,0 -1,-0.451 -1,-1c-0,-0.342 0.175,-0.66 0.463,-0.844l0,0.02Z" style="fill:url(#_Linear39);fill-rule:nonzero;"/><path d="M150.27,65.289l1.06,-0.58c0.148,-0.082 0.315,-0.125 0.485,-0.125c0.371,-0 0.713,0.207 0.885,0.535c0.081,0.148 0.123,0.313 0.123,0.481c0,0.366 -0.201,0.705 -0.523,0.879l-1,0.56c-0.152,0.086 -0.325,0.132 -0.5,0.132c-0.558,-0 -1.016,-0.459 -1.016,-1.017c-0,-0.366 0.197,-0.705 0.516,-0.885l-0.03,0.02Z" style="fill:url(#_Linear40);fill-rule:nonzero;"/><path d="M153.83,63.409l1.07,-0.53c0.141,-0.071 0.297,-0.108 0.455,-0.108c0.556,0 1.013,0.458 1.013,1.013c0,0.382 -0.216,0.733 -0.558,0.905l-1,0.53c-0.14,0.07 -0.294,0.106 -0.45,0.106c-0.554,-0 -1.011,-0.456 -1.011,-1.011c0,-0.383 0.218,-0.734 0.561,-0.905l-0.08,0Z" style="fill:url(#_Linear41);fill-rule:nonzero;"/><path d="M157.44,61.669l1.1,-0.5c0.132,-0.06 0.275,-0.091 0.42,-0.091c0.557,0 1.016,0.459 1.016,1.016c0,0.398 -0.234,0.761 -0.596,0.925l-1.08,0.48c-0.132,0.062 -0.276,0.094 -0.422,0.094c-0.398,-0 -0.76,-0.238 -0.918,-0.604c-0.226,-0.494 -0.011,-1.087 0.48,-1.32Z" style="fill:url(#_Linear42);fill-rule:nonzero;"/><path d="M161.12,60.049l1.12,-0.46c0.122,-0.05 0.253,-0.075 0.385,-0.075c0.56,-0 1.021,0.46 1.021,1.02c-0,0.414 -0.252,0.789 -0.636,0.945l-1.09,0.45c-0.124,0.051 -0.256,0.078 -0.39,0.078c-0.561,-0 -1.022,-0.462 -1.022,-1.023c-0,-0.413 0.25,-0.787 0.632,-0.945l-0.02,0.01Z" style="fill:url(#_Linear43);fill-rule:nonzero;"/><path d="M164.84,58.569l1.13,-0.42c0.114,-0.042 0.234,-0.064 0.355,-0.064c0.559,0 1.019,0.46 1.019,1.019c-0,0.425 -0.266,0.807 -0.664,0.955l-1.11,0.41c-0.113,0.042 -0.234,0.064 -0.355,0.064c-0.559,0 -1.019,-0.46 -1.019,-1.019c0,-0.425 0.266,-0.807 0.664,-0.955l-0.02,0.01Z" style="fill:url(#_Linear44);fill-rule:nonzero;"/><path d="M168.62,57.209l1.14,-0.38c0.105,-0.034 0.215,-0.051 0.325,-0.051c0.577,-0 1.052,0.474 1.052,1.051c-0,0.455 -0.295,0.86 -0.727,1l-1.13,0.37c-0.103,0.033 -0.211,0.05 -0.32,0.05c-0.576,0 -1.05,-0.474 -1.05,-1.05c0,-0.455 0.296,-0.861 0.73,-1l-0.02,0.01Z" style="fill:url(#_Linear45);fill-rule:nonzero;"/><path d="M172.44,55.979l1.15,-0.34c0.101,-0.033 0.206,-0.05 0.312,-0.05c0.454,0 0.854,0.31 0.968,0.75c0.031,0.098 0.047,0.2 0.047,0.303c-0,0.453 -0.308,0.852 -0.747,0.967l-1.13,0.33c-0.101,0.033 -0.206,0.05 -0.312,0.05c-0.454,0 -0.854,-0.31 -0.968,-0.75c-0.033,-0.101 -0.051,-0.207 -0.051,-0.314c0,-0.451 0.306,-0.849 0.741,-0.966l-0.01,0.02Z" style="fill:url(#_Linear46);fill-rule:nonzero;"/><path d="M176.3,54.899l1.16,-0.3c0.085,-0.022 0.172,-0.033 0.26,-0.033c0.567,-0 1.033,0.466 1.033,1.033c0,0.469 -0.319,0.882 -0.773,1l-1.15,0.3c-0.09,0.026 -0.183,0.039 -0.277,0.039c-0.462,0 -0.866,-0.32 -0.973,-0.769c-0.025,-0.089 -0.038,-0.182 -0.038,-0.275c-0,-0.465 0.324,-0.872 0.778,-0.975l-0.02,-0.02Z" style="fill:url(#_Linear47);fill-rule:nonzero;"/><path d="M180.2,53.979l1.17,-0.26c0.072,-0.016 0.146,-0.024 0.22,-0.024c0.562,0 1.024,0.463 1.024,1.024c0,0.479 -0.336,0.897 -0.804,1l-1.16,0.26c-0.074,0.017 -0.149,0.025 -0.225,0.025c-0.562,0 -1.025,-0.462 -1.025,-1.025c0,-0.477 0.334,-0.895 0.8,-1Z" style="fill:url(#_Linear48);fill-rule:nonzero;"/><path d="M184.12,53.119l1.19,-0.22c0.061,-0.011 0.123,-0.017 0.185,-0.017c0.558,0 1.017,0.459 1.017,1.017c0,0.489 -0.352,0.911 -0.832,1l-1.16,0.22c-0.063,0.012 -0.126,0.018 -0.19,0.018c-0.558,0 -1.018,-0.459 -1.018,-1.018c0,-0.487 0.35,-0.909 0.828,-1l-0.02,0Z" style="fill:url(#_Linear49);fill-rule:nonzero;"/><path d="M188.12,52.429l1.19,-0.18c0.05,-0.007 0.1,-0.011 0.15,-0.011c0.555,0 1.011,0.456 1.011,1.011c0,0.499 -0.368,0.926 -0.861,1l-1.17,0.18c-0.053,0.009 -0.107,0.013 -0.161,0.013c-0.493,0 -0.916,-0.365 -0.989,-0.853c-0.008,-0.053 -0.013,-0.106 -0.013,-0.159c0,-0.497 0.371,-0.923 0.863,-0.991l-0.02,-0.01Z" style="fill:url(#_Linear50);fill-rule:nonzero;"/><path d="M192.05,51.869l1.2,-0.14c0.038,-0.004 0.077,-0.006 0.115,-0.006c0.552,-0 1.007,0.454 1.007,1.006c-0,0.509 -0.386,0.942 -0.892,1l-1.18,0.14c-0.04,0.005 -0.08,0.007 -0.12,0.007c-0.552,0 -1.007,-0.454 -1.007,-1.007c-0,-0.507 0.383,-0.939 0.887,-1l-0.01,0Z" style="fill:url(#_Linear51);fill-rule:nonzero;"/><path d="M196.04,51.449l1.2,-0.1c0.028,-0.002 0.057,-0.003 0.085,-0.003c0.551,-0 1.004,0.453 1.004,1.003c-0,0.519 -0.402,0.956 -0.919,1l-1.18,0.1c-0.028,0.003 -0.057,0.004 -0.085,0.004c-0.55,-0 -1.003,-0.453 -1.003,-1.004c-0,-0.518 0.401,-0.956 0.918,-1l-0.02,0Z" style="fill:url(#_Linear52);fill-rule:nonzero;"/><path d="M200.05,51.159l1.2,-0.06c0.527,-0.001 0.969,0.415 1,0.94c0.001,0.527 -0.414,0.969 -0.94,1l-1.18,0.07c-0.018,0.001 -0.037,0.002 -0.055,0.002c-0.549,-0 -1.001,-0.452 -1.001,-1.002c-0,-0.528 0.418,-0.971 0.946,-1l0.03,0.05Z" style="fill:url(#_Linear53);fill-rule:nonzero;"/><path d="M204.06,50.979l1.2,0c0.549,0 1,0.452 1,1c0,0.549 -0.451,1 -1,1l-1.14,0c-0.548,0 -1,-0.451 -1,-1c0,-0.548 0.452,-1 1,-1l-0.06,0Z" style="fill:url(#_Linear54);fill-rule:nonzero;"/><path d="M208.12,50.979l1.2,0c0.549,0 1,0.452 1,1c0,0.549 -0.451,1 -1,1l-1.2,0c-0.548,0 -1,-0.451 -1,-1c0,-0.548 0.452,-1 1,-1Z" style="fill:url(#_Linear55);fill-rule:nonzero;"/><path d="M212.12,51.109l1.2,0.06c0.53,0.027 0.951,0.47 0.951,1c0,0.549 -0.452,1.001 -1.001,1.001c-0.017,0 -0.033,0 -0.05,-0.001l-1.18,-0.06c-0.53,-0.026 -0.951,-0.469 -0.951,-1c-0,-0.549 0.452,-1.001 1.001,-1.001c0.017,-0 0.033,0 0.05,0.001l-0.02,0Z" style="fill:url(#_Linear56);fill-rule:nonzero;"/><path d="M216.12,51.359l1.2,0.11c0.056,-0.009 0.112,-0.014 0.169,-0.014c0.549,-0 1,0.451 1,1c0,0.548 -0.451,1 -1,1c-0.112,-0 -0.223,-0.019 -0.329,-0.056l-1.18,-0.1c-0.506,-0.056 -0.893,-0.49 -0.89,-1c0.057,-0.525 0.522,-0.919 1.05,-0.89l-0.02,-0.05Z" style="fill:url(#_Linear57);fill-rule:nonzero;"/><path d="M220.12,51.749l1.19,0.15c0.506,0.096 0.86,0.567 0.81,1.08c-0.077,0.518 -0.548,0.893 -1.07,0.85l-1.17,-0.14c-0.522,-0.077 -0.898,-0.554 -0.85,-1.08c0.077,-0.518 0.548,-0.892 1.07,-0.85l0.02,-0.01Z" style="fill:url(#_Linear58);fill-rule:nonzero;"/><path d="M224.05,52.279l1.19,0.19c0.353,0.164 0.58,0.519 0.58,0.907c-0,0.504 -0.38,0.933 -0.88,0.993l-1.17,-0.18c-0.037,0.004 -0.074,0.006 -0.111,0.006c-0.548,0 -1,-0.451 -1,-1c0,-0.548 0.452,-1 1,-1c0.138,0 0.275,0.029 0.401,0.084l-0.01,0Z" style="fill:url(#_Linear59);fill-rule:nonzero;"/><path d="M228.01,52.979l1.18,0.23c0.035,-0.003 0.07,-0.005 0.105,-0.005c0.548,-0 1,0.451 1,1c-0,0.548 -0.452,1 -1,1c-0.162,-0 -0.322,-0.04 -0.465,-0.115l-1.16,-0.22c-0.037,0.004 -0.075,0.007 -0.113,0.007c-0.548,-0 -1,-0.452 -1,-1c0,-0.549 0.452,-1 1,-1c0.161,-0 0.32,0.039 0.463,0.113l-0.01,-0.01Z" style="fill:url(#_Linear60);fill-rule:nonzero;"/><path d="M231.94,53.759l1.17,0.27c0.441,0.09 0.76,0.481 0.76,0.931c-0,0.521 -0.429,0.95 -0.95,0.95c-0.081,-0 -0.162,-0.01 -0.24,-0.031l-1.16,-0.26c-0.496,-0.136 -0.81,-0.633 -0.72,-1.14c0.136,-0.496 0.634,-0.81 1.14,-0.72Z" style="fill:url(#_Linear61);fill-rule:nonzero;"/><path d="M235.83,54.699l1.17,0.31c0.485,0.157 0.776,0.662 0.67,1.16c-0.107,0.413 -0.483,0.704 -0.91,0.704c-0.084,0 -0.168,-0.011 -0.25,-0.034l-1.14,-0.3c-0.02,0.001 -0.04,0.002 -0.06,0.002c-0.548,-0 -1,-0.451 -1,-1c0,-0.549 0.452,-1 1,-1c0.192,-0 0.379,0.055 0.54,0.158l-0.02,0Z" style="fill:url(#_Linear62);fill-rule:nonzero;"/><path d="M239.7,55.789l1.15,0.35c0.395,0.121 0.666,0.488 0.666,0.9c0,0.516 -0.425,0.941 -0.941,0.941c-0.093,0 -0.186,-0.014 -0.275,-0.041l-1.18,-0.35c-0.409,-0.11 -0.695,-0.484 -0.695,-0.907c-0,-0.516 0.424,-0.94 0.94,-0.94c0.1,-0 0.2,0.016 0.295,0.047l0.04,0Z" style="fill:url(#_Linear63);fill-rule:nonzero;"/><path d="M243.52,56.979l1.13,0.39c0.468,0.189 0.723,0.704 0.59,1.19c-0.127,0.377 -0.483,0.633 -0.881,0.633c-0.105,-0 -0.21,-0.018 -0.309,-0.053l-1.12,-0.38c-0.4,-0.116 -0.677,-0.486 -0.677,-0.902c0,-0.516 0.425,-0.94 0.94,-0.94c0.116,-0 0.23,0.021 0.337,0.062l-0.01,0Z" style="fill:url(#_Linear64);fill-rule:nonzero;"/><path d="M247.29,58.339l1.13,0.42c0.319,0.159 0.521,0.486 0.521,0.842c-0,0.515 -0.424,0.94 -0.94,0.94c-0.081,-0 -0.162,-0.011 -0.241,-0.032l-1.11,-0.42c-0.365,-0.135 -0.608,-0.486 -0.608,-0.875c-0,-0.512 0.421,-0.933 0.933,-0.933c0.111,-0 0.221,0.02 0.325,0.058l-0.01,0Z" style="fill:url(#_Linear65);fill-rule:nonzero;"/><path d="M251.03,59.789l1.11,0.46c0.347,0.142 0.574,0.481 0.574,0.855c-0,0.507 -0.417,0.924 -0.924,0.924c-0.12,0 -0.239,-0.023 -0.35,-0.069l-1.1,-0.45c-0.313,-0.158 -0.511,-0.48 -0.511,-0.83c-0,-0.51 0.419,-0.93 0.93,-0.93c0.092,-0 0.183,0.013 0.271,0.04Z" style="fill:url(#_Linear66);fill-rule:nonzero;"/><path d="M254.72,61.339l1.09,0.49c0.364,0.132 0.607,0.479 0.607,0.865c0,0.505 -0.415,0.92 -0.92,0.92c-0.149,0 -0.295,-0.036 -0.427,-0.105l-1.09,-0.47c-0.335,-0.146 -0.552,-0.479 -0.552,-0.845c-0,-0.506 0.416,-0.922 0.922,-0.922c0.127,-0 0.253,0.026 0.37,0.077l0,-0.01Z" style="fill:url(#_Linear67);fill-rule:nonzero;"/><path d="M258.36,62.979l1.09,0.51c0.286,0.164 0.464,0.469 0.464,0.799c-0,0.505 -0.416,0.92 -0.92,0.92c-0.111,-0 -0.22,-0.02 -0.324,-0.059l-1.07,-0.51c-0.358,-0.134 -0.596,-0.479 -0.596,-0.861c-0,-0.505 0.415,-0.92 0.92,-0.92c0.16,-0 0.317,0.042 0.456,0.121l-0.02,0Z" style="fill:url(#_Linear68);fill-rule:nonzero;"/><path d="M261.97,64.719l1.07,0.54c0.309,0.154 0.505,0.47 0.505,0.815c0,0.499 -0.411,0.91 -0.91,0.91c-0.14,0 -0.279,-0.032 -0.405,-0.095l-1.11,-0.53c-0.444,-0.23 -0.627,-0.779 -0.41,-1.23c0.154,-0.309 0.47,-0.505 0.815,-0.505c0.141,0 0.279,0.033 0.405,0.095l0.04,0Z" style="fill:url(#_Linear69);fill-rule:nonzero;"/><path d="M265.53,66.529l1.06,0.55c0.271,0.165 0.436,0.46 0.436,0.777c0,0.499 -0.41,0.91 -0.91,0.91c-0.126,0 -0.25,-0.026 -0.366,-0.077l-1.06,-0.55c-0.33,-0.145 -0.544,-0.473 -0.544,-0.833c0,-0.499 0.411,-0.91 0.91,-0.91c0.167,0 0.331,0.046 0.474,0.133Z" style="fill:url(#_Linear70);fill-rule:nonzero;"/><path d="M269.06,68.399l1.06,0.58c0.288,0.159 0.467,0.462 0.467,0.79c-0,0.495 -0.407,0.902 -0.902,0.902c-0.152,0 -0.302,-0.038 -0.435,-0.112l-1,-0.57c-0.433,-0.236 -0.595,-0.786 -0.36,-1.22c0.24,-0.434 0.79,-0.599 1.23,-0.37l-0.06,0Z" style="fill:url(#_Linear71);fill-rule:nonzero;"/><path d="M272.55,70.339l1,0.59c0.326,0.144 0.538,0.468 0.538,0.824c0,0.494 -0.406,0.9 -0.9,0.9c-0.185,0 -0.366,-0.057 -0.518,-0.164l-1,-0.59c-0.286,-0.155 -0.465,-0.456 -0.465,-0.782c-0,-0.153 0.04,-0.304 0.115,-0.438c0.247,-0.427 0.799,-0.58 1.23,-0.34Z" style="fill:url(#_Linear72);fill-rule:nonzero;"/><path d="M276.01,72.329l1,0.6c0.273,0.16 0.442,0.454 0.442,0.77c-0,0.489 -0.403,0.892 -0.892,0.892c-0.158,0 -0.313,-0.042 -0.45,-0.122l-1,-0.6c-0.273,-0.16 -0.442,-0.453 -0.442,-0.77c0,-0.489 0.403,-0.892 0.892,-0.892c0.158,0 0.314,0.042 0.45,0.122Z" style="fill:url(#_Linear73);fill-rule:nonzero;"/><path d="M279.44,74.359l1,0.62c0.263,0.16 0.424,0.447 0.424,0.755c0,0.485 -0.399,0.884 -0.884,0.884c-0.162,0 -0.321,-0.044 -0.46,-0.129l-1,-0.61c-0.31,-0.147 -0.509,-0.461 -0.509,-0.804c-0,-0.488 0.402,-0.89 0.89,-0.89c0.19,-0 0.376,0.061 0.529,0.174l0.01,0Z" style="fill:url(#_Linear74);fill-rule:nonzero;"/><path d="M282.85,76.429l1,0.62c0.408,0.26 0.538,0.805 0.29,1.22c-0.256,0.408 -0.801,0.534 -1.21,0.28l-1,-0.62c-0.252,-0.161 -0.405,-0.441 -0.405,-0.741c-0,-0.482 0.397,-0.88 0.88,-0.88c0.156,0 0.31,0.042 0.445,0.121Z" style="fill:url(#_Linear75);fill-rule:nonzero;"/><path d="M286.24,78.519l1,0.64c0.254,0.16 0.409,0.44 0.409,0.74c0,0.48 -0.394,0.874 -0.874,0.874c-0.164,0 -0.326,-0.046 -0.465,-0.134l-1,-0.63c-0.258,-0.155 -0.416,-0.435 -0.416,-0.736c0,-0.164 0.048,-0.325 0.136,-0.464c0.253,-0.411 0.799,-0.542 1.21,-0.29Z" style="fill:url(#_Linear76);fill-rule:nonzero;"/><path d="M289.61,80.649l1,0.63c0.254,0.16 0.409,0.44 0.409,0.74c0,0.48 -0.394,0.874 -0.874,0.874c-0.164,0 -0.326,-0.046 -0.465,-0.134l-1,-0.64c-0.254,-0.156 -0.408,-0.434 -0.408,-0.732c-0,-0.166 0.048,-0.328 0.138,-0.468c0.159,-0.256 0.439,-0.412 0.74,-0.412c0.162,0 0.322,0.046 0.46,0.132l0,0.01Z" style="fill:url(#_Linear77);fill-rule:nonzero;"/><path d="M292.97,82.779l1,0.65c0.247,0.158 0.397,0.432 0.397,0.725c-0,0.165 -0.048,0.326 -0.137,0.465c-0.255,0.397 -0.789,0.518 -1.19,0.27l-1,-0.64c-0.398,-0.258 -0.519,-0.795 -0.27,-1.2c0.255,-0.403 0.797,-0.525 1.2,-0.27Z" style="fill:url(#_Linear78);fill-rule:nonzero;"/><path d="M296.32,84.979l1,0.64c0.394,0.258 0.51,0.791 0.26,1.19c-0.158,0.247 -0.431,0.397 -0.724,0.397c-0.166,0 -0.327,-0.047 -0.466,-0.137l-1,-0.64c-0.247,-0.158 -0.396,-0.432 -0.396,-0.725c-0,-0.472 0.389,-0.861 0.861,-0.861c0.165,-0 0.326,0.047 0.465,0.136Z" style="fill:url(#_Linear79);fill-rule:nonzero;"/><path d="M299.67,87.079l1,0.64c0.247,0.158 0.396,0.432 0.396,0.725c0,0.473 -0.388,0.862 -0.861,0.862c-0.165,-0 -0.326,-0.048 -0.465,-0.137l-1,-0.65c-0.245,-0.157 -0.394,-0.429 -0.394,-0.72c-0,-0.469 0.385,-0.854 0.854,-0.854c0.163,-0 0.323,0.046 0.46,0.134l0.01,0Z" style="fill:url(#_Linear80);fill-rule:nonzero;"/><path d="M303.02,89.229l1,0.64c0.277,0.148 0.45,0.437 0.45,0.75c0,0.467 -0.384,0.85 -0.85,0.85c-0.184,0 -0.363,-0.059 -0.51,-0.17l-1,-0.64c-0.246,-0.153 -0.395,-0.423 -0.395,-0.712c-0,-0.163 0.047,-0.322 0.135,-0.458c0.251,-0.396 0.782,-0.517 1.18,-0.27l-0.01,0.01Z" style="fill:url(#_Linear81);fill-rule:nonzero;"/><path d="M306.37,91.359l1,0.64c0.391,0.251 0.508,0.778 0.26,1.17c-0.154,0.243 -0.422,0.391 -0.71,0.391c-0.159,0 -0.315,-0.045 -0.45,-0.131l-1,-0.64c-0.214,-0.16 -0.34,-0.412 -0.34,-0.68c0,-0.466 0.384,-0.85 0.85,-0.85c0.14,0 0.277,0.035 0.4,0.1l-0.01,0Z" style="fill:url(#_Linear82);fill-rule:nonzero;"/><path d="M309.73,93.479l1,0.63c0.247,0.154 0.397,0.425 0.397,0.715c0,0.462 -0.38,0.842 -0.842,0.842c-0.157,0 -0.311,-0.044 -0.445,-0.127l-1,-0.63c-0.249,-0.15 -0.402,-0.42 -0.402,-0.711c0,-0.159 0.046,-0.315 0.132,-0.449c0.247,-0.388 0.767,-0.509 1.16,-0.27Z" style="fill:url(#_Linear83);fill-rule:nonzero;"/><path d="M313.12,95.579l1,0.62c0.247,0.151 0.398,0.421 0.398,0.71c-0,0.457 -0.376,0.833 -0.833,0.833c-0.153,-0 -0.304,-0.043 -0.435,-0.123l-1,-0.62c-0.216,-0.158 -0.344,-0.41 -0.344,-0.677c0,-0.461 0.38,-0.84 0.84,-0.84c0.13,-0 0.258,0.03 0.374,0.087l0,0.01Z" style="fill:url(#_Linear84);fill-rule:nonzero;"/><path d="M316.49,97.649l1,0.61c0.252,0.147 0.407,0.417 0.407,0.708c-0,0.149 -0.04,0.295 -0.117,0.422c-0.15,0.248 -0.42,0.4 -0.71,0.4c-0.151,0 -0.3,-0.041 -0.43,-0.12l-1,-0.61c-0.282,-0.14 -0.46,-0.428 -0.46,-0.743c-0,-0.455 0.374,-0.83 0.83,-0.83c0.172,0 0.34,0.054 0.48,0.153l0,0.01Z" style="fill:url(#_Linear85);fill-rule:nonzero;"/><path d="M319.9,99.679l1,0.61c0.386,0.229 0.517,0.733 0.29,1.12c-0.231,0.376 -0.724,0.505 -1.11,0.29l-1,-0.6c-0.385,-0.228 -0.519,-0.729 -0.3,-1.12c0.225,-0.389 0.731,-0.525 1.12,-0.3Z" style="fill:url(#_Linear86);fill-rule:nonzero;"/><path d="M323.33,101.679l1,0.58c0.229,0.15 0.367,0.405 0.367,0.678c-0,0.445 -0.366,0.81 -0.81,0.81c-0.12,0 -0.238,-0.026 -0.347,-0.078l-1,-0.59c-0.282,-0.134 -0.463,-0.419 -0.463,-0.732c-0,-0.444 0.366,-0.81 0.81,-0.81c0.157,0 0.311,0.046 0.443,0.132l0,0.01Z" style="fill:url(#_Linear87);fill-rule:nonzero;"/><path d="M326.79,103.609l1,0.57c0.254,0.139 0.412,0.406 0.412,0.695c0,0.435 -0.357,0.792 -0.792,0.792c-0.133,0 -0.263,-0.033 -0.38,-0.097l-1.01,-0.59c-0.384,-0.214 -0.527,-0.703 -0.32,-1.09c0.21,-0.382 0.696,-0.526 1.08,-0.32l0.01,0.04Z" style="fill:url(#_Linear88);fill-rule:nonzero;"/><path d="M330.28,105.489l1,0.55c0.379,0.202 0.527,0.679 0.33,1.06c-0.133,0.261 -0.402,0.426 -0.695,0.426c-0.123,-0 -0.245,-0.03 -0.355,-0.086l-1.07,-0.55c-0.23,-0.144 -0.37,-0.397 -0.37,-0.669c-0,-0.433 0.356,-0.79 0.79,-0.79c0.103,-0 0.205,0.02 0.3,0.059l0.07,0Z" style="fill:url(#_Linear89);fill-rule:nonzero;"/><path d="M333.81,107.299l1.06,0.53c0.265,0.13 0.434,0.4 0.434,0.695c-0,0.425 -0.349,0.774 -0.774,0.774c-0.118,-0 -0.234,-0.027 -0.34,-0.079l-1.08,-0.53c-0.226,-0.143 -0.364,-0.392 -0.364,-0.659c0,-0.428 0.353,-0.78 0.78,-0.78c0.094,-0 0.187,0.016 0.274,0.049l0.01,0Z" style="fill:url(#_Linear90);fill-rule:nonzero;"/><path d="M337.37,109.029l1.07,0.51c0.369,0.179 0.534,0.624 0.37,1c-0.179,0.37 -0.626,0.531 -1,0.36l-1.09,-0.5c-0.377,-0.171 -0.548,-0.621 -0.38,-1c0.172,-0.377 0.621,-0.548 1,-0.38l0.03,0.01Z" style="fill:url(#_Linear91);fill-rule:nonzero;"/><path d="M340.97,110.679l1.08,0.48c0.274,0.119 0.453,0.391 0.453,0.69c-0,0.413 -0.34,0.753 -0.753,0.753c-0.103,-0 -0.205,-0.022 -0.3,-0.063l-1.1,-0.47c-0.381,-0.168 -0.557,-0.618 -0.39,-1c0.117,-0.276 0.39,-0.457 0.69,-0.457c0.107,0 0.213,0.023 0.31,0.067l0.01,0Z" style="fill:url(#_Linear92);fill-rule:nonzero;"/><path d="M344.61,112.229l1.1,0.45c0.288,0.105 0.481,0.38 0.481,0.686c0,0.109 -0.024,0.216 -0.071,0.314c-0.106,0.291 -0.385,0.486 -0.695,0.486c-0.105,-0 -0.209,-0.022 -0.305,-0.066l-1.11,-0.45c-0.282,-0.112 -0.468,-0.386 -0.468,-0.69c0,-0.407 0.336,-0.743 0.743,-0.743c0.094,0 0.188,0.018 0.275,0.053l0.05,-0.04Z" style="fill:url(#_Linear93);fill-rule:nonzero;"/><path d="M348.29,113.679l1.11,0.41c0.271,0.114 0.448,0.38 0.448,0.673c-0,0.401 -0.33,0.73 -0.73,0.73c-0.074,0 -0.147,-0.011 -0.218,-0.033l-1.13,-0.41c-0.29,-0.105 -0.484,-0.382 -0.484,-0.69c0,-0.402 0.332,-0.734 0.734,-0.734c0.085,0 0.17,0.015 0.25,0.044l0.02,0.01Z" style="fill:url(#_Linear94);fill-rule:nonzero;"/><path d="M352.01,114.979l1.13,0.37c0.265,0.113 0.437,0.375 0.437,0.662c0,0.395 -0.325,0.72 -0.72,0.72c-0.059,0 -0.119,-0.007 -0.177,-0.022l-1.14,-0.37c-0.261,-0.117 -0.43,-0.379 -0.43,-0.665c-0,-0.401 0.329,-0.73 0.73,-0.73c0.05,-0 0.101,0.005 0.15,0.015l0.02,0.02Z" style="fill:url(#_Linear95);fill-rule:nonzero;"/><path d="M355.78,116.219l1.14,0.33c0.304,0.089 0.514,0.369 0.514,0.685c-0,0.392 -0.322,0.714 -0.714,0.714c-0.068,-0 -0.135,-0.01 -0.2,-0.029l-1.15,-0.34c-0.305,-0.086 -0.518,-0.366 -0.518,-0.683c0,-0.067 0.01,-0.133 0.028,-0.197c0.111,-0.378 0.512,-0.599 0.89,-0.49l0.01,0.01Z" style="fill:url(#_Linear96);fill-rule:nonzero;"/><path d="M359.58,117.289l1.15,0.3c0.336,0.056 0.584,0.35 0.584,0.691c0,0.384 -0.316,0.7 -0.7,0.7c-0.079,-0 -0.159,-0.014 -0.234,-0.041l-1.16,-0.29c-0.311,-0.078 -0.531,-0.359 -0.531,-0.68c0,-0.384 0.317,-0.701 0.701,-0.701c0.057,0 0.115,0.007 0.17,0.021l0.02,0Z" style="fill:url(#_Linear97);fill-rule:nonzero;"/><path d="M363.42,118.219l1.16,0.26c0.317,0.068 0.546,0.351 0.546,0.675c-0,0.049 -0.006,0.097 -0.016,0.145c-0.089,0.364 -0.451,0.599 -0.82,0.53l-1.17,-0.25c-0.283,-0.096 -0.476,-0.363 -0.476,-0.663c0,-0.384 0.316,-0.7 0.7,-0.7c0.022,0 0.044,0.001 0.066,0.003l0.01,0Z" style="fill:url(#_Linear98);fill-rule:nonzero;"/><path d="M367.29,118.979l1.17,0.21c0.322,0.056 0.56,0.338 0.56,0.665c-0,0.37 -0.305,0.675 -0.675,0.675c-0.038,0 -0.077,-0.003 -0.115,-0.01l-1.19,-0.2c-0.317,-0.062 -0.549,-0.343 -0.549,-0.667c0,-0.373 0.307,-0.68 0.68,-0.68c0.033,0 0.066,0.002 0.099,0.007l0.02,0Z" style="fill:url(#_Linear99);fill-rule:nonzero;"/><path d="M371.19,119.639l1.18,0.15c0.333,0.043 0.586,0.329 0.586,0.665c-0,0.368 -0.303,0.671 -0.671,0.671c-0.028,-0 -0.057,-0.002 -0.085,-0.006l-1.2,-0.15c-0.333,-0.042 -0.585,-0.329 -0.585,-0.665c-0,-0.368 0.302,-0.67 0.67,-0.67c0.029,-0 0.057,0.002 0.085,0.005l0.02,0Z" style="fill:url(#_Linear100);fill-rule:nonzero;"/><path d="M375.12,120.089l1.18,0.1c0.334,0.029 0.594,0.312 0.594,0.648c0,0.024 -0.001,0.048 -0.004,0.072c-0.024,0.333 -0.305,0.593 -0.638,0.593c-0.021,0 -0.041,-0.001 -0.062,-0.003l-1.2,-0.09c-0.341,-0.028 -0.607,-0.317 -0.607,-0.66c-0,-0.363 0.299,-0.662 0.662,-0.662c0.018,-0 0.037,0.001 0.055,0.002l0.02,0Z" style="fill:url(#_Linear101);fill-rule:nonzero;"/><path d="M379.06,120.369l1.18,0.05c0.351,0.021 0.626,0.319 0.62,0.67c-0.016,0.353 -0.317,0.631 -0.67,0.62l-1.2,0c-0.356,0 -0.65,-0.293 -0.65,-0.65c0,-0.356 0.294,-0.65 0.65,-0.65l0.07,-0.04Z" style="fill:url(#_Linear102);fill-rule:nonzero;"/><path d="M382.98,120.479l1.21,0c0.351,0 0.64,0.289 0.64,0.64c0,0.351 -0.289,0.64 -0.64,0.64l-1.2,0c-0.351,0 -0.64,-0.289 -0.64,-0.64c0,-0.003 0,-0.006 0,-0.01c0,-0.345 0.284,-0.63 0.63,-0.63Z" style="fill:url(#_Linear103);fill-rule:nonzero;"/><path d="M386.95,120.409l1.18,-0.05c0.01,-0 0.021,-0.001 0.031,-0.001c0.334,0 0.614,0.267 0.629,0.601c0.006,0.34 -0.26,0.629 -0.6,0.65l-1.2,0.06c-0.01,0.001 -0.02,0.001 -0.03,0.001c-0.346,-0 -0.631,-0.285 -0.631,-0.631c0,-0.334 0.267,-0.614 0.601,-0.63l0.02,0Z" style="fill:url(#_Linear104);fill-rule:nonzero;"/><path d="M390.9,120.179l1.18,-0.1c0.018,-0.001 0.037,-0.002 0.055,-0.002c0.336,-0 0.613,0.276 0.613,0.612c-0,0.315 -0.244,0.582 -0.558,0.61l-1.19,0.11c-0.337,0.029 -0.638,-0.223 -0.67,-0.56c-0.003,-0.024 -0.004,-0.048 -0.004,-0.072c-0,-0.311 0.243,-0.574 0.554,-0.598l0.02,0Z" style="fill:url(#_Linear105);fill-rule:nonzero;"/><path d="M394.83,119.779l1.17,-0.15c0.002,0 0.004,0 0.005,0c0.335,0 0.61,0.276 0.61,0.61c0,0.277 -0.188,0.52 -0.455,0.59l-1.19,0.16c-0.026,0.004 -0.053,0.005 -0.08,0.005c-0.335,0 -0.61,-0.275 -0.61,-0.61c-0,-0.304 0.228,-0.565 0.53,-0.605l0.02,0Z" style="fill:url(#_Linear106);fill-rule:nonzero;"/><path d="M398.74,119.219l1.17,-0.2c0.035,-0.006 0.07,-0.009 0.105,-0.009c0.326,-0 0.594,0.268 0.594,0.594c0,0.287 -0.207,0.535 -0.489,0.585l-1.18,0.21c-0.044,0.01 -0.089,0.015 -0.134,0.015c-0.329,0 -0.6,-0.27 -0.6,-0.6c-0,-0.3 0.226,-0.557 0.524,-0.595l0.01,0Z" style="fill:url(#_Linear107);fill-rule:nonzero;"/><path d="M402.62,118.499l1.16,-0.25c0.312,-0.061 0.621,0.14 0.69,0.45c0.068,0.31 -0.13,0.621 -0.44,0.69l-1.18,0.26c-0.04,0.009 -0.081,0.013 -0.122,0.013c-0.274,0 -0.513,-0.194 -0.568,-0.463c-0.068,-0.312 0.129,-0.626 0.44,-0.7l0.02,0Z" style="fill:url(#_Linear108);fill-rule:nonzero;"/><path d="M406.48,117.619l1.15,-0.29c0.048,-0.013 0.096,-0.019 0.146,-0.019c0.258,-0 0.484,0.178 0.544,0.429c0.013,0.048 0.02,0.098 0.02,0.148c-0,0.26 -0.178,0.488 -0.43,0.552l-1.16,0.3c-0.047,0.013 -0.096,0.019 -0.145,0.019c-0.315,-0 -0.574,-0.259 -0.574,-0.574c0,-0.26 0.177,-0.489 0.429,-0.555l0.02,-0.01Z" style="fill:url(#_Linear109);fill-rule:nonzero;"/><path d="M410.3,116.589l1.14,-0.34c0.052,-0.016 0.106,-0.024 0.16,-0.024c0.247,0 0.465,0.166 0.53,0.404c0.085,0.293 -0.08,0.605 -0.37,0.7l-1.15,0.35c-0.061,0.022 -0.125,0.033 -0.189,0.033c-0.313,-0 -0.57,-0.258 -0.57,-0.57c-0,-0.26 0.177,-0.489 0.429,-0.553l0.02,0Z" style="fill:url(#_Linear110);fill-rule:nonzero;"/><path d="M414.12,115.409l1.12,-0.39c0.092,-0.064 0.202,-0.098 0.314,-0.098c0.301,0 0.55,0.248 0.55,0.55c-0,0.284 -0.221,0.524 -0.504,0.548l-1.14,0.4c-0.004,0 -0.009,0 -0.014,0c-0.307,0 -0.56,-0.252 -0.56,-0.56c0,-0.171 0.079,-0.334 0.214,-0.44l0.02,-0.01Z" style="fill:url(#_Linear111);fill-rule:nonzero;"/><path d="M417.8,114.079l1.11,-0.43c0.277,-0.096 0.586,0.04 0.7,0.31c0.102,0.277 -0.036,0.59 -0.31,0.7l-1.12,0.44c-0.053,0.017 -0.107,0.025 -0.163,0.025c-0.296,0 -0.54,-0.243 -0.54,-0.54c0,-0.206 0.118,-0.394 0.303,-0.485l0.02,-0.02Z" style="fill:url(#_Linear112);fill-rule:nonzero;"/><path d="M421.47,112.599l1.1,-0.47c0.067,-0.028 0.138,-0.042 0.21,-0.042c0.298,-0 0.542,0.245 0.542,0.542c0,0.218 -0.131,0.416 -0.332,0.5l-1.1,0.49c-0.068,0.029 -0.141,0.044 -0.215,0.044c-0.298,0 -0.544,-0.245 -0.544,-0.544c-0,-0.217 0.13,-0.414 0.329,-0.5l0.01,-0.02Z" style="fill:url(#_Linear113);fill-rule:nonzero;"/><path d="M425.12,110.979l1.07,-0.51c0.07,-0.035 0.147,-0.053 0.225,-0.053c0.196,-0 0.374,0.115 0.455,0.293c0.033,0.068 0.049,0.142 0.049,0.217c0,0.194 -0.113,0.371 -0.289,0.453l-1.08,0.53c-0.071,0.036 -0.149,0.054 -0.228,0.054c-0.198,0 -0.378,-0.115 -0.462,-0.294c-0.033,-0.069 -0.05,-0.144 -0.05,-0.221c-0,-0.204 0.122,-0.389 0.31,-0.469Z" style="fill:url(#_Linear114);fill-rule:nonzero;"/><path d="M428.64,109.219l1.05,-0.55c0.073,-0.04 0.154,-0.061 0.237,-0.061c0.181,0 0.348,0.101 0.433,0.261c0.04,0.072 0.061,0.152 0.061,0.233c-0,0.18 -0.101,0.345 -0.261,0.427l-1.06,0.57c-0.072,0.04 -0.154,0.061 -0.237,0.061c-0.181,0 -0.348,-0.1 -0.433,-0.261c-0.04,-0.072 -0.061,-0.154 -0.061,-0.237c0,-0.181 0.101,-0.348 0.261,-0.433l0.01,-0.01Z" style="fill:url(#_Linear115);fill-rule:nonzero;"/><path d="M432.12,107.329l1,-0.6c0.073,-0.044 0.157,-0.067 0.242,-0.067c0.168,0 0.325,0.091 0.408,0.237c0.129,0.226 0.053,0.517 -0.17,0.65l-1,0.61c-0.225,0.129 -0.516,0.053 -0.65,-0.17c-0.046,-0.075 -0.07,-0.162 -0.07,-0.25c-0,-0.167 0.087,-0.323 0.23,-0.41l0.01,0Z" style="fill:url(#_Linear116);fill-rule:nonzero;"/><path d="M435.51,105.289l1,-0.64c0.212,-0.132 0.494,-0.069 0.63,0.14c0.051,0.074 0.078,0.161 0.078,0.25c0,0.156 -0.083,0.301 -0.218,0.38l-1,0.66c-0.215,0.134 -0.5,0.071 -0.64,-0.14c-0.05,-0.075 -0.077,-0.164 -0.077,-0.255c-0,-0.155 0.078,-0.3 0.207,-0.385l0.02,-0.01Z" style="fill:url(#_Linear117);fill-rule:nonzero;"/><path d="M438.83,103.119l1,-0.67c0.198,-0.136 0.472,-0.086 0.61,0.11c0.137,0.201 0.088,0.479 -0.11,0.62l-1,0.69c-0.062,0.032 -0.131,0.048 -0.201,0.048c-0.247,-0 -0.45,-0.203 -0.45,-0.45c-0,-0.124 0.051,-0.243 0.141,-0.328l0.01,-0.02Z" style="fill:url(#_Linear118);fill-rule:nonzero;"/><path d="M442.05,100.819l0.95,-0.71c0.068,-0.042 0.147,-0.065 0.227,-0.065c0.236,0 0.43,0.194 0.43,0.43c0,0.12 -0.049,0.234 -0.137,0.315l-0.95,0.73c-0.076,0.059 -0.169,0.091 -0.265,0.091c-0.236,0 -0.431,-0.194 -0.431,-0.431c0,-0.133 0.061,-0.258 0.166,-0.34l0.01,-0.02Z" style="fill:url(#_Linear119);fill-rule:nonzero;"/><path d="M445.18,98.389l0.92,-0.75c0.177,-0.138 0.435,-0.112 0.58,0.06c0.137,0.174 0.111,0.429 -0.06,0.57l-0.92,0.77c-0.074,0.063 -0.168,0.097 -0.265,0.097c-0.226,-0 -0.412,-0.186 -0.412,-0.412c0,-0.121 0.054,-0.237 0.147,-0.315l0.01,-0.02Z" style="fill:url(#_Linear120);fill-rule:nonzero;"/><path d="M448.2,95.829l0.89,-0.79c0.072,-0.066 0.167,-0.103 0.265,-0.103c0.216,0 0.393,0.178 0.393,0.393c-0,0.11 -0.046,0.216 -0.128,0.29l-0.89,0.81c-0.157,0.147 -0.403,0.147 -0.56,0c-0.151,-0.154 -0.151,-0.405 0,-0.56l0.03,-0.04Z" style="fill:url(#_Linear121);fill-rule:nonzero;"/><path d="M451.12,93.159l0.85,-0.83c0.068,-0.055 0.152,-0.085 0.24,-0.085c0.208,0 0.38,0.172 0.38,0.38c-0,0.09 -0.032,0.177 -0.09,0.245l-0.85,0.84c-0.15,0.144 -0.39,0.144 -0.54,0c-0.072,-0.071 -0.112,-0.168 -0.112,-0.27c-0,-0.101 0.04,-0.198 0.112,-0.27l0.01,-0.01Z" style="fill:url(#_Linear122);fill-rule:nonzero;"/><path d="M453.92,90.349l0.82,-0.86c0.066,-0.067 0.156,-0.105 0.25,-0.105c0.094,0 0.184,0.038 0.25,0.105c0.134,0.139 0.134,0.362 0,0.5l-0.82,0.88c-0.066,0.071 -0.158,0.11 -0.255,0.11c-0.096,0 -0.189,-0.039 -0.255,-0.11c-0.135,-0.142 -0.135,-0.368 0,-0.51l0.01,-0.01Z" style="fill:url(#_Linear123);fill-rule:nonzero;"/><path d="M456.6,87.429l0.78,-0.89c0.065,-0.073 0.158,-0.115 0.255,-0.115c0.187,0 0.34,0.154 0.34,0.34c0,0.083 -0.03,0.163 -0.085,0.225l-0.77,0.91c-0.065,0.061 -0.15,0.094 -0.239,0.094c-0.192,0 -0.35,-0.158 -0.35,-0.35c0,-0.069 0.021,-0.136 0.059,-0.194l0.01,-0.02Z" style="fill:url(#_Linear124);fill-rule:nonzero;"/><path d="M459.12,84.399l0.73,-0.93c0.057,-0.098 0.163,-0.159 0.277,-0.159c0.175,0 0.32,0.145 0.32,0.32c-0,0.086 -0.035,0.169 -0.097,0.229l-0.73,1c-0.06,0.099 -0.167,0.159 -0.282,0.159c-0.181,-0 -0.33,-0.149 -0.33,-0.33c0,-0.085 0.033,-0.167 0.092,-0.229l0.02,-0.06Z" style="fill:url(#_Linear125);fill-rule:nonzero;"/><path d="M461.56,81.259l0.69,-1c0.054,-0.081 0.145,-0.131 0.242,-0.131c0.065,0 0.127,0.022 0.178,0.061c0.136,0.1 0.168,0.293 0.07,0.43l-0.69,1c-0.096,0.14 -0.29,0.176 -0.43,0.08c-0.141,-0.1 -0.177,-0.297 -0.08,-0.44l0.02,0Z" style="fill:url(#_Linear126);fill-rule:nonzero;"/><path d="M463.83,77.979l0.65,-1c0.088,-0.13 0.265,-0.169 0.4,-0.09c0.131,0.089 0.167,0.268 0.08,0.4l-0.64,1c-0.052,0.087 -0.147,0.14 -0.248,0.14c-0.058,-0 -0.114,-0.018 -0.162,-0.05c-0.131,-0.092 -0.171,-0.271 -0.09,-0.41l0.01,0.01Z" style="fill:url(#_Linear127);fill-rule:nonzero;"/><path d="M465.91,74.639l0.57,-1c0.074,-0.128 0.238,-0.177 0.37,-0.11c0.084,0.048 0.137,0.138 0.137,0.235c-0,0.047 -0.013,0.094 -0.037,0.135l-0.57,1.05c-0.048,0.088 -0.14,0.143 -0.24,0.143c-0.15,0 -0.273,-0.123 -0.273,-0.273c0,-0.045 0.011,-0.09 0.033,-0.13l0.01,-0.05Z" style="fill:url(#_Linear128);fill-rule:nonzero;"/><path d="M467.69,71.119l0.46,-1.09c0.055,-0.126 0.201,-0.188 0.33,-0.14c0.096,0.037 0.16,0.13 0.16,0.233c-0,0.034 -0.007,0.067 -0.02,0.097l-0.45,1.12c-0.055,0.132 -0.208,0.195 -0.34,0.14c-0.128,-0.059 -0.189,-0.208 -0.14,-0.34l0,-0.02Z" style="fill:url(#_Linear129);fill-rule:nonzero;"/><path d="M469.02,67.409l0.27,-1.15c0.026,-0.109 0.123,-0.186 0.235,-0.186c0.133,-0 0.241,0.109 0.241,0.241c0,0.019 -0.002,0.037 -0.006,0.055l-0.28,1.17c-0.025,0.109 -0.123,0.187 -0.235,0.187c-0.132,-0 -0.241,-0.109 -0.241,-0.242c-0,-0.018 0.002,-0.037 0.006,-0.055l0.01,-0.02Z" style="fill:url(#_Linear130);fill-rule:nonzero;"/><path d="M469.67,63.539l0,-1.18c0.005,-0.117 0.103,-0.21 0.22,-0.21l0.01,0c0.116,0 0.21,0.095 0.21,0.21c0,0.004 0,0.007 0,0.01l0,1.21c0,0.121 -0.099,0.22 -0.22,0.22c-0.003,0 -0.007,0 -0.01,0c-0.12,-0.01 -0.215,-0.109 -0.22,-0.23l0.01,-0.03Z" style="fill:url(#_Linear131);fill-rule:nonzero;"/></g><g><path d="M469.45,59.639l-0.28,-1.15c-0.025,-0.109 0.042,-0.221 0.15,-0.25c0.015,-0.003 0.03,-0.005 0.045,-0.005c0.093,0 0.174,0.065 0.195,0.155l0.3,1.18c0.025,0.11 -0.041,0.221 -0.15,0.25c-0.112,0.026 -0.226,-0.04 -0.26,-0.15l0,-0.03Z" style="fill:url(#_Linear132);fill-rule:nonzero;"/><path d="M468.17,55.979l-0.57,-1c-0.017,-0.029 -0.025,-0.062 -0.025,-0.095c-0,-0.068 0.036,-0.131 0.095,-0.165c0.088,-0.046 0.198,-0.015 0.25,0.07l0.6,1.06c0.047,0.091 0.017,0.205 -0.07,0.26c-0.028,0.015 -0.059,0.023 -0.091,0.023c-0.071,0 -0.136,-0.04 -0.169,-0.103l-0.02,-0.05Z" style="fill:url(#_Linear133);fill-rule:nonzero;"/><path d="M465.93,52.729l-0.85,-0.81c-0.034,-0.028 -0.054,-0.07 -0.054,-0.115c0,-0.044 0.02,-0.086 0.054,-0.115c0.03,-0.031 0.072,-0.049 0.115,-0.049c0.043,0 0.085,0.018 0.115,0.049l0.88,0.83c0.032,0.032 0.05,0.075 0.05,0.12c-0,0.094 -0.077,0.17 -0.17,0.17c-0.04,0 -0.079,-0.014 -0.11,-0.04l-0.03,-0.04Z" style="fill:url(#_Linear134);fill-rule:nonzero;"/><path d="M462.8,50.409l-1.08,-0.43c-0.057,-0.015 -0.097,-0.067 -0.097,-0.126c0,-0.022 0.006,-0.044 0.017,-0.064c0.017,-0.06 0.072,-0.101 0.135,-0.101c0.019,-0 0.038,0.004 0.055,0.011l1.13,0.45c0.075,0.015 0.129,0.081 0.129,0.157c-0,0.088 -0.072,0.16 -0.16,0.16c-0.032,0 -0.063,-0.009 -0.089,-0.027l-0.04,-0.03Z" style="fill:url(#_Linear135);fill-rule:nonzero;"/><path d="M461.12,42.669l-0.81,5.95l-3.68,-3.11l4.49,-2.84Z" style="fill:#7c8ec4;fill-rule:nonzero;"/><path d="M434.83,35.609l14.15,16.29c0.272,0.311 0.658,0.498 1.07,0.52c0.413,0.02 0.817,-0.128 1.12,-0.41l15.81,-14.83c0.177,-0.169 0.24,-0.428 0.16,-0.66c-0.092,-0.23 -0.313,-0.383 -0.56,-0.39l-31.75,-0.52Z" style="fill:#86a7d6;fill-rule:nonzero;"/><path d="M461.12,42.669l-26.29,-7.06l23.75,9.46l-0.16,1.66l2.7,-4.06Z" style="fill:#7c8ec4;fill-rule:nonzero;"/><path d="M457.06,46.479l3.25,2.14l-1.73,-3.55l-1.52,1.41Z" style="fill:#7c8ec4;fill-rule:nonzero;"/></g></g></g></g><defs><linearGradient id="_Linear1" x1="0" y1="0" x2="1" y2="0" gradientUnits="userSpaceOnUse" gradientTransform="matrix(115.313,0,0,115.313,1032.89,1442.96)"><stop offset="0" style="stop-color:#d1daed;stop-opacity:1"/><stop offset="1" style="stop-color:#e2e8f5;stop-opacity:1"/></linearGradient><linearGradient id="_Linear2" x1="0" y1="0" x2="1" y2="0" gradientUnits="userSpaceOnUse" gradientTransform="matrix(735.609,0,0,735.609,2243.55,3491.25)"><stop offset="0" style="stop-color:#d1daed;stop-opacity:1"/><stop offset="1" style="stop-color:#e2e8f5;stop-opacity:1"/></linearGradient><linearGradient id="_Linear3" x1="0" y1="0" x2="1" y2="0" gradientUnits="userSpaceOnUse" gradientTransform="matrix(25.7204,0,0,25.7204,342.946,914.728)"><stop offset="0" style="stop-color:#d1daed;stop-opacity:1"/><stop offset="1" style="stop-color:#e2e8f5;stop-opacity:1"/></linearGradient><linearGradient id="_Linear4" x1="0" y1="0" x2="1" y2="0" gradientUnits="userSpaceOnUse" gradientTransform="matrix(142.205,0,0,142.205,695.93,1953.34)"><stop offset="0" style="stop-color:#d1daed;stop-opacity:1"/><stop offset="1" style="stop-color:#e2e8f5;stop-opacity:1"/></linearGradient><linearGradient id="_Linear5" x1="0" y1="0" x2="1" y2="0" gradientUnits="userSpaceOnUse" gradientTransform="matrix(3.61754,0,0,3.61754,426.526,478.864)"><stop offset="0" style="stop-color:#d1daed;stop-opacity:1"/><stop offset="1" style="stop-color:#e2e8f5;stop-opacity:1"/></linearGradient><linearGradient id="_Linear6" x1="0" y1="0" x2="1" y2="0" gradientUnits="userSpaceOnUse" gradientTransform="matrix(3.86959,0,0,3.86959,428.45,495.354)"><stop offset="0" style="stop-color:#d1daed;stop-opacity:1"/><stop offset="1" style="stop-color:#e2e8f5;stop-opacity:1"/></linearGradient><linearGradient id="_Linear7" x1="0" y1="0" x2="1" y2="0" gradientUnits="userSpaceOnUse" gradientTransform="matrix(3.86721,0,0,3.86721,413.084,510.294)"><stop offset="0" style="stop-color:#d1daed;stop-opacity:1"/><stop offset="1" style="stop-color:#e2e8f5;stop-opacity:1"/></linearGradient><linearGradient id="_Linear8" x1="0" y1="0" x2="1" y2="0" gradientUnits="userSpaceOnUse" gradientTransform="matrix(4.01091,0,0,4.01091,411.247,526.482)"><stop offset="0" style="stop-color:#d1daed;stop-opacity:1"/><stop offset="1" style="stop-color:#e2e8f5;stop-opacity:1"/></linearGradient><linearGradient id="_Linear9" x1="0" y1="0" x2="1" y2="0" gradientUnits="userSpaceOnUse" gradientTransform="matrix(4.13067,0,0,4.13067,409.132,544.588)"><stop offset="0" style="stop-color:#d1daed;stop-opacity:1"/><stop offset="1" style="stop-color:#e2e8f5;stop-opacity:1"/></linearGradient><linearGradient id="_Linear10" x1="0" y1="0" x2="1" y2="0" gradientUnits="userSpaceOnUse" gradientTransform="matrix(4.21409,0,0,4.21409,404.702,557.851)"><stop offset="0" style="stop-color:#d1daed;stop-opacity:1"/><stop offset="1" style="stop-color:#e2e8f5;stop-opacity:1"/></linearGradient><linearGradient id="_Linear11" x1="0" y1="0" x2="1" y2="0" gradientUnits="userSpaceOnUse" gradientTransform="matrix(4.22427,0,0,4.22427,395.885,561.743)"><stop offset="0" style="stop-color:#d1daed;stop-opacity:1"/><stop offset="1" style="stop-color:#e2e8f5;stop-opacity:1"/></linearGradient><linearGradient id="_Linear12" x1="0" y1="0" x2="1" y2="0" gradientUnits="userSpaceOnUse" gradientTransform="matrix(4.21295,0,0,4.21295,386.256,563.892)"><stop offset="0" style="stop-color:#d1daed;stop-opacity:1"/><stop offset="1" style="stop-color:#e2e8f5;stop-opacity:1"/></linearGradient><linearGradient id="_Linear13" x1="0" y1="0" x2="1" y2="0" gradientUnits="userSpaceOnUse" gradientTransform="matrix(4.16713,0,0,4.16713,376.398,568.029)"><stop offset="0" style="stop-color:#d1daed;stop-opacity:1"/><stop offset="1" style="stop-color:#e2e8f5;stop-opacity:1"/></linearGradient><linearGradient id="_Linear14" x1="0" y1="0" x2="1" y2="0" gradientUnits="userSpaceOnUse" gradientTransform="matrix(4.23778,0,0,4.23778,374.051,573.227)"><stop offset="0" style="stop-color:#d1daed;stop-opacity:1"/><stop offset="1" style="stop-color:#e2e8f5;stop-opacity:1"/></linearGradient><linearGradient id="_Linear15" x1="0" y1="0" x2="1" y2="0" gradientUnits="userSpaceOnUse" gradientTransform="matrix(4.25689,0,0,4.25689,367.983,579.874)"><stop offset="0" style="stop-color:#d1daed;stop-opacity:1"/><stop offset="1" style="stop-color:#e2e8f5;stop-opacity:1"/></linearGradient><linearGradient id="_Linear16" x1="0" y1="0" x2="1" y2="0" gradientUnits="userSpaceOnUse" gradientTransform="matrix(4.05199,0,0,4.05199,354.283,570.764)"><stop offset="0" style="stop-color:#d1daed;stop-opacity:1"/><stop offset="1" style="stop-color:#e2e8f5;stop-opacity:1"/></linearGradient><linearGradient id="_Linear17" x1="0" y1="0" x2="1" y2="0" gradientUnits="userSpaceOnUse" gradientTransform="matrix(3.9516,0,0,3.9516,347.324,571.982)"><stop offset="0" style="stop-color:#d1daed;stop-opacity:1"/><stop offset="1" style="stop-color:#e2e8f5;stop-opacity:1"/></linearGradient><linearGradient id="_Linear18" x1="0" y1="0" x2="1" y2="0" gradientUnits="userSpaceOnUse" gradientTransform="matrix(3.84864,0,0,3.84864,342.046,569.923)"><stop offset="0" style="stop-color:#d1daed;stop-opacity:1"/><stop offset="1" style="stop-color:#e2e8f5;stop-opacity:1"/></linearGradient><linearGradient id="_Linear19" x1="0" y1="0" x2="1" y2="0" gradientUnits="userSpaceOnUse" gradientTransform="matrix(3.66543,0,0,3.66543,334.987,569.699)"><stop offset="0" style="stop-color:#d1daed;stop-opacity:1"/><stop offset="1" style="stop-color:#e2e8f5;stop-opacity:1"/></linearGradient><linearGradient id="_Linear20" x1="0" y1="0" x2="1" y2="0" gradientUnits="userSpaceOnUse" gradientTransform="matrix(3.5482,0,0,3.5482,331.432,564.21)"><stop offset="0" style="stop-color:#d1daed;stop-opacity:1"/><stop offset="1" style="stop-color:#e2e8f5;stop-opacity:1"/></linearGradient><linearGradient id="_Linear21" x1="0" y1="0" x2="1" y2="0" gradientUnits="userSpaceOnUse" gradientTransform="matrix(3.26115,0,0,3.26115,317.9,533.481)"><stop offset="0" style="stop-color:#d1daed;stop-opacity:1"/><stop offset="1" style="stop-color:#e2e8f5;stop-opacity:1"/></linearGradient><linearGradient id="_Linear22" x1="0" y1="0" x2="1" y2="0" gradientUnits="userSpaceOnUse" gradientTransform="matrix(3.0276,0,0,3.0276,310.345,558.8)"><stop offset="0" style="stop-color:#d1daed;stop-opacity:1"/><stop offset="1" style="stop-color:#e2e8f5;stop-opacity:1"/></linearGradient><linearGradient id="_Linear23" x1="0" y1="0" x2="1" y2="0" gradientUnits="userSpaceOnUse" gradientTransform="matrix(3.3856,0,0,3.3856,321.903,513.168)"><stop offset="0" style="stop-color:#d1daed;stop-opacity:1"/><stop offset="1" style="stop-color:#e2e8f5;stop-opacity:1"/></linearGradient><linearGradient id="_Linear24" x1="0" y1="0" x2="1" y2="0" gradientUnits="userSpaceOnUse" gradientTransform="matrix(3.85958,0,0,3.85958,337.712,518.302)"><stop offset="0" style="stop-color:#d1daed;stop-opacity:1"/><stop offset="1" style="stop-color:#e2e8f5;stop-opacity:1"/></linearGradient><linearGradient id="_Linear25" x1="0" y1="0" x2="1" y2="0" gradientUnits="userSpaceOnUse" gradientTransform="matrix(4.35872,0,0,4.35872,351.977,492.468)"><stop offset="0" style="stop-color:#d1daed;stop-opacity:1"/><stop offset="1" style="stop-color:#e2e8f5;stop-opacity:1"/></linearGradient><linearGradient id="_Linear26" x1="0" y1="0" x2="1" y2="0" gradientUnits="userSpaceOnUse" gradientTransform="matrix(4.88565,0,0,4.88565,369.581,479.346)"><stop offset="0" style="stop-color:#d1daed;stop-opacity:1"/><stop offset="1" style="stop-color:#e2e8f5;stop-opacity:1"/></linearGradient><linearGradient id="_Linear27" x1="0" y1="0" x2="1" y2="0" gradientUnits="userSpaceOnUse" gradientTransform="matrix(5.53878,0,0,5.53878,392.05,479.504)"><stop offset="0" style="stop-color:#d1daed;stop-opacity:1"/><stop offset="1" style="stop-color:#e2e8f5;stop-opacity:1"/></linearGradient><linearGradient id="_Linear28" x1="0" y1="0" x2="1" y2="0" gradientUnits="userSpaceOnUse" gradientTransform="matrix(5.5967,0,0,5.5967,387.643,398.266)"><stop offset="0" style="stop-color:#d1daed;stop-opacity:1"/><stop offset="1" style="stop-color:#e2e8f5;stop-opacity:1"/></linearGradient><linearGradient id="_Linear29" x1="0" y1="0" x2="1" y2="0" gradientUnits="userSpaceOnUse" gradientTransform="matrix(7.17814,0,0,7.17814,460.091,491.013)"><stop offset="0" style="stop-color:#d1daed;stop-opacity:1"/><stop offset="1" style="stop-color:#e2e8f5;stop-opacity:1"/></linearGradient><linearGradient id="_Linear30" x1="0" y1="0" x2="1" y2="0" gradientUnits="userSpaceOnUse" gradientTransform="matrix(6.47124,0,0,6.47124,425.626,403.303)"><stop offset="0" style="stop-color:#d1daed;stop-opacity:1"/><stop offset="1" style="stop-color:#e2e8f5;stop-opacity:1"/></linearGradient><linearGradient id="_Linear31" x1="0" y1="0" x2="1" y2="0" gradientUnits="userSpaceOnUse" gradientTransform="matrix(7.5829,0,0,7.5829,477.212,430.21)"><stop offset="0" style="stop-color:#d1daed;stop-opacity:1"/><stop offset="1" style="stop-color:#e2e8f5;stop-opacity:1"/></linearGradient><linearGradient id="_Linear32" x1="0" y1="0" x2="1" y2="0" gradientUnits="userSpaceOnUse" gradientTransform="matrix(8.37483,0,0,8.37483,515.765,430.033)"><stop offset="0" style="stop-color:#d1daed;stop-opacity:1"/><stop offset="1" style="stop-color:#e2e8f5;stop-opacity:1"/></linearGradient><linearGradient id="_Linear33" x1="0" y1="0" x2="1" y2="0" gradientUnits="userSpaceOnUse" gradientTransform="matrix(7.91908,0,0,7.91908,496.724,380.382)"><stop offset="0" style="stop-color:#d1daed;stop-opacity:1"/><stop offset="1" style="stop-color:#e2e8f5;stop-opacity:1"/></linearGradient><linearGradient id="_Linear34" x1="0" y1="0" x2="1" y2="0" gradientUnits="userSpaceOnUse" gradientTransform="matrix(7.43858,0,0,7.43858,478.655,339.798)"><stop offset="0" style="stop-color:#d1daed;stop-opacity:1"/><stop offset="1" style="stop-color:#e2e8f5;stop-opacity:1"/></linearGradient><linearGradient id="_Linear35" x1="0" y1="0" x2="1" y2="0" gradientUnits="userSpaceOnUse" gradientTransform="matrix(8.40195,0,0,8.40195,528.401,349.814)"><stop offset="0" style="stop-color:#d1daed;stop-opacity:1"/><stop offset="1" style="stop-color:#e2e8f5;stop-opacity:1"/></linearGradient><linearGradient id="_Linear36" x1="0" y1="0" x2="1" y2="0" gradientUnits="userSpaceOnUse" gradientTransform="matrix(8.55121,0,0,8.55121,541.85,333.463)"><stop offset="0" style="stop-color:#d1daed;stop-opacity:1"/><stop offset="1" style="stop-color:#e2e8f5;stop-opacity:1"/></linearGradient><linearGradient id="_Linear37" x1="0" y1="0" x2="1" y2="0" gradientUnits="userSpaceOnUse" gradientTransform="matrix(9.24267,0,0,9.24267,581.696,331.096)"><stop offset="0" style="stop-color:#d1daed;stop-opacity:1"/><stop offset="1" style="stop-color:#e2e8f5;stop-opacity:1"/></linearGradient><linearGradient id="_Linear38" x1="0" y1="0" x2="1" y2="0" gradientUnits="userSpaceOnUse" gradientTransform="matrix(9.06863,0,0,9.06863,580.781,311.105)"><stop offset="0" style="stop-color:#d1daed;stop-opacity:1"/><stop offset="1" style="stop-color:#e2e8f5;stop-opacity:1"/></linearGradient><linearGradient id="_Linear39" x1="0" y1="0" x2="1" y2="0" gradientUnits="userSpaceOnUse" gradientTransform="matrix(9.30765,0,0,9.30765,601.577,302.412)"><stop offset="0" style="stop-color:#d1daed;stop-opacity:1"/><stop offset="1" style="stop-color:#e2e8f5;stop-opacity:1"/></linearGradient><linearGradient id="_Linear40" x1="0" y1="0" x2="1" y2="0" gradientUnits="userSpaceOnUse" gradientTransform="matrix(9.33198,0,0,9.33198,613.738,291.982)"><stop offset="0" style="stop-color:#d1daed;stop-opacity:1"/><stop offset="1" style="stop-color:#e2e8f5;stop-opacity:1"/></linearGradient><linearGradient id="_Linear41" x1="0" y1="0" x2="1" y2="0" gradientUnits="userSpaceOnUse" gradientTransform="matrix(9.3578,0,0,9.3578,624.711,282.564)"><stop offset="0" style="stop-color:#d1daed;stop-opacity:1"/><stop offset="1" style="stop-color:#e2e8f5;stop-opacity:1"/></linearGradient><linearGradient id="_Linear42" x1="0" y1="0" x2="1" y2="0" gradientUnits="userSpaceOnUse" gradientTransform="matrix(9.6905,0,0,9.6905,652.98,273.184)"><stop offset="0" style="stop-color:#d1daed;stop-opacity:1"/><stop offset="1" style="stop-color:#e2e8f5;stop-opacity:1"/></linearGradient><linearGradient id="_Linear43" x1="0" y1="0" x2="1" y2="0" gradientUnits="userSpaceOnUse" gradientTransform="matrix(9.88385,0,0,9.88385,673.087,265.862)"><stop offset="0" style="stop-color:#d1daed;stop-opacity:1"/><stop offset="1" style="stop-color:#e2e8f5;stop-opacity:1"/></linearGradient><linearGradient id="_Linear44" x1="0" y1="0" x2="1" y2="0" gradientUnits="userSpaceOnUse" gradientTransform="matrix(10.0097,0,0,10.0097,690.019,257.156)"><stop offset="0" style="stop-color:#d1daed;stop-opacity:1"/><stop offset="1" style="stop-color:#e2e8f5;stop-opacity:1"/></linearGradient><linearGradient id="_Linear45" x1="0" y1="0" x2="1" y2="0" gradientUnits="userSpaceOnUse" gradientTransform="matrix(10.3246,0,0,10.3246,718.954,254.518)"><stop offset="0" style="stop-color:#d1daed;stop-opacity:1"/><stop offset="1" style="stop-color:#e2e8f5;stop-opacity:1"/></linearGradient><linearGradient id="_Linear46" x1="0" y1="0" x2="1" y2="0" gradientUnits="userSpaceOnUse" gradientTransform="matrix(10.2961,0,0,10.2961,731.678,244.734)"><stop offset="0" style="stop-color:#d1daed;stop-opacity:1"/><stop offset="1" style="stop-color:#e2e8f5;stop-opacity:1"/></linearGradient><linearGradient id="_Linear47" x1="0" y1="0" x2="1" y2="0" gradientUnits="userSpaceOnUse" gradientTransform="matrix(10.3097,0,0,10.3097,748.551,239.042)"><stop offset="0" style="stop-color:#d1daed;stop-opacity:1"/><stop offset="1" style="stop-color:#e2e8f5;stop-opacity:1"/></linearGradient><linearGradient id="_Linear48" x1="0" y1="0" x2="1" y2="0" gradientUnits="userSpaceOnUse" gradientTransform="matrix(10.3167,0,0,10.3167,765.232,231.089)"><stop offset="0" style="stop-color:#d1daed;stop-opacity:1"/><stop offset="1" style="stop-color:#e2e8f5;stop-opacity:1"/></linearGradient><linearGradient id="_Linear49" x1="0" y1="0" x2="1" y2="0" gradientUnits="userSpaceOnUse" gradientTransform="matrix(10.2715,0,0,10.2715,779.062,224.319)"><stop offset="0" style="stop-color:#d1daed;stop-opacity:1"/><stop offset="1" style="stop-color:#e2e8f5;stop-opacity:1"/></linearGradient><linearGradient id="_Linear50" x1="0" y1="0" x2="1" y2="0" gradientUnits="userSpaceOnUse" gradientTransform="matrix(10.2527,0,0,10.2527,794.453,218.347)"><stop offset="0" style="stop-color:#d1daed;stop-opacity:1"/><stop offset="1" style="stop-color:#e2e8f5;stop-opacity:1"/></linearGradient><linearGradient id="_Linear51" x1="0" y1="0" x2="1" y2="0" gradientUnits="userSpaceOnUse" gradientTransform="matrix(10.236,0,0,10.236,811.893,212.867)"><stop offset="0" style="stop-color:#d1daed;stop-opacity:1"/><stop offset="1" style="stop-color:#e2e8f5;stop-opacity:1"/></linearGradient><linearGradient id="_Linear52" x1="0" y1="0" x2="1" y2="0" gradientUnits="userSpaceOnUse" gradientTransform="matrix(10.1672,0,0,10.1672,826.241,208.164)"><stop offset="0" style="stop-color:#d1daed;stop-opacity:1"/><stop offset="1" style="stop-color:#e2e8f5;stop-opacity:1"/></linearGradient><linearGradient id="_Linear53" x1="0" y1="0" x2="1" y2="0" gradientUnits="userSpaceOnUse" gradientTransform="matrix(10.1331,0,0,10.1331,840.666,200.233)"><stop offset="0" style="stop-color:#d1daed;stop-opacity:1"/><stop offset="1" style="stop-color:#e2e8f5;stop-opacity:1"/></linearGradient><linearGradient id="_Linear54" x1="0" y1="0" x2="1" y2="0" gradientUnits="userSpaceOnUse" gradientTransform="matrix(9.9852,0,0,9.9852,849.835,198.999)"><stop offset="0" style="stop-color:#d1daed;stop-opacity:1"/><stop offset="1" style="stop-color:#e2e8f5;stop-opacity:1"/></linearGradient><linearGradient id="_Linear55" x1="0" y1="0" x2="1" y2="0" gradientUnits="userSpaceOnUse" gradientTransform="matrix(10.144,0,0,10.144,878.96,198.979)"><stop offset="0" style="stop-color:#d1daed;stop-opacity:1"/><stop offset="1" style="stop-color:#e2e8f5;stop-opacity:1"/></linearGradient><linearGradient id="_Linear56" x1="0" y1="0" x2="1" y2="0" gradientUnits="userSpaceOnUse" gradientTransform="matrix(10.0567,0,0,10.0567,891.921,204.001)"><stop offset="0" style="stop-color:#d1daed;stop-opacity:1"/><stop offset="1" style="stop-color:#e2e8f5;stop-opacity:1"/></linearGradient><linearGradient id="_Linear57" x1="0" y1="0" x2="1" y2="0" gradientUnits="userSpaceOnUse" gradientTransform="matrix(10.6726,0,0,10.6726,955.748,207.274)"><stop offset="0" style="stop-color:#d1daed;stop-opacity:1"/><stop offset="1" style="stop-color:#e2e8f5;stop-opacity:1"/></linearGradient><linearGradient id="_Linear58" x1="0" y1="0" x2="1" y2="0" gradientUnits="userSpaceOnUse" gradientTransform="matrix(9.69935,0,0,9.69935,906.564,207.598)"><stop offset="0" style="stop-color:#d1daed;stop-opacity:1"/><stop offset="1" style="stop-color:#e2e8f5;stop-opacity:1"/></linearGradient><linearGradient id="_Linear59" x1="0" y1="0" x2="1" y2="0" gradientUnits="userSpaceOnUse" gradientTransform="matrix(9.82855,0,0,9.82855,936.319,215.994)"><stop offset="0" style="stop-color:#d1daed;stop-opacity:1"/><stop offset="1" style="stop-color:#e2e8f5;stop-opacity:1"/></linearGradient><linearGradient id="_Linear60" x1="0" y1="0" x2="1" y2="0" gradientUnits="userSpaceOnUse" gradientTransform="matrix(11.5491,0,0,11.5491,1085.27,229.859)"><stop offset="0" style="stop-color:#d1daed;stop-opacity:1"/><stop offset="1" style="stop-color:#e2e8f5;stop-opacity:1"/></linearGradient><linearGradient id="_Linear61" x1="0" y1="0" x2="1" y2="0" gradientUnits="userSpaceOnUse" gradientTransform="matrix(9.50266,0,0,9.50266,951.66,220.196)"><stop offset="0" style="stop-color:#d1daed;stop-opacity:1"/><stop offset="1" style="stop-color:#e2e8f5;stop-opacity:1"/></linearGradient><linearGradient id="_Linear62" x1="0" y1="0" x2="1" y2="0" gradientUnits="userSpaceOnUse" gradientTransform="matrix(10.3479,0,0,10.3479,1037.52,235.955)"><stop offset="0" style="stop-color:#d1daed;stop-opacity:1"/><stop offset="1" style="stop-color:#e2e8f5;stop-opacity:1"/></linearGradient><linearGradient id="_Linear63" x1="0" y1="0" x2="1" y2="0" gradientUnits="userSpaceOnUse" gradientTransform="matrix(9.367,0,0,9.367,984.569,232.329)"><stop offset="0" style="stop-color:#d1daed;stop-opacity:1"/><stop offset="1" style="stop-color:#e2e8f5;stop-opacity:1"/></linearGradient><linearGradient id="_Linear64" x1="0" y1="0" x2="1" y2="0" gradientUnits="userSpaceOnUse" gradientTransform="matrix(9.12533,0,0,9.12533,983.006,239.155)"><stop offset="0" style="stop-color:#d1daed;stop-opacity:1"/><stop offset="1" style="stop-color:#e2e8f5;stop-opacity:1"/></linearGradient><linearGradient id="_Linear65" x1="0" y1="0" x2="1" y2="0" gradientUnits="userSpaceOnUse" gradientTransform="matrix(8.66883,0,0,8.66883,967.7,242.318)"><stop offset="0" style="stop-color:#d1daed;stop-opacity:1"/><stop offset="1" style="stop-color:#e2e8f5;stop-opacity:1"/></linearGradient><linearGradient id="_Linear66" x1="0" y1="0" x2="1" y2="0" gradientUnits="userSpaceOnUse" gradientTransform="matrix(8.54062,0,0,8.54062,978.753,248.709)"><stop offset="0" style="stop-color:#d1daed;stop-opacity:1"/><stop offset="1" style="stop-color:#e2e8f5;stop-opacity:1"/></linearGradient><linearGradient id="_Linear67" x1="0" y1="0" x2="1" y2="0" gradientUnits="userSpaceOnUse" gradientTransform="matrix(8.78945,0,0,8.78945,1019.66,259.107)"><stop offset="0" style="stop-color:#d1daed;stop-opacity:1"/><stop offset="1" style="stop-color:#e2e8f5;stop-opacity:1"/></linearGradient><linearGradient id="_Linear68" x1="0" y1="0" x2="1" y2="0" gradientUnits="userSpaceOnUse" gradientTransform="matrix(8.4972,0,0,8.4972,1013.4,265.169)"><stop offset="0" style="stop-color:#d1daed;stop-opacity:1"/><stop offset="1" style="stop-color:#e2e8f5;stop-opacity:1"/></linearGradient><linearGradient id="_Linear69" x1="0" y1="0" x2="1" y2="0" gradientUnits="userSpaceOnUse" gradientTransform="matrix(8.45783,0,0,8.45783,1031.86,271.896)"><stop offset="0" style="stop-color:#d1daed;stop-opacity:1"/><stop offset="1" style="stop-color:#e2e8f5;stop-opacity:1"/></linearGradient><linearGradient id="_Linear70" x1="0" y1="0" x2="1" y2="0" gradientUnits="userSpaceOnUse" gradientTransform="matrix(8.2944,0,0,8.2944,1033.34,278.819)"><stop offset="0" style="stop-color:#d1daed;stop-opacity:1"/><stop offset="1" style="stop-color:#e2e8f5;stop-opacity:1"/></linearGradient><linearGradient id="_Linear71" x1="0" y1="0" x2="1" y2="0" gradientUnits="userSpaceOnUse" gradientTransform="matrix(8.02223,0,0,8.02223,1026.81,285.61)"><stop offset="0" style="stop-color:#d1daed;stop-opacity:1"/><stop offset="1" style="stop-color:#e2e8f5;stop-opacity:1"/></linearGradient><linearGradient id="_Linear72" x1="0" y1="0" x2="1" y2="0" gradientUnits="userSpaceOnUse" gradientTransform="matrix(8.15917,0,0,8.15917,1061.43,297.023)"><stop offset="0" style="stop-color:#d1daed;stop-opacity:1"/><stop offset="1" style="stop-color:#e2e8f5;stop-opacity:1"/></linearGradient><linearGradient id="_Linear73" x1="0" y1="0" x2="1" y2="0" gradientUnits="userSpaceOnUse" gradientTransform="matrix(7.82221,0,0,7.82221,1047.29,299.66)"><stop offset="0" style="stop-color:#d1daed;stop-opacity:1"/><stop offset="1" style="stop-color:#e2e8f5;stop-opacity:1"/></linearGradient><linearGradient id="_Linear74" x1="0" y1="0" x2="1" y2="0" gradientUnits="userSpaceOnUse" gradientTransform="matrix(7.98917,0,0,7.98917,1079.72,311.33)"><stop offset="0" style="stop-color:#d1daed;stop-opacity:1"/><stop offset="1" style="stop-color:#e2e8f5;stop-opacity:1"/></linearGradient><linearGradient id="_Linear75" x1="0" y1="0" x2="1" y2="0" gradientUnits="userSpaceOnUse" gradientTransform="matrix(7.61975,0,0,7.61975,1061.01,312.365)"><stop offset="0" style="stop-color:#d1daed;stop-opacity:1"/><stop offset="1" style="stop-color:#e2e8f5;stop-opacity:1"/></linearGradient><linearGradient id="_Linear76" x1="0" y1="0" x2="1" y2="0" gradientUnits="userSpaceOnUse" gradientTransform="matrix(7.60288,0,0,7.60288,1077.63,320.448)"><stop offset="0" style="stop-color:#d1daed;stop-opacity:1"/><stop offset="1" style="stop-color:#e2e8f5;stop-opacity:1"/></linearGradient><linearGradient id="_Linear77" x1="0" y1="0" x2="1" y2="0" gradientUnits="userSpaceOnUse" gradientTransform="matrix(7.58307,0,0,7.58307,1088.2,327.962)"><stop offset="0" style="stop-color:#d1daed;stop-opacity:1"/><stop offset="1" style="stop-color:#e2e8f5;stop-opacity:1"/></linearGradient><linearGradient id="_Linear78" x1="0" y1="0" x2="1" y2="0" gradientUnits="userSpaceOnUse" gradientTransform="matrix(7.47069,0,0,7.47069,1094.66,333.752)"><stop offset="0" style="stop-color:#d1daed;stop-opacity:1"/><stop offset="1" style="stop-color:#e2e8f5;stop-opacity:1"/></linearGradient><linearGradient id="_Linear79" x1="0" y1="0" x2="1" y2="0" gradientUnits="userSpaceOnUse" gradientTransform="matrix(7.39331,0,0,7.39331,1104.67,340.059)"><stop offset="0" style="stop-color:#d1daed;stop-opacity:1"/><stop offset="1" style="stop-color:#e2e8f5;stop-opacity:1"/></linearGradient><linearGradient id="_Linear80" x1="0" y1="0" x2="1" y2="0" gradientUnits="userSpaceOnUse" gradientTransform="matrix(7.40032,0,0,7.40032,1117.9,346.953)"><stop offset="0" style="stop-color:#d1daed;stop-opacity:1"/><stop offset="1" style="stop-color:#e2e8f5;stop-opacity:1"/></linearGradient><linearGradient id="_Linear81" x1="0" y1="0" x2="1" y2="0" gradientUnits="userSpaceOnUse" gradientTransform="matrix(7.46712,0,0,7.46712,1140.98,356.114)"><stop offset="0" style="stop-color:#d1daed;stop-opacity:1"/><stop offset="1" style="stop-color:#e2e8f5;stop-opacity:1"/></linearGradient><linearGradient id="_Linear82" x1="0" y1="0" x2="1" y2="0" gradientUnits="userSpaceOnUse" gradientTransform="matrix(7.10178,0,0,7.10178,1115.13,354.519)"><stop offset="0" style="stop-color:#d1daed;stop-opacity:1"/><stop offset="1" style="stop-color:#e2e8f5;stop-opacity:1"/></linearGradient><linearGradient id="_Linear83" x1="0" y1="0" x2="1" y2="0" gradientUnits="userSpaceOnUse" gradientTransform="matrix(7.26045,0,0,7.26045,1145.6,362.572)"><stop offset="0" style="stop-color:#d1daed;stop-opacity:1"/><stop offset="1" style="stop-color:#e2e8f5;stop-opacity:1"/></linearGradient><linearGradient id="_Linear84" x1="0" y1="0" x2="1" y2="0" gradientUnits="userSpaceOnUse" gradientTransform="matrix(7.02454,0,0,7.02454,1133.73,363.606)"><stop offset="0" style="stop-color:#d1daed;stop-opacity:1"/><stop offset="1" style="stop-color:#e2e8f5;stop-opacity:1"/></linearGradient><linearGradient id="_Linear85" x1="0" y1="0" x2="1" y2="0" gradientUnits="userSpaceOnUse" gradientTransform="matrix(7.28211,0,0,7.28211,1179.55,375.445)"><stop offset="0" style="stop-color:#d1daed;stop-opacity:1"/><stop offset="1" style="stop-color:#e2e8f5;stop-opacity:1"/></linearGradient><linearGradient id="_Linear86" x1="0" y1="0" x2="1" y2="0" gradientUnits="userSpaceOnUse" gradientTransform="matrix(7.01276,0,0,7.01276,1163.2,373.507)"><stop offset="0" style="stop-color:#d1daed;stop-opacity:1"/><stop offset="1" style="stop-color:#e2e8f5;stop-opacity:1"/></linearGradient><linearGradient id="_Linear87" x1="0" y1="0" x2="1" y2="0" gradientUnits="userSpaceOnUse" gradientTransform="matrix(6.9692,0,0,6.9692,1173.58,377.102)"><stop offset="0" style="stop-color:#d1daed;stop-opacity:1"/><stop offset="1" style="stop-color:#e2e8f5;stop-opacity:1"/></linearGradient><linearGradient id="_Linear88" x1="0" y1="0" x2="1" y2="0" gradientUnits="userSpaceOnUse" gradientTransform="matrix(6.85627,0,0,6.85627,1178.72,380.95)"><stop offset="0" style="stop-color:#d1daed;stop-opacity:1"/><stop offset="1" style="stop-color:#e2e8f5;stop-opacity:1"/></linearGradient><linearGradient id="_Linear89" x1="0" y1="0" x2="1" y2="0" gradientUnits="userSpaceOnUse" gradientTransform="matrix(6.80527,0,0,6.80527,1184.93,374.58)"><stop offset="0" style="stop-color:#d1daed;stop-opacity:1"/><stop offset="1" style="stop-color:#e2e8f5;stop-opacity:1"/></linearGradient><linearGradient id="_Linear90" x1="0" y1="0" x2="1" y2="0" gradientUnits="userSpaceOnUse" gradientTransform="matrix(6.70021,0,0,6.70021,1190.88,374.099)"><stop offset="0" style="stop-color:#d1daed;stop-opacity:1"/><stop offset="1" style="stop-color:#e2e8f5;stop-opacity:1"/></linearGradient><linearGradient id="_Linear91" x1="0" y1="0" x2="1" y2="0" gradientUnits="userSpaceOnUse" gradientTransform="matrix(6.80669,0,0,6.80669,1217.38,374.638)"><stop offset="0" style="stop-color:#d1daed;stop-opacity:1"/><stop offset="1" style="stop-color:#e2e8f5;stop-opacity:1"/></linearGradient><linearGradient id="_Linear92" x1="0" y1="0" x2="1" y2="0" gradientUnits="userSpaceOnUse" gradientTransform="matrix(6.80007,0,0,6.80007,1232.97,376.442)"><stop offset="0" style="stop-color:#d1daed;stop-opacity:1"/><stop offset="1" style="stop-color:#e2e8f5;stop-opacity:1"/></linearGradient><linearGradient id="_Linear93" x1="0" y1="0" x2="1" y2="0" gradientUnits="userSpaceOnUse" gradientTransform="matrix(6.88656,0,0,6.88656,1261.2,375.586)"><stop offset="0" style="stop-color:#d1daed;stop-opacity:1"/><stop offset="1" style="stop-color:#e2e8f5;stop-opacity:1"/></linearGradient><linearGradient id="_Linear94" x1="0" y1="0" x2="1" y2="0" gradientUnits="userSpaceOnUse" gradientTransform="matrix(6.6604,0,0,6.6604,1244.31,368.658)"><stop offset="0" style="stop-color:#d1daed;stop-opacity:1"/><stop offset="1" style="stop-color:#e2e8f5;stop-opacity:1"/></linearGradient><linearGradient id="_Linear95" x1="0" y1="0" x2="1" y2="0" gradientUnits="userSpaceOnUse" gradientTransform="matrix(6.39095,0,0,6.39095,1224.45,361.481)"><stop offset="0" style="stop-color:#d1daed;stop-opacity:1"/><stop offset="1" style="stop-color:#e2e8f5;stop-opacity:1"/></linearGradient><linearGradient id="_Linear96" x1="0" y1="0" x2="1" y2="0" gradientUnits="userSpaceOnUse" gradientTransform="matrix(6.63405,0,0,6.63405,1278.3,361.847)"><stop offset="0" style="stop-color:#d1daed;stop-opacity:1"/><stop offset="1" style="stop-color:#e2e8f5;stop-opacity:1"/></linearGradient><linearGradient id="_Linear97" x1="0" y1="0" x2="1" y2="0" gradientUnits="userSpaceOnUse" gradientTransform="matrix(6.72053,0,0,6.72053,1307.91,357.089)"><stop offset="0" style="stop-color:#d1daed;stop-opacity:1"/><stop offset="1" style="stop-color:#e2e8f5;stop-opacity:1"/></linearGradient><linearGradient id="_Linear98" x1="0" y1="0" x2="1" y2="0" gradientUnits="userSpaceOnUse" gradientTransform="matrix(6.35179,0,0,6.35179,1269.39,347.412)"><stop offset="0" style="stop-color:#d1daed;stop-opacity:1"/><stop offset="1" style="stop-color:#e2e8f5;stop-opacity:1"/></linearGradient><linearGradient id="_Linear99" x1="0" y1="0" x2="1" y2="0" gradientUnits="userSpaceOnUse" gradientTransform="matrix(6.42246,0,0,6.42246,1300.45,339.764)"><stop offset="0" style="stop-color:#d1daed;stop-opacity:1"/><stop offset="1" style="stop-color:#e2e8f5;stop-opacity:1"/></linearGradient><linearGradient id="_Linear100" x1="0" y1="0" x2="1" y2="0" gradientUnits="userSpaceOnUse" gradientTransform="matrix(6.45368,0,0,6.45368,1318.9,331.927)"><stop offset="0" style="stop-color:#d1daed;stop-opacity:1"/><stop offset="1" style="stop-color:#e2e8f5;stop-opacity:1"/></linearGradient><linearGradient id="_Linear101" x1="0" y1="0" x2="1" y2="0" gradientUnits="userSpaceOnUse" gradientTransform="matrix(6.32856,0,0,6.32856,1321.83,322.216)"><stop offset="0" style="stop-color:#d1daed;stop-opacity:1"/><stop offset="1" style="stop-color:#e2e8f5;stop-opacity:1"/></linearGradient><linearGradient id="_Linear102" x1="0" y1="0" x2="1" y2="0" gradientUnits="userSpaceOnUse" gradientTransform="matrix(6.30024,0,0,6.30024,1339.13,312.117)"><stop offset="0" style="stop-color:#d1daed;stop-opacity:1"/><stop offset="1" style="stop-color:#e2e8f5;stop-opacity:1"/></linearGradient><linearGradient id="_Linear103" x1="0" y1="0" x2="1" y2="0" gradientUnits="userSpaceOnUse" gradientTransform="matrix(6.1258,0,0,6.1258,1337.78,303.698)"><stop offset="0" style="stop-color:#d1daed;stop-opacity:1"/><stop offset="1" style="stop-color:#e2e8f5;stop-opacity:1"/></linearGradient><linearGradient id="_Linear104" x1="0" y1="0" x2="1" y2="0" gradientUnits="userSpaceOnUse" gradientTransform="matrix(6.0536,0,0,6.0536,1344.13,307.937)"><stop offset="0" style="stop-color:#d1daed;stop-opacity:1"/><stop offset="1" style="stop-color:#e2e8f5;stop-opacity:1"/></linearGradient><linearGradient id="_Linear105" x1="0" y1="0" x2="1" y2="0" gradientUnits="userSpaceOnUse" gradientTransform="matrix(5.88492,0,0,5.88492,1342.57,310.62)"><stop offset="0" style="stop-color:#d1daed;stop-opacity:1"/><stop offset="1" style="stop-color:#e2e8f5;stop-opacity:1"/></linearGradient><linearGradient id="_Linear106" x1="0" y1="0" x2="1" y2="0" gradientUnits="userSpaceOnUse" gradientTransform="matrix(5.60503,0,0,5.60503,1321.84,313.951)"><stop offset="0" style="stop-color:#d1daed;stop-opacity:1"/><stop offset="1" style="stop-color:#e2e8f5;stop-opacity:1"/></linearGradient><linearGradient id="_Linear107" x1="0" y1="0" x2="1" y2="0" gradientUnits="userSpaceOnUse" gradientTransform="matrix(5.72026,0,0,5.72026,1362.26,318.074)"><stop offset="0" style="stop-color:#d1daed;stop-opacity:1"/><stop offset="1" style="stop-color:#e2e8f5;stop-opacity:1"/></linearGradient><linearGradient id="_Linear108" x1="0" y1="0" x2="1" y2="0" gradientUnits="userSpaceOnUse" gradientTransform="matrix(5.49147,0,0,5.49147,1348.62,318.986)"><stop offset="0" style="stop-color:#d1daed;stop-opacity:1"/><stop offset="1" style="stop-color:#e2e8f5;stop-opacity:1"/></linearGradient><linearGradient id="_Linear109" x1="0" y1="0" x2="1" y2="0" gradientUnits="userSpaceOnUse" gradientTransform="matrix(5.33164,0,0,5.33164,1349.85,320.082)"><stop offset="0" style="stop-color:#d1daed;stop-opacity:1"/><stop offset="1" style="stop-color:#e2e8f5;stop-opacity:1"/></linearGradient><linearGradient id="_Linear110" x1="0" y1="0" x2="1" y2="0" gradientUnits="userSpaceOnUse" gradientTransform="matrix(5.24775,0,0,5.24775,1359.9,322.766)"><stop offset="0" style="stop-color:#d1daed;stop-opacity:1"/><stop offset="1" style="stop-color:#e2e8f5;stop-opacity:1"/></linearGradient><linearGradient id="_Linear111" x1="0" y1="0" x2="1" y2="0" gradientUnits="userSpaceOnUse" gradientTransform="matrix(4.9887,0,0,4.9887,1337.51,321.312)"><stop offset="0" style="stop-color:#d1daed;stop-opacity:1"/><stop offset="1" style="stop-color:#e2e8f5;stop-opacity:1"/></linearGradient><linearGradient id="_Linear112" x1="0" y1="0" x2="1" y2="0" gradientUnits="userSpaceOnUse" gradientTransform="matrix(4.76614,0,0,4.76614,1328.09,319.04)"><stop offset="0" style="stop-color:#d1daed;stop-opacity:1"/><stop offset="1" style="stop-color:#e2e8f5;stop-opacity:1"/></linearGradient><linearGradient id="_Linear113" x1="0" y1="0" x2="1" y2="0" gradientUnits="userSpaceOnUse" gradientTransform="matrix(4.7338,0,0,4.7338,1350.42,324.72)"><stop offset="0" style="stop-color:#d1daed;stop-opacity:1"/><stop offset="1" style="stop-color:#e2e8f5;stop-opacity:1"/></linearGradient><linearGradient id="_Linear114" x1="0" y1="0" x2="1" y2="0" gradientUnits="userSpaceOnUse" gradientTransform="matrix(4.4512,0,0,4.4512,1327.01,316.516)"><stop offset="0" style="stop-color:#d1daed;stop-opacity:1"/><stop offset="1" style="stop-color:#e2e8f5;stop-opacity:1"/></linearGradient><linearGradient id="_Linear115" x1="0" y1="0" x2="1" y2="0" gradientUnits="userSpaceOnUse" gradientTransform="matrix(4.20547,0,0,4.20547,1313.06,312.561)"><stop offset="0" style="stop-color:#d1daed;stop-opacity:1"/><stop offset="1" style="stop-color:#e2e8f5;stop-opacity:1"/></linearGradient><linearGradient id="_Linear116" x1="0" y1="0" x2="1" y2="0" gradientUnits="userSpaceOnUse" gradientTransform="matrix(3.88644,0,0,3.88644,1280.94,308.579)"><stop offset="0" style="stop-color:#d1daed;stop-opacity:1"/><stop offset="1" style="stop-color:#e2e8f5;stop-opacity:1"/></linearGradient><linearGradient id="_Linear117" x1="0" y1="0" x2="1" y2="0" gradientUnits="userSpaceOnUse" gradientTransform="matrix(3.73549,0,0,3.73549,1283.35,304.493)"><stop offset="0" style="stop-color:#d1daed;stop-opacity:1"/><stop offset="1" style="stop-color:#e2e8f5;stop-opacity:1"/></linearGradient><linearGradient id="_Linear118" x1="0" y1="0" x2="1" y2="0" gradientUnits="userSpaceOnUse" gradientTransform="matrix(3.43948,0,0,3.43948,1250.75,295.708)"><stop offset="0" style="stop-color:#d1daed;stop-opacity:1"/><stop offset="1" style="stop-color:#e2e8f5;stop-opacity:1"/></linearGradient><linearGradient id="_Linear119" x1="0" y1="0" x2="1" y2="0" gradientUnits="userSpaceOnUse" gradientTransform="matrix(3.20998,0,0,3.20998,1235.02,292.4)"><stop offset="0" style="stop-color:#d1daed;stop-opacity:1"/><stop offset="1" style="stop-color:#e2e8f5;stop-opacity:1"/></linearGradient><linearGradient id="_Linear120" x1="0" y1="0" x2="1" y2="0" gradientUnits="userSpaceOnUse" gradientTransform="matrix(3.0526,0,0,3.0526,1226.32,288.335)"><stop offset="0" style="stop-color:#d1daed;stop-opacity:1"/><stop offset="1" style="stop-color:#e2e8f5;stop-opacity:1"/></linearGradient><linearGradient id="_Linear121" x1="0" y1="0" x2="1" y2="0" gradientUnits="userSpaceOnUse" gradientTransform="matrix(2.82474,0,0,2.82474,1210.82,283.673)"><stop offset="0" style="stop-color:#d1daed;stop-opacity:1"/><stop offset="1" style="stop-color:#e2e8f5;stop-opacity:1"/></linearGradient><linearGradient id="_Linear122" x1="0" y1="0" x2="1" y2="0" gradientUnits="userSpaceOnUse" gradientTransform="matrix(2.56332,0,0,2.56332,1173.63,273.176)"><stop offset="0" style="stop-color:#d1daed;stop-opacity:1"/><stop offset="1" style="stop-color:#e2e8f5;stop-opacity:1"/></linearGradient><linearGradient id="_Linear123" x1="0" y1="0" x2="1" y2="0" gradientUnits="userSpaceOnUse" gradientTransform="matrix(2.34344,0,0,2.34344,1153.32,268.362)"><stop offset="0" style="stop-color:#d1daed;stop-opacity:1"/><stop offset="1" style="stop-color:#e2e8f5;stop-opacity:1"/></linearGradient><linearGradient id="_Linear124" x1="0" y1="0" x2="1" y2="0" gradientUnits="userSpaceOnUse" gradientTransform="matrix(2.10792,0,0,2.10792,1119.79,257.818)"><stop offset="0" style="stop-color:#d1daed;stop-opacity:1"/><stop offset="1" style="stop-color:#e2e8f5;stop-opacity:1"/></linearGradient><linearGradient id="_Linear125" x1="0" y1="0" x2="1" y2="0" gradientUnits="userSpaceOnUse" gradientTransform="matrix(1.99967,0,0,1.99967,1123.58,264.602)"><stop offset="0" style="stop-color:#d1daed;stop-opacity:1"/><stop offset="1" style="stop-color:#e2e8f5;stop-opacity:1"/></linearGradient><linearGradient id="_Linear126" x1="0" y1="0" x2="1" y2="0" gradientUnits="userSpaceOnUse" gradientTransform="matrix(1.71753,0,0,1.71753,1070.33,247.394)"><stop offset="0" style="stop-color:#d1daed;stop-opacity:1"/><stop offset="1" style="stop-color:#e2e8f5;stop-opacity:1"/></linearGradient><linearGradient id="_Linear127" x1="0" y1="0" x2="1" y2="0" gradientUnits="userSpaceOnUse" gradientTransform="matrix(1.51196,0,0,1.51196,1037.41,234.408)"><stop offset="0" style="stop-color:#d1daed;stop-opacity:1"/><stop offset="1" style="stop-color:#e2e8f5;stop-opacity:1"/></linearGradient><linearGradient id="_Linear128" x1="0" y1="0" x2="1" y2="0" gradientUnits="userSpaceOnUse" gradientTransform="matrix(1.26485,0,0,1.26485,990.557,226.895)"><stop offset="0" style="stop-color:#d1daed;stop-opacity:1"/><stop offset="1" style="stop-color:#e2e8f5;stop-opacity:1"/></linearGradient><linearGradient id="_Linear129" x1="0" y1="0" x2="1" y2="0" gradientUnits="userSpaceOnUse" gradientTransform="matrix(0.93757,0,0,0.93757,922.491,220.61)"><stop offset="0" style="stop-color:#d1daed;stop-opacity:1"/><stop offset="1" style="stop-color:#e2e8f5;stop-opacity:1"/></linearGradient><linearGradient id="_Linear130" x1="0" y1="0" x2="1" y2="0" gradientUnits="userSpaceOnUse" gradientTransform="matrix(0.572026,0,0,0.572026,828.915,213.031)"><stop offset="0" style="stop-color:#d1daed;stop-opacity:1"/><stop offset="1" style="stop-color:#e2e8f5;stop-opacity:1"/></linearGradient><linearGradient id="_Linear131" x1="0" y1="0" x2="1" y2="0" gradientUnits="userSpaceOnUse" gradientTransform="matrix(0.216114,0,0,0.216114,682.42,202.405)"><stop offset="0" style="stop-color:#d1daed;stop-opacity:1"/><stop offset="1" style="stop-color:#e2e8f5;stop-opacity:1"/></linearGradient><linearGradient id="_Linear132" x1="0" y1="0" x2="1" y2="0" gradientUnits="userSpaceOnUse" gradientTransform="matrix(0.490472,0,0,0.490472,799.911,187.151)"><stop offset="0" style="stop-color:#d1daed;stop-opacity:1"/><stop offset="1" style="stop-color:#e2e8f5;stop-opacity:1"/></linearGradient><linearGradient id="_Linear133" x1="0" y1="0" x2="1" y2="0" gradientUnits="userSpaceOnUse" gradientTransform="matrix(0.93852,0,0,0.93852,922.757,165.664)"><stop offset="0" style="stop-color:#d1daed;stop-opacity:1"/><stop offset="1" style="stop-color:#e2e8f5;stop-opacity:1"/></linearGradient><linearGradient id="_Linear134" x1="0" y1="0" x2="1" y2="0" gradientUnits="userSpaceOnUse" gradientTransform="matrix(1.48046,0,0,1.48046,1032.82,138.401)"><stop offset="0" style="stop-color:#d1daed;stop-opacity:1"/><stop offset="1" style="stop-color:#e2e8f5;stop-opacity:1"/></linearGradient><linearGradient id="_Linear135" x1="0" y1="0" x2="1" y2="0" gradientUnits="userSpaceOnUse" gradientTransform="matrix(2.11082,0,0,2.11082,1142.48,105.777)"><stop offset="0" style="stop-color:#d1daed;stop-opacity:1"/><stop offset="1" style="stop-color:#e2e8f5;stop-opacity:1"/></linearGradient></defs></svg>