<?xml version="1.0" encoding="UTF-8" standalone="no"?><!DOCTYPE svg PUBLIC "-//W3C//DTD SVG 1.1//EN" "http://www.w3.org/Graphics/SVG/1.1/DTD/svg11.dtd"><svg width="100%" height="100%" viewBox="0 0 490 374" version="1.1" xmlns="http://www.w3.org/2000/svg" xmlns:xlink="http://www.w3.org/1999/xlink" xml:space="preserve" xmlns:serif="http://www.serif.com/" style="fill-rule:evenodd;clip-rule:evenodd;stroke-linejoin:round;stroke-miterlimit:2;"><g><g><g><path d="M85.81,299.979c-0.205,0.138 -0.343,0.356 -0.38,0.6c0.183,0.996 0.465,1.97 0.84,2.91c0.178,0.443 0.609,0.735 1.086,0.735c0.197,0 0.391,-0.05 0.564,-0.145l11.29,-6.23c0,0 0.83,-0.71 -4.5,-1.05l-8.9,3.18Z" style="fill:#568f7f;fill-rule:nonzero;"/><path d="M107.12,293.149c0,0 -0.55,6.12 -2,7.24c-1.45,1.12 -3.28,5.28 -2.34,7.53c0.94,2.25 4.87,1.46 4.87,1.46c0,0 2.34,-2.36 2.55,-7.33c-0,-2.587 0.552,-5.144 1.62,-7.5l-4.7,-1.4Z" style="fill:#e9a391;fill-rule:nonzero;"/><path d="M129.36,295.589c0,0 0.44,6.18 0.08,8.19c-0.19,1.07 -1.26,3.28 -0.77,4.29c0.189,0.52 0.539,0.965 1,1.27l14.27,0.25c0,0 0,-2 -6.82,-4.13c-1.025,-0.482 -1.908,-1.223 -2.56,-2.15c-0.92,-1.12 -1,-6.56 -1,-6.56l-4.2,-1.16Z" style="fill:#e9a391;fill-rule:nonzero;"/><path d="M139.55,213.509c0,0 1.62,10 0.56,16.6c-1.06,6.6 -5.54,67.87 -5.54,67.87l-6.8,0.08c0,0 -1.25,-25.08 -1,-28.62c0.324,-3.041 0.893,-6.05 1.7,-9l0.14,-21.44l7.19,-27l3.75,1.51Z" style="fill:#568f7f;fill-rule:nonzero;"/><path d="M122.8,211.409c0,0 -4.49,7.33 -5.56,13.39c-1.07,6.06 0.78,24.72 -1.27,32.67c-1.11,4.3 -6.55,10.43 -7.19,16c-0.64,5.57 -3.32,20.8 -3.32,20.8l7.08,1.08l13.24,-36.37l10.34,-32.91l2.66,-16.94l-15.98,2.28Z" style="fill:#71bda7;fill-rule:nonzero;"/><path d="M109.65,305.619c-2.435,0.417 -4.89,-0.71 -6.16,-2.83c-0.78,1.67 -1.26,3.76 -0.68,5.13c0.93,2.25 4.87,1.46 4.87,1.46c0.932,-1.089 1.605,-2.374 1.97,-3.76Z" style="fill:#e27f66;fill-rule:nonzero;"/><path d="M137.17,305.459c-0.263,-0.092 -0.512,-0.22 -0.74,-0.38c-2.379,0.763 -4.954,0.653 -7.26,-0.31c-0.443,1.044 -0.697,2.158 -0.75,3.29c0.022,0.516 0.212,1.011 0.54,1.41l15,0.12c0,0 0,-1.98 -6.79,-4.13Z" style="fill:#e27f66;fill-rule:nonzero;"/><path d="M158.72,231.049c0,0 -0.67,-0.79 -0.88,-1.07c-0.21,-0.28 -0.89,-1.39 -0.89,-1.39c0,0 -2.1,-3.78 -1.83,-3.93c0.27,-0.15 1,0.29 1.17,0.48l0.67,0.56c0.09,0.077 0.205,0.119 0.324,0.119c0.161,0 0.312,-0.078 0.406,-0.209c0.23,-0.25 -0.44,-1.18 -0.74,-1.45c-1.278,-1.004 -2.613,-1.932 -4,-2.78c-0.35,-0.23 -2.88,-7.52 -3.93,-9.94c-1.61,-4 -3.08,-8.24 -3.25,-8.66l-2,-18.61l-6.65,-1.89c0,0 2,20.7 2.2,21.7c0.1,0.48 4.49,9.49 4.5,9.49c2.42,4.29 4.57,8.06 5,8.8c0,0 0.63,2.54 0.94,4.19c0.302,1.227 0.759,2.41 1.36,3.52c0.366,1.157 0.92,2.245 1.64,3.22c1,1.36 0.62,-0.43 0.62,-0.43c0,0 -1.44,-2.9 -1.21,-3c0.23,-0.1 0.88,1.56 2,3.08l0.82,1.13c0.68,0.92 1.4,0.73 0.82,-0.36c-0.25,-0.497 -0.538,-0.975 -0.86,-1.43c-0.278,-0.444 -0.522,-0.909 -0.73,-1.39c-0.276,-0.462 -0.527,-0.939 -0.75,-1.43c0.06,0 0.07,-0.24 0.39,0.16c0.32,0.4 1,1.72 1.56,2.39c0.34,0.38 1,1.22 1,1.22c0.4,0.426 0.835,0.817 1.3,1.17c0.44,-0.31 -0.2,-1.47 -0.73,-1.92c-0.261,-0.473 -0.569,-0.919 -0.92,-1.33c-0.351,-0.411 -1.11,-2.11 -0.84,-2.29c0.27,-0.18 3.78,4.34 4.2,4c0.42,-0.34 -0.71,-1.72 -0.71,-1.72Z" style="fill:#e59082;fill-rule:nonzero;"/><path d="M152.12,224.469c0,0 1.93,1.21 3,0.22c-0.237,0.469 -0.706,0.778 -1.23,0.81c-0.88,0.01 -1.77,-1.03 -1.77,-1.03Z" style="fill:#e28067;fill-rule:nonzero;"/><path d="M126.6,146.459c-0.95,2.86 -3.43,3.26 -6,4.53c-1.69,0.85 -2.25,4.29 -1.67,6.68c1.45,6.08 -3.12,4.23 -6.23,7.5c-7.47,7.88 4.89,15.29 6.66,16.54c1.77,1.25 8.42,3.61 9.59,3.8c3.55,0.56 8.16,-1.53 11.09,-6c2.93,-4.47 0.38,-7.74 0.84,-10.67c0.46,-2.93 3.77,-2.79 3.58,-8.63c-0.21,-6.31 -2,-11.43 -4.55,-14.07c-4.24,-4.35 -10.29,-3.47 -12.21,-1.49c-0.503,0.51 -0.879,1.129 -1.1,1.81Z" style="fill:#224552;fill-rule:nonzero;"/><path d="M138.12,169.879c0,0 2,1 4.62,6.92c2.48,5.52 2.89,18.35 2.89,18.35c0,0 -3.94,1.38 -6.2,0.9c-2.26,-0.48 -1.31,-26.17 -1.31,-26.17Z" style="fill:#edc989;fill-rule:nonzero;"/><path d="M130.67,167.979c0,0 -1.31,0.12 -8,1.69c-1.46,0.528 -2.684,1.56 -3.45,2.91c-3.41,6.69 -6.41,18.66 -6.41,18.66c0,0 5.57,2 7.51,2l2.29,-8c0,0 2.63,16.89 1.51,19.74l-3.77,10.07c0,0 0,1.54 10.23,2.72c3.072,0.228 6.16,0.064 9.19,-0.49c3.03,-0.553 -0.93,-10.91 -0.11,-15.65c1.34,-7.73 4,-17 4.09,-18.16c0.22,-1.9 -3.75,-12.64 -5.81,-13.65c-0.69,-0.407 -1.421,-0.742 -2.18,-1c-1.672,-0.411 -3.374,-0.692 -5.09,-0.84Z" style="fill:#f2dbb0;fill-rule:nonzero;"/><path d="M131.56,160.399c-0.071,2.472 -0.349,4.934 -0.83,7.36c-0.62,2 1.3,9.16 5.19,10.21c3.51,0.94 1,-5.77 0.49,-8.62c0,-0.32 0.63,-10.27 0.63,-10.27l-5.48,1.32Z" style="fill:#e9a391;fill-rule:nonzero;"/><path d="M136.78,162.209c0.3,-1.7 0.58,-3.11 0.58,-3.11l-5.8,1.3c0,0 0,1.1 -0.15,2.49c1.726,1.039 3.958,0.757 5.37,-0.68Z" style="fill:#e28067;fill-rule:nonzero;"/><path d="M133.32,145.769c-1.547,0.581 -2.828,1.709 -3.6,3.17c-1.31,2.48 -2,9.58 2.87,12.61c4.87,3.03 8.27,-1.83 8.13,-6.37c-0.14,-4.54 -1.31,-10.55 -7.4,-9.41Z" style="fill:#e9a391;fill-rule:nonzero;"/><path d="M141.12,153.639c-0.35,1.12 -1.11,1.85 -1.71,1.62c-0.6,-0.23 -0.78,-1.31 -0.43,-2.43c0.35,-1.12 1.11,-1.84 1.7,-1.62c0.59,0.22 0.81,1.32 0.44,2.43Z" style="fill:#e9a391;fill-rule:nonzero;"/><path d="M129.35,155.199c0.39,1.16 0.14,2.34 -0.58,2.63c-0.72,0.29 -1.6,-0.41 -2,-1.57c-0.4,-1.16 -0.13,-2.34 0.58,-2.63c0.71,-0.29 1.61,0.41 2,1.57Z" style="fill:#e9a391;fill-rule:nonzero;"/><path d="M140.03,217.799l-16.63,-3.05l3.58,-25.48l17.5,3.78l-4.45,24.75Z" style="fill:#5071b3;fill-rule:nonzero;"/><path d="M142.53,203.799c0,-0.11 -1.41,0.31 -2.35,-0.14c-0.19,-0.09 0.65,-0.6 0.78,-0.78c0,0 1.67,-0.73 1.67,-1.45c0,-0.72 -1.34,-0.55 -1.34,-0.55c-1.532,0.39 -3.033,0.895 -4.49,1.51c-0.34,0.256 -0.652,0.548 -0.93,0.87c-0.189,0.018 -0.38,0.018 -0.57,0c-3.36,-0.23 -8.58,-2.19 -16.49,-5.34l0.81,-4.72c-2.061,-0.42 -4.09,-0.988 -6.07,-1.7c-0.55,3.62 -1.69,9.85 -1.2,11.19c0.35,0.94 4.56,2.42 9.28,3.84c6,1.82 7.69,1.77 13.07,2.49c1.557,0.366 3.087,0.837 4.58,1.41c1.24,0.27 1.65,0.52 2.41,-0.07c0.76,-0.59 0.84,-2 0.91,-3c0.188,-1.181 0.164,-2.387 -0.07,-3.56Z" style="fill:#e59082;fill-rule:nonzero;"/></g><g><path d="M447.99,292.799c0,0 0.49,2.82 0.74,5.6c0.005,0.054 0.007,0.108 0.007,0.162c-0,1.025 -0.822,1.879 -1.847,1.918c-3.71,0.16 -11.64,0.46 -14.49,0.33c-0.331,-0.019 -0.594,-0.297 -0.594,-0.629c0,-0.079 0.015,-0.157 0.044,-0.231c0.134,-0.333 0.392,-0.602 0.72,-0.75l13.1,-6l2.32,-0.4Z" style="fill:url(#_Linear1);fill-rule:nonzero;"/><path d="M409.34,169.979c-0.12,0.37 1.22,0.93 2,-0.58c0,-0.72 0.47,-3.81 0,-4.4c-2.047,-2.536 -4.305,-4.895 -6.75,-7.05c-0.431,0.372 -0.489,1.028 -0.13,1.47l2.16,2.25c-0.534,0.767 -0.958,1.605 -1.26,2.49c-0.193,0.754 -0.085,1.554 0.3,2.23c0.38,0.68 0.89,1.57 1.38,2.27c0.52,0.773 1.371,1.261 2.3,1.32Z" style="fill:#c6a38f;fill-rule:nonzero;"/><path d="M448.4,291.149l-0.4,3.36c0,0 -2.3,1.07 -3.87,-0.13l0.95,-3.75l3.32,0.52Z" style="fill:url(#_Linear2);fill-rule:nonzero;"/><path d="M448.12,227.869c0.18,0.87 0.93,43.86 -3.66,63.13c-0.079,0.311 0.084,0.637 0.38,0.76c1.197,0.456 2.46,0.713 3.74,0.76c0.511,0.01 0.969,-0.322 1.12,-0.81c1.31,-4.47 7.61,-26.87 8.43,-48.26c0.91,-23.9 0,-0.81 0,-0.81l-0.54,-14.78l-9.47,0.01Z" style="fill:#2e398b;fill-rule:nonzero;"/><path d="M463.12,294.269c0.749,1.656 1.27,3.405 1.55,5.2c0.018,0.082 0.027,0.165 0.027,0.248c-0,0.586 -0.445,1.085 -1.027,1.152c-1.22,0.12 -3.11,0.27 -4.62,0.26c-0.636,-0.001 -1.158,-0.524 -1.158,-1.16c-0,-0.047 0.002,-0.093 0.008,-0.14c0.192,-1.992 0.991,-3.877 2.29,-5.4l2.93,-0.16Z" style="fill:url(#_Linear3);fill-rule:nonzero;"/><path d="M463.76,289.979l-0.93,5.09c-0.844,0.464 -1.85,0.534 -2.75,0.19l0.45,-5.48l3.23,0.2Z" style="fill:url(#_Linear4);fill-rule:nonzero;"/><path d="M466.28,229.179c3.76,22.68 -0.81,56.06 -2.36,62.59c-0.085,0.404 -0.412,0.715 -0.82,0.78c-0.977,0.169 -1.979,0.128 -2.94,-0.12c-0.383,-0.114 -0.653,-0.461 -0.67,-0.86c-0.21,-5.28 0.17,-37.7 -3.33,-50.52c-0.18,-0.648 -0.58,-1.213 -1.13,-1.6l-6.79,-4.83l-0.53,-7.81l18.57,2.37Z" style="fill:#2e398b;fill-rule:nonzero;"/><path d="M442.34,186.209c11.26,-0.19 23.68,3 23.68,3c3.36,19.58 0.59,42.18 0.59,42.18c-8.72,2.28 -18.55,-1.4 -18.55,-1.4c-1.45,-8.19 -8.21,-31.23 -8.21,-31.23c-4.821,-0.555 -9.487,-2.054 -13.73,-4.41c2.346,-2.917 3.979,-6.341 4.77,-10c3.698,1.208 7.56,1.836 11.45,1.86Z" style="fill:url(#_Linear5);fill-rule:nonzero;"/><path d="M409.12,169.619c0.582,-0.769 1.614,-1.057 2.51,-0.7c1.65,7 10.34,12.67 19.27,15.45c-0.791,3.659 -2.424,7.083 -4.77,10c-14.87,-8.39 -17.01,-24.75 -17.01,-24.75Z" style="fill:#c59b85;fill-rule:nonzero;"/><path d="M407.61,163.109l2,1.67l0.62,1.66l-1.76,1.95c-0.21,-1.361 -0.545,-2.7 -1,-4c-0.49,-0.73 -0.27,-1.07 0.14,-1.28Z" style="fill:#c59b85;fill-rule:nonzero;"/><path d="M461.7,200.069l4.32,-10.9c0,0 10.52,7.14 12.25,16.21c-3.176,0.221 -6.279,1.053 -9.14,2.45c-0.78,-4.28 -7.43,-7.76 -7.43,-7.76Z" style="fill:url(#_Linear6);fill-rule:nonzero;"/><path d="M452.51,210.329c0,0 11.81,6.68 15.8,1c0.743,-0.996 1.04,-2.257 0.82,-3.48c2.861,-1.397 5.964,-2.229 9.14,-2.45c0.591,2.927 0.108,5.97 -1.36,8.57c-7,12.77 -26,-0.7 -26,-0.7l1.6,-2.94Z" style="fill:#c59b85;fill-rule:nonzero;"/><path d="M452.37,213.339c0,0 0.9,-3.69 0.54,-5c-0.36,-1.31 -1.06,-3 -3.4,-2.62c-1.733,0.319 -3.438,0.774 -5.1,1.36c0.025,0.712 0.617,1.284 1.329,1.284c0.202,-0 0.4,-0.046 0.581,-0.134l-1.1,0.86c0,0 0.16,1.36 1.66,0.63l-1,1.13c0.206,0.39 0.612,0.636 1.053,0.636c0.25,-0 0.494,-0.079 0.697,-0.226c1.08,-0.72 1.61,2.52 4.74,2.08Z" style="fill:#c6a38f;fill-rule:nonzero;"/><path d="M453.74,177.069l3.59,10.36c0.062,0.171 -0.011,0.363 -0.17,0.45c-2.791,1.449 -6.169,1.221 -8.74,-0.59c-0.439,-0.278 -0.736,-0.735 -0.81,-1.25l-1.16,-9l7.29,0.03Z" style="fill:#c59b85;fill-rule:nonzero;"/><path d="M445.95,167.469c0,0 -3.94,7.41 -3.43,10.4c0.51,2.99 5.38,2.78 9.64,0.35l3,-8l-9.21,-2.75Z" style="fill:#c6a38f;fill-rule:nonzero;"/><path d="M451.97,174.289c-0.114,-0.049 -0.188,-0.161 -0.188,-0.285c0,-0.058 0.017,-0.115 0.048,-0.165c0.492,-0.707 0.863,-1.491 1.1,-2.32c0.237,-0.828 0.71,-0.46 -1.8,-1.06c-2.51,-0.6 -6.25,-1.53 -7,-3.66c-0.75,-2.13 1.25,-7.32 4.46,-3.15c0.061,0.073 0.151,0.114 0.245,0.114c0.095,0 0.184,-0.041 0.245,-0.114c0.803,-1.283 2.425,-1.813 3.83,-1.25c1.201,0.392 2.015,1.527 2,2.79c-0,0.006 -0,0.011 -0,0.016c-0,0.165 0.135,0.3 0.3,0.3c0.02,0 0.04,-0.002 0.06,-0.006c1.648,-0.439 3.39,0.374 4.11,1.92c0.84,1.84 0.29,2.89 -0.2,3.4c-0.056,0.056 -0.087,0.133 -0.087,0.212c-0,0.133 0.089,0.251 0.217,0.288c0.899,0.261 1.46,1.17 1.29,2.09c-0.11,1.94 -2.27,1.77 -2.89,1.68c-0.099,-0.017 -0.201,0.017 -0.27,0.09c-0.53,0.59 -2.91,3.07 -5.49,3.37c-0.012,0.002 -0.025,0.003 -0.038,0.003c-0.164,-0 -0.3,-0.136 -0.3,-0.3c0,-0.035 0.006,-0.07 0.018,-0.103l1.12,-3.25c0.049,-0.151 -0.025,-0.316 -0.17,-0.38l-0.61,-0.23Z" style="fill:#382517;fill-rule:nonzero;"/><path d="M451.52,174.749c0,0 2.8,-1.92 3,-0.31c0.2,1.61 -2.53,2.35 -3.88,1.75l0.88,-1.44Z" style="fill:#c6a38f;fill-rule:nonzero;"/></g></g></g><defs><linearGradient id="_Linear1" x1="0" y1="0" x2="1" y2="0" gradientUnits="userSpaceOnUse" gradientTransform="matrix(48,52.21,-52.21,48,432.81,288.909)"><stop offset="0" style="stop-color:#1f2251;stop-opacity:1"/><stop offset="1" style="stop-color:#2d397f;stop-opacity:1"/></linearGradient><linearGradient id="_Linear2" x1="0" y1="0" x2="1" y2="0" gradientUnits="userSpaceOnUse" gradientTransform="matrix(-4.26,5.217e-16,-5.217e-16,-4.26,448.39,292.789)"><stop offset="0" style="stop-color:#e5948f;stop-opacity:1"/><stop offset="1" style="stop-color:#ebafac;stop-opacity:1"/></linearGradient><linearGradient id="_Linear3" x1="0" y1="0" x2="1" y2="0" gradientUnits="userSpaceOnUse" gradientTransform="matrix(-326.651,358.185,-358.185,-326.651,13474.3,2359.48)"><stop offset="0" style="stop-color:#1f2251;stop-opacity:1"/><stop offset="1" style="stop-color:#2d397f;stop-opacity:1"/></linearGradient><linearGradient id="_Linear4" x1="0" y1="0" x2="1" y2="0" gradientUnits="userSpaceOnUse" gradientTransform="matrix(13.5424,0,0,13.5424,7424.55,2081.54)"><stop offset="0" style="stop-color:#e5948f;stop-opacity:1"/><stop offset="1" style="stop-color:#ebafac;stop-opacity:1"/></linearGradient><linearGradient id="_Linear5" x1="0" y1="0" x2="1" y2="0" gradientUnits="userSpaceOnUse" gradientTransform="matrix(-54.79,-11.33,11.33,-54.79,455.19,209.309)"><stop offset="0" style="stop-color:#e17c6e;stop-opacity:1"/><stop offset="1" style="stop-color:#e5948f;stop-opacity:1"/></linearGradient><linearGradient id="_Linear6" x1="0" y1="0" x2="1" y2="0" gradientUnits="userSpaceOnUse" gradientTransform="matrix(907.87,-211.418,211.418,907.87,31918.9,4266.38)"><stop offset="0" style="stop-color:#e17c6e;stop-opacity:1"/><stop offset="1" style="stop-color:#e5948f;stop-opacity:1"/></linearGradient></defs></svg>