<?xml version="1.0" encoding="UTF-8" standalone="no"?><!DOCTYPE svg PUBLIC "-//W3C//DTD SVG 1.1//EN" "http://www.w3.org/Graphics/SVG/1.1/DTD/svg11.dtd"><svg width="100%" height="100%" viewBox="0 0 490 374" version="1.1" xmlns="http://www.w3.org/2000/svg" xmlns:xlink="http://www.w3.org/1999/xlink" xml:space="preserve" xmlns:serif="http://www.serif.com/" style="fill-rule:evenodd;clip-rule:evenodd;stroke-linejoin:round;stroke-miterlimit:2;"><g><g><g><path d="M376.86,329.519c0,0 0.32,2.77 0.32,3.24l0,0.47l-0.23,0.48l-0.09,0.19l1.66,2.33l6.81,0.1c0.15,0 -0.89,-1.61 -0.89,-1.61c0,0 -2.2,-1.66 -2.6,-2.83c-0.4,-1.17 0.34,-3.59 0.34,-3.59l-5.32,1.22Z" style="fill:#e9a391;fill-rule:nonzero;"/><path d="M344.75,312.919c0,0 -2.38,1.47 -2.74,1.76l-0.37,0.3l-0.23,0.47l-0.1,0.19l-2.85,0.15l-4.34,-5.27c-0.1,-0.12 1.21,0.17 1.21,0.17c1.265,0.208 2.555,0.208 3.82,0c1.285,-0.743 2.463,-1.658 3.5,-2.72l2.1,4.95Z" style="fill:#e9a391;fill-rule:nonzero;"/><path d="M366.31,286.889l-25.56,21.77l3.94,5.58c0,0 26.26,-16.31 27.64,-16.5c1.146,-0.282 2.335,0.345 2.75,1.45c0.26,1 0.92,31.1 0.92,31.1l6.82,0l3.56,-37.89l-20.07,-5.51Z" style="fill:#71bda7;fill-rule:nonzero;"/><path d="M403.12,255.839c1.89,-1.24 6.34,-6 7.84,-7.63c0.175,-1.014 0.653,-1.952 1.37,-2.69c0.86,-1 1.5,-3.25 2.06,-2.61c0.56,0.64 -0.83,2.44 -0.19,2.45c0.64,0.01 3.8,-3.54 4.31,-3c0.51,0.54 -2.71,3.74 -2.14,3.75c0.57,0.01 3.18,-3.19 3.9,-2.37c0.72,0.82 -3.42,3.48 -3,3.92c0.42,0.44 2.94,-1.31 3.52,-0.65c0.58,0.66 -3.61,2.22 -3.28,2.23c0.33,0.01 2.76,-0.06 2.78,0.4c0.02,0.46 -6.12,1.35 -6.87,2.26c-1.61,2.55 -4.46,7.21 -7.35,9.26c-3.54,2.5 -11.71,7.82 -11.71,7.82l-4.06,-5.25c0,0 10.59,-6.42 12.82,-7.89Z" style="fill:#e9a391;fill-rule:nonzero;"/><path d="M414.21,246.489c0.155,0.312 0.24,0.653 0.25,1c0.052,0.753 -0.243,1.491 -0.8,2c0.549,-0.897 0.745,-1.966 0.55,-3Z" style="fill:#e59082;fill-rule:nonzero;"/><path d="M365.66,250.109c-1.5,-1.7 -4.54,-7.46 -5.57,-9.42c0.115,-1.039 -0.098,-2.088 -0.61,-3c-0.57,-1.18 -0.6,-3.52 -1.31,-3.05c-0.71,0.47 0.16,2.56 -0.46,2.41c-0.62,-0.15 -2.73,-4.41 -3.38,-4c-0.65,0.41 1.63,4.32 1.08,4.18c-0.55,-0.14 -2.23,-3.91 -3.14,-3.3c-0.91,0.61 2.39,4.25 1.9,4.57c-0.49,0.32 -2.5,-2 -3.23,-1.54c-0.73,0.46 2.91,3.08 2.58,3c-0.33,-0.08 -2.64,-0.78 -2.78,-0.33c-0.14,0.45 5.55,2.9 6,4c0.88,2.88 2.41,8.13 4.67,10.86c2.76,3.34 9.26,10.61 9.26,10.61l5.29,-4c0,0 -8.52,-8.99 -10.3,-10.99Z" style="fill:#e9a391;fill-rule:nonzero;"/><path d="M357.42,238.179c-0.223,0.257 -0.393,0.557 -0.5,0.88c-0.241,0.711 -0.149,1.494 0.25,2.13c-0.291,-0.999 -0.202,-2.072 0.25,-3.01Z" style="fill:#e59082;fill-rule:nonzero;"/><path d="M376.96,262.049c0.77,-1.148 2.101,-1.798 3.48,-1.7c4.05,0.27 12.28,0.92 13.06,1.7c1,1 4.17,7.83 1.19,17.34c-2.98,9.51 -4.6,8.52 -7,8.52c-2.4,0 -13.87,-5.4 -13.87,-5.4l3.14,-20.46Z" style="fill:#3e5a89;fill-rule:nonzero;"/><path d="M369.95,253.979l-4.77,6.22l5.94,8.78c0,0 -0.55,6.54 -1.41,8.59c-0.86,2.05 -5.79,10.43 -5.79,10.43c0,0 12,7.36 23.73,6.28c0,0 3.31,-17 4.24,-18.65c0.93,-1.65 9.88,-9.73 9.88,-9.73l-4.34,-7l-7.51,4.16c0,0 -13.72,-2.22 -14.38,-2.88c-0.66,-0.66 -5.59,-6.2 -5.59,-6.2Z" style="fill:#ecc888;fill-rule:nonzero;"/><path d="M385.43,241.249c0,0 -4.63,-2.45 -6.22,1.61c0,0 -4.16,-0.42 -3.44,3.89c0,0 -4.18,2.1 -1.53,7.53c0,0 -1.17,5.1 4.8,5.42c0,0 0.89,1.81 3.62,1.39c2.73,-0.42 3.46,-1.11 3.46,-1.11c0,0 4.83,1.41 6.3,-3c0,0 3.31,-0.79 1.08,-5c0,0 2.9,-5.53 -2.2,-7.18c-0.05,-0.03 -0.64,-5.68 -5.87,-3.55Z" style="fill:#e27f66;fill-rule:nonzero;"/><path d="M387.3,253.209c-0.38,1 -0.1,2.11 0.6,2.37c0.7,0.26 1.6,-0.4 2,-1.45c0.4,-1.05 0.11,-2.1 -0.6,-2.36c-0.71,-0.26 -1.62,0.39 -2,1.44Z" style="fill:#e9a391;fill-rule:nonzero;"/><path d="M374.81,250.629c-0.05,1.12 0.51,2.05 1.27,2.09c0.76,0.04 1.4,-0.84 1.46,-2c0.06,-1.16 -0.52,-2 -1.27,-2.08c-0.75,-0.08 -1.41,0.88 -1.46,1.99Z" style="fill:#e9a391;fill-rule:nonzero;"/><path d="M380.12,257.979c0,0.07 -0.61,2.65 -0.93,4c-0.113,0.509 0.146,1.033 0.62,1.25c1.27,0.58 3.78,1.39 5.51,-0.17c0.158,-0.146 0.242,-0.355 0.23,-0.57l-0.21,-6.17l-5.22,1.66Z" style="fill:#e9a391;fill-rule:nonzero;"/><path d="M379.78,259.459c1.606,0.747 3.493,0.587 4.95,-0.42c0.234,-0.138 0.461,-0.288 0.68,-0.45l-0.08,-2.21l-5.21,1.6c0,0 -0.16,0.69 -0.34,1.48Z" style="fill:#e59082;fill-rule:nonzero;"/><path d="M383.81,243.769c1.504,0.478 2.788,1.479 3.62,2.82c1.34,2.22 2.08,8.63 -2.7,11.44c-4.78,2.81 -8.27,-1.54 -8.18,-5.65c0.09,-4.11 1.92,-9.4 7.26,-8.61Z" style="fill:#e9a391;fill-rule:nonzero;"/><path d="M376,260.419c-2.2,1.66 -4.51,10.2 -5.38,12.43l-0.7,4.09l9,-15.83c0,0 -2.44,-1.05 -2.92,-0.69Z" style="fill:#5071b3;fill-rule:nonzero;"/><path d="M386.89,262.579c0,0 -0.27,10.52 0.52,14.13c0.79,3.61 2.87,4.88 2.87,4.88l1,-4.2c0,0 -1,-9.29 -1.4,-14.31c-0.04,-0.76 -2.99,-0.5 -2.99,-0.5Z" style="fill:#5071b3;fill-rule:nonzero;"/><path d="M375.65,337.979c-1,-0.13 0.74,-3.65 1.3,-4.22l7.49,1c1.564,0.696 3.057,1.54 4.46,2.52c0.2,0.21 0.23,0.56 -0.65,0.69c-4.192,0.359 -8.407,0.362 -12.6,0.01Z" style="fill:#1b395a;fill-rule:nonzero;"/><path d="M338.84,319.159c0.88,0.53 2.47,-2.91 2.57,-3.71l-6.05,-4.76c0,0 -4.66,-1.33 -5.6,-0.39c-0.94,0.94 7.08,7.68 9.08,8.86Z" style="fill:#1b395a;fill-rule:nonzero;"/></g><g><path d="M76.57,228.329c0.24,0 2.06,2.92 3.2,7.43c1.14,4.51 3.57,12.82 3.57,12.82c0,0 3.94,8 5,9c1.06,1 2.1,0 3.17,0.3c0.484,0.285 0.936,0.62 1.35,1c0.414,0.38 1.85,4 1.57,4.26c-1.612,0.68 -3.403,0.817 -5.1,0.39c-2,-0.64 -11.19,-11.44 -11.19,-11.44c0,0 -7.51,-23.36 -1.57,-23.76Z" style="fill:#e59182;fill-rule:nonzero;"/><path d="M68.12,207.509c-1.694,0 -3.368,0.376 -4.9,1.1c-2,1.12 -2.54,3.82 -2.57,5.92c-0.064,2.734 0.807,5.409 2.47,7.58c1.272,1.411 2.883,2.475 4.68,3.09l8.4,-5.35c0.625,-1.884 0.729,-3.902 0.3,-5.84c-0.68,-3.34 -0.49,-7.03 -8.38,-6.5Z" style="fill:#224552;fill-rule:nonzero;"/><path d="M82.25,294.099c0,0 2.77,4 3,4.53c0.23,0.53 1.56,4.16 1.56,4.16l10.65,-5.17l-8.15,-2.48l-1.63,-3.57l-5.43,2.53Z" style="fill:#e59182;fill-rule:nonzero;"/><path d="M68.28,265.869l8.69,18.11l5.72,11.44c0,0 5.08,-1.95 6.34,-3.22l-4.11,-14.39l-4.68,-16.69l-9.84,-0.9l-2.12,5.65Z" style="fill:#3e5a89;fill-rule:nonzero;"/><path d="M60.12,295.979c0,0 0.4,2.67 0.4,2.85c0,0.18 -0.6,2.75 -0.7,3.44c-0.054,0.412 -0.054,0.829 0,1.24l10.1,-2.42c0,0 -1.5,-1 -2.84,-1.72c-1.34,-0.72 -1.53,-4.28 -1.53,-4.28l-5.43,0.89Z" style="fill:#e59182;fill-rule:nonzero;"/><path d="M58.67,261.119c0,0 1.73,10.86 1.45,14.51c-0.35,5.22 -1.74,7.23 -0.75,20.93l7,0c0.305,-4.374 0.832,-8.729 1.58,-13.05c1.09,-5.7 3.47,-15.26 3.47,-15.26l3.91,-8.82l-16.66,1.69Z" style="fill:#86a8d6;fill-rule:nonzero;"/><path d="M62.74,220.229c0.34,1.07 1.2,1.74 1.92,1.51c0.72,-0.23 1,-1.27 0.68,-2.34c-0.32,-1.07 -1.2,-1.73 -1.91,-1.51c-0.71,0.22 -1.03,1.28 -0.69,2.34Z" style="fill:#e59182;fill-rule:nonzero;"/><path d="M74.68,217.979c0.1,1.11 0.78,2 1.54,1.89c0.76,-0.11 1.28,-1 1.18,-2.13c-0.1,-1.13 -0.78,-2 -1.53,-1.89c-0.75,0.11 -1.28,1 -1.19,2.13Z" style="fill:#e59182;fill-rule:nonzero;"/><path d="M59.33,230.299c0,0 0.82,21.08 0,25c-0.82,3.92 -1.21,6.51 -1.21,6.51c0,0 11.3,2.2 22.15,-0.69c-1.062,-4.954 -1.856,-9.961 -2.38,-15c-0.74,-7.65 -1.34,-17.78 -1.34,-17.78c-2.424,-0.167 -4.856,-0.167 -7.28,0c-7.15,0.64 -9.94,1.96 -9.94,1.96Z" style="fill:#f2dbb0;fill-rule:nonzero;"/><path d="M66.05,222.979l-0.32,5.77c0.324,1.827 1.851,3.218 3.7,3.37c3.16,0.19 2.23,-6.61 2.23,-6.61l-0.19,-2.53l-5.42,0Z" style="fill:#e59182;fill-rule:nonzero;"/><path d="M71.56,227.309l0.23,0c-0.011,-0.608 -0.054,-1.216 -0.13,-1.82l-0.19,-2.51l-5.42,0l-0.05,0.87c0.68,1.13 2.69,3.46 5.56,3.46Z" style="fill:#e38373;fill-rule:nonzero;"/><path d="M59.98,300.109c0,0 0.37,-0.38 1.67,-0.26c1.3,0.12 7.82,0.83 8.1,0.83c0.28,0 4,2.83 4.17,3.35c0.17,0.52 -8.06,0.18 -8.06,0.18l-6.26,0c-0.334,-1.37 -0.201,-2.814 0.38,-4.1Z" style="fill:#568f7f;fill-rule:nonzero;"/><path d="M59.33,230.299c-1.16,0.629 -2.061,1.65 -2.54,2.88c-0.94,2.18 -4,12 -1.93,17.93c0.864,3.13 2.87,5.824 5.62,7.55c4.7,3.07 12.91,3.81 13.37,3.35c0.382,-0.514 0.557,-1.153 0.49,-1.79c0,-0.51 1.07,-0.77 1.07,-1.48c0,-0.71 -1.82,-0.83 -3.91,-0.83c0,0 -0.37,0 0.09,-0.38c0.46,-0.38 1,-0.78 0.94,-1.44c-0.06,-0.66 -0.53,-0.63 -0.93,-0.22c-0.4,0.41 -1.74,1.48 -2.8,1.17c-1.06,-0.31 -7.36,-5.47 -8.4,-7.11c0,0.05 0.42,-19.28 -1.07,-19.63Z" style="fill:#e59182;fill-rule:nonzero;"/><path d="M90.86,258.849c0,0 1.11,0.72 1.77,0.56c0.66,-0.16 0.33,-0.5 0,-0.81c-0.35,-0.278 -0.733,-0.513 -1.14,-0.7l-0.63,0.95Z" style="fill:#e59182;fill-rule:nonzero;"/><path d="M68.92,210.539c-1.752,0.369 -3.25,1.504 -4.08,3.09c-1.89,3.09 -0.35,7.62 0.17,8.67c0.52,1.05 2.6,3.71 5.68,3.71c3.08,0 5.24,-2.82 5.5,-5.57c0.35,-3.68 -0.63,-8.27 -4.14,-9.55c-0.998,-0.372 -2.074,-0.492 -3.13,-0.35Z" style="fill:#e59182;fill-rule:nonzero;"/></g><g><path d="M214.29,247.369c1.59,-1.72 4.94,-8.88 6.07,-10.92c-0.038,-1.092 0.232,-2.174 0.78,-3.12c0.63,-1.23 0.79,-3.74 1.47,-3.19c0.68,0.55 -0.3,2.73 0.32,2.6c0.62,-0.13 3,-4.55 3.59,-4.06c0.59,0.49 -1.86,4.52 -1.3,4.4c0.56,-0.12 2.44,-4 3.31,-3.35c0.87,0.65 -2.61,4.4 -2.14,4.78c0.47,0.38 2.61,-2 3.31,-1.46c0.7,0.54 -3.07,3.12 -2.74,3.05c0.33,-0.07 2.68,-0.67 2.8,-0.19c0.12,0.48 -5.7,2.78 -6.25,3.9c-1,3 -2.85,8.55 -5.25,11.33c-2.93,3.41 -11.37,12.87 -11.37,12.87l-3.51,-6.65c0,0 9.03,-7.95 10.91,-9.99Z" style="fill:#85605a;fill-rule:nonzero;"/><path d="M223.17,233.919c0.213,0.3 0.363,0.64 0.44,1c0.21,0.767 0.078,1.587 -0.36,2.25c0.351,-1.059 0.323,-2.209 -0.08,-3.25Z" style="fill:#5d4443;fill-rule:nonzero;"/><path d="M186.21,317.979c-0.244,2.272 -0.717,4.513 -1.41,6.69c-0.87,2 -3.74,3.31 -6.27,3.81c-2.53,0.5 -1.68,0.89 -1.31,1.26c0.37,0.37 11.32,0.63 13.25,0.28c0,0 -0.74,-3.82 -0.74,-4.41c0,-0.59 3,-10 3,-10l-6.52,2.37Z" style="fill:#85605a;fill-rule:nonzero;"/><path d="M190.47,329.979c0,0 -0.15,-0.78 -0.32,-1.69c-2.11,0.29 -6.94,-0.21 -9.36,-0.49c-0.782,0.231 -1.581,0.402 -2.39,0.51c-2.52,0.5 -2.33,1.16 -1.7,1.62c0.42,0.35 11.84,0.44 13.77,0.05Z" style="fill:#e27f66;fill-rule:nonzero;"/><path d="M207.75,316.889c0,0 -0.29,5.72 0.32,7.78c0.61,2.06 1.54,2.48 4,3.17c2.46,0.69 1.51,1.76 1.14,2.13c-0.37,0.37 -8.89,0.4 -10.83,0.05c0,0 0.75,-3.82 0.75,-4.41c0,-0.59 -0.91,-10.22 -0.91,-10.22l5.53,1.5Z" style="fill:#85605a;fill-rule:nonzero;"/><path d="M202.4,329.979c0,0 0.15,-0.78 0.32,-1.69c2.11,0.29 7,-0.21 9.37,-0.49c0.762,0.169 1.513,0.383 2.25,0.64c2.42,0.88 2.2,1.12 1.83,1.49c-0.37,0.37 -11.83,0.44 -13.77,0.05Z" style="fill:#e27f66;fill-rule:nonzero;"/><path d="M191.82,255.539c-0.671,0.529 -1.169,1.247 -1.43,2.06c-0.59,1.54 -3.67,14.17 -4.12,16c-0.34,1.41 -3.47,5.57 -5,7.57c-0.46,0.59 -0.81,1.08 -1,1.08c-1.36,0 -3.62,0.76 -3.62,1.32c0,0.56 0.54,0.63 1.43,0.43c0.89,-0.2 0.21,0.77 -0.11,1.09c-0.32,0.32 -1.69,2.16 -1.21,2.64c0.634,0.491 1.4,0.78 2.2,0.83c0.76,-0.045 1.476,-0.377 2,-0.93c0.92,-0.75 2.28,-2.3 3.27,-3.18c3.59,-3.2 6.53,-9.91 7.08,-11.45c0.55,-1.54 0.51,-17.46 0.51,-17.46Z" style="fill:#85605a;fill-rule:nonzero;"/><path d="M183.49,318.439c4.049,0.994 8.201,1.511 12.37,1.54c6.57,0 19.5,-3.34 19.5,-3.34c-2.027,-4.931 -3.629,-10.026 -4.79,-15.23c-1.23,-6.61 -2.12,-18 -2.12,-18l-19.62,0l-1.22,7.87l-4.12,27.16Z" style="fill:#5071b3;fill-rule:nonzero;"/><path d="M191.82,255.539c0,0 -1.28,1.49 -1.28,6.1c0.039,4.637 -0.158,9.273 -0.59,13.89c-0.37,2.38 -1.49,8.29 -1.49,8.29c0,0 3.27,2.71 11.74,2c8.47,-0.71 8.92,-1.88 8.92,-1.88c0,0 -1.19,-19.14 -1.19,-21.15c0,-2.01 -1.81,-7.81 -1.81,-7.81c-2.364,-0.254 -4.742,-0.364 -7.12,-0.33c-2.24,0.13 -7.18,0.89 -7.18,0.89Z" style="fill:#f2dbb0;fill-rule:nonzero;"/><path d="M187.97,237.459c-2.041,0.598 -3.407,2.548 -3.27,4.67c0.28,3.38 1.94,3.21 1.94,3.21c0,0 -1.22,4.78 2.45,6.17c3.45,1.3 4.75,0 4.75,0c0,0 1.5,4 6.63,2.43c5.13,-1.57 4.67,-4.64 4.67,-4.64c0,0 2.18,0.86 4.71,-3.15c2.53,-4.01 1.08,-6.9 -2.26,-8.69c0,0 1.11,-5.11 -4,-5.92c-5.11,-0.81 -6.37,2 -6.37,2c0,0 -0.91,-3.13 -6.35,-1c-2.019,0.722 -3.246,2.804 -2.9,4.92Z" style="fill:#1b395a;fill-rule:nonzero;"/><path d="M202.12,245.119c-0.38,1.05 -0.11,2.11 0.6,2.36c0.71,0.25 1.59,-0.39 2,-1.44c0.41,-1.05 0.1,-2.11 -0.61,-2.36c-0.71,-0.25 -1.64,0.39 -1.99,1.44Z" style="fill:#85605a;fill-rule:nonzero;"/><path d="M190.47,246.159c0.18,1.1 0.92,1.9 1.66,1.79c0.74,-0.11 1.21,-1.11 1,-2.21c-0.21,-1.1 -0.91,-1.9 -1.66,-1.78c-0.75,0.12 -1.17,1.1 -1,2.2Z" style="fill:#85605a;fill-rule:nonzero;"/><path d="M196.59,250.979l0.19,4.33c0.081,0.997 0.866,1.803 1.86,1.91c1.606,0.22 3.115,-0.899 3.37,-2.5c0,-0.18 -0.87,-6.12 -0.87,-6.12l-4.55,2.38Z" style="fill:#85605a;fill-rule:nonzero;"/><path d="M201.12,248.609l-4.53,2.37l0.07,1.54c1.04,0.051 2.075,-0.174 3,-0.65c0.762,-0.458 1.345,-1.164 1.65,-2l-0.19,-1.26Z" style="fill:#5d4443;fill-rule:nonzero;"/><path d="M198.93,236.979c1.442,0.496 2.664,1.484 3.45,2.79c1.29,2.18 2.07,8.43 -2.41,11.1c-4.48,2.67 -7.46,-1.62 -7.78,-5.6c-0.37,-4.76 1.69,-9.13 6.74,-8.29Z" style="fill:#85605a;fill-rule:nonzero;"/></g><g><path d="M268.55,297.979c0,0 -2.12,8.66 -3.71,10c-1.59,1.34 -6.74,4 -5.39,4.24c1.35,0.24 11.35,0.52 11.07,-1.15c-0.28,-1.67 -0.56,-2.73 -0.56,-2.73l2.65,-6.19l-4.06,-4.17Z" style="fill:#e28067;fill-rule:nonzero;"/><path d="M258.78,312.639c3.868,0.328 7.753,0.405 11.63,0.23c3.878,-0.175 0.39,-0.07 0.11,-1.74c-0.06,-0.41 -0.13,-0.78 -0.19,-1.11c-1.89,0.49 -6,-0.56 -7.61,-0.77c-1.76,0.84 -3.75,2.1 -4.39,2.21c-0.93,0.15 -0.93,1.04 0.45,1.18Z" style="fill:#1b395a;fill-rule:nonzero;"/><path d="M291.87,305.279c0,0 0.22,2.19 0.22,3.16c0,0.97 -0.9,3.69 -0.48,4.1c0.42,0.41 12.33,0.37 12.33,0c0,-0.37 -2.11,-1.58 -5,-2.4c-1.953,-0.581 -3.301,-2.39 -3.301,-4.428c-0,-0.468 0.071,-0.934 0.211,-1.382l-3.98,0.95Z" style="fill:#e28067;fill-rule:nonzero;"/><path d="M304.12,312.539c0,-0.36 -1.95,-1.48 -4.48,-2.26c-2.7,0.91 -6.44,0.16 -7.85,-0.11c-0.43,1.13 -0.56,2.19 -0.34,2.41c0.43,0.4 12.67,0.4 12.67,-0.04Z" style="fill:#1b395a;fill-rule:nonzero;"/><path d="M278.94,268.649l-2.13,1.89c0,0 -2.41,6.52 -2.55,6.95c-0.19,0.59 -8,25.69 -8,25.69l5.42,2c0,0 5.44,-10.53 6.3,-14.2c0.86,-3.67 9.8,-18.87 9.8,-18.87l-8.84,-3.46Z" style="fill:#86a8d6;fill-rule:nonzero;"/><path d="M288.38,272.509l2.6,33.27l6,0c0,0 2.15,-24.9 1.41,-33.64l-10.01,0.37Z" style="fill:#86a8d6;fill-rule:nonzero;"/><path d="M285.48,238.109c-1.909,2.308 -3.694,4.715 -5.35,7.21c-3.05,4.53 -10.83,17.12 -11.66,18c-0.268,0.22 -0.548,0.423 -0.84,0.61c-0.553,-0.122 -1.127,-0.122 -1.68,0c-0.57,0.21 -1.35,1.32 -1.08,1.6c0.27,0.28 1.33,-0.64 1.65,-0.63c0.32,0.01 0.35,0 0.35,0.18c-0.486,0.44 -1.053,0.779 -1.67,1c-0.37,0.1 -1.35,1.6 -1.17,2.11c0.18,0.51 0.18,0.66 0.65,0.66c0.47,0 0.54,0.38 0.94,0.38c0.4,0 0.49,-0.5 0.94,-0.3c0.45,0.2 0.57,0.15 2,-0.7c1.43,-0.85 4,-4 5.27,-5.27c1.27,-1.27 13.18,-14.24 13.18,-14.24l-1.53,-10.61Z" style="fill:#e28067;fill-rule:nonzero;"/><path d="M290.52,218.189c-1.789,-0.559 -3.743,0.211 -4.67,1.84c-1.83,2.88 -0.84,2.6 -1.73,4c-0.89,1.4 -3.22,1.14 -3.22,3.37c0,2.23 1,2.57 1,2.57c-0.543,1.119 -0.505,2.435 0.1,3.52c1.253,1.975 3.463,3.144 5.8,3.07c2.008,1.042 4.309,1.377 6.53,0.95c3.27,-0.85 2.13,-0.85 3.47,-0.85c1.34,0 4.95,-1.83 4.36,-4.51c0,0 2.2,-2.61 0.06,-4.75c-2.14,-2.14 -2.54,-4.31 -3.78,-7.18c-1.24,-2.87 -6.43,-2.73 -7.92,-2.03Z" style="fill:#224552;fill-rule:nonzero;"/><path d="M298.93,238.979c-2.681,-0.654 -5.415,-1.069 -8.17,-1.24c-1.767,-0.038 -3.534,0.079 -5.28,0.35c-1.585,3.603 -2.782,7.364 -3.57,11.22c-0.81,5 -5.27,21.25 -5.27,21.25c0,0 9.06,7 22.29,2.38l0,-33.96Z" style="fill:#e9a391;fill-rule:nonzero;"/><path d="M288.63,233.479c0,0 0.11,3.95 -0.26,4.32c-0.592,0.452 -0.741,1.293 -0.34,1.92c0.55,0.94 2.91,0.34 4,-0.2c0.683,-0.353 1.278,-0.855 1.74,-1.47l-0.55,-6.25l-4.59,1.68Z" style="fill:#e28067;fill-rule:nonzero;"/><path d="M290.2,235.119c1.303,-0.405 2.412,-1.278 3.11,-2.45l-0.08,-0.87l-4.6,1.68l0,2c0.539,-0.039 1.068,-0.16 1.57,-0.36Z" style="fill:#a65f4e;fill-rule:nonzero;"/><path d="M294.04,227.339c0,0 0.12,-2.32 1.54,-1.87c1.42,0.45 0.34,3.95 -0.84,3.83c-1.18,-0.12 -0.7,-1.96 -0.7,-1.96Z" style="fill:#e28067;fill-rule:nonzero;"/><path d="M286.18,253.679c0.538,0.212 1.156,-0.035 1.4,-0.56c0.124,-0.186 0.189,-0.405 0.189,-0.629c0,-0.402 -0.213,-0.776 -0.559,-0.981c-0.106,-0.029 -0.215,-0.044 -0.325,-0.044c-0.664,-0 -1.21,0.546 -1.21,1.21c-0,0.402 0.201,0.78 0.535,1.004l-0.03,0Zm-3.48,-4.26c0.391,-0.618 1.14,-0.918 1.85,-0.74c0.9,0.3 1.25,1.22 1.5,1.64c-0.147,-0.658 -0.147,-1.341 0,-2c0.53,-2.18 3.2,-2 3.16,0c-0.071,0.758 -0.313,1.49 -0.71,2.14c0.372,-0.453 0.822,-0.836 1.33,-1.13c2,-1 3,1.46 1.64,2.78c-0.622,0.501 -1.401,0.77 -2.2,0.76c0.442,0.086 0.865,0.248 1.25,0.48c2.47,1.57 -1,5.79 -2.82,1.72c0.167,0.687 0.167,1.404 0,2.09c-0.64,2.21 -3.57,1.82 -3.06,-0.68c0.149,-0.59 0.389,-1.153 0.71,-1.67c-0.438,0.552 -0.995,0.996 -1.63,1.3c-1.95,0.76 -2.87,-2 -1.08,-3.14c0.575,-0.316 1.215,-0.494 1.87,-0.52c-0.664,-0.097 -1.277,-0.414 -1.74,-0.9c-0.349,-0.454 -0.46,-1.05 -0.3,-1.6l0.23,-0.53Z" style="fill:#ecc888;fill-rule:nonzero;"/><path d="M289.57,219.759c-1.324,0 -2.573,0.623 -3.37,1.68c-1.14,1.74 -2.38,6.69 -0.5,10.11c1.88,3.42 4.29,2.58 5.28,2.23c1.979,-0.641 3.478,-2.282 3.94,-4.31c0.99,-3.2 0.27,-10.38 -5.35,-9.71Z" style="fill:#e28067;fill-rule:nonzero;"/><path d="M278.37,273.189l13.91,0l0,-19.1l-13.91,0.75l0,18.35Z" style="fill:#568f7f;fill-rule:nonzero;"/><path d="M278.37,253.349l13.29,0c0.371,0.037 0.649,0.368 0.62,0.74c0.029,0.374 -0.247,0.708 -0.62,0.75l-13.28,0c0.92,-0.42 0.92,-1.08 -0.01,-1.49Z" style="fill:#568f7f;fill-rule:nonzero;"/><path d="M278.75,253.569l12.46,0c0.26,0.026 0.453,0.26 0.43,0.52c0.023,0.262 -0.168,0.499 -0.43,0.53l-12.46,0c0.197,-0.101 0.321,-0.304 0.321,-0.525c-0,-0.221 -0.124,-0.424 -0.321,-0.525Z" style="fill:#f2dbb0;fill-rule:nonzero;"/><path d="M298.93,238.979c0,0 -1,1.05 -2.16,5c-1.16,3.95 -1.65,13.25 -2.65,14.22c-1,0.97 -7.28,6 -8.42,5.82c-1.14,-0.18 -3.69,-3.15 -4.48,-3.15c-0.79,0 -0.69,0.72 -0.3,1.12c0.39,0.4 0.88,0.85 0.65,1.09l-0.24,0.23c0,0 -3.53,-0.93 -4.12,-0.58c-0.59,0.35 0.57,1.16 0.57,1.76c-0.064,0.41 -0.09,0.825 -0.08,1.24c0.02,0.54 0.213,1.059 0.55,1.48c0.31,0.31 4.21,1.44 8,0.92c4.669,-0.604 8.935,-2.969 11.92,-6.61c3.44,-4.26 2.75,-17.65 2.67,-19c-0.18,-3.37 -1.91,-3.54 -1.91,-3.54Z" style="fill:#e28067;fill-rule:nonzero;"/></g></g></g></svg>