<svg id="Capa_1" data-name="Capa 1" xmlns="http://www.w3.org/2000/svg" xmlns:xlink="http://www.w3.org/1999/xlink" viewBox="0 0 293.73 82.29"><defs><style>.cls-1{fill:none;}.cls-2{fill:#58595b;}.cls-3{fill:#5d666f;}.cls-4{fill:url(#New_Gradient_Swatch_2);}.cls-5{fill:url(#New_Gradient_Swatch_2-2);}.cls-6{fill:#221f20;}.cls-7{fill:url(#New_Gradient_Swatch_2-3);}.cls-8,.cls-9{fill:#fff;stroke:#fff;fill-rule:evenodd;}.cls-8{stroke-width:0.04px;}.cls-9{stroke-width:0.09px;}.cls-10{clip-path:url(#clip-path);}.cls-11{fill:url(#Degradado_sin_nombre_4);}.cls-12{fill:#696b6b;}</style><radialGradient id="New_Gradient_Swatch_2" cx="237.59" cy="27.95" r="13.53" gradientUnits="userSpaceOnUse"><stop offset="0.01" stop-color="#4fbbe5"/><stop offset="0.31" stop-color="#209fd5"/><stop offset="0.5" stop-color="#008cca"/><stop offset="1" stop-color="#205ca7"/></radialGradient><radialGradient id="New_Gradient_Swatch_2-2" cx="239.23" cy="29.68" r="13.77" xlink:href="#New_Gradient_Swatch_2"/><radialGradient id="New_Gradient_Swatch_2-3" cx="239.93" cy="29.54" r="17.06" xlink:href="#New_Gradient_Swatch_2"/><clipPath id="clip-path"><path class="cls-1" d="M25.7,22.14a3.38,3.38,0,0,0,3.38,3.38,3.14,3.14,0,0,0,.51-.05l2.31,7.6L28,31.58a2.78,2.78,0,0,0,.07-.57,2.75,2.75,0,1,0-.77,1.88l5.29,2.57,1.47,4.85-13.26-4a2.28,2.28,0,1,0-1.66,1.45,2.2,2.2,0,0,0,.95-.45l14,5.58L34,48.54l-9.65-3.68A2.74,2.74,0,1,0,20.64,47a2.78,2.78,0,0,0,1,.18,2.74,2.74,0,0,0,2.29-1.24l10,5.27-.27,10.87a1.46,1.46,0,1,0,2.92,0l-.31-12.4L45,44.2a2.9,2.9,0,0,0,2.42,1.27,2.9,2.9,0,0,0,2.79-2.06A2.92,2.92,0,0,0,46.05,40a2.93,2.93,0,0,0-1.52,3.09l-8.35,3.78-.11-4.17L45.7,33v0l0,0a3.09,3.09,0,0,0,3.76-1.23,3.07,3.07,0,0,0-1-4.25A3,3,0,0,0,46.17,27a3.07,3.07,0,0,0-2.3,3.7,3,3,0,0,0,.91,1.57s0,0,0,0L36,39.53,34.39,35a.47.47,0,0,0,.06-.15.14.14,0,0,0,0-.06l2.83-4.63a3.26,3.26,0,0,0,.93.13,3.36,3.36,0,1,0-2.33-.93l-2.4,3.19-2.75-7.51a3.38,3.38,0,1,0-5.05-2.93"/></clipPath><linearGradient id="Degradado_sin_nombre_4" x1="-14.78" y1="637.21" x2="-14.09" y2="637.21" gradientTransform="matrix(0, 64.67, 64.67, 0, -41174.2, 974.88)" gradientUnits="userSpaceOnUse"><stop offset="0" stop-color="#ebc14c"/><stop offset="0.34" stop-color="#df914f"/><stop offset="0.68" stop-color="#d67349"/><stop offset="1" stop-color="#d4676d"/><stop offset="1" stop-color="#d4676d"/></linearGradient></defs><rect class="cls-2" x="190.53" y="18.17" width="1.14" height="45.73"/><path class="cls-3" d="M228.91,55.11h2.71V63.9h-2.71Z"/><path class="cls-3" d="M233.44,55.11h2.71v6.54h3.9V63.9h-6.61Z"/><path class="cls-3" d="M247.18,58.38a1.41,1.41,0,0,0-1.42-1.29c-1.27,0-1.68,1.23-1.68,2.41s.41,2.42,1.68,2.42c.91,0,1.27-.64,1.43-1.47h2.66a3.77,3.77,0,0,1-4,3.66,4.28,4.28,0,0,1-4.46-4.61,4.26,4.26,0,0,1,4.46-4.6,3.59,3.59,0,0,1,4,3.48Z"/><path class="cls-3" d="M251.41,55.11h7.28v2.25h-4.57v1.1h4.16v2.09h-4.16v1.1h4.71V63.9h-7.42Z"/><path class="cls-4" d="M243.87,18.17c-18.47,0-33.45,7.27-33.45,16.25s15,16.24,33.45,16.24,33.45-7.27,33.45-16.24-15-16.25-33.45-16.25M244,49.92c-15.81,0-28.62-6.91-28.62-15.43S228.15,19.06,244,19.06,272.57,26,272.57,34.49,259.76,49.92,244,49.92Z"/><path class="cls-5" d="M266.62,34.42c0-7.75-10.18-14-22.75-14s-22.75,6.27-22.75,14,10.19,14,22.75,14,22.75-6.27,22.75-14M243.85,47.84c-10.11,0-18.31-6-18.31-13.28s8.2-13.27,18.31-13.27,18.32,5.94,18.32,13.27S254,47.84,243.85,47.84Z"/><path class="cls-6" d="M243.83,43h0Z"/><path class="cls-6" d="M243.92,43l-.07,0s0,0,0,.06Z"/><path class="cls-7" d="M256.79,34.41c0,6.61-5.78,12-12.92,12S231,41,231,34.41s5.78-12,12.92-12S256.79,27.8,256.79,34.41Z"/><path class="cls-8" d="M235.79,27.86s0,0,0,.05h0s0,0,0,0S235.79,27.87,235.79,27.86Z"/><path class="cls-8" d="M236,27.79s0,0,0,0l0,0s0,0,0,0l0,0s0,0,0,0S236,27.78,236,27.79Z"/><path class="cls-8" d="M236.09,27.78s0,0,0,.06h0s0,0,0,0,0,0,0,0Z"/><path class="cls-8" d="M239,28.82s0,0,0,0v0h0a0,0,0,0,1,0,0h0S239,28.82,239,28.82Z"/><path class="cls-9" d="M241.07,29.81h0s0,0,0,0h0s0,0,0,0,0,0,0,0h0Z"/><path class="cls-8" d="M241.07,29.81h0s0,0,0,0h0s0,0,0,0,0,0,0,0h0"/><path class="cls-8" d="M242.12,30s0,0,0,0l0,0h-.08s0,0,0,0Z"/><path class="cls-9" d="M241.87,29.55s0,0,0,0,0,0,0,0a.05.05,0,0,1,0,0h0s0,0,0,0a0,0,0,0,1,0,0,.15.15,0,0,0,.1,0s0,0,0,0,0,0,0-.06,0,0,0,0Z"/><path class="cls-8" d="M241.87,29.55s0,0,0,0,0,0,0,0a.05.05,0,0,1,0,0h0s0,0,0,0a0,0,0,0,1,0,0,.15.15,0,0,0,.1,0s0,0,0,0,0,0,0-.06,0,0,0,0"/><path class="cls-8" d="M241.47,29.56l.08,0h0s0-.06,0-.08l.09-.05h0l.1,0,.11,0a.32.32,0,0,1,.14,0,1.09,1.09,0,0,1,.18,0s.07,0,.11,0h.13s0,0,.06,0h0l.06,0s.07,0,.11,0h.08s0,0,0,0,0,0,.08,0l0,0a.24.24,0,0,0,.14,0s0,0,.08,0a.08.08,0,0,1,0,0l0,0h.05l.06,0h.05s0,0,0,0,0,0,0,0,0,0,0,0h0c.05,0,.1,0,.15,0l.05,0,0,0h0s0,0,0,0a0,0,0,0,1,0,0l-.09,0a.39.39,0,0,1-.21,0,.92.92,0,0,0-.16,0h-.1l-.11,0a0,0,0,0,1-.05,0s0,0,0,0h0l.09-.05s0,0,0,0,0,0,0,0,0,0-.07,0h-.17s0,0,0,0,0,0,0,0l0-.06,0,0a.34.34,0,0,1-.1,0s0,0,0,0h-.05a.24.24,0,0,1-.16-.07h0a.38.38,0,0,0-.15,0h-.06s-.06,0-.09,0a0,0,0,0,1,0,0h0s0,0,0,0a0,0,0,0,0,0,0l-.1,0h-.11l0,0a.1.1,0,0,0,0,0h-.14v0h0l-.08.05h0s0,0,0,0S241.48,29.56,241.47,29.56Z"/><path class="cls-8" d="M242.74,29.42s0,0,0,0a0,0,0,0,1,0,0s0,0,0,0l.06,0,0,0s0,0,.05,0,0,0,0,0h0s0,0-.06-.05h0s0,0-.07,0h0Z"/><path class="cls-8" d="M243.16,30.31h0s.07,0,.1,0,0,0,0,0,0,0,0-.05-.06,0-.08,0-.06,0-.1,0,0,0,0,0a.33.33,0,0,0-.14,0s-.06,0-.08,0,0,0,0,0,0,0,0,0h0l0,0s0,0,.06,0l.08,0s0,0,.07,0h0Z"/><path class="cls-8" d="M244,29.84s0,0,.05,0,0,0,0,0a0,0,0,0,1-.06,0h0a0,0,0,0,1,0,0Z"/><path class="cls-8" d="M247.53,44s0,0,0,0,0,0,0,0,0,0,0,0a.11.11,0,0,1,0,.06s-.08.06-.08.11a0,0,0,0,0,0,0s.06,0,.09,0,0,0,0,0,0,0,0,0a.19.19,0,0,0,.15,0s0,0,0,0,0,0,0,0h-.08S247.51,44,247.53,44Z"/><path class="cls-8" d="M247.23,44.1s0,0,0,0,0,0,0,0v0h0l0,0s0,0,0,0h0s0,0,0-.05h0s.1,0,.15,0,0,0,0,0l0,0h0a0,0,0,0,0,0,0,.09.09,0,0,0-.06,0s0,0,0,0Z"/><path class="cls-8" d="M247.24,43.89s0,0,0,0h0s0,0,0,0Z"/><path class="cls-8" d="M247.32,43.9h0s0,0,0,0Z"/><path class="cls-8" d="M247.1,44l0,0h0S247.12,44,247.1,44Z"/><path class="cls-8" d="M247.16,44s0,0,0,0h0S247.17,44,247.16,44Z"/><path class="cls-8" d="M248.81,40.71s0-.07,0-.09a.39.39,0,0,1,.11-.06h0s0-.08,0-.11.05,0,.08-.06,0,0,0,0a.34.34,0,0,1,0,.1s0,0-.05.06a.41.41,0,0,1-.07.15s-.05,0-.08,0Z"/><path class="cls-8" d="M249.6,33.24s0,0,0,0,0,0,0,0h0s0,0,0,0h0s0,0,0,0h0S249.61,33.25,249.6,33.24Z"/><path class="cls-8" d="M247,31.5a.19.19,0,0,1,.13,0s0,.1,0,.11-.16,0-.23,0,.08,0,.11,0S247,31.5,247,31.5Z"/><path class="cls-8" d="M247.22,31.39s-.05,0-.07,0,0,0,0-.05S247.22,31.37,247.22,31.39Z"/><path class="cls-8" d="M246.4,31.45s0,0,0,0h0S246.39,31.46,246.4,31.45Z"/><path class="cls-8" d="M246.07,31.47s0,0,0,0,0,0,0,0v0Z"/><path class="cls-8" d="M245,31.19s0,0,0,0,0,0-.05,0v0Z"/><path class="cls-8" d="M245.35,31.24h0a0,0,0,0,1,0,0s0,0-.07,0,0,0,0,0S245.34,31.23,245.35,31.24Z"/><path class="cls-8" d="M245.15,31.22s0,0,0,0,0,0,0,0h0s0,0,0,0h0s0,0,0,0l0,0a0,0,0,0,1,0,0Z"/><path class="cls-8" d="M242.13,32.22v0s0,0,0,0Z"/><path class="cls-8" d="M242.18,32.32h0v0s0,0,0,0S242.15,32.34,242.18,32.32Z"/><path class="cls-9" d="M242.16,32.22h0s0,0,0,0,0,0,0,0h0Z"/><path class="cls-8" d="M242.16,32.22h0s0,0,0,0,0,0,0,0h0"/><path class="cls-8" d="M242.2,32.25h0s0,0,0,0h0Z"/><path class="cls-8" d="M242.17,32.37h0s0,0,0,0,0,0,0,0Z"/><path class="cls-8" d="M242.34,32.32h0l0,0h0a0,0,0,0,1,0,0Z"/><path class="cls-8" d="M244.18,29.88s0,0,0,0a.13.13,0,0,1-.09,0l-.07,0a.12.12,0,0,0-.1,0s0,0,0,0h0s0,0,.05,0,.06,0,.06,0V30s0,.05,0,.05.05,0,.06,0h0l-.08,0h0s0,0,0,0h-.28s0,0,0,0a.17.17,0,0,0,.1.06h0a0,0,0,0,0,0,0v0c.06-.05.14,0,.21,0a.21.21,0,0,0,.12,0,.06.06,0,0,1,.06,0h0s0,0,0,0,0,0,0,0,0-.05,0-.08,0,0,0,0l0,0s0,0,0-.05,0,0,0,0,0,0,0,0h0s0,0,0,0,0,0,0-.05Z"/><path class="cls-8" d="M245.25,30c.11,0,.22-.1.31-.07s.19,0,.28.05v0l-.1.05a.57.57,0,0,1-.51,0S245.21,30.05,245.25,30Z"/><path class="cls-8" d="M247,31.24s0,.05-.05,0,0,0,0,0,0,0,0,0Z"/><path class="cls-8" d="M247.06,31v0s0,0,0,0,0,0,0-.06Z"/><path class="cls-8" d="M246.22,31.28h0s0,0,0,0A0,0,0,0,1,246.22,31.28Z"/><path class="cls-8" d="M246.16,30.08c.07,0,.21,0,.17,0S246.18,30.16,246.16,30.08Z"/><path class="cls-8" d="M246.61,30.28c.06,0,.08,0,.11.08a.24.24,0,0,1-.15-.08Z"/><path class="cls-8" d="M246.76,30.43c0,.05.11.09.07.11S246.8,30.48,246.76,30.43Z"/><path class="cls-8" d="M246.92,30.46s.07,0,.08.07,0,0,0,0Z"/><path class="cls-8" d="M247,30.85s0-.08,0-.11.08,0,.07.08S247,30.89,247,30.85Z"/><path class="cls-8" d="M243,28.85s0,.06.05.08,0-.06,0-.09S243,28.81,243,28.85Z"/><path class="cls-8" d="M243.05,28.87s0,.05,0,.07,0,0,0,0,0,0,0,0A.09.09,0,0,0,243.05,28.87Z"/><path class="cls-8" d="M243.09,29h0s0,.05,0,0S243.11,29,243.09,29Z"/><path class="cls-8" d="M243.12,28.84l0,0s0,.05,0,.05S243.16,28.84,243.12,28.84Z"/><path class="cls-8" d="M244,29.43s.08,0,.11-.07,0,0,0,0-.06.14-.17.1,0,0,0,0Z"/><path class="cls-8" d="M244.23,29.24l0,0s0,0,0,0v0a.06.06,0,0,0-.06,0S244.23,29.22,244.23,29.24Z"/><path class="cls-8" d="M244.35,29.29a0,0,0,0,1,.05,0s0,0,0,.07,0,0,0,0-.05,0-.08,0Z"/><path class="cls-8" d="M244.48,29.37s0,0,.05,0v0s-.05,0-.06,0S244.47,29.38,244.48,29.37Z"/><path class="cls-8" d="M240.54,30.3h-.37v.09H240s.07.07.1.11l.06,0s0,0,.05.07,0,0,0,0a.67.67,0,0,1-.2,0l0,0a1.88,1.88,0,0,1-.12.18s0,0,0,0l0,0s0,0,0,0v0s-.07,0-.09-.06h0s0,0,0,0,0,0-.06-.06l-.08-.07-.12-.06h0a.22.22,0,0,0-.13,0h-.07l0,0a.74.74,0,0,1-.21.07c-.07,0-.13-.05-.21-.07l-.12,0-.14-.07v0s-.05,0-.08,0l-.15-.05,0,0-.13,0s0,0-.06,0h0a0,0,0,0,1,0,0h0s-.06,0-.1-.08,0,0,0,0h0l-.06,0a.31.31,0,0,1-.16-.06h-.05l-.09-.05s0,0,0,0,0,0,0,0a.2.2,0,0,0-.06-.07h0a.13.13,0,0,0-.09-.05.2.2,0,0,1-.11-.09l0,0s0,0,0,0a.45.45,0,0,1,0-.11l0,0s.07,0,.05,0,0,0,0,0,0,0,0,0a.1.1,0,0,0,0-.09.54.54,0,0,0-.05-.11.07.07,0,0,1,0-.05s0,0,0,0a.1.1,0,0,0,0,0,0,0,0,0,1,0,0s-.06,0-.07-.06l0-.09,0,0a0,0,0,0,1,0,0l0,0-.05-.06a.27.27,0,0,1-.08-.07s0,0,0,0,0,0,0,0,0,0,0,0l0-.05a.06.06,0,0,1-.08,0h0l0,0s0,0,0,0,0,0,0,0,0,0-.06,0a0,0,0,0,1,0,0v0s0,0,0-.07,0,0,0,0a0,0,0,0,0,0,0h0s0,0,0,0h-.06s0,0,0,0,0,0,0,0a.06.06,0,0,1,0,0h-.09s0,0,0,0,0,0,0,0l0,0s0,0,0,0,0,0,0,0l0,0s0-.05,0-.06,0,0-.05-.05,0,0,0,0,0,0,0,0l0,0a.21.21,0,0,1,0-.06s0-.06,0-.09,0,0,0-.06a.14.14,0,0,0,0-.09s0,0,0,0,0,0,0,0a.16.16,0,0,1-.1-.1s0,.07,0,.1a.06.06,0,0,0,0,.07.2.2,0,0,0,0,.11.17.17,0,0,0,0,.07v0a.1.1,0,0,0,0,.1s0,0,0,0,.05,0,.05.06v0l0,.1a.08.08,0,0,1,0,0s0,0,0,0a0,0,0,0,1,0,0s0,.07,0,.1,0,0,0,0h0a0,0,0,0,1,0,0l0,.05a.07.07,0,0,1,0,.05l0,.07v0h0s0,.08,0,.12h0a0,0,0,0,1,0,0l0,0s0,0,0,0,0,0,0,0h0v0h0s0,0,0,0,0,.05.06.07,0,0,0,0a.05.05,0,0,0,0,0h0a.07.07,0,0,1,0,.09.1.1,0,0,1-.08,0s0,0,0,0h0s0,0,0,0a0,0,0,0,1,0,0l-.05-.09,0,0s0-.07-.07-.09a.1.1,0,0,1-.06-.05s0,0,0,0h0s0,0,0,0l0,0,0-.09s0-.07,0-.11,0,0-.06,0a.15.15,0,0,1-.06-.11,0,0,0,0,1,0,0h-.05l0,0s0,0,0,0,0,0,0,0a0,0,0,0,0,0,0s0,0,0,0h0s0,0,0,0,0,0,0,0a.13.13,0,0,1,0-.06h0s0,0,0,0,0,0,0,0h.1s0,0,0-.05a0,0,0,0,0,0,0v0a0,0,0,0,1,0,0s0,0,0-.08,0,0,0,0,0,0,0,0a.43.43,0,0,1,0-.05c0-.05,0-.08,0-.13h0v0a.27.27,0,0,0,0-.09s0,0,0-.06,0-.19,0-.29,0,0,0,0h0l.57.32h0s0,0,0,0a1.92,1.92,0,0,0,.53.06s0-.06,0-.06a1.23,1.23,0,0,1,.33,0h0l0,0s0,0,0,0l0,0h0c0,.08.11.12.17.18s0,.06,0,.09,0,.07,0,.1a.58.58,0,0,0,.19.16h0c.08-.05.09-.2.21-.15s0,0,0,0,.07,0,.1,0l0,0,0,0,.05,0a0,0,0,0,1,0,0s0,0,0,0v0s0,.09.07.13a.31.31,0,0,1,0,.1l.05,0c.05,0,0,.1,0,.15a.18.18,0,0,0,.1.14l.1,0,0,0h.09l.07,0,0,0a0,0,0,0,1,0,0,.08.08,0,0,0,0,0s0,0,0,0,0,.05-.06.06,0,0-.05,0,0,0,0,0a.09.09,0,0,1,0,.07s0,0,0,0,0,0,0,.07v0s0,.09,0,.14a.91.91,0,0,0,0,.31.28.28,0,0,0,.07.09s0,0,0,0,0,.05,0,.07a.06.06,0,0,0,0,.05h0s0,0,0,.05,0,0,.06.05,0,0,0,.06a.4.4,0,0,0,.14.22.21.21,0,0,0,.15.05l0,.05.06,0a.06.06,0,0,0,.06,0l0,0,.05,0a.38.38,0,0,1,.15,0h0l0,0a.38.38,0,0,1,.15,0h0l0,0a.14.14,0,0,0,.11,0s0-.06,0-.07l0,0s0,0,0,0,0-.06,0-.09l0-.05,0-.11a.11.11,0,0,1,0-.08c0-.05.09-.05.15-.07s0,0,0,0a.43.43,0,0,0,.16,0l0,0h.09a.13.13,0,0,1,.09,0s0,0,0,0l0,0a.34.34,0,0,1,.1,0s0,0,0,0v0s0,0,0,0,0,0,0,0l0,0s0,0-.06.05,0,0,0,0h0v.05a.1.1,0,0,1,0,.05h0a0,0,0,0,0,0,0,0,0,0,0,1,0,0,0,0,0,0,1,0,.05l0,.09a.13.13,0,0,1,0,.06s0,0,0,0v0s0,0,0,0,0,0,0-.07h0a0,0,0,0,0,0-.05s0,0,0,.06h0s0,0,0,0,0,0,0,.05a0,0,0,0,0,0,0l-.06,0h0Z"/><path class="cls-8" d="M240.72,30.74h0s0,0-.06,0a0,0,0,0,1,0,0c-.07,0-.07,0-.07,0V30.3h-.37v.09H240s.07.07.1.11l.06,0s0,0,.05.07,0,0,0,0a.67.67,0,0,1-.2,0l0,0a1.88,1.88,0,0,1-.12.18s0,0,0,0l0,0s0,0,0,0,0,0,0,0a.71.71,0,0,0,.14.1l.06,0a.34.34,0,0,1,.1,0l.12,0h0l0,0h0a0,0,0,0,0,0,0h0s0,0,0-.05h0s0,0,0,0,0,0,0,0,.06,0,.09-.08.05,0,.08-.05l0,0Z"/><path class="cls-8" d="M240.61,30.69v0a.18.18,0,0,0,.14-.15.25.25,0,0,0,0-.12.43.43,0,0,1,0-.05l0-.06s0,0,0,0,0,0,0,0,0,0,0,0,0,0,0,.05a0,0,0,0,0,0,0l-.06,0h0v.36s0,.05.07,0Z"/><path class="cls-8" d="M240.91,31.26l0,0h0s0,0,0,0,0-.05,0-.07a.11.11,0,0,0-.08,0s0,0,0,0h0l0,0s0,0-.06,0l0,0s0,0-.05,0a0,0,0,0,0,0,0h0s0,0,0,0h0s0,0,0,0,0,0,0,0,.06,0,.09-.08.05,0,.08-.05l0,0s0,0,.06,0a.31.31,0,0,1,.19,0,.34.34,0,0,0,.2,0h0s.07,0,.1,0l.06,0a.21.21,0,0,1,.11,0h.12l.06,0,.05,0,.08,0s0,0,0,0,0,0,0,0h0s0,0,0,0a.43.43,0,0,0-.12.05s0,0,0,0a.12.12,0,0,1-.1,0s0,0,0,0,0,0,0,0,0,0,0,0a.06.06,0,0,1,0,0s-.07,0-.1.07l0,0a.11.11,0,0,1-.08,0l0,0,0,0s0,0-.06,0,0,.05,0,.07l0,0c0,.05-.08,0-.13.06Z"/><path class="cls-8" d="M240.36,31.16s0,0,0-.06h0l0,0h0a0,0,0,0,0,0,0h0s0,0,0-.05,0,0,0,0h0a0,0,0,0,1,0,0s0,0,.05,0l0,0s0,0,.06,0l0,0h0s0,0,0,0a.11.11,0,0,1,.08,0s0,0,0,.07,0,0,0,0h-.08a.32.32,0,0,1-.17,0l-.08,0Z"/><path class="cls-8" d="M241.25,31.65l-.09-.07a.34.34,0,0,1-.06-.06s0,0,0,0l-.07-.07s-.07-.08-.12-.11,0,0,0,0h0c.05,0,.11,0,.13-.06l0,0s0-.06,0-.07,0,0,.06,0l0,0,0,0a.11.11,0,0,0,.08,0l0,0s.08,0,.1-.07a.06.06,0,0,0,0,0s0,0,0,0,0,0,0,0,0,0,0,0a.12.12,0,0,0,.1,0s0,0,0,0a.43.43,0,0,1,.12-.05s0,0,0,0a.46.46,0,0,1,0,.23.21.21,0,0,0,0,.11,1.26,1.26,0,0,1,0,.38s0,0,0,0l0,0h0l0,0h-.1l0,0h-.11a.11.11,0,0,0,0-.09.17.17,0,0,0-.08-.06l0,0s0,0-.07,0a0,0,0,0,0,0,0,.16.16,0,0,0,.05.11l0,.05h-.07Z"/><path class="cls-8" d="M241.92,31.93a.22.22,0,0,1-.09-.07.6.6,0,0,1-.09-.15,0,0,0,0,0,0,0l0,0h-.1l0,0h0s-.07,0-.1,0h-.07a.11.11,0,0,0-.08,0h0a0,0,0,0,0,0,0s0,0,0,0,0,0,0,0h0a.09.09,0,0,1,0,.05.13.13,0,0,0,.12.13l0,0a0,0,0,0,0,0,0s0,0,0,0,0,0,0,0,0,0,0,0h0s0,0,0,0a0,0,0,0,1,0,0s0,.07.08.09.12,0,.18.09,0,0,0,.05,0,0,0,.06,0,0,0,0h0l0,0h0s0,0,0,0l0,0s0,0,0,0h0s.05,0,0-.08,0,0,0-.05,0,0,0,0h0Z"/><path class="cls-8" d="M241.91,32.22a0,0,0,0,0,0,0s0,0,0-.06,0,0,0,0,0,0,0,0,0,0,0,0a0,0,0,0,0,0,0,.12.12,0,0,1,.08,0l.05,0s0,0,0,.06a.07.07,0,0,0,.05,0s0,0,0,0h0s0,0,0,0h0s0,0,0,.06h.11s0,0,0,0h0s0,0,0,0,0,0,0,0a.05.05,0,0,0,0,0,.73.73,0,0,0-.09-.08s0,0,0,0,.11,0,.13,0,0,0,0,0,0-.05,0-.06.05,0,0-.07,0,0-.07,0l0,0-.05,0h0a.29.29,0,0,0-.1,0s0,0-.07.05a.15.15,0,0,1-.11,0l-.06,0s0,0,0,0h0s0,0,0,0h0s0,0,0,0l0,0s0,0,0,0l-.11,0V32h0s0,0,0,0,0,0,0,0,0,0,0,.06l0,0Z"/><path class="cls-8" d="M243.21,32c0,.06,0,.12,0,.19s0,0,0,0,0,0,0,.06-.1,0-.11,0v0l0,0h-.05s0-.06-.07-.07h0s0,0,0-.07,0,0,0,0l0,0h0l0,0s0,0,0,0-.05,0-.07,0,0-.08,0-.1-.12,0-.14,0a.08.08,0,0,1-.07,0h0s0,0,0,0l0,0,0,0,0,0v0a.11.11,0,0,1,.06,0h.12l.06,0s0,0,0,0a0,0,0,0,0,0,0h.19s0,.05.06.07h.05Z"/><path class="cls-9" d="M245.7,33.42h0s0,0,0,0-.13-.1-.13-.18a0,0,0,0,0,0,0l0,.05s0,0,0,0,0,0-.05,0h0s0,0,0,0a2.75,2.75,0,0,1-.41,0s0,0,0,.06,0,.07,0,.1a.12.12,0,0,1,.15,0s0,0,0,0a.13.13,0,0,0-.09,0,.32.32,0,0,0-.13.07.14.14,0,0,0,.06.15v0a.11.11,0,0,0,.08,0h0l.05,0-.09.66h0a.17.17,0,0,0-.06-.06c-.05,0-.1,0-.15,0s.06,0,.05-.07.08,0,.12-.09,0-.09,0-.13a.12.12,0,0,0-.15,0s-.06.06-.08,0-.08-.07-.14,0-.06.08-.1.07h-.11s-.05-.05-.09-.07,0,0,0-.09,0,0-.06,0,0-.06,0-.08h-.06c-.13,0-.24-.18-.35-.16h0c-.08-.06-.17-.1-.26-.16s0,.06,0,.09-.07,0-.12,0h-.06s0,0-.08-.06-.13,0-.17,0l-.12-.07a.1.1,0,0,0-.08,0v0l0,0c0-.06.05-.06.1-.07s0-.07,0-.11,0,0,.06,0,.12,0,.18-.08v0h0s0,0,0-.07,0-.09.05-.13.05,0,0,0-.08-.07-.07-.13,0,0,0,0,0-.08,0-.12h0s0,0,0-.06.1,0,.08-.08,0,0-.06,0,.09-.06,0-.09-.12-.1-.12-.16.07,0,.11,0,0,0,0-.06,0,0,0,0,0-.13,0-.19a.75.75,0,0,1,.15.16s0,0,0,0a.19.19,0,0,1,.05-.2s0,0,0,0,0,0,.05-.06.1,0,.11-.09,0-.1,0-.13a.37.37,0,0,1,.19-.11,2.22,2.22,0,0,0,.39-.11l.19-.1s0-.07.05-.08l.09,0s.06,0,.09,0,0,.07,0,.08-.1,0-.11,0a.31.31,0,0,1-.11.14.28.28,0,0,0-.12.19c0,.05,0,.09,0,.14s.08,0,.09.08a.41.41,0,0,1,0,.27l0,0h.05s0,.06.06.06a.5.5,0,0,0,.21,0c.07,0,.13,0,.19,0s.13.09.21.14h0s0,0,.06,0a.59.59,0,0,1,.19,0s.06,0,.09,0,.07,0,.07.07-.09.17-.08.27a.3.3,0,0,0,.1.18s0,0,0,0h0s0,0,0,0,0,0-.07,0,0,.06,0,.09.08,0,.09.07,0,.19.13.25,0,.06.05,0Z"/><path class="cls-8" d="M245.7,33.42h0s0,0,0,0-.13-.1-.13-.18a0,0,0,0,0,0,0l0,.05s0,0,0,0,0,0-.05,0h0s0,0,0,0a2.75,2.75,0,0,1-.41,0s0,0,0,.06,0,.07,0,.1a.12.12,0,0,1,.15,0s0,0,0,0a.13.13,0,0,0-.09,0,.32.32,0,0,0-.13.07.14.14,0,0,0,.06.15v0a.11.11,0,0,0,.08,0h0l.05,0-.09.66h0a.17.17,0,0,0-.06-.06c-.05,0-.1,0-.15,0s.06,0,.05-.07.08,0,.12-.09,0-.09,0-.13a.12.12,0,0,0-.15,0s-.06.06-.08,0-.08-.07-.14,0-.06.08-.1.07h-.11s-.05-.05-.09-.07,0,0,0-.09,0,0-.06,0,0-.06,0-.08h-.06c-.13,0-.24-.18-.35-.16h0c-.08-.06-.17-.1-.26-.16s0,.06,0,.09-.07,0-.12,0h-.06s0,0-.08-.06-.13,0-.17,0l-.12-.07a.1.1,0,0,0-.08,0v0l0,0c0-.06.05-.06.1-.07s0-.07,0-.11,0,0,.06,0,.12,0,.18-.08v0h0s0,0,0-.07,0-.09.05-.13.05,0,0,0-.08-.07-.07-.13,0,0,0,0,0-.08,0-.12h0s0,0,0-.06.1,0,.08-.08,0,0-.06,0,.09-.06,0-.09-.12-.1-.12-.16.07,0,.11,0,0,0,0-.06,0,0,0,0,0-.13,0-.19a.75.75,0,0,1,.15.16s0,0,0,0a.19.19,0,0,1,.05-.2s0,0,0,0,0,0,.05-.06.1,0,.11-.09,0-.1,0-.13a.37.37,0,0,1,.19-.11,2.22,2.22,0,0,0,.39-.11l.19-.1s0-.07.05-.08l.09,0s.06,0,.09,0,0,.07,0,.08-.1,0-.11,0a.31.31,0,0,1-.11.14.28.28,0,0,0-.12.19c0,.05,0,.09,0,.14s.08,0,.09.08a.41.41,0,0,1,0,.27l0,0h.05s0,.06.06.06a.5.5,0,0,0,.21,0c.07,0,.13,0,.19,0s.13.09.21.14h0s0,0,.06,0a.59.59,0,0,1,.19,0s.06,0,.09,0,.07,0,.07.07-.09.17-.08.27a.3.3,0,0,0,.1.18s0,0,0,0h0s0,0,0,0,0,0-.07,0,0,.06,0,.09.08,0,.09.07,0,.19.13.25,0,.06.05,0"/><path class="cls-8" d="M245.76,33.42s0,0,0,0-.09-.16-.13-.25-.06,0-.09-.07,0-.07,0-.09.05,0,.07,0,0,0,0,0h0s0,0,0,0a.3.3,0,0,1-.1-.18c0-.1.1-.17.08-.27s0-.06-.07-.07-.06,0-.09,0a.59.59,0,0,0-.19,0s0,0-.06,0h0c-.08,0-.12-.13-.21-.14s-.12,0-.19,0a.5.5,0,0,1-.21,0s0,0-.06-.06h-.05l0,0a.41.41,0,0,0,0-.27s-.08,0-.09-.08,0-.09,0-.14a.28.28,0,0,1,.12-.19.31.31,0,0,0,.11-.14s.07,0,.11,0,0,0,0,0v0s0,0,0,0-.07.05-.09.09.05,0,0,.05,0,.09,0,.13-.12.19,0,.24a.12.12,0,0,0,.17-.09c0-.05,0-.09-.08-.12s0-.05,0-.06,0,0,0,0,0,0,0,0,.12-.05.19-.09h.06s.09,0,.14-.05v0s-.11,0-.08-.07.12,0,.15.09a.06.06,0,0,0,0,0s0,0,.06,0,0,0,0,0a.11.11,0,0,1,.1,0c0,.06.14.08.18.15a1.24,1.24,0,0,1,.43-.05s0,0,0,0,.08.06.13.07a.91.91,0,0,0,.43-.07l-.08,0s0,0,0,0a.77.77,0,0,1,.26,0c.2,0,.18,0,.26,0s-.14,0-.2,0v0s.07.06.11.07,0,0,.06,0,0,0,0,0a.22.22,0,0,1,.19.05h.05c.08,0,0,.12,0,.18s.16-.05.22,0,0,.09,0,.13a.1.1,0,0,1-.12.06l0,.06s.05,0,.09.05,0,0,0,0h.08c0,.09-.2,0-.31,0s0,0,0,0,0,.06,0,.09.13.12.17.2h0s-.07.11-.13.12H247l-.11,0,0,0a.2.2,0,0,1-.11,0,.07.07,0,0,0-.05,0s-.11,0-.15,0l-.17-.06s-.09,0-.13,0l0,0h0s0,.06.08.08V33l.05.12v0l0,0c.05,0,.1,0,.12,0a0,0,0,0,1,0,.07s-.11,0-.12,0a.16.16,0,0,1-.07.07s-.09,0-.11,0a.55.55,0,0,1-.24.15.17.17,0,0,1-.14,0l0,0v0S245.78,33.45,245.76,33.42Z"/><path class="cls-8" d="M248.13,33.22s0,0,0,0h0a.06.06,0,0,0,0-.08l-.06,0v0A.1.1,0,0,0,248,33h0s0-.06-.06-.08a.11.11,0,0,1,0-.16s0,0,0-.06h0s0,0,0,0,.07,0,.09,0,0-.08,0-.11h0s0,0,0,0a.9.9,0,0,1-.1-.09.07.07,0,0,0-.07,0s0,0,0,0h0s-.09,0-.12,0,0-.06,0-.1-.08-.06-.11-.11a.32.32,0,0,1,0-.09s0,0-.06,0,0,0,0,0a0,0,0,0,0,0,0h0a.13.13,0,0,1,0,.09.1.1,0,0,1-.12.06l0,.06s.05,0,.09.05,0,0,0,0h.08c0,.09-.2,0-.31,0s0,0,0,0,0,.06,0,.09.13.12.17.2h.06a.06.06,0,0,1,.08,0s0,0,0,.06a0,0,0,0,0,0,0c.07.09.11.2,0,.29a.11.11,0,0,0,0,.12c0,.09.06.15.13.2s0,0,.08,0,.06,0,.09,0l.06,0s.05,0,.09,0,0,0,.07,0H248l.08,0h0Z"/><path class="cls-8" d="M248.13,33.22s0,0,0,0h0a.06.06,0,0,0,0-.08l-.06,0v0A.1.1,0,0,0,248,33h0s0-.06-.06-.08a.11.11,0,0,1,0-.16s0,0,0-.06h0s0,0,0,0,.07,0,.09,0,0-.08,0-.11h0s0,0,0,0h0l0,0a.33.33,0,0,1,.1,0l0,0s0,0,.07,0l.06,0,.06,0s.06,0,.1,0,.12,0,.17,0,0,0,.06,0,.06,0,.06,0-.08.09-.09.15a.28.28,0,0,0,0,.2s0,.07,0,.1a.51.51,0,0,0,0,.24h0a.17.17,0,0,1-.14,0s-.09,0-.14,0a.16.16,0,0,0-.06,0s0,0,0,0,.05,0,0,.07,0,0-.07,0,0,0-.06,0l-.12,0Z"/><path class="cls-8" d="M248.77,32.49s0,0,.08,0l.05,0s.08,0,.11,0l.14.11a.18.18,0,0,1,.1.09v0s0,0,0,0,0,0,0,.05a.29.29,0,0,1,0,.09l-.05.09c0,.07-.11.1-.16.16s0,0,0,0a.11.11,0,0,1,0-.05s0,0,0,0a0,0,0,0,1,0,0h0a0,0,0,0,0-.05,0s0,0,0,0-.07,0-.09,0h0a.51.51,0,0,1,0-.24s0-.07,0-.1a.28.28,0,0,1,0-.2c0-.06.08-.09.09-.15Z"/><path class="cls-8" d="M242.6,34.51s.06.06,0,.09-.07.06,0,.1,0,0,.06,0,.11,0,.14,0,0,.07.05.09.08,0,.1,0,0,0,0-.06,0,0,0,0,0-.13.05-.2,0,0,0,0,.1,0,.12,0,0-.06,0-.07.24-.07.35-.13a.64.64,0,0,0,.24-.25s0,0,0,0a.09.09,0,0,0,0-.07s-.08-.07-.05-.09l0,0c-.09-.07-.16-.09-.26-.16s0,.06,0,.09-.07,0-.12,0h-.06s0,0-.08-.06-.13,0-.17,0l-.12-.07a.1.1,0,0,0-.08,0s0,0,0,0h-.08l-.11.05s0,0-.08,0,0,0,0,0,.1.05.07.09a0,0,0,0,1-.05,0c0,.05-.06.07,0,.12l0,0a0,0,0,0,0,0,0l-.08,0h0s-.05,0,0,0,0,0,0,0,0,.12,0,.18a0,0,0,0,1,0,0v0a.39.39,0,0,1,.15,0s0,0,.08,0,.05,0,.07,0,0,.07,0,.09l-.11.08S242.56,34.49,242.6,34.51Z"/><path class="cls-8" d="M245.1,35.89l0,0H245l-.07,0a.06.06,0,0,1-.06,0s0-.1,0-.14a.14.14,0,0,1,0-.07s0,0,0,0,0,0,0,0h0a1.45,1.45,0,0,1-.29,0s-.06,0-.07,0,0-.05,0-.06h-.05a.14.14,0,0,0-.17,0s.08-.09.08-.09,0-.06-.06-.08l-.08-.07v0s-.11,0-.09-.09a.31.31,0,0,0,.05-.18.07.07,0,0,1,.09-.08h0s0,0,0,0a.06.06,0,0,0,0-.06s0-.05,0-.07.08-.06.09-.11,0-.06,0-.07l.1,0a.16.16,0,0,1,.07-.07c.07,0,.15,0,.23-.05a.22.22,0,0,1,.14,0s.05,0,.08,0V34.5h0s0,0-.06-.06-.1,0-.15,0,.06,0,.05-.07.08,0,.12-.09,0-.09,0-.13a.12.12,0,0,0-.15,0s-.06.06-.08,0-.08-.07-.14,0-.06.08-.1.07h-.11s-.05-.05-.09-.07,0,0,0-.09,0,0-.06,0,0-.06,0-.08h-.06c-.15,0-.27-.23-.4-.13s0,.05.05.09a.09.09,0,0,1,0,.07s0,0,0,0a.64.64,0,0,1-.24.25c-.11.06-.24.07-.35.13s0,0,0,.07-.08,0-.12,0,0,0,0,0,0,.14-.05.2,0,0,0,0,0,0,0,.06-.07,0-.1,0,0-.07-.05-.09-.09,0-.14,0,0,0-.06,0,0-.07,0-.1,0-.09-.05-.11,0,0-.06,0h-.08s0,.05,0,.06l-.07.09s0,.1,0,.14.11.07.08.14-.07,0-.06.05.12.07.19.09a.32.32,0,0,1,.14.12.06.06,0,0,1,0,0c0,.08.16.09.19.16a.2.2,0,0,1,0,.15l0,0,.08.06s0,.1.06.15a.22.22,0,0,0,.08.09.33.33,0,0,1,0,.06.45.45,0,0,0,.11.13c0,.06,0,.14.08.19a.7.7,0,0,0,.16.13s0,.1,0,.14a.94.94,0,0,0,.41.33c.06,0,.09.09.16.1s.13,0,.17,0,.24.05.35.11,0,.11.09.13a.89.89,0,0,0,.25.14c.05,0,.13,0,.15,0a.41.41,0,0,0,0-.08v0s0,0,0-.06,0,0,0,0a.11.11,0,0,1,0-.08h0s0-.07,0-.1a.17.17,0,0,0,.06-.08s0,0-.06,0,0,0,0-.07l0-.08s0,0-.05-.07v0h0s0,0,0,0,.08-.05.09-.08a.07.07,0,0,0,0-.06s-.06,0-.05-.06h0s0-.07,0-.11a.2.2,0,0,0,.09-.06h0c-.05,0,0-.08,0-.11a1.23,1.23,0,0,0-.25-.26Z"/><path class="cls-8" d="M245.58,35.78l0,0a.13.13,0,0,1,.09,0c.05,0,.07-.07.11-.08a1,1,0,0,1,.3,0s0,.06,0,.09,0,.07,0,.1,0,.14,0,.19a.67.67,0,0,0,.11.07.55.55,0,0,0,.23.11s0,0,.06,0a.37.37,0,0,1,.18.05l.07,0a.31.31,0,0,0,.19.09.94.94,0,0,1,.24.06s.08.07,0,.11a.14.14,0,0,1,.06.1s-.05.05-.06.07a.19.19,0,0,0,.07.2c.07.06.19,0,.3,0l0,0a.08.08,0,0,1,.08,0c0,.05-.05.07-.05.1s.17.19.17.32-.05.06-.06.1,0,0,0,.07-.07,0,0,.06l.05.06s-.05.07-.08.08,0,0-.06-.07-.06,0-.08-.07,0,0-.06,0a.38.38,0,0,0-.28,0c-.05,0-.1,0-.16,0H247c-.08,0-.11.11-.19.14a.75.75,0,0,1,.05.16s0,.1,0,.16a.12.12,0,0,1-.11.09s0,0,0,0-.15,0-.23,0l0,0h0a.11.11,0,0,0-.07.11c0-.05,0-.08-.1-.11s-.16,0-.21,0l-.07,0s-.07,0-.07,0-.06.07-.08.12l0,0a.09.09,0,0,1-.12.05c-.09,0-.08-.13-.12-.2s0-.09,0-.13-.08-.06-.06-.11h0c0-.05-.09,0-.13-.07v0s.05,0,.06,0,0-.07,0-.11h.06a0,0,0,0,0,0,0,.09.09,0,0,0-.08-.05s0,0,0,0,0-.09,0-.12a1.2,1.2,0,0,0-.11-.12s0,0,0-.06,0,0,0,0,0-.06,0-.08h0s0-.07,0-.1a.12.12,0,0,0,.06-.08s0,0-.06,0,0,0,0-.07l0-.08s0,0,0-.07,0,0,0,0h0s0,0,0,0,.08-.05.09-.08a.14.14,0,0,0,0-.06s-.07,0-.06-.06h0s0-.07,0-.11a.24.24,0,0,0,.08-.06h0c0-.06,0-.08,0-.11a1,1,0,0,0-.25-.26.12.12,0,0,1,.13,0s.1,0,.14-.06.14,0,.2,0Z"/><path class="cls-8" d="M247.75,37.7s0,0-.05-.07-.06,0-.08-.07,0,0-.06,0a.38.38,0,0,0-.28,0c-.05,0-.1,0-.16,0H247c-.08,0-.11.11-.19.14a.75.75,0,0,1,.05.16s0,.1,0,.16a.12.12,0,0,1-.12.09h0s.07.07.09.09,0,0,.07.06.06,0,.09,0l.26.18c.06,0,.13,0,.18,0a.89.89,0,0,0,.37.2s0,0,0,0-.08.07-.1.12,0,.06,0,.07-.12.13-.08.19.14,0,.2,0l.08.05h0s0,0,.07,0l0,0s.06,0,.09,0,0,0,.05-.06.06,0,.09,0a.18.18,0,0,0,0-.07c.07-.06.2-.12.17-.22a.12.12,0,0,1,0-.14.24.24,0,0,0,.06-.09s0-.07,0-.11,0-.07,0-.09,0,0,0,0-.14,0-.16,0,0-.08,0-.12,0-.08,0-.13,0,0-.05,0-.29,0-.42-.07c.06,0,0-.12,0-.18s-.05-.08-.06-.12h0a.08.08,0,0,1,0,0Z"/><path class="cls-8" d="M249.68,33.63h-.05l0,0,0,0,0,0h0l0,0v0s0,0,0,0Z"/><path class="cls-8" d="M249.77,33.71s0,0,0-.05h0s0,0,0,0h0s0,0,0,0Z"/><path class="cls-9" d="M250,33.72h0a.19.19,0,0,0-.13,0l-.05,0h-.09a0,0,0,0,0,0,0l-.11,0h-.05a.16.16,0,0,0,0,.07s0,.05,0,.07l0,0s0,.07,0,.1.09,0,.14,0,.07,0,.1,0h0s0,0,0,0h.11l0,0v0l0,0,0,0a0,0,0,0,0,0,0s0-.06,0-.1,0,0,0,0,0,0,0,0h0l-.08,0h0Z"/><path class="cls-8" d="M250,33.72h0a.19.19,0,0,0-.13,0l-.05,0h-.09a0,0,0,0,0,0,0l-.11,0h-.05a.16.16,0,0,0,0,.07s0,.05,0,.07l0,0s0,.07,0,.1.09,0,.14,0,.07,0,.1,0h0s0,0,0,0h.11l0,0v0l0,0,0,0a0,0,0,0,0,0,0s0-.06,0-.1,0,0,0,0,0,0,0,0h0l-.08,0h0"/><path class="cls-9" d="M249.5,33.66s0,0,0,0h0s0,0,0,0,0,0,0,.05,0,0,0,0l0,0a0,0,0,0,0,0,0h0Z"/><path class="cls-8" d="M249.5,33.66s0,0,0,0h0s0,0,0,0,0,0,0,.05,0,0,0,0l0,0a0,0,0,0,0,0,0h0"/><path class="cls-8" d="M249.58,33.66s0,0,0,0,0,0,0,0h0S249.59,33.67,249.58,33.66Z"/><path class="cls-8" d="M249.61,33.56h0a0,0,0,0,0,0,0s0,0,0,0l.05,0a0,0,0,0,0,0,0v0Z"/><path class="cls-8" d="M249.65,33.53h0s0,0,0,.06,0,0,0,0h0s0,0,0,0S249.64,33.54,249.65,33.53Z"/><path class="cls-8" d="M249.38,33.79h0l0,0s0,0,0,.05l-.06,0s0,0,0,0h0l0,0h0a.34.34,0,0,0,.06-.06h0Z"/><path class="cls-8" d="M249.42,33.71h0l0,0s0,0,0,0h0l0,0h0s0,0,0,0Z"/><path class="cls-8" d="M249.47,33.75h0l0,0s0,0,0,0,0,0,0,0A0,0,0,0,0,249.47,33.75Z"/><path class="cls-8" d="M249.5,33.76s0,0,0,0h0s0,0,0,0Z"/><path class="cls-9" d="M249.23,33.91h0s0,0,0,0,0,0,0,0,0,0,0,0,0,0,0,0h0Z"/><path class="cls-8" d="M249.23,33.91h0s0,0,0,0,0,0,0,0,0,0,0,0,0,0,0,0h0"/><path class="cls-8" d="M249.71,33.48l0,0h0s0,0,0,0Z"/><path class="cls-8" d="M247.82,39.77a.57.57,0,0,1,.15-.22.87.87,0,0,1,.1-.08c.08,0,.11-.13.19-.17a1.15,1.15,0,0,0,.25-.12s.07,0,.06-.06,0,0,.06,0,0-.09,0-.14,0-.07-.08-.1l-.09,0h0a.06.06,0,0,1,0,0l0,0,0-.07s0-.07,0-.11,0-.07,0-.09,0,0,0,0-.14,0-.16,0,0-.08,0-.12,0-.08,0-.13,0,0-.05,0-.29,0-.42-.07c.06,0,0-.12,0-.18a0,0,0,0,0,0,0s-.05-.07-.05-.09h0l0-.06h0s.1,0,.09-.08l-.05-.06s0,0,0-.06-.05,0,0-.07.06,0,.06-.1-.17-.2-.17-.32.07,0,.05-.1a.08.08,0,0,0-.08,0l0,0c-.11,0-.24,0-.3,0a.19.19,0,0,1-.07-.2s.06,0,.06-.07a.14.14,0,0,0-.06-.1s0-.09,0-.11a.94.94,0,0,0-.24-.06.31.31,0,0,1-.19-.09l-.07,0a.37.37,0,0,0-.18-.05s-.05,0-.06,0a.55.55,0,0,1-.23-.11s-.09,0-.11-.07,0-.12,0-.19,0-.07,0-.1,0-.06,0-.09a1,1,0,0,0-.3,0s-.07.07-.11.08-.08,0-.09,0l0,0s0,0,0,0,0,0,0,0-.14,0-.2,0-.1.07-.14.05,0,0-.07,0h-.06l-.06,0H245l-.07,0a.06.06,0,0,1-.06,0s0-.1,0-.14a.14.14,0,0,1,0-.07s0,0,0,0,0,0,0,0h0a1.45,1.45,0,0,1-.29,0s-.06,0-.07,0,0-.05,0-.06h-.05a.14.14,0,0,0-.17,0s.08-.09.08-.09,0-.06-.06-.08l-.08-.07v0s-.11,0-.09-.09a.31.31,0,0,0,.05-.18.07.07,0,0,1,.09-.08h0s0,0,0,0a.06.06,0,0,0,0-.06s0-.05,0-.07.08-.06.09-.11,0-.06,0-.07l.1,0a.16.16,0,0,1,.07-.07c.07,0,.15,0,.23-.05a.22.22,0,0,1,.14,0s.05,0,.08,0l.11-.74-.05,0h0a.11.11,0,0,1-.08,0v0a.14.14,0,0,1-.06-.15.32.32,0,0,1,.13-.07.13.13,0,0,1,.09,0s0,0,0,0a.12.12,0,0,0-.15,0s0-.07,0-.1,0-.06,0-.06a2.75,2.75,0,0,0,.41,0s0,0,0,0h0s0,0,.05,0,0,0,0,0l0-.05a0,0,0,0,1,0,0c0,.08,0,.2.13.18h.07s0,0,0,.06a.17.17,0,0,0,.14,0,.55.55,0,0,0,.24-.15s.08,0,.11,0a.16.16,0,0,0,.07-.07s.08,0,.12,0a0,0,0,0,0,0-.07s-.07,0-.12,0l0,0v0l-.05-.12v-.11s-.1,0-.08-.08h0l0,0s.09,0,.13,0l.17.06s.12,0,.15,0a.07.07,0,0,1,.05,0,.2.2,0,0,0,.11,0l0,0,.11,0h.08c.08,0,.09-.1.16-.13a.06.06,0,0,1,.08,0s0,0,0,.06a0,0,0,0,0,0,0c.07.09.11.2,0,.29a.11.11,0,0,0,0,.12c0,.09.06.15.13.2s0,0,.08,0,.06,0,.09,0l.06,0s.05,0,.09,0,0,0,.07,0H248l.08,0s.11,0,.17,0,0,0,.06,0,.06,0,.07,0,0-.06,0-.07,0,0,0,0a.16.16,0,0,1,.06,0c.05,0,.1-.07.14,0a.17.17,0,0,0,.14,0s.07.05.11,0,0,0,0,0a0,0,0,0,1,.05,0h0a0,0,0,0,0,0,0s0,0,0,0a.11.11,0,0,0,0,.05s0,0,0,0,.12-.09.16-.16l.05-.09a.29.29,0,0,0,0-.09s0,0,0-.05,0-.06,0,0l.08.07a.45.45,0,0,1,.1.14s0,0,0,.06,0,0,0,0,0,.13,0,.18.13,0,.2.07a.34.34,0,0,1-.05.14l0,0c-.06,0-.06.07-.11.1h0s-.05,0-.07,0a.35.35,0,0,1-.1.11v.07s0,0,0,0a.35.35,0,0,1-.18.06h0a.13.13,0,0,1,.09,0s0,.07,0,.1a.18.18,0,0,0,0,.09.12.12,0,0,1,0,.09h0s0-.06,0-.1l0,0v0s-.06-.07,0-.11a.24.24,0,0,1,.08-.06.26.26,0,0,0,.13-.06s0,0,0,0h0v.07s0,0,0,0,0,0,0,0,0,0,0,0h0a.1.1,0,0,0,0,0,.15.15,0,0,0,.09,0s.1,0,.14,0,0,0,.06,0a0,0,0,0,1,0,0s0,0,0,0h0a0,0,0,0,1,0,0s0,0,0,0h0a.36.36,0,0,0,0-.11s0,0,.06,0,0,0,0,0,0,0,.05,0v0a.26.26,0,0,0,.09-.09.1.1,0,0,1,.1,0,.14.14,0,0,0,.09,0h0s0,0,0,0l.12,0a.09.09,0,0,1,0,.05l.05,0a.21.21,0,0,0,.08,0s0,0,0,0h0s0,0,.06,0,0,0,0,0,.05,0,0,0h.08s.06,0,.05.05,0,0,0,0a.15.15,0,0,0,.07.05v0s-.05,0,0,0,0,0,0,0h0s-.06,0-.07.09,0,0,.06,0a.11.11,0,0,0,0-.07s0,0,0,0h0s0,0,0,.06.1,0,.15-.05h.05v0s.1,0,.13,0,0,0,.07,0,0,0,0,.05a.1.1,0,0,0,.09,0s0,0,0,0,0,0,0,0l.06.06s0,0,.06,0l.07,0s0,0,0,0,.06,0,.09,0h.05l0,0s0,0,.05,0l.06,0s0,0,0,0l.17.12v0h0s.1.06.13.11,0,0,0,.06,0,0,0,0l.08,0a.24.24,0,0,1,.12.1s0,0,.05,0l.05,0h.07s0,0,.07,0,0,0,0,0a.49.49,0,0,1,0,.11l0,0s0,.06,0,.08,0,0,0,.09,0,0,0,0l0,.07v0s0,0,0,.06a.75.75,0,0,1,0,.16.26.26,0,0,1-.09.12l-.13.1s0,.05,0,.07a.54.54,0,0,1-.12.09s-.07,0-.09,0-.06.1-.13.11,0,0,0,0-.07,0-.07.06,0,0,0,0a1,1,0,0,0-.14.15.08.08,0,0,1-.09,0s0,0,0,0h-.05s0,0,0,0,0,0,0,.05h0s0,0,0,0,0,0,0,0,0,0,0,0a.06.06,0,0,0,0,0h0s0,0,.05,0,0,.05,0,.07a1,1,0,0,0,0,.35c0,.05,0,.09-.07.13l-.06.13a.15.15,0,0,1,0,.15l-.07.06c0,.08,0,.18-.05.25s-.12.06-.14.12a.08.08,0,0,1,0,0,1.51,1.51,0,0,0-.21.23s0,.08,0,.12-.08,0-.12,0-.08,0-.08.05l0,0c-.14,0-.13,0-.13,0h-.1c0-.09,0,0,0,0s-.06,0-.06,0h-.07c0-.05-.07,0-.12,0s-.12,0-.16.09a.11.11,0,0,1-.1,0c-.08,0-.13,0-.19,0a.35.35,0,0,0-.13,0s0,0,0,0a.38.38,0,0,0-.16.12l-.09.06h0c-.07,0-.05.08-.07.13s0,0,0,0,.07.08,0,.12a.11.11,0,0,0,0,.06.26.26,0,0,0,0,.22s0,.08-.06.09a.51.51,0,0,0-.23.15,1.87,1.87,0,0,0-.16.28c0,.07-.21.09-.2.17s0,.06,0,.06-.11,0-.09-.06,0,0,.06,0,.15-.09.17-.15.07,0,.05-.07,0,0,0,0A.36.36,0,0,0,249,40s0,0,0,0-.21.15-.28.25v0l-.05-.07s0,0,0-.06-.1,0-.12-.1a.08.08,0,0,0,0,0s-.08,0-.11,0a.16.16,0,0,0-.08-.06s-.06,0-.07,0a.35.35,0,0,0-.11-.13s0,0-.05,0a.26.26,0,0,0-.15,0Z"/><path class="cls-8" d="M246.08,44.55s0,0,0,.05.08,0,.12,0h.07s0,0,0,0a.29.29,0,0,0,.16,0h0l0,0s0,0,0,0h-.13a1,1,0,0,1-.31-.19l0,0h0a.25.25,0,0,0,0,.09A.34.34,0,0,1,246.08,44.55Z"/><path class="cls-8" d="M244.85,42.66h0s0,0,0,0S244.81,42.68,244.85,42.66Z"/><path class="cls-8" d="M244.91,42.62s0,0,0,0h0S244.89,42.63,244.91,42.62Z"/><path class="cls-8" d="M244.94,42.67s0,0,0,0h0Z"/><path class="cls-8" d="M244.89,42.58a0,0,0,0,1,0,0s0,0,0,0S244.89,42.57,244.89,42.58Z"/><path class="cls-8" d="M244.76,42.53s0,0,0,0l0,0Z"/><path class="cls-8" d="M244.93,42.83s0,0,0,0,0,0,0,0l.05,0s0,0,0,0Z"/><path class="cls-8" d="M244.89,42.91h0v0h0Z"/><path class="cls-8" d="M244.79,42.72s0,0,0,0S244.77,42.73,244.79,42.72Z"/><path class="cls-8" d="M244.84,42.2h0s0,0,0,0,0,0,0,0,0,0,0,0,0,.06,0,.08,0,0,0,0,0,0,0,0,0,0,0,.06v0a.05.05,0,0,0,0,0h0s.06,0,.07,0,0,0,0,0l0,0s0,0,0-.06,0,0,0,0,0,0,0-.07h0s0,0,0,0,0,0,0,0S244.86,42.2,244.84,42.2Z"/><path class="cls-8" d="M244.82,42.76h0s0,0,0,0Z"/><path class="cls-8" d="M244.89,42.71h0a0,0,0,0,0,0,0s.06,0,.06,0Z"/><path class="cls-8" d="M245,42.71h0s0,0,0,0h0l0,0Z"/><path class="cls-9" d="M245.05,42.68h0s0,0,0,0h0v0h0a0,0,0,0,0,0,0l.06,0a0,0,0,0,1,0,0h0v0h0l0,0s0,0,0,0h0Z"/><path class="cls-8" d="M245.05,42.68h0s0,0,0,0h0v0h0a0,0,0,0,0,0,0l.06,0a0,0,0,0,1,0,0h0v0h0l0,0s0,0,0,0h0"/><path class="cls-8" d="M244.86,42.84s0,0,0,0,0,0,0,0,0,0,0,0Z"/><path class="cls-8" d="M245,42.92s0,0,0,0h0s0,0,0,0a0,0,0,0,1,0,0s0,0,0,0,0,0,0,0Z"/><path class="cls-8" d="M245,43h0s0,0,0,0,0,0,0,0h0s0,0,0,0Z"/><path class="cls-8" d="M244.94,42.58s0,0,0,0,0,0,0,0S245,42.58,244.94,42.58Z"/><path class="cls-9" d="M245,43.39s0,0,.07,0h0a0,0,0,0,1,0,0H245Z"/><path class="cls-8" d="M245,43.39s0,0,.07,0h0a0,0,0,0,1,0,0H245"/><path class="cls-8" d="M244.89,43.36s-.08,0-.09,0,0,0,0,0Z"/><path class="cls-8" d="M244.9,43.39h0l0,0s0,0,0,0a0,0,0,0,0,0,0Z"/><path class="cls-9" d="M245,43.45s0,0,0,0v0s0,0,0,0,0,0,.05,0,0,0,0,0a0,0,0,0,0,0,0Z"/><path class="cls-8" d="M245,43.45s0,0,0,0v0s0,0,0,0,0,0,.05,0,0,0,0,0a0,0,0,0,0,0,0"/><path class="cls-8" d="M244.84,43.44s0,0,0,0,0,0,.05.07h0S244.88,43.45,244.84,43.44Z"/><path class="cls-8" d="M245,43.57l0,0s0,0,0,0,0,0,0,0,0,0,0,0-.08,0-.08,0l0,0a0,0,0,0,0,0,0l0,0,0,0h0s0,0,0,0,0,0,0-.06a.17.17,0,0,0,0,.07,0,0,0,0,0,0,0,.05.05,0,0,0,0-.08s0,0,0-.05,0,0,0-.07Z"/><path class="cls-8" d="M244.89,43.55h0s0,0,0,0h0S244.9,43.55,244.89,43.55Z"/><path class="cls-8" d="M244.81,43.57h0s0,0,0,0h0s0,0,0,0Z"/><path class="cls-9" d="M244.9,43.59s0,0,0,0h0l0,0s0,0,0,0,0,0,0,0h0Z"/><path class="cls-8" d="M244.9,43.59s0,0,0,0h0l0,0s0,0,0,0,0,0,0,0h0"/><path class="cls-8" d="M244.85,43.61h0s0,0,0,0v0h0l0,0S244.86,43.62,244.85,43.61Z"/><path class="cls-8" d="M244.89,43.74h0s0,0,0,0l0,0h0l0,0s0,0,0,0h0Z"/><path class="cls-8" d="M245,43.83a0,0,0,0,0,0,0s0,0,0,0,0,0,0,0S245,43.85,245,43.83Z"/><path class="cls-9" d="M245.1,43.88h0s0,0,0,0h0l0,0h0s0,0,0,0,0,0,0,0h0s0,0,0,0h0Z"/><path class="cls-8" d="M245.1,43.88h0s0,0,0,0h0l0,0h0s0,0,0,0,0,0,0,0h0s0,0,0,0h0"/><path class="cls-9" d="M245,43.92s0,0,0,0h0s0,0,0,0,0,0,0,0,0,0,0,0a0,0,0,0,0,0,0Z"/><path class="cls-8" d="M245,43.92s0,0,0,0h0s0,0,0,0,0,0,0,0,0,0,0,0a0,0,0,0,0,0,0"/><path class="cls-8" d="M245,43.93h0s0,0,0,0l0,0Z"/><path class="cls-9" d="M245.06,44s0,0,0,0,0,0,0,0h0s0,0,0,0Z"/><path class="cls-8" d="M245.06,44s0,0,0,0,0,0,0,0h0s0,0,0,0"/><path class="cls-9" d="M245.13,44h0l0,0,.05,0s0,0,0,0Z"/><path class="cls-8" d="M245.13,44h0l0,0,.05,0s0,0,0,0h0"/><path class="cls-8" d="M245,44h0s0,0,0,0h0s0,0,0,0Z"/><path class="cls-8" d="M245,44l0,0h0s0,0,0,0v0l0,0s0,0,0,0l0,0s0,0,0,0Z"/><path class="cls-8" d="M245.08,44h0l0,0s0,.05,0,.05,0,0,0,0l0,0A0,0,0,0,0,245.08,44Z"/><path class="cls-8" d="M245.06,44.14s0,0,0,0,0,0,0,.06h0s0,0,0,0,0,0,0,0Z"/><path class="cls-9" d="M245.15,44.1h0s0,0,0,0h.07l0,0Z"/><path class="cls-8" d="M245.15,44.1h0s0,0,0,0h.07l0,0h0"/><path class="cls-8" d="M245.19,44.07h0s0,0,0,0h0s0,0,0,0Z"/><path class="cls-8" d="M245.59,44.27a.12.12,0,0,0-.1,0h-.05l0,0s0,0,0,0,0,0,0,0,0,0-.06,0,0,0,0,0,.07,0,.08,0,0,0,0,0,0,0,0,0l0,0,0,0S245.61,44.27,245.59,44.27Z"/><path class="cls-8" d="M245.13,44.19h0l0,0s0,0,0,0l0,0,0,0S245.13,44.19,245.13,44.19Z"/><path class="cls-8" d="M245.22,44.18l0,0v0l0,0h0A0,0,0,0,0,245.22,44.18Z"/><path class="cls-8" d="M245.19,44.21s0,0,0,0,0,0,0,0h0S245.2,44.21,245.19,44.21Z"/><path class="cls-8" d="M245.23,44.22s0,0,0,0v0s0,0,0-.05Z"/><path class="cls-8" d="M245.4,44.52s-.06,0-.06,0,0-.05.08-.07h0a.1.1,0,0,1,0,.06,0,0,0,0,1,0,0,0,0,0,0,1,0,0h0s0,0,0,0,0,0,0,0v0Z"/><path class="cls-9" d="M245.34,44.41l0,0h0l0,0h0s-.05,0-.09,0v0l0,0,0,0h.07l0,0s0,0,.05,0l0,0h0Z"/><path class="cls-8" d="M245.34,44.41l0,0h0l0,0h0s-.05,0-.09,0v0l0,0,0,0h.07l0,0s0,0,.05,0l0,0h0"/><path class="cls-8" d="M245.28,44.31l0,0s0,0,0,0h0s0,0,0,0Z"/><path class="cls-8" d="M245.25,44.42s0,0,0,0v0h0s0,0,0,0v0Z"/><path class="cls-8" d="M245.32,44.44l0,0s0,0,0,0,0,0,0,0h.06Z"/><path class="cls-8" d="M245.37,44.54v0h0l0,0Z"/><path class="cls-8" d="M245.5,44.55s0,0,0,0l0,0a0,0,0,0,0,0,0s0,0,0,0Z"/><path class="cls-9" d="M245.53,44.61h0s0,0,0,0l0,0h0Z"/><path class="cls-8" d="M245.53,44.61h0s0,0,0,0l0,0h0"/><path class="cls-8" d="M245.58,44.49h0a0,0,0,0,0,0,0l0,0h0l0,0s0,0,0,0h0Z"/><path class="cls-8" d="M245.66,44.52s0,0,0,0h0s0,0,0,0h0s0,0,0,0h0s0,0,0,0Z"/><path class="cls-9" d="M245.73,44.66h0v0h0l0,0a0,0,0,0,0,0,0Z"/><path class="cls-8" d="M245.73,44.66h0v0h0l0,0a0,0,0,0,0,0,0"/><path class="cls-8" d="M245.79,44.68h0s0,0,0,0a.09.09,0,0,0,.07,0s0,0,0,0h-.05Z"/><path class="cls-9" d="M245.87,44.68s0,0,0,0a0,0,0,0,1,0,0h0s0,0,0,0h0Z"/><path class="cls-8" d="M245.87,44.68s0,0,0,0a0,0,0,0,1,0,0h0s0,0,0,0h0"/><path class="cls-9" d="M246,44.69s.08,0,.12,0,0,0,0,0h0s0,0,0,0h0s0,0,0,0h0a0,0,0,0,1-.05,0s0,0,0,0h-.07s0,0,0,0h0s0,0,0,.05,0,0,0,0h0l0,0s0,0,0,0H246s0,0,0,0h0Z"/><path class="cls-8" d="M246,44.69s.08,0,.12,0,0,0,0,0h0s0,0,0,0h0s0,0,0,0h0a0,0,0,0,1-.05,0s0,0,0,0h-.07s0,0,0,0h0s0,0,0,.05,0,0,0,0h0l0,0s0,0,0,0H246s0,0,0,0h0"/><path class="cls-9" d="M246.11,44.6s0,0,0,0l0,0a.06.06,0,0,1-.07,0h-.06l0,0h-.2s0,0-.07,0h0s.07-.05.11,0a.07.07,0,0,0,.07,0h0s0,0,0,0,.07,0,.09,0,0,0,0,0v0a.07.07,0,0,1,.06,0s0,0,0,0,0,0,0,0,0,0,0,0,.07,0,.11,0h0Z"/><path class="cls-8" d="M246.11,44.6s0,0,0,0l0,0a.06.06,0,0,1-.07,0h-.06l0,0h-.2s0,0-.07,0h0s.07-.05.11,0a.07.07,0,0,0,.07,0h0s0,0,0,0,.07,0,.09,0,0,0,0,0v0a.07.07,0,0,1,.06,0s0,0,0,0,0,0,0,0,0,0,0,0,.07,0,.11,0h0"/><path class="cls-8" d="M246.12,44.65a.11.11,0,0,1,.1,0h.07v0h-.08s0,0,0,0-.07,0,0-.07Z"/><path class="cls-8" d="M246.31,44.65s0,0,0,0h0s0,0,0,0Z"/><path class="cls-8" d="M246.33,44.7s0,0,0,0h0s0,0,0,0Z"/><path class="cls-8" d="M246.28,44.79s0,0,0,0,0,0,0,0h0Z"/><path class="cls-8" d="M245.8,44.5s0,0,0,0,0,0,0,0,0,0,0,0v0h0s0,0,0,.07l0,0s0,0,0,0A0,0,0,0,0,245.8,44.5Z"/><path class="cls-8" d="M246.62,44.6l0,0h0s.06,0,.09,0h0s0,0,0,0h-.12A0,0,0,0,1,246.62,44.6Z"/><path class="cls-9" d="M246.35,44.66a0,0,0,0,0,0,0s0,0,0,0,0,0,0,0l0,0h0Z"/><path class="cls-8" d="M246.35,44.66a0,0,0,0,0,0,0s0,0,0,0,0,0,0,0l0,0h0"/><path class="cls-8" d="M245.69,38.28c-.09,0-.08-.13-.12-.2s0-.09,0-.13-.08-.06-.07-.11h0c0-.05-.09,0-.13-.07v0s.05,0,.06,0,0-.07,0-.11h.05s0,0,0,0a.1.1,0,0,0-.08-.05s0,0,0,0,0-.09,0-.12l-.11-.12a.25.25,0,0,1,0,.14.39.39,0,0,1-.17,0s0,0,0,0a.44.44,0,0,0,0,.15c0,.13,0,.27.05.38s0,.09,0,.13a1.55,1.55,0,0,1,0,.22s0,0-.07.05,0,0,0,0,0,.16,0,.24h0c0,.05,0,.09,0,.12a.6.6,0,0,0,0,.26.61.61,0,0,1,0,.13s0,.06,0,.09,0,.07,0,.11,0,0,0,.06,0,.06-.06.1a.11.11,0,0,0,0,.08s0,.07.05.1v0h0s0,0,0,0a.25.25,0,0,0,0,.07.13.13,0,0,0,0,.06.41.41,0,0,0,.07.15l0,0a.34.34,0,0,0,0,.1s0,.1,0,.14,0,0,0,.07,0,0,0,0h0c-.14,0,0,.24-.07.35s0,0,0,0a.45.45,0,0,0,0,.11.55.55,0,0,1-.06.18.34.34,0,0,1,0,.1s0,0,0,0a.14.14,0,0,0,0,.06.49.49,0,0,0,0,.12s0,.09,0,.13,0,0,0,.05a.09.09,0,0,1,0,.14s0,0,0,0,0,0,0,0a0,0,0,0,1,0,0s0,0,0,.06,0,0,0,.07,0,0,0,.07a.14.14,0,0,0,0,.11.2.2,0,0,0,.07.06s0,0,.08,0,0,0,0-.06a0,0,0,0,1,0,0l0,0s0,.06,0,.09,0,0,0,0,0,0,0,.06,0,0,0,0h0s0,.05,0,.07l0,0v0s0,0,0,.05,0,0,0,0,0,.06,0,.08,0,0,0,.05,0,0,0,0v0l0,0s.06,0,.09,0,0,0,0,0,0,0,0,0a.23.23,0,0,0-.09.08.14.14,0,0,0,0,.09s0,0,0,0,0,0,0,.07-.05,0-.08,0l-.06,0a0,0,0,0,1,0,0s-.05,0-.08,0v0s0,0,0,0,0,0,0,0-.1.07-.08.11,0,0,0,0,0-.08,0-.06l.09.06,0,0s0,0,.05,0h0s0,0,0,0-.05,0-.05,0,0,0,0,.06h0a0,0,0,0,0,0,0s0,0,0,0,.09,0,.14,0a.08.08,0,0,1,0,0s0,0,0,.06h-.09s-.06,0-.08,0,0,0,0,.05v0h0s0,.07,0,.1,0,0,0,.06h0s0,0,0,0h0c-.07,0-.08.09-.1.15s0,0,.06.07,0,.09.07.14,0,0,0,0v0s0,0,0,.05a.36.36,0,0,1,0,.07s0,0,.05,0,0,0,0,0,0,0,0-.07l0,0s0,0,0,0,0,0,0,0-.07.1-.13.09v0h0v0a.47.47,0,0,1,.07.12s0-.07,0-.09l.06,0h.1a.16.16,0,0,1,.08.06s0,.05,0,.07-.06,0-.09,0l0,0s0,0,0,0,.1,0,.16,0,0,0,0,0l0,0a.15.15,0,0,0,0-.09s0,0,0,0,0,0,0,0a1.46,1.46,0,0,1,.19-.07s.1,0,.15,0,0,0,0,0h0a1.09,1.09,0,0,1-.18,0,.77.77,0,0,1-.26,0c-.06,0-.09-.07-.11-.12s0-.09,0-.13a.09.09,0,0,0-.11,0c-.13-.14,0-.31,0-.46a.25.25,0,0,1,0-.19s0,0,0-.05l.06-.06s0,0,0,0,0-.07,0-.11l0,0s0-.1,0-.15,0,0-.08-.05.06,0,.08,0,.05,0,0-.06v0s-.06,0-.11,0,0,0,0,0,0-.07,0-.1a.6.6,0,0,1-.09-.13s0-.09,0-.14,0-.18,0-.27,0-.12,0-.18a.32.32,0,0,1,0-.09s0-.05,0-.08l0,0s.06,0,.07,0,0-.09,0-.14,0,0,0-.08a.45.45,0,0,1,0-.2c0-.08.09-.14.11-.22s0-.07,0-.1,0-.11.05-.16.06,0,.08,0a.57.57,0,0,0,0-.22s-.06,0-.06,0a.35.35,0,0,1-.06-.19s0,0,0,0-.05,0-.07-.06a.06.06,0,0,1,0,0s.06,0,.06-.05,0-.1,0-.13.08-.06.05-.11a.19.19,0,0,1,0-.1.79.79,0,0,1,.06-.22.76.76,0,0,0,.11-.22s.05,0,.08-.06l0,0a.28.28,0,0,1,0-.18.11.11,0,0,0,0-.06s0,0,0,0,0-.11,0-.15.21-.08.23-.19V38.4a.47.47,0,0,0,0-.12Z"/><path class="cls-8" d="M245.75,44.26s0,0,0,0l0,0h0s0,0,0,0h0s0,0,0,0a.05.05,0,0,1,.05,0l0,0,.07,0a0,0,0,0,1,0,0h0s0,0,0,.07,0,0,0,0,0,0,0,0,0,0,0,0,0,0,0,.06,0,0,0,0,0,0,0,.05v0s0,0,0,0l-.19,0-.08,0s0-.06,0-.09.06,0,.08-.05h0s-.1,0-.13,0,0,0,0,0h0s0,0,0,0Z"/><path class="cls-8" d="M245.77,38.27s0,0,0,0l0,0c0-.05.07-.06.08-.12s0,0,.06,0,.06,0,.08,0,.13,0,.21,0,.09.06.1.11a.11.11,0,0,1,.07-.11h0l0,0c.07,0,.15,0,.23,0s0,0,0,0h0s.07.07.09.09,0,0,.07.06.06,0,.09,0l.26.18c.06,0,.13,0,.18,0a.89.89,0,0,0,.37.2s0,0,0,0-.08.07-.1.12,0,.06,0,.07-.12.13-.08.19.14,0,.2,0l.08.05h0s0,0,.07,0l0,0s.06,0,.09,0,0,0,.05-.06.06,0,.09,0a.18.18,0,0,0,0-.07c.07-.06.2-.12.17-.22s0-.06,0-.09h0l.09,0s.1.08.08.1,0,.11,0,.14,0,0-.06,0,0,.05-.06.06a1.15,1.15,0,0,1-.25.12c-.08,0-.11.13-.19.17a.87.87,0,0,0-.1.08.78.78,0,0,0-.21.39s0,.06-.07.1,0,.08,0,.11,0,.12,0,.19-.05,0-.05,0a.3.3,0,0,1,0,.1.14.14,0,0,0,.05.17s.09.06.12.08l.06.06s-.07.06,0,.11a.11.11,0,0,0,.06.07s.07,0,.06,0,0,.08,0,.11-.11.19-.21.24a1.06,1.06,0,0,1-.46.13l-.11,0a.2.2,0,0,1-.22,0h0s0,0,0,.05l0,0h0s0,0,0,.07a0,0,0,0,1,0,0s0,0,0,0-.05,0-.05,0,0,0,0,0,0,0,0,.06,0,0,0,.07,0,0,0,0h-.06l0,0a.25.25,0,0,1-.15,0v0a.45.45,0,0,1-.11,0h-.05s0,0,0,0,0,0,0,0a.14.14,0,0,0,0,.09s0,0,0,0l0,0a0,0,0,0,1,0,0l0,0,0,0h0l.06,0s0,0,0,0h0s0,0,0,0,0,0,0,0,0,0,0,0h.06c.06,0,0,.08,0,.11s-.09,0-.13,0a0,0,0,0,0-.07,0s0,0,.08,0-.11.09-.13.16a.22.22,0,0,0,0,.08s0,0,0,.06h0s0,0,0,0,0,0,0,0h-.11l-.13.11a.17.17,0,0,0,0,.16.23.23,0,0,0,.2.14h0s.07,0,.09,0,0,0,0,0h0s0,.08,0,.11h0s0,0,0,0h0s0,0,0,0,0,0-.05,0,0,0,0,0-.05,0-.07,0,0,0,0,0a.18.18,0,0,0-.07.08s.05,0,0,0,0,.07,0,.1-.06,0-.1,0,0,.07,0,.1l0,.06v0s0,0,0,0a1.08,1.08,0,0,0,.11.18,1.09,1.09,0,0,1-.18,0,.77.77,0,0,1-.26,0c-.06,0-.09-.07-.11-.12s0-.09,0-.13a.09.09,0,0,0-.11,0c-.13-.14,0-.31,0-.46a.25.25,0,0,1,0-.19s0,0,0-.05l.06-.06s0,0,0,0,0-.07,0-.11l0,0s0-.1,0-.15,0,0-.08-.05.06,0,.08,0,.05,0,0-.06v0s-.06,0-.11,0,0,0,0,0,0-.07,0-.1a.6.6,0,0,1-.09-.13s0-.09,0-.14,0-.18,0-.27,0-.12,0-.18a.32.32,0,0,1,0-.09s0-.05,0-.08l0,0s.06,0,.07,0,0-.09,0-.14,0,0,0-.08a.45.45,0,0,1,0-.2c0-.08.09-.14.11-.22s0-.07,0-.1,0-.11.05-.16.06,0,.08,0a.57.57,0,0,0,0-.22s-.06,0-.06,0a.35.35,0,0,1-.06-.19s0,0,0,0-.05,0-.07-.06a.06.06,0,0,1,0,0s.06,0,.06-.05,0-.1,0-.13.08-.06.05-.11a.19.19,0,0,1,0-.1.79.79,0,0,1,.06-.22.76.76,0,0,0,.11-.22s.05,0,.08-.06l0,0a.28.28,0,0,1,0-.18.11.11,0,0,0,0-.06s0,0,0,0,0-.11,0-.15.21-.08.23-.19V38.4a.47.47,0,0,0,0-.12Z"/><path class="cls-8" d="M247.62,40.51a.38.38,0,0,0,.09.09s.06,0,.09,0,.12.1.21.12,0,0,0,0a.17.17,0,0,1,.1,0,.44.44,0,0,0,.2,0l.07-.05h0s.08,0,.1-.08l.09-.11s0-.05,0-.08l0,0c0-.05,0-.08,0-.13s0,0,0-.06-.1,0-.12-.1a.08.08,0,0,0,0,0s-.08,0-.11,0a.16.16,0,0,0-.08-.06s-.06,0-.07,0a.35.35,0,0,0-.11-.13s0,0-.05,0a.2.2,0,0,0-.13,0h0l0,0a.49.49,0,0,0-.06.17s0,.06-.07.1,0,.08,0,.11,0,.12,0,.19-.05,0-.05,0a.3.3,0,0,1,0,.1Z"/><path class="cls-8" d="M244.22,29.94s0,0,0,0,0,0,0-.05h0s.06,0,.1,0,.09,0,.14,0l.06,0s.07,0,.07,0a0,0,0,0,0,0,0h.08s0,0,0,0h0s.05,0,.07,0a.08.08,0,0,1,.08,0,.07.07,0,0,1,0,.11h0a.29.29,0,0,0-.16,0s0,0,0,0a.06.06,0,0,1-.07,0s0,0,0,0-.06,0-.07,0,0,0,0,0l-.08.12,0,0s0,0,0,0a.06.06,0,0,1,0-.05l0,0s0,0,0,0,0-.05,0-.08,0,0,0,0l0,0s0,0,0-.05,0,0,0,0,0,0,0,0Z"/><g class="cls-10"><rect class="cls-11" x="16.09" y="18.76" width="34.35" height="44.77"/></g><path class="cls-12" d="M61.68,43a1.5,1.5,0,0,1-.4-1.1V30.55a1.48,1.48,0,0,1,.4-1.1,1.58,1.58,0,0,1,1.14-.39h4.23a9.37,9.37,0,0,1,4.17.86,6.08,6.08,0,0,1,2.68,2.45,7.53,7.53,0,0,1,.93,3.84,7.63,7.63,0,0,1-.92,3.84,6,6,0,0,1-2.66,2.47,9.51,9.51,0,0,1-4.2.85H62.82A1.62,1.62,0,0,1,61.68,43m5.14-2.18q4.74,0,4.74-4.6t-4.74-4.59H64.57v9.19Z"/><path class="cls-12" d="M81.59,43.07a1.53,1.53,0,0,1-.45-1.16V30.53a1.48,1.48,0,0,1,.45-1.14,1.66,1.66,0,0,1,1.2-.43,1.69,1.69,0,0,1,1.2.43,1.51,1.51,0,0,1,.44,1.14V41.91A1.56,1.56,0,0,1,84,43.07a1.69,1.69,0,0,1-1.2.42,1.66,1.66,0,0,1-1.2-.42"/><path class="cls-12" d="M103.59,35.79a1.11,1.11,0,0,1,.34.86v4a4.62,4.62,0,0,1-.13,1.26,1.33,1.33,0,0,1-.48.71,2.73,2.73,0,0,1-1,.45,12.21,12.21,0,0,1-1.88.38,14.37,14.37,0,0,1-2,.14,8.84,8.84,0,0,1-4.09-.88,6.14,6.14,0,0,1-2.65-2.54,7.87,7.87,0,0,1-.93-3.92,7.83,7.83,0,0,1,.92-3.89,6.18,6.18,0,0,1,2.62-2.54,8.38,8.38,0,0,1,4-.9,7.78,7.78,0,0,1,4.84,1.46,1.81,1.81,0,0,1,.45.49,1.38,1.38,0,0,1,.12.61,1.4,1.4,0,0,1-.3.9.93.93,0,0,1-.73.38,1.59,1.59,0,0,1-.5-.08,5.37,5.37,0,0,1-.53-.27,7.6,7.6,0,0,0-1.62-.75,5.64,5.64,0,0,0-1.63-.22q-4.29,0-4.29,4.81a5.32,5.32,0,0,0,1.11,3.69,4.37,4.37,0,0,0,3.37,1.22,9.58,9.58,0,0,0,2.43-.31V37.67H99.05a1.47,1.47,0,0,1-1-.28,1.15,1.15,0,0,1,0-1.63,1.42,1.42,0,0,1,1-.28h3.6a1.35,1.35,0,0,1,.94.31"/><path class="cls-12" d="M111,43.07a1.52,1.52,0,0,1-.44-1.16V30.53a1.48,1.48,0,0,1,.44-1.14,1.66,1.66,0,0,1,1.2-.43,1.69,1.69,0,0,1,1.2.43,1.51,1.51,0,0,1,.44,1.14V41.91a1.56,1.56,0,0,1-.44,1.16,1.69,1.69,0,0,1-1.2.42,1.66,1.66,0,0,1-1.2-.42"/><path class="cls-12" d="M124.42,43.05a1.48,1.48,0,0,1-.46-1.14V31.64h-3.41c-1,0-1.56-.43-1.56-1.3s.52-1.28,1.56-1.28h10.11c1,0,1.56.43,1.56,1.28s-.52,1.3-1.56,1.3h-3.41V41.91a1.54,1.54,0,0,1-.44,1.14,1.91,1.91,0,0,1-2.39,0"/><path class="cls-12" d="M149.53,42.09a1.21,1.21,0,0,1-.47,1,1.67,1.67,0,0,1-1.08.39,1.48,1.48,0,0,1-.76-.21,1.34,1.34,0,0,1-.55-.64l-1.12-2.39h-7.14L137.3,42.6a1.38,1.38,0,0,1-.54.64,1.46,1.46,0,0,1-.77.21,1.68,1.68,0,0,1-1.09-.39,1.21,1.21,0,0,1-.49-1,1.65,1.65,0,0,1,.17-.65l5.69-11.5a1.55,1.55,0,0,1,.69-.74,2,2,0,0,1,1-.26,2,2,0,0,1,1,.27,1.81,1.81,0,0,1,.72.73l5.69,11.5a1.62,1.62,0,0,1,.16.65m-10-4.28h4.91L142,32.53Z"/><path class="cls-12" d="M155.54,43a1.46,1.46,0,0,1-.4-1.1V30.53a1.48,1.48,0,0,1,.44-1.14,1.66,1.66,0,0,1,1.2-.43,1.69,1.69,0,0,1,1.2.43,1.51,1.51,0,0,1,.44,1.14V40.79h5.39c1,0,1.54.44,1.54,1.3s-.51,1.28-1.54,1.28h-7.14a1.57,1.57,0,0,1-1.13-.38"/><path class="cls-12" d="M61.55,63.26a.94.94,0,0,1-.27-.7V51.24a.91.91,0,0,1,.26-.68,1,1,0,0,1,.73-.25h6.92c.61,0,.92.26.92.78s-.31.78-.92.78H63.25V56H68.8q.93,0,.93.78t-.93.78H63.25v5a.94.94,0,0,1-.26.71,1.11,1.11,0,0,1-1.44,0"/><path class="cls-12" d="M91.07,62.69a.75.75,0,0,1-.3.6,1,1,0,0,1-.67.24.92.92,0,0,1-.47-.14.89.89,0,0,1-.34-.4L88,60.2H80.94L79.67,63a.91.91,0,0,1-.35.4,1,1,0,0,1-.48.14,1.07,1.07,0,0,1-.69-.24.75.75,0,0,1-.3-.6.89.89,0,0,1,.1-.37L83.4,50.83a1,1,0,0,1,.43-.47,1.32,1.32,0,0,1,1.26,0,1,1,0,0,1,.43.47L91,62.32a.89.89,0,0,1,.1.37m-9.41-4h5.66l-2.84-6.16Z"/><path class="cls-12" d="M113.92,50.49a.93.93,0,0,1,.27.69V62.62a.93.93,0,0,1-.24.67.92.92,0,0,1-.67.24.86.86,0,0,1-.64-.24,1,1,0,0,1-.23-.67V54l-3.79,6.94a1,1,0,0,1-1.89,0L102.92,54v8.59a1,1,0,0,1-.23.67,1,1,0,0,1-1.3,0,.89.89,0,0,1-.25-.66V51.18a.93.93,0,0,1,.27-.69,1,1,0,0,1,.7-.27,1.1,1.1,0,0,1,1,.67l4.62,8.5,4.57-8.5a1.09,1.09,0,0,1,1-.67.94.94,0,0,1,.7.27"/><path class="cls-12" d="M126,63.27a1,1,0,0,1-.27-.71V51.18a.93.93,0,0,1,.27-.69,1,1,0,0,1,.71-.27,1,1,0,0,1,.74.26.93.93,0,0,1,.27.7V62.56a1,1,0,0,1-.26.71,1,1,0,0,1-.75.26,1,1,0,0,1-.71-.26"/><path class="cls-12" d="M139.14,63.19a.82.82,0,0,1-.26-.65V51.18a.93.93,0,0,1,.27-.69,1,1,0,0,1,.71-.27,1,1,0,0,1,.73.26.9.9,0,0,1,.28.7V61.83h5.87a1,1,0,0,1,.69.21.73.73,0,0,1,.24.59.74.74,0,0,1-.24.6,1,1,0,0,1-.69.21h-6.9a1,1,0,0,1-.7-.25"/><path class="cls-12" d="M164.44,50.22a.91.91,0,0,1,.63.26.85.85,0,0,1,.05,1.21l-4.56,5.47v5.4a.91.91,0,0,1-.28.72,1.09,1.09,0,0,1-.73.25,1,1,0,0,1-.71-.25.94.94,0,0,1-.27-.72v-5.4L154,51.69a.86.86,0,0,1,0-1.21.85.85,0,0,1,.63-.26.88.88,0,0,1,.68.33l4.21,5.1,4.2-5.1a.83.83,0,0,1,.67-.33"/></svg>