<?xml version="1.0" encoding="UTF-8" standalone="no"?><!DOCTYPE svg PUBLIC "-//W3C//DTD SVG 1.1//EN" "http://www.w3.org/Graphics/SVG/1.1/DTD/svg11.dtd"><svg width="100%" height="100%" viewBox="0 0 63 46" version="1.1" xmlns="http://www.w3.org/2000/svg" xmlns:xlink="http://www.w3.org/1999/xlink" xml:space="preserve" xmlns:serif="http://www.serif.com/" style="fill-rule:evenodd;clip-rule:evenodd;stroke-linejoin:round;stroke-miterlimit:2;"><g id="info4"><path d="M0.12,4.849l1.59,32.35c0.085,2.014 1.68,3.666 3.69,3.82l48.36,4.12c2.007,0.193 3.861,-1.16 4.29,-3.13c1.6,-7.13 5,-23.77 4,-34.78c-0.157,-1.843 -1.555,-3.357 -3.38,-3.66c-19.28,-3.12 -37.71,-4.4 -54.88,-3c-2.177,0.175 -3.83,2.102 -3.67,4.28Z" style="fill:url(#_Linear1);fill-rule:nonzero;"/><path d="M3.12,6.669l1.47,29.8c0.089,1.852 1.553,3.367 3.4,3.52l44.55,3.8c1.842,0.155 3.534,-1.086 3.94,-2.89c1.48,-6.56 4.57,-21.89 3.71,-32c-0.135,-1.706 -1.43,-3.109 -3.12,-3.38c-17.76,-2.88 -34.73,-4 -50.55,-2.71c-1.972,0.169 -3.482,1.883 -3.4,3.86Z" style="fill:url(#_Linear2);fill-rule:nonzero;"/><circle cx="15.13" cy="12.639" r="2.97" style="fill:#b4c5e4;"/><path d="M53.96,16.079c-0.109,0.015 -0.22,0.015 -0.33,0c-8.5,-2.12 -18.21,-2.79 -29.67,-2c-0.03,0.002 -0.06,0.003 -0.09,0.003c-0.748,0 -1.363,-0.615 -1.363,-1.363c0,-0.714 0.561,-1.313 1.273,-1.36c11.75,-0.77 21.73,-0.08 30.51,2.11c0.592,0.164 1.005,0.707 1.005,1.321c-0,0.738 -0.597,1.35 -1.335,1.369l0,-0.08Z" style="fill:#b4c5e4;fill-rule:nonzero;"/><path d="M52.75,23.049c-0.149,0.002 -0.298,-0.022 -0.44,-0.07c-11.42,-3.89 -28.1,-1.79 -28.27,-1.77c-0.091,0.019 -0.183,0.028 -0.275,0.028c-0.752,0 -1.37,-0.618 -1.37,-1.37c-0,-0.723 0.573,-1.328 1.295,-1.368c0.71,-0.09 17.49,-2.2 29.5,1.9c0.705,0.245 1.087,1.023 0.85,1.73c-0.185,0.552 -0.708,0.925 -1.29,0.92Z" style="fill:#b4c5e4;fill-rule:nonzero;"/><path d="M52.75,29.539c-0.149,0.002 -0.298,-0.022 -0.44,-0.07c-11.41,-3.89 -28.1,-1.8 -28.27,-1.77c-0.025,0.002 -0.05,0.002 -0.074,0.002c-0.752,0 -1.37,-0.618 -1.37,-1.37c-0,-0.648 0.459,-1.212 1.094,-1.342c0.71,-0.09 17.49,-2.2 29.5,1.89c0.707,0.249 1.088,1.03 0.85,1.74c-0.188,0.55 -0.709,0.922 -1.29,0.92Z" style="fill:#b4c5e4;fill-rule:nonzero;"/></g><defs><linearGradient id="_Linear1" x1="0" y1="0" x2="1" y2="0" gradientUnits="userSpaceOnUse" gradientTransform="matrix(3858.99,0,0,3858.99,22983.2,7522.89)"><stop offset="0" style="stop-color:#4359a3;stop-opacity:1"/><stop offset="1" style="stop-color:#4b5fa6;stop-opacity:1"/></linearGradient><linearGradient id="_Linear2" x1="0" y1="0" x2="1" y2="0" gradientUnits="userSpaceOnUse" gradientTransform="matrix(3274.23,0,0,3274.23,21344.5,6938.04)"><stop offset="0" style="stop-color:#4359a3;stop-opacity:1"/><stop offset="1" style="stop-color:#4b5fa6;stop-opacity:1"/></linearGradient></defs></svg>