<?xml version="1.0" encoding="UTF-8" standalone="no"?><!DOCTYPE svg PUBLIC "-//W3C//DTD SVG 1.1//EN" "http://www.w3.org/Graphics/SVG/1.1/DTD/svg11.dtd"><svg width="100%" height="100%" viewBox="0 0 21 20" version="1.1" xmlns="http://www.w3.org/2000/svg" xmlns:xlink="http://www.w3.org/1999/xlink" xml:space="preserve" xmlns:serif="http://www.serif.com/" style="fill-rule:evenodd;clip-rule:evenodd;stroke-linejoin:round;stroke-miterlimit:2;"><g id="info2"><path d="M0.12,3.659l0,12.32c0.004,1.452 1.16,2.661 2.61,2.73l15.38,0.72c0.043,0.002 0.087,0.003 0.13,0.003c1.498,0 2.73,-1.232 2.73,-2.73c0,-0.001 0,-0.002 0,-0.003l0,-13c0,-1.497 -1.232,-2.73 -2.73,-2.73l-15.39,0c-1.481,0.005 -2.703,1.21 -2.73,2.69Z" style="fill:#efb453;fill-rule:nonzero;"/><path d="M5.68,16.399l-0.5,0c-0.006,0 -0.011,0.001 -0.017,0.001c-0.247,-0 -0.45,-0.204 -0.45,-0.45c-0,-0.212 0.15,-0.397 0.357,-0.441c1.173,-0.362 2.316,-0.813 3.42,-1.35c-4.52,-0.37 -5.43,-2.69 -5.6,-3.76c-0.44,-2.68 1.88,-5.71 5.18,-6.75c3.3,-1.04 6.78,-0.69 8.69,1c1,0.88 2.12,2.57 1.6,5.62c-0.97,5.71 -9.86,6.13 -12.68,6.13Zm6.05,-3.06l-1.43,0.8c-0.933,0.508 -1.891,0.969 -2.87,1.38c3.49,-0.21 9.4,-1.19 10.12,-5.42c0.36,-2.14 -0.08,-3.78 -1.33,-4.86c-1.93,-1.69 -5.36,-1.63 -7.9,-0.82c-2.87,0.91 -5,3.59 -4.62,5.84c0.34,2 2.67,3.19 6.39,3.11l1.64,-0.03Z" style="fill:url(#_Linear1);fill-rule:nonzero;"/></g><defs><linearGradient id="_Linear1" x1="0" y1="0" x2="1" y2="0" gradientUnits="userSpaceOnUse" gradientTransform="matrix(15.65,0,0,15.65,2.84012,9.71921)"><stop offset="0" style="stop-color:#e6e7e8;stop-opacity:1"/><stop offset="1" style="stop-color:#fff;stop-opacity:1"/></linearGradient></defs></svg>