<?xml version="1.0" encoding="UTF-8" standalone="no"?><!DOCTYPE svg PUBLIC "-//W3C//DTD SVG 1.1//EN" "http://www.w3.org/Graphics/SVG/1.1/DTD/svg11.dtd"><svg width="100%" height="100%" viewBox="0 0 30 31" version="1.1" xmlns="http://www.w3.org/2000/svg" xmlns:xlink="http://www.w3.org/1999/xlink" xml:space="preserve" xmlns:serif="http://www.serif.com/" style="fill-rule:evenodd;clip-rule:evenodd;stroke-linejoin:round;stroke-miterlimit:2;"><g id="info3"><path d="M24.93,30.559l-21.81,0c-1.646,0 -3,-1.354 -3,-3l0,-21.86c-0.004,-1.562 1.212,-2.88 2.77,-3l23.23,-1.89c0.089,-0.008 0.178,-0.012 0.267,-0.012c1.646,0 3,1.355 3,3c-0,0.068 -0.002,0.135 -0.007,0.202l-1.43,23.72c-0.085,1.593 -1.425,2.853 -3.02,2.84Z" style="fill:#e17842;fill-rule:nonzero;"/><path d="M6.25,26.309c-1.265,-0.005 -2.304,-1.045 -2.31,-2.31l0,-14.02c0.043,-0.36 0.352,-0.635 0.715,-0.635c0.363,-0 0.672,0.275 0.715,0.635l0,14c0,0.001 0,0.002 0,0.002c0,0.478 0.393,0.87 0.87,0.87c0.02,0 0.04,-0 0.06,-0.002l16.6,-1c0.46,-0.031 0.821,-0.419 0.82,-0.88l0,-13.71c0.002,-0.248 -0.104,-0.485 -0.29,-0.65c-0.179,-0.17 -0.425,-0.251 -0.67,-0.22l-13.81,1.37c-0.312,0.026 -0.586,0.223 -0.71,0.51c-0.13,0.285 -0.096,0.619 0.09,0.87l5.27,7.27c0.159,0.229 0.422,0.364 0.7,0.36c0.275,-0.001 0.534,-0.13 0.7,-0.35l5.8,-7.73c0.135,-0.179 0.346,-0.284 0.57,-0.284c0.392,0 0.714,0.323 0.714,0.714c0,0.155 -0.05,0.306 -0.144,0.43l-5.82,7.73c-0.43,0.594 -1.127,0.938 -1.86,0.92c-0.743,-0.008 -1.436,-0.383 -1.85,-1l-5.24,-7.22c-0.284,-0.393 -0.437,-0.866 -0.437,-1.352c0,-1.179 0.904,-2.179 2.077,-2.298l13.81,-1.35c0.646,-0.071 1.292,0.141 1.77,0.58c0.485,0.436 0.762,1.058 0.76,1.71l0,13.71c0.002,1.214 -0.958,2.232 -2.17,2.3l-16.59,1l-0.14,0.03Z" style="fill:url(#_Linear1);fill-rule:nonzero;"/></g><defs><linearGradient id="_Linear1" x1="0" y1="0" x2="1" y2="0" gradientUnits="userSpaceOnUse" gradientTransform="matrix(449.864,0,0,449.864,8059.93,2398.8)"><stop offset="0" style="stop-color:#f9e4cd;stop-opacity:1"/><stop offset="1" style="stop-color:#fff;stop-opacity:1"/></linearGradient></defs></svg>