<?xml version="1.0" encoding="UTF-8" standalone="no"?><!DOCTYPE svg PUBLIC "-//W3C//DTD SVG 1.1//EN" "http://www.w3.org/Graphics/SVG/1.1/DTD/svg11.dtd"><svg width="100%" height="100%" viewBox="0 0 30 26" version="1.1" xmlns="http://www.w3.org/2000/svg" xmlns:xlink="http://www.w3.org/1999/xlink" xml:space="preserve" xmlns:serif="http://www.serif.com/" style="fill-rule:evenodd;clip-rule:evenodd;stroke-linejoin:round;stroke-miterlimit:2;"><g id="info1"><path d="M1.12,2.889l-0.33,20.73c-0.005,1.286 1.045,2.349 2.33,2.36l23.86,0c1.287,-0.005 2.345,-1.063 2.35,-2.35l0,-20.65c-0.005,-1.287 -1.063,-2.344 -2.35,-2.35l-23.5,0c-1.26,-0.006 -2.312,1.001 -2.36,2.26Z" style="fill:#e17842;fill-rule:nonzero;"/><path d="M15.17,22.809l-0.52,0c-5.88,-0.26 -10.48,-4.95 -10.24,-10.45c0.13,-2.695 1.386,-5.214 3.46,-6.94c2.134,-1.797 4.874,-2.716 7.66,-2.57c5.88,0.26 10.48,4.94 10.24,10.45c-0.13,2.692 -1.386,5.209 -3.46,6.93c-1.998,1.68 -4.53,2.595 -7.14,2.58Zm-0.16,-18.58c-2.278,-0.017 -4.489,0.781 -6.23,2.25c-1.789,1.466 -2.879,3.621 -3,5.93c-0.21,4.73 3.78,8.75 8.9,9c2.429,0.126 4.818,-0.675 6.68,-2.24c1.789,-1.461 2.879,-3.613 3,-5.92c0.21,-4.73 -3.78,-8.76 -8.9,-9l-0.45,-0.02Z" style="fill:url(#_Linear1);fill-rule:nonzero;"/><path d="M17.64,12.859c0.012,1.639 -0.122,3.275 -0.4,4.89c-0.07,0.41 -0.16,0.81 -0.26,1.21c-0.1,0.396 -0.22,0.787 -0.36,1.17c-0.133,0.391 -0.315,0.764 -0.54,1.11c-0.108,0.177 -0.243,0.335 -0.4,0.47c-0.078,0.069 -0.165,0.127 -0.26,0.17c-0.095,0.051 -0.202,0.079 -0.31,0.08c-0.106,0.001 -0.211,-0.02 -0.31,-0.06c-0.096,-0.041 -0.187,-0.095 -0.27,-0.16c-0.16,-0.134 -0.299,-0.293 -0.41,-0.47c-0.223,-0.345 -0.407,-0.714 -0.55,-1.1c-0.139,-0.387 -0.26,-0.781 -0.36,-1.18c-0.1,-0.39 -0.19,-0.79 -0.26,-1.2c-0.148,-0.803 -0.252,-1.615 -0.31,-2.43c-0.07,-0.82 -0.11,-1.64 -0.11,-2.46l0,-1.23c0,-0.41 0,-0.82 0.07,-1.23c0.06,-0.81 0.15,-1.63 0.29,-2.44c0.06,-0.4 0.14,-0.8 0.24,-1.2c0.088,-0.4 0.201,-0.794 0.34,-1.18c0.065,-0.194 0.141,-0.385 0.23,-0.57c0.083,-0.19 0.18,-0.374 0.29,-0.55c0.109,-0.173 0.244,-0.328 0.4,-0.46c0.08,-0.068 0.172,-0.122 0.27,-0.16c0.095,-0.04 0.197,-0.06 0.3,-0.06c0.106,0.008 0.211,0.032 0.31,0.07c0.093,0.047 0.18,0.104 0.26,0.17c0.157,0.134 0.295,0.289 0.41,0.46c0.226,0.342 0.414,0.708 0.56,1.09c0.155,0.381 0.286,0.772 0.39,1.17c0.11,0.39 0.2,0.79 0.28,1.19c0.316,1.611 0.474,3.249 0.47,4.89Zm-0.12,0c0,-0.81 0,-1.63 -0.1,-2.44c-0.049,-0.819 -0.149,-1.634 -0.3,-2.44c-0.07,-0.4 -0.16,-0.8 -0.26,-1.19c-0.1,-0.39 -0.23,-0.79 -0.37,-1.17c-0.141,-0.38 -0.325,-0.742 -0.55,-1.08c-0.109,-0.173 -0.244,-0.328 -0.4,-0.46c-0.075,-0.064 -0.16,-0.118 -0.25,-0.16c-0.091,-0.043 -0.189,-0.067 -0.29,-0.07c-0.099,0.001 -0.196,0.018 -0.29,0.05c-0.089,0.044 -0.173,0.098 -0.25,0.16c-0.153,0.132 -0.285,0.287 -0.39,0.46c-0.109,0.172 -0.203,0.352 -0.28,0.54c-0.086,0.185 -0.16,0.375 -0.22,0.57c-0.136,0.386 -0.246,0.78 -0.33,1.18c-0.09,0.39 -0.16,0.8 -0.23,1.2c-0.12,0.8 -0.2,1.62 -0.25,2.43c-0.05,0.81 -0.07,1.63 -0.07,2.45c0,0.82 0,1.63 0.08,2.45c0.08,0.82 0.16,1.62 0.3,2.42c0.07,0.41 0.15,0.81 0.25,1.2c0.096,0.396 0.212,0.787 0.35,1.17c0.13,0.385 0.308,0.751 0.53,1.09c0.108,0.171 0.239,0.326 0.39,0.46c0.077,0.06 0.161,0.11 0.25,0.15c0.095,0.025 0.195,0.025 0.29,0c0.098,0.002 0.195,-0.022 0.28,-0.07c0.091,-0.04 0.175,-0.094 0.25,-0.16c0.148,-0.134 0.276,-0.289 0.38,-0.46c0.215,-0.345 0.39,-0.714 0.52,-1.1c0.138,-0.383 0.255,-0.774 0.35,-1.17c0.1,-0.39 0.18,-0.79 0.25,-1.19c0.14,-0.81 0.23,-1.62 0.29,-2.43c0.06,-0.81 0.07,-1.57 0.07,-2.39Z" style="fill:url(#_Linear2);fill-rule:nonzero;"/><path d="M15.12,22.199c-0.131,-0.001 -0.26,-0.029 -0.38,-0.08c-0.118,-0.048 -0.229,-0.112 -0.33,-0.19c-0.175,-0.152 -0.33,-0.327 -0.46,-0.52c-0.235,-0.362 -0.427,-0.752 -0.57,-1.16c-0.15,-0.391 -0.273,-0.792 -0.37,-1.2c-0.1,-0.38 -0.19,-0.78 -0.27,-1.21c-0.144,-0.817 -0.248,-1.642 -0.31,-2.47c-0.07,-0.8 -0.1,-1.63 -0.11,-2.47l0,-1.24c0,-0.37 0,-0.83 0.06,-1.23c0.07,-0.89 0.16,-1.7 0.29,-2.46c0.07,-0.44 0.15,-0.84 0.24,-1.23c0.09,-0.39 0.23,-0.84 0.35,-1.2c0.12,-0.36 0.16,-0.41 0.24,-0.59c0.089,-0.201 0.193,-0.394 0.31,-0.58c0.124,-0.194 0.276,-0.369 0.45,-0.52c0.101,-0.078 0.212,-0.142 0.33,-0.19c0.127,-0.054 0.263,-0.081 0.4,-0.08c0.135,0.01 0.267,0.044 0.39,0.1c0.115,0.048 0.223,0.112 0.32,0.19c0.175,0.147 0.326,0.319 0.45,0.51c0.245,0.353 0.443,0.736 0.59,1.14c0.159,0.388 0.293,0.785 0.4,1.19c0.11,0.39 0.2,0.78 0.29,1.22c0.301,1.626 0.451,3.277 0.45,4.93c0.01,1.656 -0.127,3.309 -0.41,4.94c-0.08,0.43 -0.16,0.83 -0.26,1.22c-0.1,0.407 -0.223,0.808 -0.37,1.2c-0.138,0.405 -0.326,0.792 -0.56,1.15c-0.121,0.197 -0.269,0.375 -0.44,0.53c-0.099,0.079 -0.206,0.146 -0.32,0.2c-0.13,0.057 -0.268,0.091 -0.41,0.1l0.01,0Zm-0.13,-18.1c-0.06,-0.009 -0.12,-0.009 -0.18,0c-0.068,0.033 -0.131,0.073 -0.19,0.12c-0.135,0.117 -0.25,0.256 -0.34,0.41c-0.1,0.165 -0.19,0.335 -0.27,0.51c-0.07,0.16 -0.14,0.34 -0.21,0.55c-0.127,0.377 -0.234,0.761 -0.32,1.15c-0.08,0.37 -0.15,0.76 -0.22,1.19c-0.12,0.75 -0.2,1.54 -0.26,2.41c-0.06,0.87 -0.06,1.54 -0.06,2.43c0,0.89 0,1.64 0.08,2.43c0.08,0.79 0.16,1.65 0.29,2.4c0.08,0.43 0.16,0.81 0.25,1.18c0.092,0.39 0.205,0.774 0.34,1.15c0.128,0.353 0.3,0.689 0.51,1c0.09,0.152 0.205,0.287 0.34,0.4l0.19,0.12l0.19,0c0.066,-0.007 0.13,-0.024 0.19,-0.05c0.07,-0.033 0.134,-0.077 0.19,-0.13c0.135,-0.117 0.25,-0.255 0.34,-0.41c0.206,-0.33 0.373,-0.682 0.5,-1.05c0.134,-0.374 0.247,-0.754 0.34,-1.14c0.09,-0.37 0.17,-0.76 0.24,-1.18c0.138,-0.798 0.235,-1.602 0.29,-2.41c0.06,-0.793 0.09,-1.603 0.09,-2.43c0,-0.82 0,-1.64 -0.09,-2.42c-0.065,-0.808 -0.172,-1.613 -0.32,-2.41c-0.08,-0.41 -0.16,-0.8 -0.26,-1.17c-0.098,-0.386 -0.218,-0.767 -0.36,-1.14c-0.14,-0.351 -0.318,-0.686 -0.53,-1c-0.096,-0.153 -0.214,-0.291 -0.35,-0.41c-0.062,-0.047 -0.129,-0.087 -0.2,-0.12c-0.063,-0.012 -0.127,-0.012 -0.19,0l-0.02,0.02Z" style="fill:url(#_Linear3);fill-rule:nonzero;"/><path d="M21.76,12.859c-0.003,1.058 -0.147,2.111 -0.43,3.13c-0.277,1.02 -0.716,1.989 -1.3,2.87c-0.293,0.438 -0.628,0.846 -1,1.22c-0.37,0.379 -0.783,0.715 -1.23,1c-0.447,0.28 -0.927,0.502 -1.43,0.66c-0.503,0.151 -1.025,0.229 -1.55,0.23c-0.528,-0.001 -1.054,-0.079 -1.56,-0.23c-0.503,-0.156 -0.984,-0.378 -1.43,-0.66c-0.445,-0.287 -0.858,-0.622 -1.23,-1c-0.374,-0.371 -0.709,-0.78 -1,-1.22c-0.584,-0.882 -1.027,-1.85 -1.31,-2.87c-0.141,-0.509 -0.248,-1.027 -0.32,-1.55c-0.063,-0.524 -0.097,-1.052 -0.1,-1.58c0.002,-0.528 0.039,-1.056 0.11,-1.58c0.069,-0.523 0.172,-1.041 0.31,-1.55c0.283,-1.016 0.725,-1.982 1.31,-2.86c0.297,-0.438 0.632,-0.85 1,-1.23c0.37,-0.379 0.783,-0.715 1.23,-1c0.443,-0.28 0.92,-0.502 1.42,-0.66c0.506,-0.151 1.032,-0.228 1.56,-0.23c0.526,0 1.049,0.081 1.55,0.24c0.503,0.153 0.984,0.371 1.43,0.65c0.444,0.285 0.854,0.621 1.22,1c0.371,0.375 0.706,0.783 1,1.22c0.581,0.883 1.02,1.851 1.3,2.87c0.286,1.02 0.437,2.072 0.45,3.13Zm-0.14,0c0.004,-1.044 -0.134,-2.083 -0.41,-3.09c-0.266,-1.011 -0.691,-1.973 -1.26,-2.85c-0.293,-0.438 -0.628,-0.847 -1,-1.22c-0.365,-0.376 -0.771,-0.712 -1.21,-1c-0.437,-0.282 -0.911,-0.501 -1.41,-0.65c-0.494,-0.16 -1.01,-0.241 -1.53,-0.24c-0.523,0 -1.042,0.081 -1.54,0.24c-0.498,0.151 -0.972,0.37 -1.41,0.65c-0.437,0.286 -0.84,0.621 -1.2,1c-0.37,0.376 -0.704,0.784 -1,1.22c-0.84,1.326 -1.373,2.822 -1.56,4.38c-0.133,1.036 -0.133,2.084 0,3.12c0.064,0.517 0.165,1.028 0.3,1.53c0.272,1.009 0.697,1.97 1.26,2.85c0.299,0.434 0.633,0.842 1,1.22c0.364,0.375 0.766,0.71 1.2,1c0.439,0.282 0.913,0.504 1.41,0.66c0.5,0.151 1.018,0.229 1.54,0.23c0.519,-0.001 1.034,-0.079 1.53,-0.23c0.496,-0.154 0.97,-0.373 1.41,-0.65c0.438,-0.285 0.84,-0.621 1.2,-1c0.372,-0.373 0.707,-0.782 1,-1.22c0.565,-0.879 0.99,-1.84 1.26,-2.85c0.281,-1.009 0.422,-2.052 0.42,-3.1Z" style="fill:url(#_Linear4);fill-rule:nonzero;"/><path d="M14.83,22.199c-0.552,0 -1.101,-0.08 -1.63,-0.24c-0.521,-0.164 -1.019,-0.396 -1.48,-0.69c-0.462,-0.281 -0.888,-0.617 -1.27,-1c-0.372,-0.387 -0.707,-0.809 -1,-1.26c-0.593,-0.902 -1.045,-1.891 -1.34,-2.93c-0.282,-1.043 -0.426,-2.119 -0.43,-3.2c0.002,-0.538 0.038,-1.076 0.11,-1.61c0.07,-0.533 0.177,-1.061 0.32,-1.58c0.293,-1.043 0.745,-2.035 1.34,-2.94c0.293,-0.447 0.628,-0.866 1,-1.25c0.385,-0.379 0.811,-0.715 1.27,-1c0.464,-0.29 0.965,-0.515 1.49,-0.67c1.054,-0.333 2.186,-0.333 3.24,0c0.523,0.156 1.021,0.385 1.48,0.68c0.462,0.282 0.888,0.617 1.27,1c0.375,0.385 0.71,0.807 1,1.26c0.603,0.897 1.056,1.887 1.34,2.93c0.286,1.039 0.431,2.112 0.43,3.19c0.002,1.078 -0.143,2.151 -0.43,3.19c-0.285,1.044 -0.734,2.037 -1.33,2.94c-0.292,0.451 -0.627,0.873 -1,1.26c-0.383,0.378 -0.805,0.713 -1.26,1c-0.463,0.294 -0.964,0.523 -1.49,0.68c-0.529,0.16 -1.078,0.24 -1.63,0.24Zm0,-18.14c-0.498,0.003 -0.993,0.077 -1.47,0.22c-0.474,0.154 -0.927,0.366 -1.35,0.63c-0.423,0.289 -0.812,0.624 -1.16,1c-0.353,0.364 -0.668,0.763 -0.94,1.19c-0.555,0.852 -0.97,1.787 -1.23,2.77c-0.132,0.493 -0.233,0.994 -0.3,1.5c-0.063,0.508 -0.097,1.019 -0.1,1.53c0.003,0.512 0.036,1.023 0.1,1.53c0.067,0.506 0.168,1.007 0.3,1.5c0.266,0.984 0.681,1.922 1.23,2.78c0.275,0.423 0.59,0.818 0.94,1.18c0.347,0.362 0.737,0.681 1.16,0.95c0.418,0.272 0.873,0.484 1.35,0.63c0.953,0.307 1.978,0.307 2.93,0c0.476,-0.144 0.93,-0.353 1.35,-0.62c0.427,-0.283 0.817,-0.619 1.16,-1c0.354,-0.362 0.672,-0.757 0.95,-1.18c0.551,-0.857 0.966,-1.795 1.23,-2.78c0.533,-1.984 0.533,-4.075 0,-6.06c-0.262,-0.985 -0.677,-1.923 -1.23,-2.78c-0.275,-0.422 -0.589,-0.818 -0.94,-1.18c-0.348,-0.376 -0.737,-0.711 -1.16,-1c-0.426,-0.264 -0.883,-0.476 -1.36,-0.63c-0.476,-0.128 -0.967,-0.189 -1.46,-0.18Z" style="fill:url(#_Linear5);fill-rule:nonzero;"/><path d="M6.74,9.259l16.65,0l-16.65,0Z" style="fill:url(#_Linear6);fill-rule:nonzero;"/><path d="M15.06,9.549l-6.24,-0.01l-2.18,-0.02l-0.14,-0.15l-0.01,-0.11l0.01,-0.23l0.24,-0.01l4.16,-0.02l4.16,-0.01l6.25,0.02l2.32,0.02l0,0.48l-0.24,0.01l-4.16,0.02l-4.17,0.01Z" style="fill:url(#_Linear7);fill-rule:nonzero;"/><path d="M9.12,5.759l11.81,0l-11.81,0Z" style="fill:url(#_Linear8);fill-rule:nonzero;"/><path d="M15.12,6.049l-6.2,0l0,-0.49l12.33,0l0,0.42l-3.22,0l-2.91,0.07Z" style="fill:url(#_Linear9);fill-rule:nonzero;"/><path d="M6.02,12.759l2.26,0l-2.26,0Z" style="fill:url(#_Linear10);fill-rule:nonzero;"/><path d="M15.06,13.049l-6.78,-0.01l-2.5,-0.02l-0.01,-0.49l0.25,-0.01l4.52,-0.02l4.52,-0.01l6.79,0.02l2.36,0.02l0.15,0.14l-0.01,0.34l-0.24,0l-4.52,0.03l-4.53,0.01Z" style="fill:url(#_Linear11);fill-rule:nonzero;"/><path d="M6.74,16.259l16.65,0l-16.65,0Z" style="fill:url(#_Linear12);fill-rule:nonzero;"/><path d="M15.06,16.549l-6.24,-0.02l-2.18,-0.01l-0.14,-0.15l-0.01,-0.11l0.01,-0.23l0.24,-0.01l4.16,-0.03l4.16,0l6.25,0.02l2.32,0.02l0,0.48l-0.24,0l-4.16,0.03l-4.17,0.01Z" style="fill:url(#_Linear13);fill-rule:nonzero;"/><path d="M21.27,19.799l-11.82,0l11.82,-0.06l0,0.06Z" style="fill:url(#_Linear14);fill-rule:nonzero;"/><path d="M21.27,20.039l-11.82,0c-0.148,0 -0.27,-0.122 -0.27,-0.27c0,-0.148 0.122,-0.27 0.27,-0.27l11.82,0c0.148,0 0.27,0.122 0.27,0.27c0,0.148 -0.122,0.27 -0.27,0.27Z" style="fill:url(#_Linear15);fill-rule:nonzero;"/></g><defs><linearGradient id="_Linear1" x1="0" y1="0" x2="1" y2="0" gradientUnits="userSpaceOnUse" gradientTransform="matrix(457.061,0,0,457.061,7749.21,4094.56)"><stop offset="0" style="stop-color:#f9e4cd;stop-opacity:1"/><stop offset="1" style="stop-color:#fff;stop-opacity:1"/></linearGradient><linearGradient id="_Linear2" x1="0" y1="0" x2="1" y2="0" gradientUnits="userSpaceOnUse" gradientTransform="matrix(26.116,0,0,26.116,1905.61,3720.89)"><stop offset="0" style="stop-color:#f9e4cd;stop-opacity:1"/><stop offset="1" style="stop-color:#fff;stop-opacity:1"/></linearGradient><linearGradient id="_Linear3" x1="0" y1="0" x2="1" y2="0" gradientUnits="userSpaceOnUse" gradientTransform="matrix(31.0831,0,0,31.0831,2070.64,3819.01)"><stop offset="0" style="stop-color:#f9e4cd;stop-opacity:1"/><stop offset="1" style="stop-color:#fff;stop-opacity:1"/></linearGradient><linearGradient id="_Linear4" x1="0" y1="0" x2="1" y2="0" gradientUnits="userSpaceOnUse" gradientTransform="matrix(192.654,0,0,192.654,5088.42,3736.66)"><stop offset="0" style="stop-color:#f9e4cd;stop-opacity:1"/><stop offset="1" style="stop-color:#fff;stop-opacity:1"/></linearGradient><linearGradient id="_Linear5" x1="0" y1="0" x2="1" y2="0" gradientUnits="userSpaceOnUse" gradientTransform="matrix(204.919,0,0,204.919,5231.11,3818.66)"><stop offset="0" style="stop-color:#f9e4cd;stop-opacity:1"/><stop offset="1" style="stop-color:#fff;stop-opacity:1"/></linearGradient><linearGradient id="_Linear6" x1="0" y1="0" x2="1" y2="0" gradientUnits="userSpaceOnUse" gradientTransform="matrix(2e-06,0,0,2e-06,-6064.18,9.25921)"><stop offset="0" style="stop-color:#f9e4cd;stop-opacity:1"/><stop offset="1" style="stop-color:#fff;stop-opacity:1"/></linearGradient><linearGradient id="_Linear7" x1="0" y1="0" x2="1" y2="0" gradientUnits="userSpaceOnUse" gradientTransform="matrix(293.78,0,0,293.78,6251.79,121.712)"><stop offset="0" style="stop-color:#f9e4cd;stop-opacity:1"/><stop offset="1" style="stop-color:#fff;stop-opacity:1"/></linearGradient><linearGradient id="_Linear8" x1="0" y1="0" x2="1" y2="0" gradientUnits="userSpaceOnUse" gradientTransform="matrix(2e-06,0,0,2e-06,-4325.15,5.75921)"><stop offset="0" style="stop-color:#f9e4cd;stop-opacity:1"/><stop offset="1" style="stop-color:#fff;stop-opacity:1"/></linearGradient><linearGradient id="_Linear9" x1="0" y1="0" x2="1" y2="0" gradientUnits="userSpaceOnUse" gradientTransform="matrix(151.782,0,0,151.782,4531.44,102.476)"><stop offset="0" style="stop-color:#f9e4cd;stop-opacity:1"/><stop offset="1" style="stop-color:#fff;stop-opacity:1"/></linearGradient><linearGradient id="_Linear10" x1="0" y1="0" x2="1" y2="0" gradientUnits="userSpaceOnUse" gradientTransform="matrix(2e-06,0,0,2e-06,-816.394,12.7592)"><stop offset="0" style="stop-color:#f9e4cd;stop-opacity:1"/><stop offset="1" style="stop-color:#fff;stop-opacity:1"/></linearGradient><linearGradient id="_Linear11" x1="0" y1="0" x2="1" y2="0" gradientUnits="userSpaceOnUse" gradientTransform="matrix(345.588,0,0,345.588,6766.02,127.172)"><stop offset="0" style="stop-color:#f9e4cd;stop-opacity:1"/><stop offset="1" style="stop-color:#fff;stop-opacity:1"/></linearGradient><linearGradient id="_Linear12" x1="0" y1="0" x2="1" y2="0" gradientUnits="userSpaceOnUse" gradientTransform="matrix(2e-06,0,0,2e-06,-6064.18,16.2592)"><stop offset="0" style="stop-color:#f9e4cd;stop-opacity:1"/><stop offset="1" style="stop-color:#fff;stop-opacity:1"/></linearGradient><linearGradient id="_Linear13" x1="0" y1="0" x2="1" y2="0" gradientUnits="userSpaceOnUse" gradientTransform="matrix(293.78,0,0,293.78,6251.79,132.632)"><stop offset="0" style="stop-color:#f9e4cd;stop-opacity:1"/><stop offset="1" style="stop-color:#fff;stop-opacity:1"/></linearGradient><linearGradient id="_Linear14" x1="0" y1="0" x2="1" y2="0" gradientUnits="userSpaceOnUse" gradientTransform="matrix(140.422,0,0,140.422,4350.94,32.4466)"><stop offset="0" style="stop-color:#f9e4cd;stop-opacity:1"/><stop offset="1" style="stop-color:#fff;stop-opacity:1"/></linearGradient><linearGradient id="_Linear15" x1="0" y1="0" x2="1" y2="0" gradientUnits="userSpaceOnUse" gradientTransform="matrix(152.77,0,0,152.77,4546.04,133.866)"><stop offset="0" style="stop-color:#f9e4cd;stop-opacity:1"/><stop offset="1" style="stop-color:#fff;stop-opacity:1"/></linearGradient></defs></svg>