<svg xmlns="http://www.w3.org/2000/svg" viewBox="0 0 738.33 82.29"><defs><style>.cls-1{isolation:isolate;}.cls-2{fill:#185c9b;}.cls-16,.cls-17,.cls-18,.cls-19,.cls-2,.cls-20,.cls-21,.cls-22,.cls-23,.cls-24,.cls-25,.cls-26,.cls-27,.cls-28,.cls-29,.cls-30,.cls-31,.cls-32,.cls-33,.cls-34,.cls-35,.cls-36,.cls-37,.cls-38,.cls-39,.cls-40,.cls-41,.cls-42,.cls-43,.cls-44,.cls-45,.cls-46,.cls-47,.cls-48,.cls-49,.cls-50,.cls-51,.cls-52,.cls-53,.cls-54,.cls-55,.cls-56,.cls-57,.cls-58,.cls-59,.cls-60,.cls-61,.cls-62,.cls-63,.cls-64,.cls-65,.cls-66,.cls-67,.cls-68,.cls-69,.cls-70,.cls-71,.cls-72,.cls-73,.cls-74,.cls-75,.cls-76,.cls-77,.cls-78,.cls-79,.cls-80,.cls-81,.cls-82,.cls-83,.cls-84,.cls-85,.cls-86,.cls-87,.cls-88,.cls-89{fill-rule:evenodd;}.cls-3{fill:#5caa60;}.cls-4{fill:#343539;}.cls-5{fill:#00b1eb;}.cls-6{fill:#010101;}.cls-7{fill:#63b257;}.cls-8{fill:#141516;}.cls-9{mix-blend-mode:darken;}.cls-10{fill:#2f673c;}.cls-11{fill:#2b3776;}.cls-12{fill:#4e83c1;}.cls-13{fill:#fff;}.cls-14{fill:#3166ad;mix-blend-mode:multiply;}.cls-15{fill:#5594cd;}.cls-16{fill:#f4e185;}.cls-17{fill:#192048;}.cls-18{fill:#4a7dbc;}.cls-19{fill:#5390ca;}.cls-20{fill:#4373b5;}.cls-21{fill:#29478c;}.cls-22{fill:#d83f52;}.cls-23{fill:#29386c;}.cls-24{fill:#232d5c;}.cls-25{fill:#3d66ac;}.cls-26{fill:#2b54a1;}.cls-27{fill:#355da6;}.cls-28{fill:#c03354;}.cls-29{fill:#3b63aa;}.cls-30{fill:#7faf53;}.cls-31{fill:#17311c;}.cls-32{fill:#377466;}.cls-33{fill:#3d7d46;}.cls-34{fill:#122a18;}.cls-35{fill:#dc5f35;}.cls-36{fill:#da4d3d;}.cls-37{fill:#eca647;}.cls-38{fill:#0e2315;}.cls-39{fill:#691830;}.cls-40{fill:#26502d;}.cls-41{fill:#c8365a;}.cls-42{fill:#041810;}.cls-43{fill:#38091e;}.cls-44{fill:#1a321c;}.cls-45{fill:#263061;}.cls-46{fill:#852d4b;}.cls-47{fill:#3b7743;}.cls-48{fill:#eaa345;}.cls-49{fill:#59182c;}.cls-50{fill:#bcd259;}.cls-51{fill:#7bb956;}.cls-52{fill:#4c73b5;}.cls-53{fill:#eed853;}.cls-54{fill:#822522;}.cls-55{fill:#52a555;}.cls-56{fill:#edb549;}.cls-57{fill:#458d4d;}.cls-58{fill:#d8df83;}.cls-59{fill:#bfd257;}.cls-60{fill:#dfb77a;}.cls-61{fill:#c6d869;}.cls-62{fill:#7dba56;}.cls-63{fill:#e3bc6e;}.cls-64{fill:#446aaf;}.cls-65{fill:#c64332;}.cls-66{fill:#e0743a;}.cls-67{fill:#a92e52;}.cls-68{fill:#e58a40;}.cls-69{fill:#97ac4d;}.cls-70{fill:#accc56;}.cls-71{fill:#387542;}.cls-72{fill:#56af57;}.cls-73{fill:#982950;}.cls-74{fill:#af322e;}.cls-75{fill:#28532e;}.cls-76{fill:#d1863c;}.cls-77{fill:#bab549;}.cls-78{fill:#cf4933;}.cls-79{fill:#cf6437;}.cls-80{fill:#ebbe4b;}.cls-81{fill:#6cb457;}.cls-82{fill:#ba6436;}.cls-83{fill:#992c29;}.cls-84{fill:#c86536;}.cls-85{fill:#b1322f;}.cls-86{fill:#ead552;}.cls-87{fill:#5b8546;}.cls-88{fill:#d3dd5a;}.cls-89{fill:#df6c37;}.cls-90{fill:#902749;}.cls-91{fill:#3d64ab;}.cls-92{fill:#b8c455;}.cls-93{fill:#3e82be;}</style></defs><g class="cls-1"><g id="Capa_1" data-name="Capa 1"><path class="cls-2" d="M670.88,31.45V52.29c0,.56-.06.84.13,1.13a.49.49,0,0,0,.44.28.58.58,0,0,0,.53-.31c.19-.29.16-.57.16-1.17V31.45h1V52.69c0,1.45-.53,2.17-1.66,2.17a1.57,1.57,0,0,1-1.2-.5,2.39,2.39,0,0,1-.47-1.63V31.45Z"/><polygon class="cls-2" points="679.98 31.45 681.58 44.88 681.58 31.45 682.3 31.45 682.3 54.73 681.27 54.73 679.7 40.42 679.7 54.73 678.85 54.73 678.85 31.45 679.98 31.45 679.98 31.45"/><polygon class="cls-2" points="690.78 32.45 689.24 32.45 689.24 41.93 690.78 41.93 690.78 42.75 689.24 42.75 689.24 53.76 691 53.76 691 54.73 687.86 54.73 687.86 31.45 690.78 31.45 690.78 32.45 690.78 32.45"/><polygon class="cls-2" points="666.42 28.15 721.25 28.15 721.25 30.1 666.42 30.1 666.42 28.15 666.42 28.15"/><polygon class="cls-2" points="666.42 56.46 721.25 56.46 721.25 58.41 666.42 58.41 666.42 56.46 666.42 56.46"/><polygon class="cls-2" points="662.91 60.38 724.27 60.38 724.27 62.33 662.91 62.33 662.91 60.38 662.91 60.38"/><polygon class="cls-2" points="659.8 64.18 727.34 64.18 727.34 66.16 659.8 66.16 659.8 64.18 659.8 64.18"/><polygon class="cls-2" points="666.3 25.95 666.3 23.88 693.57 15.91 721.13 23.76 721.13 25.83 693.32 18.27 666.3 25.95 666.3 25.95"/><polygon class="cls-2" points="672.54 25.95 693.85 19.84 714.88 25.95 709.2 25.95 693.79 21.78 678.41 25.83 672.54 25.95 672.54 25.95"/><path class="cls-2" d="M698.59,38.16h1.2V33.64a4.27,4.27,0,0,0-.35-1.69,1.79,1.79,0,0,0-1.51-.66,1.33,1.33,0,0,0-1.25.6,2.35,2.35,0,0,0-.44,1.57c0,.62,0,3.42.12,4.36s1,4.61,1.48,6.4a23.17,23.17,0,0,1,.72,3.23c0,.54.1,2.33,0,3.2s0,2.11,0,2.11.07,1-.5,1-.53-1-.53-1V47.23h-1.2v5.5s-.31,2,1.57,2A1.8,1.8,0,0,0,699.85,53v-5a17.48,17.48,0,0,0-.41-2.82c-.31-1.13-1.32-4.74-1.54-5.74a19.82,19.82,0,0,1-.34-4c0-1.41,0-2.29,0-2.29s0-.66.5-.66.47.69.47.69l0,5.11Z"/><path class="cls-2" d="M707.73,38.23h1V32.8a1.56,1.56,0,0,0-1.63-1.7,1.64,1.64,0,0,0-1.69,1.73v20.4a1.62,1.62,0,0,0,1.69,1.69,1.53,1.53,0,0,0,1.63-1.66V47.14h-1v6.09c0,.31,0,.69-.6.69s-.6-.57-.6-.79V32.89c0-.22-.06-.78.6-.78s.6.4.6.72v5.4Z"/><path class="cls-2" d="M716.39,31.1a1.75,1.75,0,0,0-1.82,1.73v20.4a1.73,1.73,0,0,0,1.82,1.69,1.64,1.64,0,0,0,1.76-1.66V32.8a1.67,1.67,0,0,0-1.76-1.7Zm.72,22.13c0,.31-.09.69-.72.69a.7.7,0,0,1-.72-.79V32.89a.7.7,0,0,1,.72-.78.63.63,0,0,1,.72.72v20.4Z"/><path class="cls-3" d="M39.14,49a12.29,12.29,0,1,1-2.45-8.11L39,38q-.42-.51-.9-1a15.92,15.92,0,1,0,4.33,8.07Z"/><path class="cls-4" d="M28.43,55.36h0a6.57,6.57,0,0,1-4.69-2.19l-4.31-4.58a1.72,1.72,0,0,1,.06-2.41,1.69,1.69,0,0,1,2.38,0l4.36,4.57a3.39,3.39,0,0,0,2.24,1,4.65,4.65,0,0,0,3.23-1.85l12.41-15A1.68,1.68,0,1,1,46.69,37L34.2,52.26c-1.79,2-3.74,3.1-5.77,3.1"/><path class="cls-4" d="M59.18,45.59c-3,0-5.07-2.1-5.07-5.79,0-3.92,2.32-5.93,5.15-5.93a5.84,5.84,0,0,1,3.35,1l-.38,2.53a4.26,4.26,0,0,0-2.81-1.06c-1.53,0-2.63,1.19-2.63,3.43S58,43.19,59.6,43.19a4.08,4.08,0,0,0,2.77-1.07l.35,2.38a5.66,5.66,0,0,1-3.54,1.09"/><path class="cls-4" d="M68.77,45.62c-2.9,0-5-2.2-5-5.86s2.13-5.89,5-5.89,5,2.22,5,5.89-2.15,5.86-5.07,5.86m0-9.43c-1.58,0-2.42,1.47-2.42,3.57s.87,3.57,2.42,3.57,2.48-1.47,2.48-3.57-.89-3.57-2.48-3.57"/><path class="cls-4" d="M88.3,45.38V38c0-1-.34-1.66-1.31-1.66a3.5,3.5,0,0,0-2.37,1.4v7.63H82V38c0-1-.35-1.66-1.33-1.66a3.5,3.5,0,0,0-2.37,1.4v7.63H75.61V34.11h2.26l.24,1.59a5,5,0,0,1,3.52-1.83,2.64,2.64,0,0,1,2.75,1.83,5,5,0,0,1,3.56-1.83c2,0,3,1.29,3,3.39v8.12Z"/><path class="cls-4" d="M106.16,45.38V38c0-1-.33-1.66-1.3-1.66a3.48,3.48,0,0,0-2.37,1.4v7.63H99.83V38c0-1-.35-1.66-1.32-1.66a3.5,3.5,0,0,0-2.38,1.4v7.63H93.48V34.11h2.25L96,35.7a5,5,0,0,1,3.52-1.83,2.65,2.65,0,0,1,2.75,1.83,5,5,0,0,1,3.56-1.83c2,0,3,1.29,3,3.39v8.12Z"/><path class="cls-4" d="M115.8,45.62c-2.9,0-5-2.2-5-5.86s2.12-5.89,5-5.89,5.05,2.22,5.05,5.89-2.15,5.86-5.07,5.86m0-9.43c-1.57,0-2.41,1.47-2.41,3.57s.86,3.57,2.41,3.57,2.48-1.47,2.48-3.57-.89-3.57-2.48-3.57"/><path class="cls-4" d="M129,45.38V38c0-1-.4-1.66-1.37-1.66a3.51,3.51,0,0,0-2.43,1.42v7.61h-2.66V34.11h2.25l.25,1.59a5.06,5.06,0,0,1,3.56-1.83c2,0,3.06,1.29,3.06,3.39v8.12Z"/><path class="cls-4" d="M58.27,62.5a8.93,8.93,0,0,1-4.16-1.09l.35-2.34a7.17,7.17,0,0,0,3.9,1.33c1.15,0,1.77-.44,1.77-1.17s-.46-1.12-2.17-1.56c-2.59-.7-3.68-1.49-3.68-3.55s1.46-3.31,3.94-3.31A8.65,8.65,0,0,1,62,51.6l-.35,2.34a6.94,6.94,0,0,0-3.39-1c-1,0-1.48.39-1.48,1s.4.93,2,1.37c2.77.75,3.86,1.54,3.86,3.67s-1.51,3.52-4.32,3.52"/><path class="cls-4" d="M73.24,57.2H66.38c.12,2.2,1.23,3.15,2.87,3.15A6,6,0,0,0,72.93,59l.31,2.2A7.09,7.09,0,0,1,69,62.53c-3,0-5.22-1.81-5.22-5.86,0-3.67,2.08-5.89,4.87-5.89,3.21,0,4.65,2.55,4.65,5.75,0,.23,0,.51,0,.67m-4.7-4.48c-1.06,0-1.92.89-2.13,2.73h4.26c-.18-1.75-.84-2.73-2.13-2.73"/><path class="cls-4" d="M81.73,62.29V54.92c0-1-.4-1.67-1.37-1.67a3.56,3.56,0,0,0-2.44,1.43v7.61H75.26V51h2.27l.24,1.59a5.06,5.06,0,0,1,3.56-1.83c2,0,3.06,1.29,3.06,3.39v8.12Z"/><path class="cls-4" d="M90.23,62.5a9,9,0,0,1-4.16-1.09l.35-2.34a7.2,7.2,0,0,0,3.9,1.33c1.15,0,1.78-.44,1.78-1.17s-.47-1.12-2.17-1.56c-2.6-.7-3.68-1.49-3.68-3.55s1.46-3.31,3.94-3.31a8.68,8.68,0,0,1,3.74.79l-.35,2.34a6.91,6.91,0,0,0-3.39-1c-1,0-1.48.39-1.48,1s.4.93,2,1.37c2.77.75,3.85,1.54,3.85,3.67s-1.5,3.52-4.32,3.52"/><path class="cls-4" d="M105.2,57.2H98.34c.14,2.2,1.24,3.15,2.88,3.15a6,6,0,0,0,3.67-1.4l.31,2.2a7,7,0,0,1-4.27,1.38c-3,0-5.23-1.81-5.23-5.86,0-3.67,2.09-5.89,4.88-5.89,3.2,0,4.65,2.55,4.65,5.75,0,.23,0,.51,0,.67m-4.69-4.48c-1.06,0-1.92.89-2.13,2.73h4.26c-.18-1.75-.85-2.73-2.13-2.73"/><path d="M293.67,20.11a.36.36,0,0,1,0,.11q0,15.48,0,31a.31.31,0,0,1,0,.08.65.65,0,0,1-.14,0L292,50.74c-.44-.14-.88-.26-1.33-.39s-1.05-.32-1.58-.46-1.21-.32-1.82-.46l-2.4-.54c-.42-.09-.85-.15-1.28-.23l-.81-.13-.57-.06-.65-.09h-.05l-.72-.05c-.49,0-1,0-1.46,0-.25,0-.49,0-.74.08l-.15,0-.65.08-.71.11-1.23.22-1.69.35c-.58.13-1.15.28-1.73.42l-.8.2a.26.26,0,0,1-.21,0l0-.14v-32a.82.82,0,0,1,0-.35c.06-.08.16-.09.24-.12.51-.18,1-.31,1.54-.44l1.81-.39c.35-.07.7-.11,1-.16l.82-.11,1-.1c.24,0,.48,0,.72-.05.84-.08,1.67,0,2.51,0a2,2,0,0,1,.6,0h.07a7.77,7.77,0,0,1,1,.1c.53.07,1,.18,1.58.29s.9.23,1.35.36,1.1.34,1.65.54,1.28.47,1.92.73,1,.43,1.54.66l1.34.62,1.18.57c.14.07.27.16.41.24Z"/><path d="M319,17.31V49.76a.17.17,0,0,1-.19.05c-.54-.14-1.07-.28-1.61-.4-.74-.18-1.49-.36-2.24-.5-.48-.08-.95-.19-1.43-.28l-.76-.11-1-.14h-.18l-.29,0h-1.61l-.25,0h-.15l-.77.06-1,.14c-.5.06-1,.16-1.5.25s-1.1.22-1.65.34c-.8.16-1.59.37-2.38.57l-1.67.46c-.79.23-1.59.46-2.37.72l-1,.34-.15,0a.26.26,0,0,1,0-.1,1.62,1.62,0,0,1,0-.22V20.16a.31.31,0,0,1,.18-.18l1.58-.77a.8.8,0,0,1,.16-.08c.52-.26,1.06-.49,1.59-.73s1.37-.58,2.07-.84,1.21-.43,1.82-.64,1.36-.41,2.05-.57c.4-.09.8-.16,1.21-.23s.62-.1.94-.14h.2a2,2,0,0,0,.42,0,.66.66,0,0,1,.2,0h2.33a2.4,2.4,0,0,1,.28,0h.1c.32,0,.65.05,1,.06s.42,0,.62.06l.65.09.76.11,1.26.24c.6.12,1.21.25,1.8.43l.91.27A1.65,1.65,0,0,1,319,17.31Z"/><path d="M321.23,54.13a1,1,0,0,0,0-.11V23a3,3,0,0,1,0-.52,1.13,1.13,0,0,1,.62-.83,1.39,1.39,0,0,1,1.24,0,1.12,1.12,0,0,1,.67.82,2.81,2.81,0,0,1,0,.5V55.77a4.73,4.73,0,0,1,0,.65,1.39,1.39,0,0,1-1.14,1.18,1.3,1.3,0,0,1-.77-.17l-.86-.47c-.18-.1-.36-.21-.55-.3l-.5-.23c-.58-.29-1.17-.54-1.77-.77l-1.32-.48c-.73-.24-1.48-.43-2.22-.6-.49-.11-1-.18-1.48-.27a4.86,4.86,0,0,0-.55-.07l-.71-.09h0c-.31,0-.62,0-.92,0h-2a1.53,1.53,0,0,0-.3,0h-.07a6,6,0,0,0-.85.06c-.23,0-.46,0-.69.08l-.69.11c-.32,0-.63.09-.94.16l-1.37.31c-.72.19-1.43.42-2.13.66s-1.27.45-1.9.72l-1.53.69a1.54,1.54,0,0,1-.7.17,1.21,1.21,0,0,1-1.23-1,1.24,1.24,0,0,1,.37-1.22,1.46,1.46,0,0,1,.33-.22l.87-.39,1-.45c.51-.21,1-.42,1.56-.61s1.09-.36,1.64-.54,1.09-.32,1.65-.45,1-.23,1.49-.3l1.11-.19.62-.06.77-.09h.18a3,3,0,0,0,.6,0h2.31l.27,0,.12,0a7.46,7.46,0,0,1,.95.06c.22,0,.43,0,.65.08l.47.06c.61.08,1.21.2,1.82.33a23.8,23.8,0,0,1,2.74.79c.48.17,1,.35,1.43.55s1,.43,1.49.65Z"/><path d="M269,54.17l.56-.24a21.56,21.56,0,0,1,2.17-.9l1.21-.42a17.75,17.75,0,0,1,1.87-.49l1-.21.76-.13c.2,0,.39-.07.59-.09l.6-.07c.32,0,.65,0,1-.09h1l.35,0a.45.45,0,0,1,.2,0,1.5,1.5,0,0,0,.37,0h.68a1.83,1.83,0,0,1,.47,0h0a8.48,8.48,0,0,1,.87.06,4.78,4.78,0,0,1,.53.06l.49.08c.38,0,.76.12,1.13.19.78.13,1.54.33,2.3.52.59.16,1.18.35,1.77.55s1.32.47,2,.73c.44.18.88.38,1.31.57l.84.39a1,1,0,0,1,.54.63,1.54,1.54,0,0,1,.09.37,1.23,1.23,0,0,1-.61,1.2,1.18,1.18,0,0,1-.92.15,3,3,0,0,1-.5-.17l-1.25-.56c-.6-.27-1.21-.5-1.82-.72-.45-.17-.91-.3-1.36-.44-.61-.2-1.22-.35-1.84-.5s-1-.22-1.5-.29l-.86-.14c-.22,0-.43,0-.65-.06s-.65,0-1-.09h-2.28l-.28,0-.09,0a8.48,8.48,0,0,0-.88.06,3.07,3.07,0,0,0-.52.06c-.3,0-.59.08-.89.14l-1,.2a22.43,22.43,0,0,0-2.58.74l-1.45.56c-.38.16-.76.34-1.14.52a6.36,6.36,0,0,0-.59.28c-.38.19-.75.4-1.13.6a2.77,2.77,0,0,1-.61.27,1,1,0,0,1-.71-.07,1.38,1.38,0,0,1-.73-.79,1.47,1.47,0,0,1-.11-.59V22.86a2.22,2.22,0,0,1,0-.45,1.2,1.2,0,0,1,1.14-.92,1.38,1.38,0,0,1,.84.19,1.09,1.09,0,0,1,.55.9V54.17Z"/><path d="M295.2,59.83a9.69,9.69,0,0,1,1.32,0s0,.08,0,.13v5.93a.69.69,0,0,1,0,.28,2.16,2.16,0,0,1-.57,0h-.58a.83.83,0,0,1,0-.15V61.93c0,.07-.07.1-.08.13l-.82,1.58c-.28.52-.55,1-.83,1.55a.78.78,0,0,1-.14.19,1,1,0,0,1-.64.11.47.47,0,0,1-.34-.24l-.18-.3-.75-1.45c-.26-.49-.53-1-.79-1.48-.06,0,0,0,0,.08a.33.33,0,0,0,0,.1v3.69a.69.69,0,0,1,0,.28l-.09,0a7.44,7.44,0,0,1-1.11,0l0-.14V60.16c0-.1,0-.2,0-.31l.09,0h1.22c.06.06.12.11.17.17a1.59,1.59,0,0,1,.13.22l.65,1.24c.28.53.55,1.06.82,1.59l.3.55c.05.1.09.21.14.31s.07,0,.09-.07l.34-.68.88-1.71.55-1c.08-.14.15-.28.23-.41S295.17,59.88,295.2,59.83Z"/><path d="M285.1,65.41a1,1,0,0,1-.6.08.46.46,0,0,1-.34-.23A1.92,1.92,0,0,1,284,65l-.62-1.17-.9-1.71-.07-.08v3.56c0,.2,0,.4,0,.61a.38.38,0,0,1-.13,0h-1l-.11,0a.89.89,0,0,1,0-.14,1.09,1.09,0,0,1,0-.18V60.14a.84.84,0,0,1,0-.31,2.85,2.85,0,0,1,.65,0h.6a.46.46,0,0,1,.23.2l.14.24.54,1L284.2,63c.09.18.19.34.27.51s.1.22.15.32a.52.52,0,0,0,.07.12,1.15,1.15,0,0,0,.08-.14l.57-1.13.65-1.24c.17-.34.34-.67.52-1l.24-.44c0-.06.09-.1.12-.14a9,9,0,0,1,1.2,0l.13,0a.77.77,0,0,1,0,.15v5.88a1,1,0,0,1,0,.3l-.09,0a5.31,5.31,0,0,1-1.09,0c0-.06,0-.12,0-.19V62c-.07,0-.07.06-.09.1l-.82,1.58-.81,1.53A.67.67,0,0,1,285.1,65.41Z"/><path d="M309.24,63.91c0-.07,0-.13,0-.18V60.11a.82.82,0,0,1,0-.27s.05,0,.08,0a7.58,7.58,0,0,1,1.08,0,.58.58,0,0,1,0,.14.91.91,0,0,1,0,.17v5.73a.79.79,0,0,1,0,.3.53.53,0,0,1-.12,0h-.63a.45.45,0,0,1-.35-.15l-.19-.21-.83-1.06L307.7,64l-.68-.87-.63-.8c-.05-.06-.09-.13-.16-.16s0,.11,0,.16v3.59a1.93,1.93,0,0,1,0,.24s-.05,0-.08,0a6.93,6.93,0,0,1-1.13,0l0-.14a.48.48,0,0,1,0-.12v-5.8a.54.54,0,0,1,0-.28l.15,0h.62a.47.47,0,0,1,.41.21l.39.49c.23.29.46.59.7.88s.41.54.63.81.44.56.67.85l.63.81Z"/><path d="M280.24,63v.25a2.76,2.76,0,0,1-.26,1.14,2,2,0,0,1-.18.36,2.85,2.85,0,0,1-1,1.05,3.1,3.1,0,0,1-1.16.44,3,3,0,0,1-.85.06,3.43,3.43,0,0,1-1.74-.57,3,3,0,0,1-.76-.75,3.36,3.36,0,0,1-.56-1.4,1.09,1.09,0,0,1,0-.18c0-.06,0-.13,0-.2a.58.58,0,0,1,0-.37s0-.06,0-.1a3.09,3.09,0,0,1,.3-1.23,3.25,3.25,0,0,1,.89-1.1,3.11,3.11,0,0,1,1.36-.61,4,4,0,0,1,1.19,0,3.75,3.75,0,0,1,1.19.37,2.89,2.89,0,0,1,1.19,1.16,3.59,3.59,0,0,1,.41,1.15,5.44,5.44,0,0,1,0,.57Zm-1.42,0a4.21,4.21,0,0,0,0-.62,1.85,1.85,0,0,0-.57-1.07,1.49,1.49,0,0,0-.65-.36,2.25,2.25,0,0,0-.86-.06,2.18,2.18,0,0,0-.71.22,1.47,1.47,0,0,0-.59.57,2,2,0,0,0-.29,1.07v.4a1.87,1.87,0,0,0,.17.88,1.59,1.59,0,0,0,1.1,1,2.32,2.32,0,0,0,1.14,0,1.61,1.61,0,0,0,1.15-1A2.17,2.17,0,0,0,278.82,63Z"/><path d="M297.45,63a3.52,3.52,0,0,1,.36-1.63,3,3,0,0,1,.56-.77,2.51,2.51,0,0,1,.48-.38,3.21,3.21,0,0,1,1.23-.49,3.63,3.63,0,0,1,2.1.24,4.54,4.54,0,0,1,.53.3,2.85,2.85,0,0,1,.91,1,3.55,3.55,0,0,1,.35.94,3.45,3.45,0,0,1,0,1.24c0,.16-.05.32-.09.47a3.29,3.29,0,0,1-.44,1,2.63,2.63,0,0,1-.69.72,3,3,0,0,1-1.36.59,3.82,3.82,0,0,1-.83.06,3.44,3.44,0,0,1-1.68-.51,2.69,2.69,0,0,1-.66-.56,3.27,3.27,0,0,1-.43-.62,3,3,0,0,1-.31-.92A2.12,2.12,0,0,1,297.45,63Zm3.26,2.05a2.11,2.11,0,0,0,.62-.06,1.62,1.62,0,0,0,1.08-.93,2.62,2.62,0,0,0,.21-1.07,3,3,0,0,0,0-.52,2,2,0,0,0-.23-.72,1.6,1.6,0,0,0-.49-.58,2,2,0,0,0-1.14-.33,1.91,1.91,0,0,0-.78.16,1.64,1.64,0,0,0-.68.54,2.26,2.26,0,0,0-.39,1.15,2.9,2.9,0,0,0,.1,1.06,1.66,1.66,0,0,0,1.26,1.26A2.74,2.74,0,0,0,300.71,65.09Z"/><path d="M273.41,60.6l-.3.43-.12.16a.36.36,0,0,1-.53.11l-.23-.14a1.72,1.72,0,0,0-.73-.25,1.88,1.88,0,0,0-.67,0,1.48,1.48,0,0,0-.73.36,1.88,1.88,0,0,0-.62,1.25c0,.13,0,.26,0,.4a2.43,2.43,0,0,0,.11.84,1.93,1.93,0,0,0,.46.84,1.53,1.53,0,0,0,.5.34,2.11,2.11,0,0,0,.7.17l.23,0,.14,0a1.41,1.41,0,0,0,.75-.26l.2-.15a.37.37,0,0,1,.36-.08,4.76,4.76,0,0,1,.6.65s-.06.09-.09.12l-.12.13a2.37,2.37,0,0,1-1.18.67,3.72,3.72,0,0,1-1.15.12,3.18,3.18,0,0,1-1.82-.68,3.09,3.09,0,0,1-1-1.87,3.52,3.52,0,0,1-.06-1,3.7,3.7,0,0,1,.4-1.46,3.14,3.14,0,0,1,.45-.63,2.93,2.93,0,0,1,.8-.61,2.86,2.86,0,0,1,1-.31,3.68,3.68,0,0,1,.58,0,3.64,3.64,0,0,1,1,.15,3,3,0,0,1,1.12.65A.2.2,0,0,1,273.41,60.6Z"/><path d="M320.17,60.67h-1.72a.43.43,0,0,1-.25,0c-.07-.06-.05-.15-.06-.23v-.25a2.17,2.17,0,0,0,0-.26l.16,0h4.76s0,0,0,.05a5.17,5.17,0,0,1,0,.68.26.26,0,0,1-.23.07h-1.5a.6.6,0,0,0-.26,0,1.23,1.23,0,0,0,0,.19v5a.55.55,0,0,1,0,.28.46.46,0,0,1-.26,0h-.58a.48.48,0,0,1,0-.15,1.34,1.34,0,0,1,0-.2V61A1,1,0,0,0,320.17,60.67Z"/><path d="M311.9,59.88a3.42,3.42,0,0,1,.85,0l0,.14v5.35c.09.08.18.05.26.05h2.4s0,0,0,.08a2.65,2.65,0,0,1,0,.63.33.33,0,0,1-.25,0h-3.06a.6.6,0,0,1-.26,0,.5.5,0,0,1,0-.13,1.09,1.09,0,0,1,0-.18c0-1.89,0-3.78,0-5.67A.67.67,0,0,1,311.9,59.88Z"/><path d="M316.41,59.89a3,3,0,0,1,.85,0,.61.61,0,0,1,0,.13,1.08,1.08,0,0,1,0,.18v5.67a.7.7,0,0,1,0,.29,2.44,2.44,0,0,1-.86,0,.61.61,0,0,1,0-.13V60.19A.62.62,0,0,1,316.41,59.89Z"/><path class="cls-5" d="M629.24,39.61c-1.79-1-1.82-2.34-1.72-2.84s.44-.29.66-.29a5.19,5.19,0,0,0,3.94-1.9,6,6,0,0,0-.39-8.18c-2.84-2.74-5.87-2.26-7.82.2a3,3,0,0,1-2.22.84c-1.25-.05-.46.94-.46,1.14s-.19.35-.3.32c-.43-.12-.25.51-.25.7a.3.3,0,0,1-.27.29c-.53,0-.38.47-.37.6a.44.44,0,0,1-.2.44,1.16,1.16,0,0,0-.37.83c0,.57.52,1,1.4,1.62a2.09,2.09,0,0,1,1,1.71,5,5,0,0,0,.25,1.63,1.11,1.11,0,0,1-1,1.67,17,17,0,0,0-4.31,1.32,5.2,5.2,0,0,1-2.79.18,12.25,12.25,0,0,1-1.32-1.06,2,2,0,0,1,.43-1.66,2.25,2.25,0,0,0,1.63.47,19.84,19.84,0,0,0,2.71-.39.7.7,0,0,1,.59,0,1.53,1.53,0,0,0,2.25-1.11c.43-1.48-.58-1.07-.71-1s-.31,0-.24-.08c.19-.38-.09-.34-.25-.35-.42,0-1,.4-1.13.55s-.35.15-.41.11c-.55-.27-2.18.13-2.68-.76a31.74,31.74,0,0,0-.65-4.44.6.6,0,0,1,.06-.58c.41-.63,1.55,0,2.17,0a1.13,1.13,0,0,0,1.07-.58c.19-.25.33-.11.44-.18s0-.26,0-.35.11-.05.23-.16,0-.35,0-.45c.19-.27.68,0,.38-.77A1.18,1.18,0,0,1,619,26c.36-.47,1.75-2.42-.7-4.45s-4.7-1.77-6.22-.13-.76,4.07-.6,4.7a1.33,1.33,0,0,1-.83,1.46,12.15,12.15,0,0,0-2.08,1.46,12.83,12.83,0,0,1,8.07-11.67,6.78,6.78,0,0,0,.69.73c-.54.39-1.71,1.44-1.71,1.44a2.32,2.32,0,0,1,.3.06c.11,0,.33.09.33.09s1-.88,1.51-1.23a5.83,5.83,0,0,0,1.23.72c-.24.39-.82,1.5-.82,1.5l.25.16a1.18,1.18,0,0,1,.2.15s.64-1.2.89-1.61a5.94,5.94,0,0,0,1.67.31v2.22c-.32,0-1.13-.05-1.46-.08l-.21,0,.12.17a3.71,3.71,0,0,1,.21.37l0,.05h0l1.26.06v4h.56v-.93c.82,0,1.5-.09,2.32-.16h0l.72-.64-.39,0c-.88.11-1.64.16-2.33.2l-.36,0V22.48a13.41,13.41,0,0,0,3-.43c.27.67.78,2.28.78,2.28l.53-.16s-.51-1.61-.78-2.27a13.24,13.24,0,0,0,2.42-1,13.87,13.87,0,0,1,1.59,2.47c-.4.19-1.12.44-1.12.44a6.92,6.92,0,0,1,1,.2l.33-.14.15.35.73.32-.09-.2L630,23.6a20.91,20.91,0,0,0,2.24-1.29,12.86,12.86,0,0,1-3,17.3M620,16.54a15.19,15.19,0,0,0-2.27,1.25,6.67,6.67,0,0,1-.59-.6,12.63,12.63,0,0,1,2.86-.65m-.77,2.19a5.46,5.46,0,0,1-1-.58,12.81,12.81,0,0,1,2.32-1.22,17.81,17.81,0,0,0-1.29,1.8m1.9-1.69v2.12a5.7,5.7,0,0,1-1.37-.24A17.67,17.67,0,0,1,621.16,17m.56,2.67a6.14,6.14,0,0,0,1.69-.31,18.77,18.77,0,0,1,1.1,2.14,12,12,0,0,1-2.79.39Zm0-2.69a17.75,17.75,0,0,1,1.38,1.9,5.4,5.4,0,0,1-1.38.24Zm2.95,1.13a5.79,5.79,0,0,1-1,.58,20.08,20.08,0,0,0-1.3-1.81,14,14,0,0,1,2.33,1.23m1.05-1a5.67,5.67,0,0,1-.59.61,13.82,13.82,0,0,0-2.26-1.25,13,13,0,0,1,2.85.64m1.59,3.26a13.14,13.14,0,0,1-2.26.94,22.57,22.57,0,0,0-1.12-2.19,6,6,0,0,0,1.22-.72,13.44,13.44,0,0,1,2.16,2m-1-3.06a13.28,13.28,0,0,1,3,1.73,13.14,13.14,0,0,1-1.48,1.05,13.85,13.85,0,0,0-2.21-2.05,6.75,6.75,0,0,0,.68-.73m5.65,4.46a16,16,0,0,1-2.16,1.25,14.41,14.41,0,0,0-1.6-2.51,12.31,12.31,0,0,0,1.56-1.12,13.06,13.06,0,0,1,2.2,2.38m-10.48-5.94a13.44,13.44,0,1,0,13.44,13.44,13.46,13.46,0,0,0-13.44-13.44"/><path class="cls-5" d="M606.78,19.49l-.21.18c-.79.7-2.59,2.54-2.31,4.56l0,.14.09.4.25-.23a8.37,8.37,0,0,0,2.27-4.69l.09-.55Z"/><path class="cls-5" d="M603.12,23l-.09.24a9.67,9.67,0,0,0-.47,2,6.08,6.08,0,0,0,1,4.63l.12.17.14.17.17-.86a16.93,16.93,0,0,0-.61-6.1l-.2-.49Z"/><path class="cls-5" d="M601.79,28.44l0,.25c-.09,1.35,0,4.71,2.69,6.48l.32.21V35a17,17,0,0,0-2.65-6.43l-.31-.38Z"/><path class="cls-5" d="M602.26,34.43l0,.23c.4,1.93,2.23,5.05,5.05,6l.38.13-.14-.38a17.47,17.47,0,0,0-5-5.91l-.39-.25Z"/><path class="cls-5" d="M607.92,22.39l-.22.13c-2.1,1.28-3.08,2.84-3,4.75l0,.44.3-.26a12.55,12.55,0,0,0,3-4.7l.15-.5Z"/><path class="cls-5" d="M606.69,26.58l-.16.15a6.43,6.43,0,0,0-2.13,4.66,5,5,0,0,0,.24,1.12l.12.36.23-.31a13.08,13.08,0,0,0,1.87-5.69l0-.44Z"/><path class="cls-5" d="M606.78,30.56l-.12.17a6.82,6.82,0,0,0-1.3,3.87,4.87,4.87,0,0,0,.87,2.6l.18.27.15-.29a13.68,13.68,0,0,0,.64-4.85,6.5,6.5,0,0,0-.19-1.55l-.11-.4Z"/><path class="cls-5" d="M607.8,34.8l-.06.19a7.7,7.7,0,0,0-.37,2.46,4.86,4.86,0,0,0,2.35,4.13l.25.16,0-.35,0-.27a16.46,16.46,0,0,0-2-6.19l-.24-.31Z"/><path class="cls-5" d="M605.1,40.41m-.27,0,.11.18c1.13,1.9,3,4.34,6.64,3.72l.3-.06-.17-.25c-.67-1-5-3.45-6.56-3.7l-.43-.07Z"/><path class="cls-5" d="M610.15,45.25h0l-.57.16.54.22a11.15,11.15,0,0,0,6.81.65,3.6,3.6,0,0,0,1.46-1c2.92.31,5.65,2.74,7.25,4.72l.08.1.13,0a2,2,0,0,0,.57-.4l.11-.12-.1-.14a14.36,14.36,0,0,0-4.38-3.57c-2.34-1.15-6.48-2-11.9-.57"/><path class="cls-5" d="M610.27,39.18l0,.2c.34,2.15,1.21,5,4.85,4.65h.23l-.06-.23c-.25-1-3.57-3.82-4.74-4.62l-.34-.18Z"/><path class="cls-5" d="M635.94,19.3l.09.55a8.37,8.37,0,0,0,2.27,4.69l.26.23.08-.4,0-.14c.28-2-1.52-3.86-2.31-4.56l-.21-.18Z"/><path class="cls-5" d="M639.72,22.74l-.19.48a16.71,16.71,0,0,0-.62,6.1l.17.86.14-.17.13-.17a6.11,6.11,0,0,0,1-4.63,9.67,9.67,0,0,0-.47-2l-.09-.24Z"/><path class="cls-5" d="M641.13,28.19l-.32.38A17,17,0,0,0,638.17,35l0,.38.32-.21c2.72-1.77,2.78-5.13,2.69-6.49l0-.24Z"/><path class="cls-5" d="M640.72,34.2l-.39.25a17.47,17.47,0,0,0-5,5.91l-.14.38.39-.13c2.82-.9,4.64-4,5-6l0-.23Z"/><path class="cls-5" d="M634.9,22.19l.14.5a12.49,12.49,0,0,0,2.88,4.76l.3.26,0-.44c.11-1.91-.84-3.48-2.92-4.81l-.22-.14Z"/><path class="cls-5" d="M636.09,26.43l0,.44a13.08,13.08,0,0,0,1.87,5.69l.23.32.12-.37a4.09,4.09,0,0,0,.24-1.13,6.43,6.43,0,0,0-2.13-4.65l-.15-.15Z"/><path class="cls-5" d="M636,30.38l-.12.4a6.5,6.5,0,0,0-.19,1.55,13.91,13.91,0,0,0,.64,4.85l.15.29.19-.27a4.77,4.77,0,0,0,.86-2.6,6.74,6.74,0,0,0-1.3-3.87l-.11-.17Z"/><path class="cls-5" d="M635.08,34.62l-.24.31a16.44,16.44,0,0,0-2,6.19l0,.27.05.35.26-.16a4.85,4.85,0,0,0,2.34-4.13,7.43,7.43,0,0,0-.37-2.46l-.06-.19Z"/><path class="cls-5" d="M637.83,40.41m.38-.15-.42.07c-1.54.25-5.9,2.71-6.57,3.7l-.17.25.3.06c3.59.62,5.51-1.82,6.64-3.72l.11-.18Z"/><path class="cls-5" d="M620.88,45.82a14.36,14.36,0,0,0-4.38,3.57l-.1.14.12.12a1.83,1.83,0,0,0,.57.4l.12,0,.08-.1c1.6-2,4.33-4.41,7.25-4.72a3.56,3.56,0,0,0,1.47,1,11.12,11.12,0,0,0,6.8-.65l.54-.22-.56-.16c-5.43-1.47-9.56-.57-11.91.57"/><path class="cls-5" d="M632.7,39l-.35.18c-1.16.8-4.49,3.64-4.74,4.62l-.05.23.23,0c3.63.31,4.5-2.51,4.85-4.66l0-.19Z"/><path class="cls-5" d="M617.83,55.87h1.91V66h-1.91Zm-.18-4.44h2.27v2.08h-2.27Z"/><path class="cls-5" d="M603.37,55.88h1.91V66h-1.87V64.5h0a3.85,3.85,0,0,1-3.47,1.8c-2.12,0-3.33-1.61-3.33-3.65V55.88h1.92v6c0,1.76.4,3,2.24,3A2.41,2.41,0,0,0,603,63.46a7.36,7.36,0,0,0,.39-2.38Z"/><path class="cls-5" d="M609.11,57.37h0a3.5,3.5,0,0,1,3.06-1.8c.71,0,3.83.18,3.83,3.43v7h-1.91V59.63c0-1.68-.71-2.59-2.32-2.59a2.69,2.69,0,0,0-1.86.75c-.28.28-.8.73-.8,2.7V66h-1.92V55.88h1.88Z"/><path class="cls-5" d="M627.76,59.12c-.1-1.26-.7-2.14-2.06-2.14-1.82,0-2.52,1.58-2.52,3.94s.7,4,2.52,4c1.26,0,2-.82,2.14-2.26h1.91a3.83,3.83,0,0,1-4.07,3.64c-3.23,0-4.51-2.28-4.51-5.25s1.48-5.41,4.67-5.41a3.59,3.59,0,0,1,3.82,3.53Z"/><path class="cls-5" d="M637.69,60c0-1.68-.72-3-2.56-3-1.59,0-2.52,1.34-2.52,3Zm-5.08,1.32c-.14,1.77.58,3.59,2.52,3.59a2.11,2.11,0,0,0,2.44-2h2c-.31,2.28-2.07,3.42-4.47,3.42-3.23,0-4.51-2.28-4.51-5.25s1.49-5.41,4.67-5.41c3,.07,4.42,2,4.42,4.75v.94Z"/><path class="cls-5" d="M641.85,66V57.22h-1.73V55.89h1.73V53.73c.06-2.2,1.72-2.78,3.15-2.78a8.12,8.12,0,0,1,1.36.2v1.58c-.32,0-.64-.06-1-.06-1.07,0-1.7.28-1.64,1.38v1.84h2.33v1.33h-2.33V66Z"/><path class="cls-6" d="M370.09,46.25l-1.43.42-.12-.35a2.43,2.43,0,0,1-1.18.29,2.22,2.22,0,0,1-2-.93,4.42,4.42,0,0,1,0-4.34,2.24,2.24,0,0,1,2-.92,1.53,1.53,0,0,1,.82.24V38.09h1.63v7.27Zm-1.91-3.48a.7.7,0,0,0-.23-.55.83.83,0,0,0-.58-.21.77.77,0,0,0-.78.51,2.94,2.94,0,0,0-.12,1,2.88,2.88,0,0,0,.12,1,.77.77,0,0,0,.78.51.83.83,0,0,0,.58-.21.72.72,0,0,0,.23-.55Z"/><path class="cls-6" d="M372.91,38.68a.93.93,0,0,1-1.86,0,.93.93,0,1,1,1.86,0Zm-.14,7.81h-1.6v-6h1.6Z"/><path class="cls-6" d="M379,46.51a2.09,2.09,0,0,1-.88,1.75,3,3,0,0,1-1.9.61,3.23,3.23,0,0,1-1.71-.41,1.6,1.6,0,0,1-.82-1.44,2.57,2.57,0,0,1,.11-.6l1.43.43a1.09,1.09,0,0,1,0,.13c0,.15.13.26.4.34a2.43,2.43,0,0,0,.61.07,1.64,1.64,0,0,0,.78-.19.71.71,0,0,0,.46-.61c0-.19-.11-.28-.32-.28a5,5,0,0,0-.71.08,4,4,0,0,1-.69.09,2.14,2.14,0,0,1-1.14-.28,1,1,0,0,1-.57-1,1.71,1.71,0,0,1,.4-1,2.24,2.24,0,0,1-.51-1.53,2.16,2.16,0,0,1,.62-1.64,2.38,2.38,0,0,1,1.69-.58,2.58,2.58,0,0,1,1.34.31,1.19,1.19,0,0,0,0-.46h1.35a1.72,1.72,0,0,1-.55,1.5,2.56,2.56,0,0,1,.12.87,2,2,0,0,1-.65,1.6,2.51,2.51,0,0,1-1.7.57,1.54,1.54,0,0,1-.63-.12.53.53,0,0,0-.22.4l0,.09a.35.35,0,0,0,.21.06,4.49,4.49,0,0,0,.92-.13,4.16,4.16,0,0,1,.93-.14,1.56,1.56,0,0,1,1.12.42A1.45,1.45,0,0,1,379,46.51Zm-2-3.84c0-.47-.25-.71-.76-.71s-.75.24-.75.71a.65.65,0,0,0,.75.73C376.71,43.4,377,43.16,377,42.67Z"/><path class="cls-6" d="M381.66,38.68a1,1,0,0,1-.93.93.94.94,0,0,1-.93-.93.92.92,0,0,1,.93-.93.94.94,0,0,1,.93.93Zm-.14,7.81h-1.6v-6h1.6Z"/><path class="cls-6" d="M385.51,41.92h-.76v2.74c0,.3.17.46.53.46v1.37h-.64a1.38,1.38,0,0,1-1.11-.49,1.85,1.85,0,0,1-.37-1.2V41.92h-.66V40.54h.66V39h1.59v1.58h.76Z"/><path class="cls-6" d="M391.29,46.22l-1.43.41-.09-.3a2.82,2.82,0,0,1-1.34.32,2.33,2.33,0,0,1-1.54-.51,1.77,1.77,0,0,1-.66-1.44q0-1.79,2.16-1.89l.92,0c.13,0,.19,0,.19-.14v-.17c0-.37-.22-.55-.67-.55a1,1,0,0,0-1,.56L386.43,42a2.22,2.22,0,0,1,2.4-1.54,2.35,2.35,0,0,1,1.5.51,1.66,1.66,0,0,1,.7,1.37v3Zm-1.79-1.43v-.86l-1.09.08c-.48.06-.71.25-.71.58A.47.47,0,0,0,388,45a.9.9,0,0,0,.51.15A1.64,1.64,0,0,0,389.5,44.79Z"/><path class="cls-6" d="M394.16,46.49a2.34,2.34,0,0,1-1.44-.35,1.6,1.6,0,0,1-.52-1.36V38.09h1.55v6.67c0,.24.13.36.4.36Z"/><path class="cls-6" d="M346.65,55.62a5.38,5.38,0,0,1-1,.88,2.67,2.67,0,0,1-1.31.32,2.61,2.61,0,0,1-2.09-.89,3.58,3.58,0,0,1,0-4.36,2.62,2.62,0,0,1,2.09-.9,2.48,2.48,0,0,1,1.31.34,4.74,4.74,0,0,1,1,.88L345.47,53a1.78,1.78,0,0,0-1.18-.73c-.78,0-1.17.5-1.17,1.51s.39,1.52,1.17,1.52a1.82,1.82,0,0,0,1.18-.73Z"/><path class="cls-6" d="M349.22,48.9a.92.92,0,1,1-.27-.65A.9.9,0,0,1,349.22,48.9Zm-.13,7.81h-1.6V50.77h1.6Z"/><path class="cls-6" d="M353.07,52.14h-.75v2.74c0,.31.17.46.53.46v1.37h-.64a1.34,1.34,0,0,1-1.11-.49,1.8,1.8,0,0,1-.37-1.19V52.14h-.66V50.77h.66V49.18h1.59v1.59h.75Z"/><path class="cls-6" d="M355.89,48.9a.92.92,0,1,1-.27-.65A.9.9,0,0,1,355.89,48.9Zm-.13,7.81h-1.6V50.77h1.6Z"/><path class="cls-6" d="M361.69,56.71h-4.84V55.5l2.57-3.17H357V50.77h4.72V52l-2.59,3.19h2.59Z"/><path class="cls-6" d="M367.66,54v.11h-3.44c.07.76.46,1.14,1.15,1.14a1.57,1.57,0,0,0,1.12-.64l1.11,1.1a4.43,4.43,0,0,1-1,.79,2.55,2.55,0,0,1-1.24.29,2.62,2.62,0,0,1-2.09-.89,3.22,3.22,0,0,1-.74-2.18,3.3,3.3,0,0,1,.71-2.18,2.54,2.54,0,0,1,2.06-.9,2.16,2.16,0,0,1,1.28.44,2.35,2.35,0,0,1,.86,1.07A5.13,5.13,0,0,1,367.66,54Zm-1.52-.92c-.08-.61-.38-.92-.91-.92a1,1,0,0,0-1,.92Z"/><path class="cls-6" d="M373.59,56.71H372V53.4c0-.76-.3-1.14-.89-1.14a.73.73,0,0,0-.58.25.85.85,0,0,0-.23.6v3.6h-1.64V50.77H370L370,51a1.7,1.7,0,0,1,1.12-.37c1.63,0,2.45.91,2.45,2.73Z"/><path class="cls-6" d="M379.3,54.9a1.73,1.73,0,0,1-.76,1.45,2.71,2.71,0,0,1-1.61.48c-1.4,0-2.22-.54-2.47-1.63l1.42-.39a1,1,0,0,0,1,.57c.52,0,.77-.14.77-.41s-.27-.41-.82-.57a9,9,0,0,1-1.52-.54,1.51,1.51,0,0,1-.82-1.38,1.63,1.63,0,0,1,.66-1.39,2.54,2.54,0,0,1,1.53-.44,2.9,2.9,0,0,1,1.35.26,2.68,2.68,0,0,1,.95.93l-1.26.7a1,1,0,0,0-.89-.47c-.46,0-.69.13-.69.41s.26.35.8.49a6.48,6.48,0,0,1,1.52.52A1.55,1.55,0,0,1,379.3,54.9Z"/><path class="cls-6" d="M385.17,56.71h-1.64V53.42c0-.77-.29-1.15-.89-1.15a.82.82,0,0,0-.55.23.71.71,0,0,0-.25.55v3.66H380.2v-8.4h1.64V51a1.51,1.51,0,0,1,1-.32,2.07,2.07,0,0,1,1.75.79,3.21,3.21,0,0,1,.55,2Z"/><path class="cls-6" d="M388,48.9a.94.94,0,0,1-.93.93.93.93,0,1,1,0-1.85.88.88,0,0,1,.65.27A.86.86,0,0,1,388,48.9Zm-.14,7.81h-1.6V50.77h1.6Z"/><path class="cls-6" d="M394.16,53.79a3.61,3.61,0,0,1-.57,2.15,2.25,2.25,0,0,1-2,.91,1.49,1.49,0,0,1-.8-.23v2.74h-1.64V50.77h1.33l.07.24a1.62,1.62,0,0,1,1.05-.37,2.23,2.23,0,0,1,2,1A3.9,3.9,0,0,1,394.16,53.79Zm-1.64,0a2.68,2.68,0,0,0-.13-1,.74.74,0,0,0-.76-.5c-.54,0-.8.25-.8.76V54.5c0,.5.26.76.8.76a.74.74,0,0,0,.76-.5A2.58,2.58,0,0,0,392.52,53.79Z"/><path class="cls-6" d="M358.42,58.3a.42.42,0,0,1-.13.31.43.43,0,0,1-.31.12.41.41,0,0,1-.3-.12.43.43,0,0,1,0-.62.41.41,0,0,1,.3-.12.43.43,0,0,1,.31.12A.42.42,0,0,1,358.42,58.3Zm-.15,8h-.57V60.51h.57Z"/><path class="cls-6" d="M364.53,66.27H364V63a2.45,2.45,0,0,0-.35-1.47,1.59,1.59,0,0,0-1.36-.55,1.71,1.71,0,0,0-1.16.41,1.28,1.28,0,0,0-.46,1v3.83H360V60.51h.58v.63a2,2,0,0,1,1.62-.7c1.53,0,2.29.87,2.29,2.6Z"/><path class="cls-6" d="M370.15,64.65a1.5,1.5,0,0,1-.67,1.29,2.36,2.36,0,0,1-1.44.43,2.73,2.73,0,0,1-1.48-.37,1.78,1.78,0,0,1-.83-1.25l.57-.1c.14.77.73,1.15,1.74,1.15a1.86,1.86,0,0,0,1-.27,1,1,0,0,0,.5-.88c0-.46-.31-.8-.94-1l-1.74-.48a1.3,1.3,0,0,1-.94-1.26,1.28,1.28,0,0,1,.61-1.14,2.31,2.31,0,0,1,1.3-.34,2.08,2.08,0,0,1,2.07,1.15l-.51.26a1.57,1.57,0,0,0-1.56-.83c-.89,0-1.33.3-1.33.9,0,.38.31.67.94.85l1.74.5A1.44,1.44,0,0,1,370.15,64.65Z"/><path class="cls-6" d="M373.35,61h-1v4a.83.83,0,0,0,.18.64,1,1,0,0,0,.62.13v.58H373c-.77,0-1.16-.45-1.16-1.35V61H371v-.46h.83V58.73h.58v1.78h1Z"/><path class="cls-6" d="M375.54,58.3a.41.41,0,1,1-.12-.31A.45.45,0,0,1,375.54,58.3Zm-.14,8h-.58V60.51h.58Z"/><path class="cls-6" d="M379,61h-1v4a.83.83,0,0,0,.18.64,1,1,0,0,0,.62.13v.58h-.22c-.77,0-1.15-.45-1.15-1.35V61h-.83v-.46h.83V58.73h.57v1.78h1Z"/><path class="cls-6" d="M384.8,66.27h-.58V65.7a2.15,2.15,0,0,1-1.61.64c-1.54,0-2.3-.87-2.3-2.6V60.51h.58v3.23a2.57,2.57,0,0,0,.34,1.48,1.61,1.61,0,0,0,1.38.55,1.78,1.78,0,0,0,1.06-.36,1.16,1.16,0,0,0,.55-1V60.51h.58Z"/><path class="cls-6" d="M388.3,61h-.95v4a.83.83,0,0,0,.18.64,1,1,0,0,0,.61.13v.58h-.21c-.77,0-1.16-.45-1.16-1.35V61h-.83v-.46h.83V58.73h.58v1.78h.95Z"/><path class="cls-6" d="M394,63.06v.49H390c0,1.5.68,2.25,2,2.25a1.78,1.78,0,0,0,1.48-.64l.45.36a2.28,2.28,0,0,1-1.93.85c-1.72,0-2.58-1-2.58-3s.82-3,2.46-3a2,2,0,0,1,1.69.78A3,3,0,0,1,394,63.06Zm-.59-.09c0-1.3-.56-1.95-1.61-1.95s-1.76.65-1.84,1.95Z"/><path class="cls-7" d="M395.25,22.06a5.14,5.14,0,0,0,.1-1.09,2.15,2.15,0,0,0-.18-.93,1.39,1.39,0,0,0-.6-.65,2.52,2.52,0,0,0-1.13-.25H393l-.47,0-.45.05-.44.07-.26,0-.26.05-.25,0-.24.05c-2.86.43-5.36.69-5.44.7a2.48,2.48,0,0,0-.27,0l-.43.1a1.84,1.84,0,0,0-.4.19,1.32,1.32,0,0,0-.54.74c-.15.49-.26.86-.34,1.17s-.13.57-.17.82-.06.51-.09.82-.07.68-.13,1.17-.11.8-.17,1.21-.13.8-.2,1.21-.13.8-.18,1.21-.1.8-.13,1.2a7.2,7.2,0,0,0,0,.93,3.68,3.68,0,0,0,.13.89,1.93,1.93,0,0,0,.37.76,1.53,1.53,0,0,0,.73.49l.53.18c.19.05.37.11.56.18l.57.19c.2.07.4.13.6.21l.71.25.75.26c.26.09.52.18.78.29s.54.22.82.35h.08l-.86,2.53,2.24-1.93h0l.05,0h0l0,0,.52.14a4.81,4.81,0,0,0,.53.07,3.13,3.13,0,0,0,.53,0,2.51,2.51,0,0,0,.52-.14,2.28,2.28,0,0,0,.74-.84,3.5,3.5,0,0,0,.34-1.08,9.08,9.08,0,0,0,.1-1.18c0-.4,0-.8.07-1.19l.12-1.05c0-.35.09-.69.14-1s.1-.7.16-1.05.11-.69.18-1c.12-.66.21-1.16.29-1.56l.23-1c.07-.32.14-.64.22-1.05s.17-.9.28-1.58"/><path class="cls-8" d="M395.25,27.52c-.08.5-.15,1-.2,1.5s-.09,1-.14,1.51-.08,1-.13,1.51-.12,1-.2,1.5a6.81,6.81,0,0,1-.15.71,5,5,0,0,1-.24.62,2.82,2.82,0,0,1-.36.54,2.69,2.69,0,0,1-.49.46h0l0,0h-.05l0,0h-.07a2.89,2.89,0,0,1-.58.14,2.8,2.8,0,0,1-.58,0,4,4,0,0,1-.58-.08,5.15,5.15,0,0,1-.56-.16h0l0,0h0l0,0L387.8,37.7,389,35.06l-.85-.36-.8-.32-.77-.3-.72-.28-.15,0-.15-.06-.15,0-.14,0h-.17l0,0H385c-.3-.11-.59-.21-.86-.33a3,3,0,0,1-.72-.46,2.16,2.16,0,0,1-.5-.7,3.27,3.27,0,0,1-.23-1c0-.25,0-.5,0-.74s0-.49.05-.73.06-.48.09-.72.07-.49.11-.73.1-.61.15-.91.08-.61.13-.92.07-.61.11-.92.08-.61.11-.92.07-.56.08-.71,0-.26,0-.36,0-.19.05-.35.08-.38.15-.71l.12-.6q.06-.3.15-.6a2.78,2.78,0,0,1,.21-.57,3,3,0,0,1,.33-.54,1.19,1.19,0,0,1,.23-.22,1.35,1.35,0,0,1,.26-.15,1.72,1.72,0,0,1,.29-.11l.29-.07.12,0,.12,0H386l.11,0,.85-.11.91-.11,1-.13c.34-.05.68-.1,1-.17l.14,0,.14,0,.15,0,.15,0,.38-.08.43-.1.48-.1.52-.1a11,11,0,0,1,1.42-.19,5.64,5.64,0,0,1,1.38.08,2,2,0,0,1,1.07.54,1.65,1.65,0,0,1,.43,1.2,14.28,14.28,0,0,1-.44,3.81c-.13.53-.27,1.05-.42,1.65S395.39,26.68,395.25,27.52Zm.59-6a6.19,6.19,0,0,0,.1-1.11,2.32,2.32,0,0,0-.17-.94,1.35,1.35,0,0,0-.59-.66,2.35,2.35,0,0,0-1.1-.25h-.46l-.46,0-.44.05-.43.07-.26,0-.24,0-.25.05-.24,0-.24,0-.23.05-.23,0-.23,0-.12,0-.12,0-.11,0h-.12l-.86.11-.83.11-.77.1-.74.1-.23,0-.24,0-.25,0-.26,0a3,3,0,0,0-.43.11,1.5,1.5,0,0,0-.38.19,1.18,1.18,0,0,0-.32.31,1.65,1.65,0,0,0-.22.44c-.15.5-.26.88-.34,1.2s-.12.57-.16.83-.07.52-.1.84-.07.69-.13,1.18-.11.82-.17,1.23-.14.82-.2,1.23-.13.82-.18,1.23-.1.82-.13,1.22a7.38,7.38,0,0,0,0,.94,4.34,4.34,0,0,0,.13.91,2,2,0,0,0,.36.77,1.55,1.55,0,0,0,.71.5l.52.17.54.18.56.19.59.21.69.25.73.26.77.3c.26.1.53.22.79.35h.08L388.47,37l.1-.07,2.18-1.56,0,0h0l.05,0h0c.17.06.34.1.5.14a3.24,3.24,0,0,0,.52.07,2.9,2.9,0,0,0,.51,0,2.15,2.15,0,0,0,.51-.15,2.31,2.31,0,0,0,.74-.85,3.69,3.69,0,0,0,.33-1.1,11.89,11.89,0,0,0,.11-1.2c0-.41,0-.81.07-1.21l.12-1.06c0-.36.09-.71.14-1.07s.1-.7.16-1.06l.18-1.06c.12-.67.22-1.17.3-1.58s.15-.74.22-1.07.14-.65.22-1.06.17-.93.29-1.61"/><g class="cls-9"><path class="cls-10" d="M390.89,33.25c-.52,0-1.22,0-2.16-.12a14.5,14.5,0,0,1-3.51-.59,1.25,1.25,0,0,1,1.07-2.26,27.06,27.06,0,0,0,5.06.45,1.25,1.25,0,0,1,1.22,2.16C392.34,33.06,392.09,33.25,390.89,33.25Zm.19-2.36Zm-4.77-.6.06,0Z"/></g><path class="cls-6" d="M387.49,23.32h0Z"/><path class="cls-6" d="M386.91,23.85v0h0l-.09,0,0,0a0,0,0,0,0,0,0h0a.11.11,0,0,0,0,.06l0,0a.05.05,0,0,1,0,0,2.46,2.46,0,0,0-.29.09h0a.28.28,0,0,1-.17.07l0,0-.05,0a.31.31,0,0,1-.22.08l-.06,0c0-.08,0-.1,0-.15a.76.76,0,0,1-.11.16s-.05,0-.08,0-.07,0-.08,0l0,0v0a.78.78,0,0,1,.17-.26l.07,0h0l-.1,0a.24.24,0,0,1-.13,0v0s.07,0,.07,0h0a.11.11,0,0,1-.07,0,.25.25,0,0,1-.1-.08s.06-.05.12-.05h0l.07,0,.08,0a.53.53,0,0,1,.16,0,.26.26,0,0,1,.19.1v0s0,.05,0,.06h.05a.07.07,0,0,1,.06,0l.08.09v0l0,0h.06a.38.38,0,0,1,.24-.07l.09,0h0l.06-.06,0,0h0a.08.08,0,0,0,.07,0l.08,0,0,0A0,0,0,0,1,386.91,23.85Zm-1.08,0h0v0l0,0-.1,0h0l.1,0M386,24h0"/><path class="cls-6" d="M386.77,24.06v0l0,0h0Z"/><path class="cls-11" d="M385.32,26.82h0Z"/><path class="cls-11" d="M385.34,26.89h0Z"/><path class="cls-12" d="M385.83,23.86l-.1,0h0l.1,0,0,0v0Z"/><path class="cls-12" d="M386.65,22.26h0s0,0,0-.09v0l-.05,0h0l.07,0h0a.19.19,0,0,0-.05.09s0,0,.06,0,0,0,0,0h0a.11.11,0,0,0-.06,0h0a.1.1,0,0,0-.07,0h0Z"/><path class="cls-12" d="M391.28,24h0l.08,0Z"/><path class="cls-6" d="M383.16,22.92l0,0v0Z"/><g class="cls-1"><path class="cls-6" d="M389.55,25.87l.05,0h0Z"/><polygon class="cls-6" points="389.61 25.84 389.61 25.84 389.61 25.84 389.61 25.84"/><path class="cls-6" d="M389.54,25.81s.07,0,.07,0h0Z"/></g><path class="cls-6" d="M390,27.16h0l.08,0-.11,0Z"/><path class="cls-6" d="M386.81,23.74c-.05,0,0,0,.06,0l0,0Z"/><path class="cls-6" d="M386.9,23.84l.05,0,0,.05A0,0,0,0,0,386.9,23.84Z"/><path class="cls-6" d="M386.5,22.2h0l.06,0Z"/><path class="cls-6" d="M387.3,22.64a.25.25,0,0,0,0-.07l.05,0h.09l0,.07h0A.12.12,0,0,0,387.3,22.64Z"/><path class="cls-6" d="M387.4,22.53Z"/><path class="cls-6" d="M387.49,23.78l0,0,.05,0v0h-.1Z"/><path class="cls-6" d="M389.88,22.55Z"/><polygon class="cls-6" points="389.89 22.55 389.89 22.55 389.89 22.55 389.89 22.55"/><path class="cls-6" d="M386,25.77h0l0,0s0,0,0,0h0c0,.05-.09.05-.11.05h0l-.08-.06h0l.05,0Z"/><path class="cls-6" d="M385.86,25.4h0s0,0,0,0,0,0,0,0l-.05,0h-.11s-.07,0-.05,0h0s0,0,.08-.05h.07Z"/><path class="cls-6" d="M383.79,23.57l.08,0a.19.19,0,0,1,.11.16s-.09,0-.11,0h-.07a.31.31,0,0,1-.12-.11s0,0,0,0v0l0,0,.06,0Z"/><g class="cls-1"><path class="cls-12" d="M385.35,26.9h0l.07,0h0a.07.07,0,0,1-.06,0Z"/><polygon class="cls-11" points="385.64 25.8 385.65 25.8 385.64 25.8 385.64 25.8"/><polygon class="cls-6" points="389.88 22.55 389.88 22.55 389.88 22.55 389.88 22.55"/><polygon class="cls-6" points="389.88 22.55 389.88 22.55 389.88 22.55 389.88 22.55 389.87 22.56 389.88 22.55"/><path class="cls-6" d="M390.67,23.42a.2.2,0,0,1,.08,0v0l-.15.14-.18,0h-.05c-.05,0-.13,0-.09,0l0,0h0l0,0s0,0,0,0v0l0-.05h0a.07.07,0,0,0,0-.06h0l-.05,0,0,0h0v0h0v0h0c0-.05,0,0,0-.09a.15.15,0,0,1,.16-.1s.1,0,.07.05h0s.08,0,.05,0l0,.05A.5.5,0,0,1,390.67,23.42Zm-.16.11,0,0s0,0,0,0l0,0h0s0,0,0,0a.05.05,0,0,1,.05,0"/><path class="cls-12" d="M391.3,29.28c0,.13,0,.32.08.42l.06,0A4.6,4.6,0,0,1,387.52,32l-.35,0a5.42,5.42,0,0,1-4.65-5.54A5.93,5.93,0,0,1,383.63,23a.27.27,0,0,1,.07.08l0,.07a.09.09,0,0,0,.08,0l-.06,0,0,.07.07,0c0,.06,0,.15,0,.17a.15.15,0,0,0,0,.07l-.06,0,0,0c0,.09.07.13.12.15s-.08,0-.08,0-.23.44-.31.57v.25l.16.33c0,.16.08.29.05.41s.09.23.19.35l.08,0,.09,0a.91.91,0,0,0,.15.37c.13.15.36.16.51.23a2.26,2.26,0,0,1,.31.17l.1,0c.05.07.11.12.09.14s.09.13.15.2l.06,0a.34.34,0,0,1,.12.05l.07,0,.07,0c.17.21-.12.53-.18.7s0,.16,0,.28a2.76,2.76,0,0,0,.18.39c.17.34.53.55.6.91a7,7,0,0,1,.05.92s0,.18,0,.36.05.36.09.36.09.2,0,.22l0,.05a1.8,1.8,0,0,1,.29.46.07.07,0,0,0,.07,0h0a.09.09,0,0,0,.07,0l0,0a.32.32,0,0,0,.18.13h.05l.11,0s.17,0,.11-.07l-.18-.13a.08.08,0,0,0-.06,0l0,0s0,0,0,0l0,0a1.94,1.94,0,0,1,0-.34c0-.08-.07-.21,0-.32s-.06,0-.07,0,0,0-.06-.07H387s.08,0,.08-.05,0-.12,0-.12.11,0,.15-.07.07,0,.08-.13-.1-.15-.15-.15,0,0,0,0h.12a.27.27,0,0,0,.13,0c.18-.12.18-.43.25-.61s.31-.14.45-.51.07-.47.16-.71.23-.39-.05-.5-.2-.15-.42-.18a.27.27,0,0,0-.23-.13l-.06-.06h-.13l.06-.09s0-.05-.06-.05c.14,0-.17-.29-.18-.3l-.08,0c-.2,0-.3-.23-.55-.32h-.06a.1.1,0,0,0-.09,0s0-.05,0-.05-.08,0-.08,0l0,0-.09,0h-.06s0,0-.07,0c-.19,0-.28.19-.33.27a1,1,0,0,0-.16,0h0l-.05,0,0,0s0,0-.07-.11.06-.26,0-.38l-.05,0c-.32,0-.26,0-.11-.38,0,0,0,0-.05-.05h-.09a.53.53,0,0,0-.17,0l-.05,0c0,.1-.05.14-.08.14s-.18-.32-.12-.51.12-.3.21-.3a.41.41,0,0,1,.17,0h.06s.09,0,.09,0,0,0,.08,0a.29.29,0,0,1,.14,0s0,.25.09.36l.08,0,.05,0h.07c.06,0,.13,0,.1-.05v-.06s.09,0,.09,0,0,0,0-.07a.11.11,0,0,0-.08,0h-.1a.17.17,0,0,1,0-.1.68.68,0,0,1,.23-.41.87.87,0,0,0,.17-.28s.09,0,.09-.05v0l-.07,0c.16,0,.27-.14.43-.21l0,0c0-.09.07-.1.13-.13s0,0,0,0a.08.08,0,0,0,.07,0,.14.14,0,0,0,.09,0l.14-.08a.46.46,0,0,0,.14-.07c.08,0,0-.06-.08-.06a.41.41,0,0,1-.09,0,.47.47,0,0,1,.06-.15s-.05,0-.06,0a1.44,1.44,0,0,0-.24,0v0l.16,0,.21,0,.22-.05-.17.18s0,.06.06.06h.15a.71.71,0,0,0,.24,0l0,0,0-.05-.06,0,0,0s0,0,0-.06,0-.05-.06-.05a.41.41,0,0,0,.14-.15c-.06-.08-.11-.05-.15-.09a2,2,0,0,1-.07-.4s0,0-.07,0a.15.15,0,0,0-.1,0c-.06,0-.09.09-.11.09s0,0,0-.11a.34.34,0,0,0-.27-.16.34.34,0,0,0-.24.11c-.11.12-.12.26-.2.39a1.23,1.23,0,0,1-.18.25s0,0,0-.18c-.25-.27-.67-.26-.08-.58l0,0s0,0,.13-.05l0,.06.07,0,.08,0a.15.15,0,0,0,.1,0c.05,0,.09,0,.09-.05s0-.05,0-.1-.08,0-.11,0c.13-.06.28,0,.33-.23,0,0,0,0-.05,0h-.07a.25.25,0,0,0,.12,0h.1a.43.43,0,0,1,.11.12l0,.06a.24.24,0,0,0-.18.09h-.08a.27.27,0,0,0-.16.05s0,.05,0,.06,0,0,.05,0h.12c0,.06.06.12.15.16a.31.31,0,0,0,.13,0,.22.22,0,0,0,.13,0s0,0,0,0,0,0,.05,0a.14.14,0,0,0,0-.11.08.08,0,0,0,0-.05h.08a.15.15,0,0,0,.14-.11c-.07-.08-.14-.11-.11-.21a.23.23,0,0,0-.11-.07.9.9,0,0,1-.12-.1.08.08,0,0,0-.07,0l-.07,0c-.06,0-.1-.08-.18-.08h-.06a.43.43,0,0,1,.16,0h.06l.13-.06s0,0,0,0a.09.09,0,0,0,.07,0,.64.64,0,0,1,.27-.15s0,0,0,0v.05l0,0c.12,0,.51,0,.43.25,0,0,0,.05.07.05s-.14.25-.15.28a.47.47,0,0,0,0,.33.3.3,0,0,0,.45.12c.09-.08.1-.22.18-.28s.19-.06.28-.1a.79.79,0,0,0,.15-.12l.44-.07s.08,0,.06-.05,0,0,.05,0a0,0,0,0,0,0-.06l-.12-.09a.59.59,0,0,0,.34-.27,4.69,4.69,0,0,1,1,.9.26.26,0,0,0-.16.11l0,.07,0,0a.18.18,0,0,0,.15.18.29.29,0,0,0,.14,0l-.07,0c-.08.09-.09.09-.07.21l0,0-.05,0h0a.4.4,0,0,0-.15.1.12.12,0,0,0-.08-.06.5.5,0,0,0-.16-.22l0-.05s0,0-.05,0-.06-.06-.07-.06a.15.15,0,0,0-.16.1c0,.06,0,0,0,.09a.06.06,0,0,1,0,0,.31.31,0,0,0-.21.11c0,.07,0,.12,0,.19a0,0,0,0,0,0,0h.07l.06,0,.1,0,0,0h0l0,0-.05,0c-.07,0,0,.07,0,.07h0c.05,0,.09,0,.1,0l.18,0-.06.05-.07,0-.06,0h-.08s-.08,0-.08.08l0,0c.11.05.13.1.12.24v.06h0l-.08,0h-.09c-.11,0-.18,0-.21.12l0,0-.05.34v0a.1.1,0,0,0,.08,0h0l.08.05s0,0,0,0c-.11.18-.29.51-.36.62s-.39.43-.28.43l-.05,0,.06.05c-.11,0,0,.24-.05.33s.05,0,.07,0c-.22,0,0,.22-.09.25s0,0,0,0a2.4,2.4,0,0,0,.38.53.27.27,0,0,0,.18.07h0l.12,0h.11a.08.08,0,0,0,.07,0h.07a.57.57,0,0,0,.19-.08l.07,0a.05.05,0,0,0,0,0l.07,0c-.08.09,0,0,0,.15s0,0,.06,0h.11c.07.16,0,.28,0,.42a3.9,3.9,0,0,0,.19.35c.14.33,0,.56,0,.9A2.81,2.81,0,0,0,391.3,29.28Zm-4.87-3.12c.06,0,.13,0,.13-.08l-.07,0h-.09a.42.42,0,0,0-.31-.09h0a0,0,0,0,0,0,0l-.08-.05h0s.11,0,.11-.05h0s0,0,0,0l0,0H386l-.05,0h0a.65.65,0,0,0-.19-.09h-.2a.31.31,0,0,0-.2.09s0,.05.06.05a.26.26,0,0,0,.15,0h0l0,0a.54.54,0,0,0,.12.09v0s0,0,.05,0H386a0,0,0,0,0,0,0l0,0h0s-.09,0-.11,0a.35.35,0,0,0-.11,0h0s-.1,0-.1,0v0s0,0,.08,0h.07a.31.31,0,0,0,.13,0h.16l0,0h.14l.07,0h0s0,0,.06,0h0m3.08-3.55s0,.05.07.05a.26.26,0,0,0,.16.07.19.19,0,0,0,.13-.06.44.44,0,0,0,.18-.09l0,0a.21.21,0,0,0-.16-.07l-.12,0h0a.8.8,0,0,0-.21.05l0,0v0"/><path class="cls-6" d="M385.81,25.5s.05,0,.08,0h0v0h0s0,.05-.1.05h-.07l0,0h0l0,0,.05,0h.05Z"/><polygon class="cls-11" points="386.62 26.76 386.62 26.76 386.62 26.76 386.62 26.76"/><path class="cls-6" d="M388.26,27.87c.28.11.15.26.05.5s-.08.47-.16.71-.32.21-.45.51-.07.49-.25.61a.27.27,0,0,1-.13,0h-.16c.07,0,.17,0,.17.16s-.06.08-.08.13-.07.07-.1.07h0s0,0,0,.12,0,.05-.08.05h-.08c.06,0,.11.07.06.07s.09,0,.07,0,0,.24,0,.32a1.94,1.94,0,0,0,0,.34l0,0s0,0,0,0-.11,0-.13,0v.05l-.06,0h0a.07.07,0,0,1-.07,0,1.8,1.8,0,0,0-.29-.46l0-.05s0-.19,0-.21-.08-.19-.1-.37,0-.36,0-.36a7,7,0,0,0-.05-.92c-.07-.36-.43-.57-.6-.91a2.76,2.76,0,0,1-.18-.39c0-.12.1-.15,0-.26s.35-.51.19-.7h-.08l-.07,0a.34.34,0,0,0-.12-.05h0l-.08,0c-.06-.07-.13-.09-.16-.18s0-.09-.07-.14L385,26.5a2.26,2.26,0,0,0-.31-.17c-.15-.07-.38-.08-.51-.23a.91.91,0,0,1-.15-.37l-.09,0-.08,0c-.1-.12-.1-.22-.19-.33s-.05-.27,0-.4v0l-.16-.33v-.23c.08-.15.31-.43.31-.59s0,0,.08,0h.07s.11,0,.11,0a.19.19,0,0,0-.11-.16l-.08,0s0,0-.06,0v0s0-.11,0-.17.1,0,.11,0l0-.07-.07,0a0,0,0,0,0,0,0v-.05s0-.05-.06-.05l-.1,0a.27.27,0,0,0-.07-.08.41.41,0,0,0-.11-.07h-.09c-.07,0-.09,0-.21,0h-.11s0,0,0,0l0,0h-.07s-.11,0-.08,0c.22-.28.43-.65.77-.73l.13,0,.44.05a1.45,1.45,0,0,0,.3,0l.2,0c.12,0,.39.08.61.09l.08,0s0,0,0,0l.09,0h0s0,0,.06,0l.11,0H386l.15,0h0a.09.09,0,0,0,.07,0l.08,0,.1-.05s0,0,0,0,0,0,0,0l-.09,0s0,0,0,0l.07,0h.07l.06,0h.09l.05,0c0,.09,0,.1,0,.11h0a.1.1,0,0,1,.07,0l.07,0H387s.06,0,.05,0c-.05.2-.2.17-.34.22h-.06a.24.24,0,0,0-.18.11c-.13,0-.17,0-.13.06l0,0c-.59.32-.17.31.08.56-.05.15-.06.2,0,.2a1.23,1.23,0,0,0,.18-.25c.08-.13.09-.27.2-.39a.34.34,0,0,1,.24-.11.38.38,0,0,1,.27.14c0,.1,0,.13,0,.13s.05,0,.11-.09a.15.15,0,0,1,.1,0s.07,0,.07,0a1.43,1.43,0,0,0,.07.37,0,0,0,0,1,0,0s.09,0,.15.07a.35.35,0,0,1-.14.17h-.05l-.07,0,0,0-.22.05-.21,0-.16,0c-.07,0-.11,0-.06,0h.05a1.44,1.44,0,0,1,.24,0s.08,0,.06,0a.47.47,0,0,0-.06.15s0,0,0,0h.05c.05,0,.17,0,.09.06l-.13.07-.15.08a.14.14,0,0,1-.09,0,.08.08,0,0,1-.07,0s0,0,0,0-.13,0-.13.13l0,0c-.16.07-.27.21-.43.21l.07,0v0s-.06.05-.09.05a.87.87,0,0,1-.17.28.68.68,0,0,0-.23.41.17.17,0,0,0,0,.1c-.05,0-.11,0-.08.05s0,.05.05.05l-.05,0,0,0s0,0,0,0l-.08,0c-.09-.11-.08-.35-.09-.36a.29.29,0,0,0-.14,0s-.08,0-.08,0,0,0-.09,0h-.06a.41.41,0,0,0-.17,0c-.09,0-.15.06-.21.26v0c-.06.19,0,.51.12.51s.06,0,.08-.14l.05,0a.53.53,0,0,1,.17,0h.09s.06,0,.05.05c-.15.4-.21.34.11.38l.05,0c0,.12,0,.24,0,.36s.06.13.08.13l0,0,.05,0h0a1,1,0,0,1,.16,0c.05-.08.14-.27.33-.27,0,0,.06,0,.06,0h.07l.09,0,0,0s0,0,0,0h0s0,0,0,.05a.1.1,0,0,1,.09,0h.06c.25.09.35.32.53.34a0,0,0,0,1,0,0l.08,0s.32.3.18.3c0,0,.08,0,.06.05l-.06.09h.13l0,0a.41.41,0,0,1,.24.13C388.06,27.72,388.11,27.7,388.26,27.87Zm-3.53-1.62a1.08,1.08,0,0,1,.27.05.6.6,0,0,1,.08-.29,1,1,0,0,1-.29.15c-.14,0-.21-.08-.26-.23s.09-.29,0-.41v0c.13-.16.26-.33.49-.33h.08a.18.18,0,0,1,.17-.08,1.05,1.05,0,0,1,.21,0c.1,0,.14.07.15.13a.6.6,0,0,1,.09-.29c.07-.1.2-.14.28-.24s0-.15.05-.21a.06.06,0,0,1,.06,0c.19-.2.43-.29.61-.48l0,0,.08,0h0l.06,0h0l0,0v0a0,0,0,0,1,0,0l0-.05-.05,0,0,0-.08,0a.08.08,0,0,1-.07,0c-.11-.15.27-.24.36-.26s.22,0,.35-.05.18-.13.15-.13h0l-.08,0a.08.08,0,0,1-.07,0l0,0v0l.06-.06a.22.22,0,0,1-.09-.1h0a.14.14,0,0,0,0-.11l-.07.05-.08,0a.08.08,0,0,1-.07,0l-.08-.08v0c0-.1,0-.14,0-.14a.27.27,0,0,0-.11,0c-.1.07-.07.2-.13.3a1.24,1.24,0,0,1-.41.41h-.06l-.07,0c-.1-.12,0-.21-.1-.3s-.24-.15-.35-.27v0a2.27,2.27,0,0,1,.57-.47v0l0,0a.12.12,0,0,1,.09,0h.07c0-.07,0-.09,0-.1l-.05,0c-.06.05-.12.07-.19.13a.14.14,0,0,1-.09,0,.11.11,0,0,1-.08,0,.2.2,0,0,0-.15,0,.34.34,0,0,0-.23.08s0,0-.08,0l-.08,0c-.08-.1-.18,0-.28-.12v0l-.05,0h-.24l-.07,0h-.07c-.13,0-.25.05-.38.05h-.06c-.15,0-.3-.1-.45-.1-.36,0-.56.27-.78.56h.09a.7.7,0,0,1,.64.31v0s0,.09,0,.12v0c-.09.09-.12,0,0,.13v0a.6.6,0,0,0,.12.24v0l-.1.15a.12.12,0,0,1-.1,0h0c-.06.11-.29.43-.26.47v0a.16.16,0,0,0,0,.15v0c-.15.17.18.33.24.34s.06,0,0,0l0,0c.12.11.18.41.21.46v0h0c.07,0,.14.38.14.38a1,1,0,0,0,.41.35h.1m3.37,2.2c.07-.19.3-.42,0-.52l0,0a.37.37,0,0,0-.22-.14l0,0a.14.14,0,0,1-.09,0,.11.11,0,0,1-.08,0c-.06-.07,0-.13-.05-.13s0,0-.07.05l-.09,0h-.07l-.05,0a.08.08,0,0,1-.07,0,.17.17,0,0,1-.11-.06v0a.55.55,0,0,1,.17-.19l0,0c0-.22-.14-.17-.08-.24h-.06a.08.08,0,0,1-.07,0H387a.1.1,0,0,1-.07,0l-.16-.12s-.08-.1-.12-.13-.08-.05-.09-.05l.05,0s-.06,0-.1,0h0a1.38,1.38,0,0,1-.27-.11s0,0,0,.06v0l-.06.08a.12.12,0,0,1-.1,0l-.07,0c-.06-.07,0-.1,0-.13l-.14.17a.05.05,0,0,1,0,0v.36c0,.1-.29.29-.15.42v0c-.11.18.15.73.3.91s.38.27.4.68a3.42,3.42,0,0,0,.2,1.51v0c-.1.14.11.48.22.63.07-.1,0-.41,0-.5s0-.11.05-.11l-.05-.08-.05-.09v0l0,0a.11.11,0,0,1,.08,0h0a.13.13,0,0,0,0-.06v0c.12-.14.36-.07.13-.34v0c.06-.06.1-.08.13-.08l.07,0s0,0,0,0,.08,0,.15-.19,0-.42.27-.61c.05,0,.13-.05.17-.09a.91.91,0,0,0,.17-.46.86.86,0,0,1,.07-.34m-2.83-1.88c0-.15.07-.22,0-.22h-.17a.11.11,0,0,1,0,.06s0,0,.09,0a.08.08,0,0,1,.07,0l.05.07v0s0,0,0,.05m1.19-4.39h.08l-.06,0h0m.33,1.89h0l0,0v0h0m.69-.76h0m.06,0h-.05s.05,0,.05,0m-2.22,3.48h0m1.9.31h0m-.24-3h0"/><path class="cls-6" d="M383.8,23.06s.07,0,.06.05v0h0s0,0,0,0h-.08s-.06,0-.06,0l0,0v0l0,0h0Z"/><polygon class="cls-11" points="383.89 23.27 383.89 23.27 383.89 23.27 383.89 23.27"/><path class="cls-6" d="M383.83,23.18l.07,0v.06h0s-.05,0-.09,0h0l-.07,0,0,0s0,0,0,0h0l.06,0h.09Z"/><path class="cls-12" d="M384.72,26.24h0Z"/><path class="cls-6" d="M385.24,26.35c.1,0,.05.07,0,.22,0,0,0,0,0-.05v0l-.05-.07a.08.08,0,0,0-.07,0s-.08,0-.09,0a.11.11,0,0,0,0-.06h.17Z"/><path class="cls-12" d="M385.53,22.35h.06l-.06,0S385.52,22.36,385.53,22.35Z"/><polygon class="cls-6" points="385.65 25.81 385.65 25.8 385.64 25.8 385.65 25.81"/><polygon class="cls-6" points="385.66 25.81 385.65 25.81 385.64 25.8 385.64 25.8 385.65 25.8 385.66 25.81"/><path class="cls-12" d="M385.71,22.36h0Z"/><path class="cls-6" d="M385.74,26.05h0a.35.35,0,0,1,.11,0s0,0,0,0l0,0a.31.31,0,0,1-.13,0h-.07s-.08,0-.08,0v0S385.7,26.05,385.74,26.05Z"/><path class="cls-6" d="M385.89,25.4s.06,0,.07,0h0s0,0,0,.07-.05,0-.1,0h0s-.07,0-.08,0h.06l.05,0s0,0,0,0,0,0,0,0Z"/><polygon class="cls-11" points="386.02 24.02 386.02 24.02 386.02 24.01 386.02 24.02"/><path class="cls-6" d="M386.18,22.16l.06.05v0h0l-.06,0-.17,0h-.12l-.11,0h-.09l-.09,0h0l-.08,0,0,0c-.05,0,0-.05.08-.06s0,0,0,0v0h0l-.11,0h-.06s-.06,0-.07,0l-.05-.05,0,0a1.64,1.64,0,0,1,.29-.16h.07a1,1,0,0,1,.24,0c.05,0,.05,0,0,.05l.05,0h0a.2.2,0,0,1,.1,0l.06,0,.1,0s.08,0,.07.05l-.05.1h0Zm-.17.09,0,0-.05,0v0h0l-.08,0v0h0a.77.77,0,0,1-.26-.07l0,0h0l0,0h0l.07,0v0h0l.06.05h0a.16.16,0,0,1,.09.06v0l-.07.05h0a.33.33,0,0,1,.18-.05h.1"/><path class="cls-6" d="M385.55,22h0l0,0h0l0,0a.77.77,0,0,0,.26.07h0v0l.08,0h0v0l.05,0,0,0h-.1a.33.33,0,0,0-.18.05h0l.07-.05v0a.16.16,0,0,0-.09-.06h0l-.06-.05h0v0Z"/><path class="cls-6" d="M386.07,26.13h0Z"/><path class="cls-6" d="M386.08,25.92a0,0,0,0,1,0,0h0s-.08,0-.09,0h-.25s-.09,0-.05,0v0a.54.54,0,0,1-.12-.09l0,0h0a.26.26,0,0,1-.15,0s-.1,0-.06-.05a.31.31,0,0,1,.2-.09h.2a.65.65,0,0,1,.19.09l.08.06Zm-.43-.12h0m-.09,0h0"/><path class="cls-6" d="M386.18,26.07v0h0Z"/><path class="cls-6" d="M386.09,26a.42.42,0,0,1,.31.09h0a.14.14,0,0,0-.09.05v0h0l-.07,0h-.14l0,0h0s.05,0,.05,0,0,0,0,0a.12.12,0,0,0-.1,0l0,0a0,0,0,0,1,0,0s.07,0,.09,0Zm.11.11h0v0h0"/><path class="cls-6" d="M386,26.05h0a.12.12,0,0,1,.1,0s0,0,0,0,0,0-.05,0h-.14l0,0s0,0,0,0S386,26.05,386,26.05Z"/><path class="cls-12" d="M386.18,22.35h0l-.14,0,.17,0,0,0,0,0Z"/><path class="cls-6" d="M386.31,22.23h0l.09,0s0,0,0,0,0,0,0,0l-.1.05-.08,0a.09.09,0,0,1-.07,0h0l0,0,0,0,.06,0h0Z"/><path class="cls-12" d="M386.47,22.19h0Z"/><path class="cls-6" d="M386.49,26.05l.07,0c0,.07-.07.08-.13.08h0s-.06,0-.06,0h0v0a.14.14,0,0,1,.09-.05h.09Z"/><polygon class="cls-6" points="386.56 26.81 386.56 26.81 386.57 26.81 386.56 26.81"/><path class="cls-6" d="M386.57,22l.06,0s0,0,0,0a.25.25,0,0,1-.09.11l-.06,0h-.09c-.09,0-.11,0-.17-.09s.09,0,.12-.06A.39.39,0,0,1,386.57,22Z"/><path class="cls-12" d="M386.81,24.07h0Z"/><path class="cls-6" d="M386.66,22.52h.07s.09,0,.11,0,0,.05,0,.1,0,.05-.09.05l-.09,0h0l-.08,0h-.07l0,0v0h0A.24.24,0,0,1,386.66,22.52Z"/><path class="cls-6" d="M386.72,22h.12a.05.05,0,0,1,0,0s0,0,0,0a.21.21,0,0,1-.1.06h-.07l-.07,0h-.09a.25.25,0,0,0,.09-.11s0,0,0,0Z"/><path class="cls-11" d="M387.48,22.72Z"/><path class="cls-6" d="M387.42,22.28a1.74,1.74,0,0,0-.15-.13h.09l.06.06.1,0s0,.08,0,.11a.73.73,0,0,0,.09.08h-.09C387.47,22.38,387.47,22.35,387.42,22.28Z"/><path class="cls-6" d="M387.82,22.44v0a.15.15,0,0,1-.14.11h-.08a.08.08,0,0,1,0,.05.14.14,0,0,1,0,.11s0,0-.05,0,0,0,0,0a.22.22,0,0,1-.13,0,.31.31,0,0,1-.13,0c-.09,0-.1-.1-.15-.16H387a.11.11,0,0,1-.07,0h0s-.07,0,0-.06a.27.27,0,0,1,.16-.05h.08a.24.24,0,0,1,.17-.09h0l0-.06a.43.43,0,0,0-.11-.12h-.1a.25.25,0,0,1-.12,0h-.18s0,0,0,0-.07,0-.06,0a.19.19,0,0,1,.05-.09h0a.21.21,0,0,0,.1-.06s0,0,0,0a.27.27,0,0,1,.12,0h.08a0,0,0,0,1,0,0h.06c.08,0,.12.05.18.08l.07,0a.08.08,0,0,1,.07,0,.9.9,0,0,0,.12.1s.07,0,.1.05v0c0,.1,0,.13.1.18Zm-.27,0h.07a.73.73,0,0,1-.09-.08s0-.1,0-.11l-.1,0-.06-.06h-.09a1.74,1.74,0,0,1,.15.13c.05.07.05.1.11.15h0m-.34-.3h0a.24.24,0,0,1-.09-.06h0l-.07.08h0l.05,0,.08,0m.18.46h0l0-.07h-.09l-.05,0a.25.25,0,0,1,0,.07.12.12,0,0,1,.09,0m-.5-.43h0m.59.55h0m-.08-.19h0"/><path class="cls-6" d="M386.89,22.17Z"/><polygon class="cls-6" points="386.9 23.87 386.89 23.87 386.9 23.87 386.9 23.87"/><path class="cls-6" d="M386.87,23.87h0v0l0,0h0l-.06,0h0l-.08,0,0,0h0a.11.11,0,0,1,0-.06h0a0,0,0,0,1,0,0l0,0Z"/><polygon class="cls-6" points="386.89 23.87 386.9 23.87 386.9 23.87 386.89 23.87 386.89 23.87"/><polygon class="cls-6" points="386.89 23.87 386.89 23.87 386.9 23.87 386.9 23.87 386.89 23.87"/><path class="cls-6" d="M386.94,23.93h0Z"/><path class="cls-6" d="M387.13,22.16l-.05,0h0l.07-.08h0a.24.24,0,0,0,.09.06h0Z"/><path class="cls-11" d="M387.29,21.85h0Z"/><path class="cls-6" d="M387,31.57l0,0a.08.08,0,0,1,.06,0l.18.13c.06,0-.08.07-.1.07h0l-.08,0H387a.4.4,0,0,1-.17-.1v0l0,0v-.05s.09,0,.11,0h0Z"/><path class="cls-6" d="M387.33,21.68h0s-.09,0-.07,0v0C387.19,21.74,387.28,21.69,387.33,21.68Z"/><polygon class="cls-11" points="387.33 21.84 387.33 21.84 387.34 21.84 387.33 21.84"/><path class="cls-6" d="M387.2,21.54a.58.58,0,0,1,.16.05s0,0,0,0,0,0,0,0l0,0a.39.39,0,0,1-.2.06H387a.09.09,0,0,1-.08,0l0,0a.58.58,0,0,1,.18-.08Z"/><path class="cls-6" d="M387.46,21.77h0l0,0Z"/><path class="cls-6" d="M387.46,21.68Z"/><path class="cls-6" d="M388.35,21.44s.1,0,0,.06a1.58,1.58,0,0,1-.47.18l-.05,0-.06,0a.64.64,0,0,0-.27.15.09.09,0,0,1-.07,0h0l-.08,0-.08,0h-.13l-.1-.05c-.06,0,.08-.06.11-.06h.09v0s0,0,.07,0h0l0,0s0,0,0,0h0c-.07,0,0-.08,0-.08l.75-.07a.16.16,0,0,1,.1,0Zm-.5.17.16-.05h-.17v0m-.34.13.11,0h-.08v0l0,0m-.05,0,0,0h0m0-.11h0m.21-.05h0m-.33.22h0"/><path class="cls-6" d="M387,21.81a.47.47,0,0,1,.16,0h.19l.08,0,.08,0h0s0,0,0,0l-.11.05h-.08l-.18,0h-.22s-.08,0-.07,0A.15.15,0,0,1,387,21.81Z"/><path class="cls-12" d="M387.49,23.32h0Z"/><path class="cls-11" d="M387.54,23.34s0,0-.05,0Z"/><path class="cls-13" d="M385.73,25a.6.6,0,0,0-.09.29c0-.06-.05-.1-.15-.13a1.05,1.05,0,0,0-.21,0,.18.18,0,0,0-.17.08H385c-.23,0-.36.17-.49.33v0c.09.12-.08.18,0,.41s.12.22.26.23a1,1,0,0,0,.29-.15.6.6,0,0,0-.08.29,1.08,1.08,0,0,0-.27-.05h-.1a1,1,0,0,1-.41-.35s-.07-.38-.14-.38h0v0s-.09-.35-.21-.46l0,0s0,0,0,0-.39-.17-.24-.34v0a.16.16,0,0,1,0-.15v0s.2-.36.26-.47h0a.12.12,0,0,0,.1,0l.1-.15v0a.6.6,0,0,1-.12-.24v0c-.08-.14-.05,0,0-.13v0s-.06-.08,0-.12v0a.7.7,0,0,0-.64-.31h-.09c.22-.29.42-.56.77-.56.16,0,.31.09.46.1h.06c.13,0,.25,0,.38-.05H385l.07,0h.24l.05,0v0c.1.11.2,0,.28.12l.08,0s.07,0,.08,0a.34.34,0,0,1,.23-.08.2.2,0,0,1,.15,0,.11.11,0,0,0,.08,0,.14.14,0,0,0,.09,0c.07-.06.13-.08.19-.13l.05,0s0,0,0,.09h-.09a.12.12,0,0,0-.09,0l0,0v0a2.14,2.14,0,0,0-.58.47v0c.11.12.25.16.35.27s0,.18.1.3l.07,0h.06a1.24,1.24,0,0,0,.41-.41c.06-.1,0-.23.13-.3a.27.27,0,0,1,.11,0s.07,0,0,.14v0l.08.08a.08.08,0,0,0,.07,0l.08,0,.07-.05a.14.14,0,0,1,0,.11h0a.22.22,0,0,0,.09.1l-.06.06v0l0,0a.08.08,0,0,0,.07,0l.08,0h0s-.1.11-.15.13-.23,0-.35.05-.47.11-.37.25l0,0-.06.06h0a.19.19,0,0,1-.09,0,.38.38,0,0,0-.24.07h-.06l0,0v0l-.08-.09a.07.07,0,0,0-.06,0H386s0,0,0-.06v0a.26.26,0,0,0-.19-.1.53.53,0,0,0-.16,0l-.08,0-.07,0h0c-.06,0-.15,0-.12.05a.25.25,0,0,0,.1.08.11.11,0,0,0,.07,0l-.06,0v0a.24.24,0,0,0,.13,0l.1,0h0l-.07,0a.78.78,0,0,0-.17.26v0l0,0s.05,0,.08,0,.07,0,.08,0a.76.76,0,0,0,.11-.16c0,.05,0,.07,0,.15l.06,0a.31.31,0,0,0,.22-.08l.05,0,0,0a.28.28,0,0,0,.17-.07,1.76,1.76,0,0,1,.3-.1.05.05,0,0,0,0,0l0,0c-.18.2-.42.29-.61.49a.06.06,0,0,0-.06,0c0,.06,0,.17-.05.21S385.8,24.86,385.73,25Z"/><path class="cls-6" d="M387.54,21.68h.08l-.11,0,0,0v0Z"/><path class="cls-11" d="M387.66,21.62h0Z"/><path class="cls-11" d="M387.64,21.61h0Z"/><path class="cls-6" d="M387.75,23.73l0,.05,0,0a.71.71,0,0,1-.24,0h-.15s-.1,0-.06-.06l.17-.18,0,0,.07,0h.05s.09,0,.06.05-.05,0,0,.06l0,0Zm-.18.06h0v0l-.05,0,0,0h.08"/><path class="cls-6" d="M387.85,21.61v0H388Z"/><path class="cls-13" d="M388.11,27.93c.29.1.06.33,0,.52a.86.86,0,0,0-.07.34.91.91,0,0,1-.17.46s-.12.05-.17.09c-.24.19-.14.33-.27.61s-.11.19-.15.19,0,0,0,0l-.07,0s-.07,0-.13.08v0c.23.27,0,.2-.13.34v0a.13.13,0,0,1,0,.06h0a.11.11,0,0,0-.08,0l0,0v0l.05.09.05.08s-.06,0-.05.11.06.4,0,.5c-.11-.15-.32-.49-.22-.63v0a3.42,3.42,0,0,1-.2-1.51c0-.41-.18-.41-.4-.68s-.41-.73-.3-.91v0c-.14-.13.12-.32.15-.42v-.36a.05.05,0,0,0,0,0l.14-.17s0,.06,0,.13l.07,0a.12.12,0,0,0,.1,0l.06-.08v0s-.05-.06,0-.06a1.38,1.38,0,0,0,.27.11h0s.08,0,.1,0l-.05,0s0,0,.09.05.08.1.12.13l.16.12a.1.1,0,0,0,.07,0h.06a.08.08,0,0,0,.07,0h.06c-.06.07,0,0,.08.24l0,0a.55.55,0,0,0-.17.19v0a.17.17,0,0,0,.11.06.08.08,0,0,0,.07,0l.05,0h.07l.09,0s.06-.05.07-.05,0,.06.05.13a.11.11,0,0,0,.08,0,.14.14,0,0,0,.09,0l0,0a.37.37,0,0,1,.22.14Z"/><path class="cls-12" d="M384.85,22.21l-.2,0a1.45,1.45,0,0,1-.3,0A4.52,4.52,0,0,1,387.41,21h.35a4.44,4.44,0,0,1,1.73.5l-.57.06h-.35a.47.47,0,0,0-.16,0c-.19,0-.34.13-.54.17l.05,0a1.58,1.58,0,0,0,.47-.18c.06,0,0-.06,0-.06h-.05a.16.16,0,0,0-.1,0l-.75.07c-.07,0-.11.07,0,.08h0s0,0,0,0a.58.58,0,0,0-.16-.05h0a.58.58,0,0,0-.18.08l0,0a.09.09,0,0,0,.08,0h.09a.39.39,0,0,0,.2-.06h0c-.05,0-.14.06-.06.08h-.08s-.18,0-.12.06l.1.05h-.06a.47.47,0,0,0-.16,0,.15.15,0,0,0-.16.11s0,0,.07,0H387a.27.27,0,0,0-.12,0,.05.05,0,0,0,0,0h-.21l-.06,0a.39.39,0,0,0-.23.07s-.15,0-.12.06.08.09.17.09h0l-.07,0s0,0,0,0l-.09,0v0l-.06-.05,0-.11s-.05-.05-.07-.05l-.1,0L386,22a.2.2,0,0,0-.1,0h-.06s0,0,0-.05a1,1,0,0,0-.24,0h-.07a1.64,1.64,0,0,0-.29.16l0,0,.05.05s0,0,.07,0h.06l.11,0v0s0,0,0,0-.13,0-.08.06l0,0c-.22,0-.49-.09-.59-.09Z"/><rect class="cls-6" x="389.79" y="22.62" transform="translate(98.18 282.25) rotate(-45)"/><path class="cls-6" d="M389.91,22.47a.21.21,0,0,1,.16.07l0,0a.44.44,0,0,1-.18.09.19.19,0,0,1-.13.06.26.26,0,0,1-.16-.07c-.05,0-.1,0-.07-.05v0l0,0a.8.8,0,0,1,.21-.05h0Zm0,.09h-.17l0,0,.06,0,0,0,0,0h0m-.1.06h0m.1-.07h0"/><polygon class="cls-6" points="389.8 22.61 389.79 22.62 389.79 22.62 389.8 22.61"/><polygon class="cls-6" points="389.79 22.62 389.79 22.62 389.79 22.62 389.79 22.62"/><path class="cls-6" d="M390,21.77h0a.59.59,0,0,1-.34.27l.12.09a0,0,0,0,1,0,.06l-.07,0,0,0s0,.05-.06.05l-.39.08h-.05a.79.79,0,0,1-.15.12c-.09,0-.2,0-.28.1s-.09.2-.18.28a.3.3,0,0,1-.45-.12.47.47,0,0,1,0-.33s.26-.28.15-.28-.08,0-.07-.05c.08-.25-.31-.21-.43-.25l0,0v-.05s0,0,0,0l.06,0c.2,0,.35-.12.54-.17a.47.47,0,0,1,.16,0h.35l.57-.06h0s0,0,0,0h.05l.08,0h0a1.22,1.22,0,0,1,.38.22v0S390,21.73,390,21.77Zm-.33.18c.05,0,.17-.12.13-.2v0s-.13-.19-.17-.2h0s-.09,0-.13,0-.05,0-.07,0h-.08a3.08,3.08,0,0,1-.6,0h-.16c-.18,0-.35.14-.55.16h0v0h.22a.26.26,0,0,1,.19.15.23.23,0,0,1,0,.14s0,0,0,0c.06.14.18.1.05.3s-.12.1-.11.24,0,.12.06.21l0,.05s0,0,0,0,.11-.27.31-.35a3,3,0,0,1,.49-.2h.07l.1,0-.05,0v0l0,0h0v0a.18.18,0,0,1,.07-.05h0v0a.09.09,0,0,1,.09,0h0a.11.11,0,0,0,.07,0h0l0,0m-.16.27h0"/><path class="cls-13" d="M389.48,22.08a.18.18,0,0,0-.07.05v0h0l0,0v0l.05,0-.1,0h-.07a3,3,0,0,0-.49.2c-.2.08-.18.22-.31.35s0,0,0,0l0-.05c-.07-.09-.05-.1-.06-.21s0-.14.11-.24,0-.16-.05-.3c0,0,0,0,0,0a.23.23,0,0,0,0-.14.26.26,0,0,0-.19-.15H388v0h0c.2,0,.37-.16.55-.16h.16a3.08,3.08,0,0,0,.6,0h.08s0,0,.07,0,.09,0,.13,0h0s.2.18.17.2v0c0,.08-.08.16-.13.2l0,0h0a.11.11,0,0,1-.07,0h0a.09.09,0,0,0-.09,0v0Z"/><path class="cls-6" d="M389.8,22.57h.08l0,0,0,0-.06,0,0,0h.08Z"/><polygon class="cls-6" points="389.89 22.55 389.88 22.55 389.88 22.55 389.89 22.55"/><polygon class="cls-6" points="390.21 23.31 390.2 23.31 390.19 23.31 390.21 23.31"/><path class="cls-6" d="M390.35,23.35s0,0,0,0v0h0l0,.05v0s0,0,0,0l-.1,0-.06,0H390a0,0,0,0,1,0,0c0-.07,0-.12,0-.16v0a.31.31,0,0,1,.21-.11h0v0h0l0,0,.05,0h0Zm-.15,0h0"/><path class="cls-12" d="M390.35,23.4v0s0,0,0,0h0a.07.07,0,0,1,0,.06Z"/><path class="cls-6" d="M390.37,23.65h-.08v0s0,0,0,0h0S390.32,23.65,390.37,23.65Z"/><polygon class="cls-6" points="390.38 23.65 390.38 23.65 390.38 23.65 390.38 23.65"/><polygon class="cls-6" points="390.39 23.65 390.38 23.65 390.38 23.65 390.38 23.65 390.39 23.65"/><polygon class="cls-6" points="390.39 23.65 390.39 23.65 390.38 23.65 390.39 23.65"/><path class="cls-6" d="M390.39,23.65h0s-.05,0-.08,0h0c-.06,0-.1-.05,0-.07l.05,0,0,0h0s0,0,0,0v0h.1Z"/><path class="cls-6" d="M390.51,23.53a.05.05,0,0,0-.05,0s0,0,0,0h0l0,0s0,0,0,0Z"/><path class="cls-12" d="M390.78,24.2Z"/><path class="cls-6" d="M391.33,24.54h0v0s0,0,.06,0h.07v.06s0,0-.07,0h-.1l-.12-.07s0-.05,0-.06Z"/><path class="cls-11" d="M390.81,24.19h0Z"/><path class="cls-6" d="M391.05,24.18s.06.08.09.13H391s-.05,0-.05-.08l0,0h0Z"/><path class="cls-6" d="M391.22,24.27s.06,0,.07,0l0,0h-.05l-.06,0Z"/><path class="cls-12" d="M391.32,24.09a.41.41,0,0,1,.16.16C391.41,24.19,391.34,24.14,391.32,24.09Z"/><path class="cls-13" d="M390.18,24.26v0l-.09,0s0,0,0,0l.11,0,.18,0a.18.18,0,0,0,.17-.1.26.26,0,0,0-.07-.31h0a.05.05,0,0,0,.05,0h.07c.12-.06.2-.2.3-.28h0a.14.14,0,0,0,.09,0,.34.34,0,0,1,.06-.06h.06s.14,0,.08,0h.18c.08.15.16.29.23.44s.07.18.12.26.12.17.14.21h0a.09.09,0,0,0,0,0l-.08,0a.53.53,0,0,0-.08-.17.83.83,0,0,0-.26-.19v0l-.07-.06h-.06l-.08,0-.12.07h0a.15.15,0,0,0-.09,0h0c-.05,0-.1,0-.11,0l0,0a.3.3,0,0,0-.21.09v0s-.14.21-.18.26-.06.08-.15.13h0a.17.17,0,0,1-.06-.06.08.08,0,0,0-.07,0,1.78,1.78,0,0,1,0-.26Z"/><path class="cls-6" d="M392.05,24.32s0,.05-.06.06h0v0a.08.08,0,0,1-.07,0l-.09,0h0c.06,0,.12,0,.14.12a.21.21,0,0,1,0,.13s-.06,0-.1,0l-.08,0-.07-.11s.05,0,.09,0a.2.2,0,0,1-.17-.1h0s0,0,0,0a.47.47,0,0,1,0,.1h-.11s-.06,0-.06,0v0c0-.12-.06-.15-.12-.19h0l-.07,0v0s-.08-.09-.09-.13l-.06,0h-.19s0,0,0,0v0s-.1.07-.13.11a.05.05,0,0,0,0,0,.42.42,0,0,0,0,.1.05.05,0,0,1,0,0c-.08.14-.24.1-.3.16l0,0h-.13l-.08-.05h0l-.06,0,0,0v0l0-.32,0,0,0,0c0-.13.1-.12.21-.12h.09l.08,0h0v-.06c0-.14,0-.19-.12-.24l0,0c0-.07.05,0,.08-.08h.08l.06,0,.07,0,.06-.05.15-.14a.4.4,0,0,1,.15-.1h0l.05,0,0,0h0a.16.16,0,0,0,.13,0h.12c.07,0,.07,0,.06.05a.1.1,0,0,1,.06,0h.09s.05,0,.06,0A7.13,7.13,0,0,1,392.05,24.32Zm-.15,0h0s-.11-.15-.14-.21-.08-.18-.12-.26-.15-.29-.23-.44h-.18c.06,0,0,0-.08,0h-.06a.34.34,0,0,0-.06.06.14.14,0,0,1-.09,0h0c-.1.08-.18.22-.3.28h-.07a.05.05,0,0,1-.05,0h0a.26.26,0,0,1,.07.31.18.18,0,0,1-.17.1l-.18,0-.11,0s0,0,0,0l.09,0v0l0,0a1.78,1.78,0,0,0,0,.26.08.08,0,0,1,.07,0,.17.17,0,0,0,.06.06h0c.09-.05.09,0,.15-.13s.17-.26.18-.26v0a.3.3,0,0,1,.21-.09l0,0s.06,0,.11,0h0a.15.15,0,0,1,.09,0h0l.12-.07.08,0h.06l.07.06v0a.83.83,0,0,1,.26.19.53.53,0,0,1,.08.17l.08,0a.09.09,0,0,1,0,0m-.58-.21c0,.05.09.1.16.16a.41.41,0,0,0-.16-.16m0,.16h.05l0,0s0,0-.07,0h0l.06,0m0-.25-.08,0h0l0,0m-.51.19h0m0,0h0"/><path class="cls-6" d="M391.91,24.73h0l.16,0h0s.08,0,0,.06H392l-.13,0C391.75,24.78,391.86,24.73,391.91,24.73Z"/><path class="cls-12" d="M392.12,24.82a1.82,1.82,0,0,1,.07.25,1.46,1.46,0,0,0-.36-.11.3.3,0,0,0-.19.07s0,.06,0,.08l0,0c-.1-.05-.38-.22-.34-.33v0l0-.07v0a.26.26,0,0,0-.19-.07.86.86,0,0,0-.34.09,1.15,1.15,0,0,1-.32.08.15.15,0,0,1-.09,0h0l0,0c.06-.06.22,0,.3-.16a.05.05,0,0,0,0,0h.09l.08,0,0-.06-.07,0h-.08a.05.05,0,0,1,0,0s.1-.07.13-.11v0s0,0,0,0H391l0,0c0,.05,0,.07.05.08l0,0,0,0v0l0,.1s0,0,.07,0a.15.15,0,0,0,.1,0s0,0,0,0a.43.43,0,0,0,0-.12h0v0l.07,0h0c.06,0,.13.07.12.19h-.14s-.06,0,0,.06l.12.07h0s-.07,0-.08,0v.05h0a.15.15,0,0,0,.12.05.12.12,0,0,0,.1-.05c0-.05,0-.08,0-.1s.07,0,.07,0v-.06h0a.47.47,0,0,0,0-.1s0,0,0,0h0a.19.19,0,0,0,.16.1s-.1,0-.08,0l.07.11.08,0s.09,0,.1,0a.21.21,0,0,0,0-.13c0-.13-.08-.08-.14-.12l.09,0a.08.08,0,0,0,.07,0,2.3,2.3,0,0,1,.12.34h0l-.16,0h0c-.05,0-.16.05-.05.08l.13,0h.13Z"/><path class="cls-6" d="M390.74,24.39l.07,0,0,.06-.08,0h-.09a.42.42,0,0,1,0-.1h.08Z"/><path class="cls-6" d="M391,22.93v0s0,0,0-.09h0l.1.14,0,0L391,23a.09.09,0,0,1,0-.06Z"/><path class="cls-6" d="M391,24.31h.14a.43.43,0,0,1,0,.12s0,0,0,0h0a.15.15,0,0,1-.1,0s-.07,0-.07,0l0-.1v0l0,0Z"/><path class="cls-6" d="M391.13,23.08s.07,0,.07,0a.51.51,0,0,0,0,.13,0,0,0,0,0,0,0h0s0,0,0,0h0a.16.16,0,0,1-.13,0h0l0,0,0,0c0-.12,0-.12.07-.21a.13.13,0,0,1,.08,0Z"/><path class="cls-11" d="M391.22,24.27Z"/><path class="cls-6" d="M391.18,23.24h0l.09,0h0v0h-.1s0,0,0,0h0A0,0,0,0,1,391.18,23.24Z"/><path class="cls-12" d="M391.35,23.35s0,0-.06-.05h0v0a.2.2,0,0,0,.11,0l0,.06h0A.1.1,0,0,0,391.35,23.35Z"/><path class="cls-6" d="M392.65,26.46c-.12,3.33-2.2,5.95-5.21,6h-.05a5.72,5.72,0,0,1-5.4-5.91A6.21,6.21,0,0,1,383.1,23h.12c.12,0,.14,0,.21,0h.09a.41.41,0,0,1,.11.07,5.93,5.93,0,0,0-1.11,3.47A5.42,5.42,0,0,0,387.17,32l.35,0a4.6,4.6,0,0,0,3.92-2.31c.06,0,.1,0,.12,0a6.41,6.41,0,0,0,.72-4.57s0,0-.06,0a1.63,1.63,0,0,1-.1-.25c.06,0,0-.06,0-.07a2.3,2.3,0,0,0-.12-.34s.08-.05.07-.09a7.13,7.13,0,0,0-.49-1s0,0-.06,0h-.06l0-.06.06,0a2.71,2.71,0,0,0-.33-.5.09.09,0,0,0-.07,0H391a5.38,5.38,0,0,0-1-.91c0-.05,0-.05,0-.08v0a1.22,1.22,0,0,0-.38-.22l-.09,0h-.05a4.61,4.61,0,0,0-1.73-.49h-.35a4.52,4.52,0,0,0-3.06,1.23l-.43-.05-.14,0a5,5,0,0,1,3.67-1.44C390.48,20.73,392.53,23.2,392.65,26.46Z"/><path class="cls-6" d="M391.13,22.71a5.66,5.66,0,0,1,.34.47v0l-.06,0a.2.2,0,0,1-.11,0h0l-.09,0h0a.51.51,0,0,1,0-.13s0,0-.07,0h0v0l-.12,0h0a.17.17,0,0,1-.15-.15s0,0,0,0h0l0,0,0-.07a.26.26,0,0,1,.16-.11h.07A.09.09,0,0,1,391.13,22.71Zm-.06.25,0,0-.1-.14h0s0,0,0,.09v0h0a.09.09,0,0,0,0,.06l.05,0"/><path class="cls-6" d="M391.33,24.68h.09c.05,0,.08,0,0,.1a.12.12,0,0,1-.1.05.15.15,0,0,1-.12-.05h0v-.05S391.3,24.68,391.33,24.68Z"/><polygon class="cls-6" points="391.82 24.42 391.82 24.42 391.81 24.41 391.82 24.42"/><path class="cls-13" d="M392.11,25.14a6.46,6.46,0,0,1-.62,4.35,2.33,2.33,0,0,0-.11-.47c0-.07-.06-.09-.09-.09l.06-.05v0c-.08-.1.12-.5,0-.76s-.2-.32-.25-.49,0-.33,0-.49a.06.06,0,0,0-.06,0l-.09,0a.1.1,0,0,0-.06-.07l-.12-.06c0-.06,0-.13,0-.17l-.08,0s-.09,0-.09,0a.46.46,0,0,0,0,.1s-.05,0-.05,0v0a.05.05,0,0,0,0,0c-.05.06-.05.08-.05.08v0a.09.09,0,0,0-.07,0,.15.15,0,0,0-.1,0h-.08a.62.62,0,0,1-.38-.31l-.17-.18h0v0h0l0,0a.15.15,0,0,1,0-.23v0s0-.15,0-.38a3.68,3.68,0,0,0,.12-.39s.12,0,.15-.08.12-.19.17-.26.19-.26.17-.29l.07,0,.09,0h0c.1,0,.18-.1.28-.12a.66.66,0,0,1,.21,0H391v0a.11.11,0,0,1,0,.11v0c.16.19.37.2.54.34l.06,0a.24.24,0,0,0,.1,0c.06-.05.11-.19.14-.19s0,0,0,.06l.05,0Z"/><path class="cls-6" d="M392.28,25.11a6.41,6.41,0,0,1-.72,4.57.12.12,0,0,1-.1,0h0l-.06,0c-.08-.1,0-.29-.08-.42s-.15-.26-.15-.39,0,0,0,0h0c.05-.34.17-.57,0-.9a3.9,3.9,0,0,1-.19-.35c0-.14,0-.26,0-.41h-.12s-.06,0-.06,0-.09-.06,0-.15l-.07,0a.05.05,0,0,1,0,0l-.07,0a.57.57,0,0,1-.19.08h-.07a.08.08,0,0,1-.07,0h-.11l-.08,0H390a.27.27,0,0,1-.18-.07,2.37,2.37,0,0,1-.36-.49,0,0,0,0,1,0,0h0s0,0,0,0-.13-.25.09-.25c0,0-.08,0-.07,0s-.06-.33.05-.33l-.06,0,.06-.06c-.12,0,.26-.42.27-.43s.25-.44.36-.62l0,0h.12a.15.15,0,0,0,.09,0,1.15,1.15,0,0,0,.32-.08.86.86,0,0,1,.34-.09.26.26,0,0,1,.19.07v0l0,.07v0c0,.11.24.28.34.33l0,0s0-.05,0-.08a.3.3,0,0,1,.19-.07,1.46,1.46,0,0,1,.36.11h0S392.28,25.09,392.28,25.11Zm-.79,4.38a6.46,6.46,0,0,0,.62-4.35l-.18,0-.05,0s0-.06,0-.06-.08.14-.14.19a.24.24,0,0,1-.1,0l-.06,0c-.17-.14-.38-.15-.54-.34v0a.11.11,0,0,0,0-.11v0h-.15a.66.66,0,0,0-.21,0c-.1,0-.18.1-.28.12h0l-.09,0-.07,0s-.12.22-.17.29-.11.18-.17.26-.13.05-.15.08a3.68,3.68,0,0,1-.12.39s0,0-.07,0l.06,0-.05,0,.06,0c0,.23,0,.34,0,.38v0a.15.15,0,0,0,0,.23l0,0h0v0h0l.17.18a.62.62,0,0,0,.38.31h.08a.15.15,0,0,1,.1,0,.09.09,0,0,1,.07,0v0s0,0,.05-.08a.05.05,0,0,1,0,0v0s0,0,.05,0a.46.46,0,0,1,0-.1s.05,0,.09,0l.08,0s0,.11,0,.17l.12.06a.1.1,0,0,1,.06.07l.09,0a.06.06,0,0,1,.06,0c.09.16,0,.33,0,.49s.19.31.25.49-.13.66,0,.76v0l-.06.05s.06,0,.09.09a2.33,2.33,0,0,1,.11.47"/></g><path class="cls-14" d="M387.73,32.08a5.68,5.68,0,0,1-4.16-1.47c-.25-.27-.59-.71-.32-1s.67.44.92.71c.83.89,4,1,6.39-.26.33-.17.69-.2.87.13s-1.08,1.31-1.41,1.48C388.93,32.28,388.88,32.08,387.73,32.08Z"/><path class="cls-6" d="M374.12,33.25h-.63v2.59q0,.33.12.42a.61.61,0,0,0,.4.09v.38h-.14c-.5,0-.76-.3-.76-.89V33.25h-.54V33h.54V31.78h.38V33h.63Z"/><path class="cls-6" d="M378,36.73h-.38V34.61a1.58,1.58,0,0,0-.23-1,1,1,0,0,0-.89-.37,1.16,1.16,0,0,0-.72.24.8.8,0,0,0-.35.65v2.56H375V31.22h.37v2.15a1.31,1.31,0,0,1,1.07-.46c1,0,1.5.56,1.5,1.7Z"/><path class="cls-6" d="M381.86,34.63v.31H379.2c0,1,.44,1.48,1.29,1.48a1.14,1.14,0,0,0,1-.42l.3.24a1.52,1.52,0,0,1-1.27.56c-1.13,0-1.69-.65-1.69-1.94s.54-2,1.61-2a1.32,1.32,0,0,1,1.12.51A2,2,0,0,1,381.86,34.63Zm-.39-.07c0-.85-.37-1.28-1.06-1.28s-1.15.43-1.21,1.28Z"/><path class="cls-15" d="M418,28c2.8,0,4.15,1.41,5.32,2.58a50.14,50.14,0,0,1,4.78,6.87c1.36,2.22,3.21,3.78,5.36,3.56a4.48,4.48,0,0,0,3.67-3.09c.77-1.77,2-5.24,3.62-8.62,1.71-3.66,5-5.55,7.82-5.37,2.58.16,4.58,2,5.83,4.9a30.47,30.47,0,0,1,2.29,10.32,37.58,37.58,0,0,1-.36,8.62,14.22,14.22,0,0,1-.45,2.1c-.49,1.48-1.72,2.71-3.25,2.49s-2-1.48-2.08-2.76a17,17,0,0,1,.13-2.4,49.24,49.24,0,0,0,.39-5.75c0-2.24-.4-3.76-2-4.26s-3.67,1.22-5.16,4.52a82.87,82.87,0,0,0-3.29,9.4c-1.57,5-4.64,6.58-8.81,6.76a8.74,8.74,0,0,1-8-4.61c-1.53-2.55-3.4-5.89-4.49-7.78-.91-1.58-1.87-2.84-3-2.59-.69.15-1.72.49-1.61,3.1a33.14,33.14,0,0,0,1.7,7,24.35,24.35,0,0,1,.77,3c.29,1.88-.51,2.7-1.2,3a2.65,2.65,0,0,1-3.06-.76,7.67,7.67,0,0,1-1-1.67,42.07,42.07,0,0,1-2.55-8.89,26.14,26.14,0,0,1,.43-10.9c1.87-7.62,6-8.72,8.17-8.75m47.73,5.16h1.59V30.17h2.3V29h-2.3v-1.7h2.91l.12-1.16h-4.62Zm6.7.14a3.24,3.24,0,0,0,1.68-.48l0,.34h1.27v-5h-1.46v3.79A3.61,3.61,0,0,1,473,32a.93.93,0,0,1-.64-.17.73.73,0,0,1-.15-.53V28.1h-1.47v3.44a1.75,1.75,0,0,0,.43,1.33A1.81,1.81,0,0,0,472.38,33.26Zm4.2-.14h1.47V29.34a3.32,3.32,0,0,1,.95-.16.93.93,0,0,1,.64.16.66.66,0,0,1,.15.5v3.28h1.47V29.67a1.71,1.71,0,0,0-.43-1.32,1.76,1.76,0,0,0-1.21-.39,3.21,3.21,0,0,0-1.73.5l0-.36h-1.27Zm7.5.15a2.87,2.87,0,0,0,1.59-.51l0,.36H487V25.79H485.5v2.53a2.74,2.74,0,0,0-1.33-.36c-1.2,0-2,1-2,2.66a3.06,3.06,0,0,0,.7,2.22A1.74,1.74,0,0,0,484.08,33.27Zm.55-1.15c-.66,0-.91-.34-.91-1.46s.4-1.55,1.09-1.55a2.64,2.64,0,0,1,.69.12v2.71A2.51,2.51,0,0,1,484.63,32.12Zm5,1.15a2.91,2.91,0,0,0,1.51-.45l.12.3h1.16V29.86a2,2,0,0,0-.39-1.33,2.37,2.37,0,0,0-1.8-.57,9.75,9.75,0,0,0-1.78.18l.07,1.08a7.2,7.2,0,0,1,1.4-.14,1.22,1.22,0,0,1,.85.21.69.69,0,0,1,.19.56V30h-.8a2.58,2.58,0,0,0-1.85.46,1.53,1.53,0,0,0-.44,1.14A1.58,1.58,0,0,0,489.63,33.27Zm.42-1.12c-.53,0-.71-.23-.71-.6a.61.61,0,0,1,.14-.42,1,1,0,0,1,.7-.17H491v1A3.33,3.33,0,0,1,490.05,32.15Zm6,1.12a5.82,5.82,0,0,0,1.42-.17l-.11-1.05a6.12,6.12,0,0,1-1,.1c-1.06,0-1.48-.5-1.48-1.54a1.7,1.7,0,0,1,.34-1.17,1.41,1.41,0,0,1,1-.36,4.41,4.41,0,0,1,1.16.15l.09-1.09A5.87,5.87,0,0,0,496,28a2.73,2.73,0,0,0-2,.74,2.9,2.9,0,0,0-.64,2,2.82,2.82,0,0,0,.41,1.54A2.61,2.61,0,0,0,496.09,33.27Zm3-6h.07c.5,0,.77-.2.77-.7v-.13c0-.5-.27-.71-.77-.71h-.07c-.51,0-.77.21-.77.71v.13C498.29,27.06,498.55,27.26,499.06,27.26Zm-.7,5.86h1.46v-5h-1.46Zm5,.15a2.35,2.35,0,0,0,2.55-2.66,2.55,2.55,0,1,0-5.1,0A2.35,2.35,0,0,0,503.36,33.27Zm-.79-5.88,2.08-1.4-.71-1-1.88,1.75Zm.79,4.76c-.74,0-1-.5-1-1.54s.28-1.54,1-1.54,1,.51,1,1.54S504.1,32.15,503.36,32.15Zm3.51,1h1.46V29.34a3.33,3.33,0,0,1,1-.16.9.9,0,0,1,.63.16.63.63,0,0,1,.16.5v3.28h1.46V29.67a1.71,1.71,0,0,0-.43-1.32A1.75,1.75,0,0,0,509.9,28a3.23,3.23,0,0,0-1.73.5l0-.36h-1.27Zm-39.64,12h1.6V39.24H471l.12-1.16h-6v1.16h2.17Zm6.55.15a8.53,8.53,0,0,0,1.7-.18L475.36,44a7.77,7.77,0,0,1-1.25.12c-1,0-1.5-.24-1.55-1.09h3.09c.08,0,.12,0,.12-.11v-.46c0-1.74-.8-2.53-2.3-2.53s-2.44.9-2.44,2.66a2.68,2.68,0,0,0,.67,2A3,3,0,0,0,473.78,45.24Zm-1.22-3.16c0-.65.3-1,.9-1s.88.41.88,1Zm4.12,3h1.46V37.76h-1.46Zm5.17.15a8.34,8.34,0,0,0,1.69-.18L483.43,44a7.77,7.77,0,0,1-1.25.12c-1,0-1.51-.24-1.55-1.09h3.09c.08,0,.12,0,.12-.11v-.46c0-1.74-.8-2.53-2.3-2.53s-2.45.9-2.45,2.66a2.68,2.68,0,0,0,.68,2A3,3,0,0,0,481.85,45.24Zm-1.22-3.16c0-.65.3-1,.9-1s.88.41.88,1Zm4.47,3h1.47V41h1.19v-1h-1.19v-.6c0-.36.05-.51.14-.6a1,1,0,0,1,.69-.18,5.36,5.36,0,0,1,.69.06v-1a5.32,5.32,0,0,0-1.07-.11,2.08,2.08,0,0,0-1.5.46,1.82,1.82,0,0,0-.42,1.33v.7l-.86.15V41h.86Zm5.54.15a2.35,2.35,0,0,0,2.55-2.66,2.55,2.55,0,1,0-5.1,0A2.35,2.35,0,0,0,490.64,45.24Zm-.79-5.88,2.08-1.4-.72-1-1.87,1.75Zm.79,4.76c-.74,0-1-.5-1-1.54s.29-1.54,1-1.54,1,.51,1,1.54S491.38,44.12,490.64,44.12Zm3.47,1h1.47V41.31a3.32,3.32,0,0,1,.95-.16.93.93,0,0,1,.64.16.66.66,0,0,1,.15.5v3.28h1.47V41.64a1.71,1.71,0,0,0-.43-1.32,1.76,1.76,0,0,0-1.21-.39,3.23,3.23,0,0,0-1.73.5l0-.36h-1.28Zm6.56-5.86h.07c.5,0,.77-.2.77-.7V38.4c0-.5-.27-.71-.77-.71h-.07c-.51,0-.77.21-.77.71v.13C499.9,39,500.16,39.23,500.67,39.23Zm-.7,5.86h1.46v-5H500Zm5.17.15a5.34,5.34,0,0,0,1.41-.17l-.11-1a6.12,6.12,0,0,1-1.05.1c-1.05,0-1.47-.5-1.47-1.54a1.7,1.7,0,0,1,.33-1.17,1.41,1.41,0,0,1,1-.36,4.88,4.88,0,0,1,1.16.15l.09-1.09a5.87,5.87,0,0,0-1.48-.18,2.69,2.69,0,0,0-2,.75,2.86,2.86,0,0,0-.64,2,2.82,2.82,0,0,0,.41,1.54A2.62,2.62,0,0,0,505.14,45.24Zm3.66,0a2.9,2.9,0,0,0,1.5-.45l.13.3h1.15V41.83a2,2,0,0,0-.39-1.33,2.35,2.35,0,0,0-1.8-.57,9.84,9.84,0,0,0-1.78.18l.07,1.08a8.07,8.07,0,0,1,1.4-.14,1.28,1.28,0,0,1,.85.21.69.69,0,0,1,.19.56V42h-.8a2.6,2.6,0,0,0-1.85.46,1.6,1.6,0,0,0-.44,1.14A1.58,1.58,0,0,0,508.8,45.24Zm.42-1.12c-.54,0-.72-.23-.72-.59a.62.62,0,0,1,.14-.43,1,1,0,0,1,.7-.17h.78v1A3.76,3.76,0,0,1,509.22,44.12Zm-43.4,13.56h1.61V52.8l1.79,3h1.47l1.73-2.92v4.83h1.76V49.3h-1.47L470,54l-2.64-4.68h-1.51Zm12.47.17c2.08,0,3-1.25,3-3.17s-1-3.17-3-3.17-3.05,1.25-3.05,3.17S476.21,57.85,478.29,57.85Zm0-1.33c-.88,0-1.22-.6-1.22-1.84s.34-1.84,1.22-1.84,1.23.6,1.23,1.84S479.17,56.52,478.29,56.52Zm5.47,1.16h2l2.07-6h-1.75l-1.28,4.16-1.33-4.16h-1.89Zm5.57-7h.08c.6,0,.92-.23.92-.83v-.16c0-.6-.32-.84-.92-.84h-.08c-.6,0-.92.24-.92.84v.16C488.41,50.44,488.73,50.67,489.33,50.67Zm-.84,7h1.75v-6h-1.75Zm4.94.17c1.8,0,2.7-.72,2.7-2,0-2.49-3.28-1.52-3.28-2.54,0-.34.35-.49,1-.49a7.87,7.87,0,0,1,1.85.27l.13-1.28a6.53,6.53,0,0,0-2-.33c-1.8,0-2.61.82-2.61,1.93,0,2.49,3.27,1.45,3.27,2.51,0,.43-.42.55-1.08.55a7.16,7.16,0,0,1-1.93-.28l-.14,1.3A7.47,7.47,0,0,0,493.43,57.85Zm5.95,0a7.62,7.62,0,0,0,1.53-.15l-.06-1.23c-.21,0-.6.07-.85.07-.71,0-.84-.25-.84-.92v-2.8h1.56V51.68h-1.56V50.09a6.38,6.38,0,0,0-1.75.25v1.34l-1,.18v1h1v3C497.41,57.19,497.89,57.85,499.38,57.85Zm4,0a3.4,3.4,0,0,0,1.8-.54l.15.37h1.38v-3.9a2.39,2.39,0,0,0-.46-1.59,2.85,2.85,0,0,0-2.16-.68,10.88,10.88,0,0,0-2.13.22l.08,1.28a10.2,10.2,0,0,1,1.68-.16,1.49,1.49,0,0,1,1,.25.83.83,0,0,1,.22.67V54h-1a3.05,3.05,0,0,0-2.2.55,2,2,0,0,0,1.58,3.33Zm.5-1.33c-.64,0-.86-.27-.86-.71a.7.7,0,0,1,.18-.51c.15-.16.41-.21.83-.21H505v1.24A4.14,4.14,0,0,1,503.91,56.52Zm4,1.16h1.76V53.17a5.31,5.31,0,0,1,1.2-.15c.28,0,.57,0,.77,0V51.54l-.31,0a3,3,0,0,0-1.84.65l-.06-.49H507.9Z"/><path class="cls-16" d="M545.33,17.15c1.33-.84,4.5-1,4.59-1.1A28.17,28.17,0,0,1,554,16a19.93,19.93,0,0,1,3.69,1c.76.28-1.79,0-2.55,0h-1c-1.94.15-3.91-.34-5.81.41C547.33,17.46,546.28,18.13,545.33,17.15Z"/><path class="cls-17" d="M549.68,40c2.27,3.78,7.52,2.93,8.94-1.86a3.48,3.48,0,0,1,.24-.52A28.79,28.79,0,0,1,565,35.53a1.35,1.35,0,0,1,1.1.18c.81,1,0,2.14.21,3.2a1.89,1.89,0,0,1,0,.67c-.22.58-.62,1.07-.85,1.65a9.58,9.58,0,0,1-1.15,1.92A11.11,11.11,0,0,1,562,45.62c-2,1.29-4,2.55-6.54,2.48h-.88a6.06,6.06,0,0,1-2.53-.66,10.51,10.51,0,0,1-1.84-1,5.65,5.65,0,0,1-1.65-1.58,3.83,3.83,0,0,1-.69-1.15c-.26-1.35-1.16-2.68-.1-4.07.59.17.42.6.28,1.09C548.54,40.27,548.88,39.53,549.68,40Z"/><path class="cls-18" d="M531.22,31a20.25,20.25,0,0,1,7.48-10.34,4,4,0,0,1,4.48,2.23c-.47,2.3-2.25,3.72-3.52,5.47-.68.94-1.46,1.82-2.23,2.7a3.6,3.6,0,0,0-.88,3.93l-1.32,3.51c-.7.35-1-.21-1.18-.68a24.16,24.16,0,0,0-2.83-6.4A.48.48,0,0,1,531.22,31Z"/><path class="cls-19" d="M531.22,31a14.87,14.87,0,0,1,2.93,6.12c.12.61.3,1.27,1.08,1.38-.62,3.45-1.22,6.91-.56,10.43a17.07,17.07,0,0,0,2.1,5.64c.25.4.63.75.48,1.43a23.05,23.05,0,0,1-7.17-14.8c0-1.81,0-3.62,0-5.43A14.19,14.19,0,0,1,531.22,31Z"/><path class="cls-20" d="M536.55,35c-1-1-.86-2.56.41-4a54.81,54.81,0,0,0,6.09-7.94.56.56,0,0,1,.6-.14c1,.53,1.23,1.6,1.63,2.55a2.27,2.27,0,0,1-.79,2A16.48,16.48,0,0,0,536.55,35Z"/><path class="cls-21" d="M557.69,32.05l-2.27-2.74c-.1-.53.31-.7.64-.83,2-.75,4-1.45,6-2.05a2.2,2.2,0,0,1,1.27.06,4.12,4.12,0,0,1,1.51,3.15c-.95.7-2.15.59-3.2,1C560.32,31.19,559,31.51,557.69,32.05Z"/><path class="cls-22" d="M562.29,19a19.26,19.26,0,0,1,6.38,5c-.08,1.71.39,3.37.37,5.06,0,.65.12,1.42-.73,1.7-.7,0-.85-.55-1-1.05a53.27,53.27,0,0,0-4.59-9.19C562.43,20,562,19.58,562.29,19Z"/><path class="cls-23" d="M557.69,32.05a1.06,1.06,0,0,1,.7-.7c2.09-.57,4-1.63,6.25-1.77,1.17.65,1.11,1.79,1.1,2.92-.45.86-1.36.58-2,.82a18.88,18.88,0,0,1-4.83,1.36Z"/><path class="cls-24" d="M558.86,34.68a30.25,30.25,0,0,1,6.66-2.14c1,.51.54,1.61.88,2.4a1,1,0,0,1-.38.89,19.6,19.6,0,0,0-5.09,1.33,5.11,5.11,0,0,1-2.07.45Z"/><path class="cls-25" d="M544.49,27.47c-.14-.78.76-1.24.58-2a8.83,8.83,0,0,1,4.06-2.37c2.7-1,5.49-1.68,8.14-2.82a1.09,1.09,0,0,1,.44,0c1.08.67,2.24,1.26,2.69,2.62-.31.6-.69.31-1.07.1-.44-.38-.85-.76-1.52-.5-2.85,1.08-5.78,1.89-8.64,3a3.52,3.52,0,0,0-2,1.27Z"/><path class="cls-26" d="M563.21,26.59a32.32,32.32,0,0,0-7.79,2.72l-2.31-1.45c-.37-.7.11-1,.59-1.23,2.29-.95,4.69-1.53,7-2.43a1.61,1.61,0,0,1,1.11.15A2.39,2.39,0,0,1,563.21,26.59Z"/><path class="cls-27" d="M561.77,24.48c-2.49.29-4.72,1.52-7.11,2.19-.62.17-1.5.16-1.55,1.19l-2.58-1c-.73-.23-1-.57-.26-1.15a2.76,2.76,0,0,1,.77-.38c2.66-.89,5.34-1.73,8-2.63a.76.76,0,0,1,.42,0c.28.07.53.47.85.07.49-.32.69.14,1,.38C561.5,23.61,561.84,24,561.77,24.48Z"/><path class="cls-28" d="M568.08,30.5c1.17-.91.48-2.13.43-3.2s-.63-2.29.16-3.38a7.76,7.76,0,0,1,1.62,2.1c.1.72.73,1.3.56,2.11.35,2.72-.16,5.43-.19,8.14a1.63,1.63,0,0,1-.66,1.4.62.62,0,0,1-.62-.32c-.54-1.88-.82-3.84-1.4-5.73A1.08,1.08,0,0,1,568.08,30.5Z"/><path class="cls-29" d="M559.45,22.77c-2.29,1.36-4.94,1.66-7.35,2.66-.53.21-1.06.4-1.6.58-1,.33-.08.59,0,.88l-3.36-.2c-.61-.48-.07-.63.23-.81a18,18,0,0,1,3.67-1.57c2.17-.71,4.38-1.31,6.49-2.17C558.54,21.74,559,21.91,559.45,22.77Z"/><path class="cls-30" d="M551.36,54.85a11.76,11.76,0,0,1-2.27-.93c-.44-.58-.11-1.12.06-1.67.73-1.7,1.82-3.26,2-5.21a.74.74,0,0,1,.6,0c.51.54,1.32.47,1.84,1,.33.94-.21,1.69-.52,2.49-.4,1-1.13,1.93-1.23,3.1a2.53,2.53,0,0,1-.26,1.09Z"/><path class="cls-31" d="M547.94,39.68c-.78,1.46.13,2.81.25,4.22a5.31,5.31,0,0,1-.6,4.17.64.64,0,0,1-.49-.47c-.34-1.47,0-3-.26-4.46-.07-1.25-.63-2.38-.8-3.61a7.66,7.66,0,0,0,.17-3.2,1.79,1.79,0,0,0-.87-1.39,2.33,2.33,0,0,1,1.25-.93.91.91,0,0,1,.86,0c.66,1.19.59,2.62,1.21,3.83A1.74,1.74,0,0,1,547.94,39.68Z"/><path class="cls-32" d="M543.63,49.18a11.07,11.07,0,0,1-.06-12.46l.17.16a2.08,2.08,0,0,1-.25,1.34,4.5,4.5,0,0,0-.11,3.83,15.71,15.71,0,0,1,.91,5.49C544.29,48.17,544.37,48.86,543.63,49.18Z"/><path class="cls-33" d="M543.57,36.72l.62-.66c.23-.07.37.06.49.23a10.76,10.76,0,0,0,1.1,2.1,2.26,2.26,0,0,1,.18.39c.12,1.19.84,2.23.83,3.45A45,45,0,0,1,545,49.11c-.07.27-.26.53-.63.34-.49-1-.1-2.05.06-3a20,20,0,0,0-.46-7.59,19.67,19.67,0,0,1-.3-2A.21.21,0,0,0,543.57,36.72Z"/><path class="cls-34" d="M543.63,49.18a11.93,11.93,0,0,0-.75-7.3,4.15,4.15,0,0,1,.43-4c1-.35.86.63,1,1a18,18,0,0,1,.5,5.22c-.14,1.75-.36,3.49-.42,5.25a.37.37,0,0,1-.34.39Z"/><path class="cls-35" d="M561,23.39l-.73-.55a18.08,18.08,0,0,0-2.55-2.4c.59-.53.91-.14,1.27.46a11.09,11.09,0,0,1-1.1-2c-.25-.86-.15-1.47.91-1.44.57.12,1.08.46,1.67.53a3,3,0,0,1,.72.38.33.33,0,0,1-.11.36c-.58.13-.6.44-.35.95a23.53,23.53,0,0,1,1.17,2.84.94.94,0,0,1-.17,1.09C561.45,23.9,561.29,23.44,561,23.39Z"/><path class="cls-36" d="M570.65,27.84c-.12-.61-.65-1.13-.36-1.82a4.25,4.25,0,0,1,1,1.39,36.9,36.9,0,0,1,2.62,10.08,14.61,14.61,0,0,1,0,3.1c-.1.83.12,1.75-.59,2.44-.86-.32-.7-1.12-.67-1.74a33.69,33.69,0,0,0-1.42-10.43C571.07,29.84,570.65,28.87,570.65,27.84Z"/><path class="cls-37" d="M561.2,18.58a.5.5,0,0,1,0-.21,3.81,3.81,0,0,1,1.07.6,74.43,74.43,0,0,1,5.79,11.53c.5,2.25,1.34,4.42,1.48,6.75.1.39.3.8-.25,1-.64-.52-.58-1.33-.7-2a38.3,38.3,0,0,0-2.8-9,43,43,0,0,0-3-5.83C562.37,20.41,561.5,19.66,561.2,18.58Z"/><path class="cls-38" d="M551.4,36.1l-1.29.65c-.26.06-.38.43-.7.35a1,1,0,0,1-.31-.27c-.44-1.08-1.31-2-1.44-3.19a4.16,4.16,0,0,1,2.87-.46c.08.28.37.12.52.27a1,1,0,0,1,.56,1c-.08.62.35.79.71,1C552.31,36.25,551.64,35.8,551.4,36.1Z"/><path class="cls-39" d="M566.38,53.08a15.56,15.56,0,0,1-15,1.77l.06-.07a1.93,1.93,0,0,1,1.65-.25,11.44,11.44,0,0,0,3.24.47,23.36,23.36,0,0,0,3.45-.09,3.39,3.39,0,0,1,.43-.11,7.38,7.38,0,0,0,1.85-.52c1.4-.29,2.51-1.43,4-1.47A.65.65,0,0,1,566.38,53.08Z"/><path class="cls-40" d="M544,49.78c.21-3.56.89-7.11.14-10.67-.1-.47-.1-1.15-.83-1.22.13-.36.27-.71.4-1.07a19,19,0,0,1,.95,11.07,8.59,8.59,0,0,0-.16,1.6,4.73,4.73,0,0,1,1.59,2,.57.57,0,0,1-.16.37A10.32,10.32,0,0,1,544,49.78Z"/><path class="cls-41" d="M573.58,40.61a37.67,37.67,0,0,0-2.05-11.77,3.17,3.17,0,0,1-.27-1.43,7.4,7.4,0,0,1,1.45,2.69,21.82,21.82,0,0,1,1.41,8.39C574.06,39.23,574.29,40,573.58,40.61Z"/><path class="cls-42" d="M544.51,36.36l-.32-.3a2.59,2.59,0,0,1,1.15-1.12c.93-.39,1.22,0,1.19,1,0,1.17.63,2.39-.27,3.49-.49-.09-.39-.61-.6-.9h0C545.18,37.84,544.93,37.05,544.51,36.36Z"/><path class="cls-43" d="M566.38,53.08,566,53a.59.59,0,0,1,0-.39,4,4,0,0,1,1-1A17.53,17.53,0,0,0,572,45.33a2.76,2.76,0,0,1,1-1.56c.24,0,.4.15.24.43A16.45,16.45,0,0,1,566.38,53.08Z"/><path class="cls-44" d="M551.4,36.1l.86-.54a1.33,1.33,0,0,1,.21-.26c.3-.6-.46-1.15-.08-1.75a5.16,5.16,0,0,1,2.93,4.62A3.61,3.61,0,0,0,551.4,36.1Z"/><path class="cls-45" d="M549.36,37l.75-.23a4.91,4.91,0,0,0-.43,3.24c-.67,0-1,.65-1.6.91-.27-.38-.06-.82-.14-1.22.19-.6.37-1.21.56-1.82C548.49,37.26,548.76,37,549.36,37Z"/><path class="cls-46" d="M573.87,38.54c.2-2.9-.56-5.66-1.16-8.44A16.47,16.47,0,0,1,574.18,40C573.73,39.61,574.18,39,573.87,38.54Z"/><path class="cls-47" d="M545.93,51.88v-.31a13.37,13.37,0,0,0,.8-2.93c0-.39,0-.94.64-.93a4,4,0,0,0,.29.29,1.06,1.06,0,0,1,.26,1c-.14.56-.25,1.12-.44,1.66-.33,1-.16,1.7.85,2.06.42-.05.52-.57.91-.65l.17.09c-.1.58-.21,1.16-.32,1.74A13.33,13.33,0,0,1,545.93,51.88Z"/><path class="cls-48" d="M560.5,18c-.59.17-1.08-.22-1.63-.28a18.9,18.9,0,0,1-3.43-.41c-.29-.11-.51-.25-.29-.62l2.28.14C558.45,17.23,559,17.3,560.5,18Z"/><path class="cls-49" d="M573.87,38.54c.44.42.12,1,.31,1.48a11.08,11.08,0,0,1-.9,4.18l-.24-.33c-.31-.39-.06-.64.2-.88a5.86,5.86,0,0,0,.34-2.38C574,40,573.76,39.22,573.87,38.54Z"/><path class="cls-50" d="M552.39,33.55a10.29,10.29,0,0,1,.71,1.81c.13.63-.27.19-.45.15-.91-.42-.72-1.85-1.82-2.08,0-.16-.39.08-.31-.25A2.43,2.43,0,0,1,552.39,33.55Z"/><path class="cls-51" d="M547.66,33.64a15.07,15.07,0,0,1,1.68,3c-.66.45-.8-.2-1-.54-.41-.64-.59-1.4-1-2l-.75-.09C546.83,33.52,547.28,33.7,547.66,33.64Z"/><path class="cls-52" d="M543.64,23.07h-.59c-1-1.74-2.67-2-4.35-2.4a18.07,18.07,0,0,1,6.63-3.52,8.81,8.81,0,0,0,2.76,0,8.56,8.56,0,0,1,3.49.24,4.69,4.69,0,0,1,2.44,1.2c0,.78-.67.72-1.1.91-2.14.92-4.4,1.52-6.57,2.4C545.43,22.24,544.71,23.07,543.64,23.07Z"/><path class="cls-48" d="M551.66,17.72l-3.57-.6c2-1.06,4.13-.65,6.22-.54a.33.33,0,0,1-.08.37C553.41,17.35,552.4,17,551.66,17.72Z"/><path class="cls-53" d="M554.32,16.76a1.09,1.09,0,0,1,0-.18l.84.1a.43.43,0,0,0,.28.45,5.16,5.16,0,0,1,2.13,2.23c.19.3.49.69-.14.89s-.92-.21-1.25-.61C555.89,18.45,554.57,18,554.32,16.76Z"/><path class="cls-54" d="M566,27a35.39,35.39,0,0,1,3.25,11.22,1.29,1.29,0,0,1,.13,1.42,7.93,7.93,0,0,0-2.68,3.86c-.25.75-.62,1.09-1,0a8,8,0,0,1,.34-4c0-.11,0-.21,0-.32,0-1.4.25-2.79.16-4.2,0-1.14-.32-2.23-.45-3.36s-.09-2.54-.17-3.82C565.58,27.51,565.44,27,566,27Z"/><path class="cls-55" d="M548.56,53.3c-2-.93-2-1.22-.91-4.11.32-1.27.52-2.55.74-3.84,0-.25,0-.63.4-.6l1.53,1.41c.06.47.65.63.65,1.14a1.77,1.77,0,0,1-.55,1.66.22.22,0,0,1-.24-.1l0,0C550.27,50.55,549,51.78,548.56,53.3Z"/><path class="cls-56" d="M566.07,38.81c0,1.42,0,3.57,0,5a6.79,6.79,0,0,1-.29,2.65,19.11,19.11,0,0,1-2.23,5.11c-.32.49-.57,1-1.16,1.27a.43.43,0,0,1-.39-.16c-.23-.74.3-1.2.61-1.72a17.35,17.35,0,0,0,2.53-7.44c0-.68,0-1.36,0-2a.75.75,0,0,1,.08-.44A5.68,5.68,0,0,0,566.07,38.81Z"/><path class="cls-57" d="M548.79,44.75a12,12,0,0,1-1.14,4.44c0-.4,0-.79,0-1.19.17-1.37.35-2.73.53-4.1Z"/><path class="cls-58" d="M555.4,47.86A13.64,13.64,0,0,0,562,45.25a1.85,1.85,0,0,0,.14.14,1.23,1.23,0,0,1-.58,1c-.22.15-.44.29-.65.45A15.91,15.91,0,0,1,558.53,48l-1.25.34C556.61,48.34,555.89,48.63,555.4,47.86Z"/><path class="cls-59" d="M555.4,47.86a6.4,6.4,0,0,0,2.05.1,2.08,2.08,0,0,1-1.06,2.44c-.17-.1-.34-.27-.29-.46.34-1.28-.44-1.35-1.32-1.33-.28-.09-.54-.21-.57-.57a.38.38,0,0,1,.36-.22Z"/><path class="cls-60" d="M562,45.25,564.06,43a.67.67,0,0,1,.2.39c-.31,1.14-.85,2-2.16,2.06A.66.66,0,0,1,562,45.25Z"/><path class="cls-61" d="M554.57,47.82l-.23.2a1.23,1.23,0,0,1-.37.21.9.9,0,0,1-.61-.16c-.58-.25-1.29-.27-1.66-.92.06-.15.15-.16.27,0Z"/><path class="cls-62" d="M552,47.1a.52.52,0,0,1-.27,0l-.55,0c-.12.17-.23.16-.32,0-.32-.22-.86-.31-.51-.92Z"/><path class="cls-63" d="M564.1,43.35c0-.12,0-.25,0-.38L565.2,41c0,.17,0,.34.07.52C565.28,42.43,565.11,43.18,564.1,43.35Z"/><path class="cls-64" d="M556.38,19.46a8.24,8.24,0,0,1,.93.64c.23,0,.27.11.13.3-2,1.4-4.32,1.72-6.51,2.43a45.85,45.85,0,0,0-5.86,2.61l-1.43-2.37A16.53,16.53,0,0,1,549,20.46l4.93-1.82C555,18.12,555.62,19,556.38,19.46Z"/><path class="cls-65" d="M566.37,34.94c-.1,0-.07,3.52-.17,3.51a34,34,0,0,0-.56-5.91,11.3,11.3,0,0,0-1-3,8.36,8.36,0,0,0-1.43-3,6.65,6.65,0,0,0-1.44-2.11L561,23.39c1.19.2.7-.56.51-1-.53-1.29-1.12-2.55-1.68-3.83.47-.45.89.19,1.34,0a6.33,6.33,0,0,1,1.73,2.58c2.05,3.19,2,7,3.13,10.52A18.75,18.75,0,0,1,566.37,34.94Z"/><path class="cls-66" d="M557.53,20.3c0-.1-.18-.1-.22-.2.34-.8-.47-1.05-.73-1.54a9.74,9.74,0,0,0-1.15-1.43,7.14,7.14,0,0,1,3.44.58c-.65,0-1,.21-.67,1s.61,1.31,1,2.09c-.58-.07-.94-.55-1.43-.35C557.65,20.43,557.64,20.32,557.53,20.3Z"/><path class="cls-67" d="M570.65,27.84c.28.89.57,1.78.85,2.67a.88.88,0,0,0-.09.72c1,2.83.15,5.52-.61,8.21a17.79,17.79,0,0,0-.34,2.17c-.07.42.11,1.21-.79.94a9.27,9.27,0,0,1,.14-4.93,5.61,5.61,0,0,0,.58-2.68C570.45,32.57,570.56,30.21,570.65,27.84Z"/><path class="cls-68" d="M569.81,37.62l0,5a1,1,0,0,1,.3.94c-.42,3-1,6-3.18,8.38l-.91.78c-.71-.42-.06-.77.09-1.08.89-1.78,2-3.47,2.23-5.52a12.36,12.36,0,0,0,.46-2.41c0-.54,0-1.07,0-1.61.23-.8.12-1.65.38-2.45l0-1.52c.31-.24.2-.61.28-.92Z"/><path class="cls-69" d="M554.83,48.32c.14,0,.29,0,.43,0,1.16-.12,2,0,1.08,1.49-.09.15,0,.39-.05.58s0,.14,0,.21c-.47,1.23-1.37,2.2-1.85,3.43a1.89,1.89,0,0,1-1.34.9l-1.66-.13c0-.38,0-.76,0-1.15.21-.25.28-.6.51-.84a14.28,14.28,0,0,0,1.54-2.92A2.69,2.69,0,0,1,554.83,48.32Z"/><path class="cls-47" d="M550.83,47.08l.32,0c.12.26.42.62.34.77-.72,1.42-1.07,3-2.08,4.3l0,0c-.24-1.24.59-2.17.88-3.25C550.68,48.37,550.61,47.68,550.83,47.08Z"/><path class="cls-70" d="M552,53.1l-.55.53c-.08-1.06.67-1.79,1-2.68a7.29,7.29,0,0,0,.93-2.88H554C553.84,50,552.8,51.49,552,53.1Z"/><path class="cls-57" d="M547.37,47.71c-.53.9-.15,2-.69,2.93-.21.35-.14.93-.75.93-.34-.8-1.37-1.09-1.43-2.08a65.14,65.14,0,0,0,2-7.43c.77,0,.31.59.4.9s-.07-.1,0,.08.16,0,.19-.11C547.68,44.5,547.28,46.12,547.37,47.71Z"/><path class="cls-71" d="M547.34,34.1c1,.6.87,2.11,2,2.59a1,1,0,0,1,0,.29l-.86.88C547.44,36.83,547.69,35.36,547.34,34.1Z"/><path class="cls-72" d="M547.1,42.93l-.08.74c-.4-.57,0-1.26-.51-1.61.17-1.3-.86-2.3-.85-3.57.37.17.38.61.6.9A11.31,11.31,0,0,1,547.1,42.93Z"/><path class="cls-72" d="M544.51,36.36a3.73,3.73,0,0,1,1.15,2.14A3,3,0,0,1,544.51,36.36Z"/><path class="cls-73" d="M567,52a21.1,21.1,0,0,0,2.88-9.32c.45-1.39.21-2.9.79-4.28.19-.46.22-1,.4-1.55a6.89,6.89,0,0,0,.31-4.19,2.44,2.44,0,0,1,.16-2.13c1,3.87,1.76,5.46,1.76,10.68a13.5,13.5,0,0,0,0,1.8c-.07.29-.14.59-.2.88A16.78,16.78,0,0,1,567,52Z"/><path class="cls-74" d="M566.06,31.68a21.29,21.29,0,0,1-1.92-7.58c-.07-1.05-1.23-1.76-1.21-2.94A29.29,29.29,0,0,1,566,27Z"/><path class="cls-75" d="M550.83,33.43c1.43-.08,1.35,1.25,1.81,2.08l-.38.05c-.55,0-1.13.07-.92-.89A1.41,1.41,0,0,0,550.83,33.43Z"/><path class="cls-76" d="M565.46,43.51a17.19,17.19,0,0,1-2.57,7.63c-.3.53-.84,1-.84,1.65a1.33,1.33,0,0,1,0,.19,16.75,16.75,0,0,1-2,2.15,10.82,10.82,0,0,1-3.76.3c-.15-.64.31-.83.73-1.06,1.1-.49,1.52-1.64,2.23-2.5,1.39-1.66,3-3.13,3.93-5.18.46-1,.73-2.13,1.23-3.13C564.68,43,565.05,42.46,565.46,43.51Z"/><path class="cls-77" d="M557.16,54.54a2.18,2.18,0,0,0-.89.89,9.65,9.65,0,0,1-3.19-.52l1.21-1c.26-.38.33-.89.75-1.16,1.15-1.7,2.49-3.28,3.49-5.1l2.34-1.17c1,.25.39.94.26,1.35a36.71,36.71,0,0,1-1.65,3.61c-.05.14-.11.26-.17.39A16.84,16.84,0,0,1,557.16,54.54Z"/><path class="cls-78" d="M569.18,43.85a7.35,7.35,0,0,1-.52,2.37,34.19,34.19,0,0,1-4.69,7c-.52.63-1.28.86-1.83,1.41a3.46,3.46,0,0,1-1.88.51c.28-1,1.34-1.44,1.8-2.33v0l.3,0a.93.93,0,0,0,.44-.36c1.44-2.93,4.06-5,5.54-7.88C568.5,44.2,568.69,43.81,569.18,43.85Z"/><path class="cls-79" d="M562.14,54.58c-.14-.07-.48-.17-.37-.23,2.83-1.61,4.28-4.44,5.94-7.08a2.48,2.48,0,0,1,.95-1.05c-.15,2.22-1.38,4-2.37,5.83-.12.23-.52.34-.24.71A1.17,1.17,0,0,1,566,53C564.62,53.36,563.54,54.39,562.14,54.58Z"/><path class="cls-80" d="M562.06,52.76c-.28,1-1.25,1.51-1.8,2.33a.59.59,0,0,1-.23,0C560.31,54,561.27,53.44,562.06,52.76Z"/><path class="cls-81" d="M550.26,48.91c0,1.16-.83,2.09-.88,3.25l-.82,1.14c.17-1.69,1.21-3.07,1.51-4.71,0,0,.1,0,.11,0A1.29,1.29,0,0,1,550.26,48.91Z"/><path class="cls-82" d="M556.38,19.46c-.92-.27-1.39-.56-2.44-.93-.76-.3-1.52-.5-2.28-.81.57-1.25,1.73-.77,2.66-1C555.1,17.59,556.11,18.22,556.38,19.46Z"/><path class="cls-83" d="M569.25,39.69a3.48,3.48,0,0,1,0,2.38c-1,1.35-1.85,2.86-3,4.15-.22.27-.33.77-.85.52,0,0,0-.07,0-.11a.39.39,0,0,1,.05-.14A7.22,7.22,0,0,0,566,43.8c.68-1,.94-2.24,1.72-3.21C568.18,40.07,568.54,39.62,569.25,39.69Z"/><path class="cls-84" d="M559.15,51.83a1.36,1.36,0,0,0,0-.2,21.85,21.85,0,0,0,2.32-5.5l.61-.71a5,5,0,0,0,2-2.07,4.23,4.23,0,0,0,1.17-1.79c.48.61.12,1.3.19,1.95-.39-.44-.64-.47-.85.19-.29,1-.67,1.94-1,2.89-.87,2.26-2.64,3.8-4.13,5.57C559.18,52.22,559.05,52.14,559.15,51.83Z"/><path class="cls-85" d="M565.48,46.49A16.89,16.89,0,0,0,568.14,43c.29-.42.45-1,1.11-1,0,.59,0,1.19-.07,1.78-1.55,3.27-4.46,5.49-6.19,8.62-.11.19-.26.59-.64.3A26,26,0,0,0,565.48,46.49Z"/><path class="cls-69" d="M558.53,47.68c.46.59-.12.89-.36,1.22a24.19,24.19,0,0,1-3.09,4.15c0-1.09.86-1.76,1.21-2.68h0A5.75,5.75,0,0,0,557.45,48C557.75,47.64,558.16,47.75,558.53,47.68Z"/><path class="cls-86" d="M561.49,46.13a11,11,0,0,1-2.32,5.5c.19-1.23,1-2.17,1.41-3.3.2-.58.73-1.12.29-1.82Z"/><path class="cls-87" d="M552,53.1c.68-1.67,1.37-3.35,2.06-5l.32-.06c.07.26.29.25.49.3C553.57,49.72,553.41,51.82,552,53.1Z"/><path class="cls-88" d="M556.29,50.37c-.1,1-.93,1.73-1.21,2.68-.3.26-.34.76-.79.89A8.37,8.37,0,0,1,556.29,50.37Z"/><path class="cls-89" d="M559.15,51.83l.3.33c-.8.75-1,2.13-2.29,2.38A9.05,9.05,0,0,1,559.15,51.83Z"/><path class="cls-90" d="M526.17,58.81a13.13,13.13,0,0,1,2.25-.17,3.76,3.76,0,0,1,2.42.6,1.9,1.9,0,0,1,.7,1.57,2,2,0,0,1-1.32,1.83v0a1.87,1.87,0,0,1,1,1.39,20.66,20.66,0,0,0,.6,2.12h-1.74a10.56,10.56,0,0,1-.51-1.75c-.21-.94-.53-1.18-1.23-1.19h-.5v2.94h-1.67Zm1.67,3.2h.67c.84,0,1.34-.42,1.34-1.07s-.46-1-1.24-1a3.84,3.84,0,0,0-.77.05Z"/><path class="cls-90" d="M534,64c.06.71.75,1,1.53,1a4.34,4.34,0,0,0,1.5-.23l.22,1.14a5,5,0,0,1-2,.35,2.61,2.61,0,0,1-2.9-2.78,2.73,2.73,0,0,1,2.74-2.89,2.4,2.4,0,0,1,2.42,2.7,4.75,4.75,0,0,1,0,.68Zm2-1.15a1,1,0,0,0-1-1.1,1.11,1.11,0,0,0-1,1.1Z"/><path class="cls-90" d="M543.81,58.3v6.26c0,.62,0,1.25.05,1.62h-1.5l-.07-.79h0a1.89,1.89,0,0,1-1.7.91c-1.29,0-2.32-1.1-2.32-2.79a2.57,2.57,0,0,1,2.43-2.88,1.65,1.65,0,0,1,1.43.61h0V58.3Zm-1.68,4.76a1.09,1.09,0,0,0,0-.31,1,1,0,0,0-1-.82c-.78,0-1.17.68-1.17,1.54s.46,1.49,1.16,1.49a1,1,0,0,0,1-.81,1.58,1.58,0,0,0,0-.38Z"/><path class="cls-91" d="M549.67,63h-2.75v1.78H550v1.39h-4.76V58.7h4.61v1.38h-2.92v1.56h2.75Z"/><path class="cls-91" d="M551.13,64.71a3.26,3.26,0,0,0,1.45.4c.51,0,.72-.17.72-.44s-.17-.42-.79-.64c-1.13-.36-1.56-1-1.55-1.62,0-1,.87-1.78,2.21-1.78a3.51,3.51,0,0,1,1.52.32l-.29,1.15a2.89,2.89,0,0,0-1.18-.3c-.41,0-.64.17-.64.44s.21.4.88.63c1,.34,1.45.88,1.46,1.66,0,1-.79,1.77-2.34,1.77a3.84,3.84,0,0,1-1.75-.39Z"/><path class="cls-91" d="M560,66a3.76,3.76,0,0,1-1.51.26,2.64,2.64,0,0,1-2.88-2.79,2.83,2.83,0,0,1,3.11-2.88,4.06,4.06,0,0,1,1.29.21l-.27,1.25a2.3,2.3,0,0,0-.94-.16,1.41,1.41,0,0,0-1.46,1.52A1.42,1.42,0,0,0,558.86,65a2.43,2.43,0,0,0,1-.18Z"/><path class="cls-91" d="M563.33,66.3a2.66,2.66,0,0,1-2.8-2.8,2.71,2.71,0,0,1,2.9-2.87,2.64,2.64,0,0,1,2.77,2.78,2.72,2.72,0,0,1-2.86,2.89Zm0-1.21c.66,0,1.07-.66,1.07-1.63,0-.8-.31-1.62-1.07-1.62s-1.11.82-1.11,1.63.39,1.62,1.1,1.62Z"/><path class="cls-91" d="M567.24,58.3h1.69v7.88h-1.69Z"/><path class="cls-91" d="M574.8,64.87a6.75,6.75,0,0,0,.09,1.31h-1.52l-.1-.55h0a1.93,1.93,0,0,1-1.55.67,1.66,1.66,0,0,1-1.75-1.67c0-1.41,1.26-2.07,3.18-2.07v-.07c0-.29-.15-.7-1-.7a3.15,3.15,0,0,0-1.49.4l-.32-1.07a4.51,4.51,0,0,1,2.11-.49A2.1,2.1,0,0,1,574.8,63Zm-1.63-1.26c-.89,0-1.58.21-1.58.86a.61.61,0,0,0,.67.64.88.88,0,0,0,.91-.91Z"/><path class="cls-91" d="M576.15,62.54c0-.8,0-1.32,0-1.79h1.44l.07,1h0a1.58,1.58,0,0,1,1.47-1.13,1.83,1.83,0,0,1,.35,0v1.59a2.94,2.94,0,0,0-.46,0,1.08,1.08,0,0,0-1.16.86,2.09,2.09,0,0,0,0,.38v2.74h-1.69Z"/><path class="cls-92" d="M214.73,49.39a2.66,2.66,0,1,1-2.65-2.73,2.7,2.7,0,0,1,2.65,2.73"/><path class="cls-93" d="M155.17,43.56a3.57,3.57,0,0,0-2.13-.84,2.94,2.94,0,0,0,.06,5.88,3.14,3.14,0,0,0,2.07-.82v3.6a6.32,6.32,0,0,1-2.91.68,6.23,6.23,0,0,1-6.33-6.28,6.33,6.33,0,0,1,6.51-6.53,5.6,5.6,0,0,1,2.73.7v3.61"/><path class="cls-93" d="M160.33,32.22v9h0a4.26,4.26,0,0,1,3.72-1.92c3,0,4.39,2,4.39,5.06v7.35h-4.14V45.5c0-1.4-.21-2.85-1.86-2.85s-2.16,1.45-2.16,2.85v6.16H156.2V32.22h4.13"/><path class="cls-92" d="M174,35a2.32,2.32,0,1,1-2.31-2.39A2.36,2.36,0,0,1,174,35Z"/><polyline class="cls-93" points="173.75 51.66 169.61 51.66 169.61 39.65 173.75 39.65 173.75 51.66"/><path class="cls-93" d="M183.86,43.56a3.57,3.57,0,0,0-2.14-.84,2.94,2.94,0,0,0,.07,5.88,3.14,3.14,0,0,0,2.07-.82v3.6a6.32,6.32,0,0,1-2.91.68,6.23,6.23,0,0,1-6.33-6.28,6.33,6.33,0,0,1,6.51-6.53,5.63,5.63,0,0,1,2.73.7v3.61"/><path class="cls-93" d="M191.65,39.25c-3.74,0-7,2.32-7,6.42s3.29,6.39,7,6.39,7-2.31,7-6.39-3.27-6.42-7-6.42Zm0,3.7a2.58,2.58,0,0,1,2.66,2.72,2.66,2.66,0,1,1-5.31,0A2.57,2.57,0,0,1,191.65,43"/><path class="cls-93" d="M206.81,42.74a5.07,5.07,0,0,0-2.23-.58c-.47,0-1.3.2-1.3.81,0,.82,1.3.94,1.87,1.06,1.93.4,3.38,1.34,3.38,3.56,0,3.16-2.79,4.47-5.49,4.47a8.83,8.83,0,0,1-4.7-1.38l1.5-3a6.48,6.48,0,0,0,3.26,1.22c.53,0,1.3-.25,1.3-.91,0-.94-1.3-1-2.59-1.33a3,3,0,0,1-2.58-3.16c0-3,2.58-4.27,5.12-4.27a9,9,0,0,1,3.84.77l-1.38,2.72"/><path class="cls-92" d="M220.11,41.2h0a4,4,0,0,1,3.72-2c3.13,0,4.38,2,4.38,5v7.42h-4.13V45.81c0-1.15.18-3.16-1.86-3.16-1.68,0-2.16,1.29-2.16,2.78v6.23H216v-12h4.13V41.2"/><path class="cls-92" d="M242.05,45.92c0-4.09-2.34-6.67-6.38-6.67-3.79,0-6.45,2.41-6.45,6.42s2.88,6.39,6.74,6.39c2.66,0,5.27-1.29,5.93-4.12h-4a2,2,0,0,1-2,1.1,2.35,2.35,0,0,1-2.58-2.67h8.69v-.45Zm-8.63-2a2.46,2.46,0,0,1,4.79,0h-4.79"/><polyline class="cls-92" points="247.97 51.66 243.84 51.66 243.84 43.16 242.5 43.16 242.5 39.65 243.84 39.65 243.84 36.05 247.97 36.05 247.97 39.65 250.31 39.65 250.31 43.16 247.97 43.16 247.97 51.66"/><path class="cls-92" d="M175.62,36.16l-.51,1.18h-.51L176.53,33l1.88,4.37h-.52l-.49-1.18Zm.9-2.11-.71,1.68h1.41Z"/><path class="cls-92" d="M180.72,34a1,1,0,0,0-.3-.34.77.77,0,0,0-.42-.11.72.72,0,0,0-.49.18.61.61,0,0,0-.21.47.46.46,0,0,0,.06.23.52.52,0,0,0,.16.17.8.8,0,0,0,.19.13l.25.12.27.12.41.2a1.83,1.83,0,0,1,.31.24.89.89,0,0,1,.21.32,1.08,1.08,0,0,1,.08.42,1.35,1.35,0,0,1-.1.5,1.22,1.22,0,0,1-.29.42,1.39,1.39,0,0,1-.41.27,1.32,1.32,0,0,1-.51.1,1.29,1.29,0,0,1-.86-.3,1.4,1.4,0,0,1-.45-.78l.46-.13a.89.89,0,0,0,.28.55.74.74,0,0,0,.55.22.87.87,0,0,0,.32-.06.73.73,0,0,0,.28-.17.7.7,0,0,0,.19-.26.68.68,0,0,0,.07-.32.68.68,0,0,0-.22-.52,1.07,1.07,0,0,0-.22-.15l-.31-.15h0l-.25-.11-.37-.19a1.86,1.86,0,0,1-.28-.21,1,1,0,0,1-.19-.29.89.89,0,0,1-.07-.38,1,1,0,0,1,.09-.43,1,1,0,0,1,.26-.34,1.07,1.07,0,0,1,.37-.22,1.33,1.33,0,0,1,.45-.07,1.15,1.15,0,0,1,.63.17,1.16,1.16,0,0,1,.45.48Z"/><path class="cls-92" d="M184.71,33.26a2.21,2.21,0,0,1,.7.47,2.24,2.24,0,0,1,.48.7,2.12,2.12,0,0,1,.17.83,2.17,2.17,0,0,1-.17.84,2.2,2.2,0,0,1-.48.69,2.31,2.31,0,0,1-.69.46,2.16,2.16,0,0,1-1.68,0,2.5,2.5,0,0,1-.7-.46,2.14,2.14,0,0,1-.64-1.53,2.12,2.12,0,0,1,.17-.83,2.14,2.14,0,0,1,2-1.33A2.12,2.12,0,0,1,184.71,33.26Zm-1.5.4a1.75,1.75,0,0,0-.55.38,1.69,1.69,0,0,0-.36.55,1.77,1.77,0,0,0,0,1.33,1.72,1.72,0,0,0,.37.55,1.75,1.75,0,0,0,.55.38,1.62,1.62,0,0,0,.66.13,1.65,1.65,0,0,0,.66-.13,1.75,1.75,0,0,0,.55-.38,1.72,1.72,0,0,0,.37-.55,1.77,1.77,0,0,0,0-1.33,1.82,1.82,0,0,0-.91-.93,1.79,1.79,0,0,0-1.34,0Z"/><path class="cls-92" d="M189.94,34.08a1.77,1.77,0,0,0-.58-.4,1.72,1.72,0,0,0-.69-.15,1.58,1.58,0,0,0-.65.14,1.83,1.83,0,0,0-.54.38,1.66,1.66,0,0,0-.37.56,1.78,1.78,0,0,0-.12.65,1.82,1.82,0,0,0,.12.65,1.76,1.76,0,0,0,.37.56,1.93,1.93,0,0,0,.55.38,1.57,1.57,0,0,0,.65.13,1.84,1.84,0,0,0,.68-.14,2,2,0,0,0,.58-.41V37a2,2,0,0,1-.59.31,2.08,2.08,0,0,1-1.49-.06,2.31,2.31,0,0,1-.69-.46,2.2,2.2,0,0,1-.48-.69,2.17,2.17,0,0,1,1.17-2.83,2.11,2.11,0,0,1,2.08.24Z"/><path class="cls-92" d="M190.87,37.34h-.46V33.17h.46Z"/><path class="cls-92" d="M192.35,36.16l-.5,1.18h-.51L193.27,33l1.87,4.37h-.51l-.5-1.18Zm.9-2.11-.71,1.68H194Z"/><path class="cls-92" d="M198.53,34.08a1.77,1.77,0,0,0-.58-.4,1.72,1.72,0,0,0-.69-.15,1.58,1.58,0,0,0-.65.14,1.83,1.83,0,0,0-.54.38,1.5,1.5,0,0,0-.36.56,1.61,1.61,0,0,0-.13.65,1.64,1.64,0,0,0,.13.65,1.58,1.58,0,0,0,.36.56,1.93,1.93,0,0,0,.55.38,1.57,1.57,0,0,0,.65.13,1.84,1.84,0,0,0,.68-.14,2,2,0,0,0,.58-.41V37a2,2,0,0,1-.59.31,2.16,2.16,0,0,1-.65.11,2.21,2.21,0,0,1-.84-.17,2.31,2.31,0,0,1-.69-.46,2.2,2.2,0,0,1-.48-.69,2.16,2.16,0,0,1,.47-2.36,2.21,2.21,0,0,1,.7-.47,2.11,2.11,0,0,1,2.08.24Z"/><path class="cls-92" d="M199.46,37.34H199V33.17h.46Z"/><path class="cls-92" d="M202.94,33.26a2.33,2.33,0,0,1,.7.47,2.21,2.21,0,0,1,.47.7,2.12,2.12,0,0,1,.17.83,2.14,2.14,0,0,1-.64,1.53,2.24,2.24,0,0,1-.7.46,2.17,2.17,0,0,1-.84.17,2.12,2.12,0,0,1-.83-.17,2.36,2.36,0,0,1-.7-.46,2.17,2.17,0,0,1-.47-.69,2,2,0,0,1-.17-.84,2,2,0,0,1,.17-.83,2.21,2.21,0,0,1,.47-.7,2.12,2.12,0,0,1,1.53-.63A2.17,2.17,0,0,1,202.94,33.26Zm-1.5.4a1.64,1.64,0,0,0-.55.38,1.72,1.72,0,0,0-.37.55,1.86,1.86,0,0,0-.13.67,1.66,1.66,0,0,0,.14.66,1.87,1.87,0,0,0,.36.55,1.75,1.75,0,0,0,.55.38,1.77,1.77,0,0,0,1.33,0,1.82,1.82,0,0,0,.91-.93,1.65,1.65,0,0,0,0-1.33,1.54,1.54,0,0,0-.36-.55,1.75,1.75,0,0,0-.55-.38,1.77,1.77,0,0,0-1.33,0ZM202.89,32l-.85.86-.27-.16.65-.91Z"/><path class="cls-92" d="M204.74,33,208,36.4V33.17h.47v4.36l-3.26-3.4v3.21h-.47Z"/></g></g></svg>