<?xml version="1.0" encoding="UTF-8" standalone="no"?>
<!DOCTYPE svg PUBLIC "-//W3C//DTD SVG 1.1//EN" "http://www.w3.org/Graphics/SVG/1.1/DTD/svg11.dtd">
<svg width="100%" height="100%" viewBox="0 0 520 323" version="1.1" xmlns="http://www.w3.org/2000/svg" xmlns:xlink="http://www.w3.org/1999/xlink" xml:space="preserve" xmlns:serif="http://www.serif.com/" style="fill-rule:evenodd;clip-rule:evenodd;stroke-linejoin:round;stroke-miterlimit:2;">
    <g transform="matrix(1,0,0,1,-21.84,-6)">
        <path d="M35.48,137.41L50.33,137.41L50.33,141.54L41.16,141.54L41.16,146.89L48.85,146.89L48.16,150.99L41.16,150.99L41.16,160.74L35.48,160.74L35.48,137.41Z" style="fill:rgb(88,89,91);fill-rule:nonzero;"/>
        <path d="M63.62,145.44C64.978,147.317 65.643,149.608 65.5,151.92C65.509,153.151 65.341,154.377 65,155.56C64.697,156.618 64.18,157.601 63.48,158.45C62.79,159.281 61.917,159.942 60.93,160.38C59.809,160.872 58.594,161.114 57.37,161.09C56.153,161.118 54.941,160.915 53.8,160.49C52.853,160.119 52.012,159.522 51.35,158.75C50.695,157.941 50.215,157.004 49.94,156C49.615,154.804 49.457,153.569 49.47,152.33C49.462,151.092 49.63,149.86 49.97,148.67C50.272,147.606 50.79,146.616 51.49,145.76C52.171,144.929 53.028,144.259 54,143.8C55.134,143.305 56.363,143.063 57.6,143.09C60.38,143.09 62.37,143.88 63.62,145.44ZM56.3,147.56C56.001,147.83 55.78,148.175 55.66,148.56C55.498,149.046 55.394,149.55 55.35,150.06C55.288,150.678 55.258,151.299 55.26,151.92C55.258,152.588 55.295,153.256 55.37,153.92C55.423,154.473 55.543,155.017 55.73,155.54C55.874,155.963 56.13,156.34 56.47,156.63C56.814,156.902 57.242,157.043 57.68,157.03C58.049,157.031 58.405,156.896 58.68,156.65C58.972,156.374 59.192,156.031 59.32,155.65C59.482,155.164 59.586,154.66 59.63,154.15C59.75,152.883 59.75,151.607 59.63,150.34C59.574,149.794 59.453,149.257 59.27,148.74C59.123,148.318 58.868,147.942 58.53,147.65C58.185,147.383 57.756,147.245 57.32,147.26C56.955,147.232 56.592,147.339 56.3,147.56Z" style="fill:rgb(88,89,91);fill-rule:nonzero;"/>
        <path d="M76.22,148.61C75.896,148.768 75.605,148.985 75.36,149.25C75.06,149.568 74.826,149.942 74.67,150.35C74.479,150.861 74.387,151.404 74.4,151.95L74.4,160.74L69,160.74L69,151.74C69.019,150.59 68.922,149.441 68.71,148.31C68.56,147.549 68.332,146.805 68.03,146.09C67.809,145.525 67.495,145.001 67.1,144.54L71.48,143.16C71.66,143.39 71.86,143.65 72.07,143.95C72.262,144.272 72.433,144.606 72.58,144.95C72.773,145.382 72.914,145.835 73,146.3C73.442,145.342 74.133,144.52 75,143.92C75.852,143.425 76.825,143.176 77.81,143.2C78.246,143.195 78.682,143.235 79.11,143.32C79.429,143.386 79.743,143.473 80.05,143.58L78.64,148.78C78.437,148.67 78.222,148.583 78,148.52C77.674,148.431 77.337,148.39 77,148.4C76.728,148.416 76.463,148.488 76.22,148.61Z" style="fill:rgb(88,89,91);fill-rule:nonzero;"/>
        <path d="M80.88,143.58L83.7,143.58L84.29,140.03L89,139L89,143.59L93.07,143.59L92.41,147.59L89,147.59L89,155.27C89,156.27 89.53,156.79 90.59,156.79C91.144,156.79 91.697,156.733 92.24,156.62L93.07,156.41L94,160.07C93.54,160.23 92.9,160.4 92.09,160.6C91.104,160.809 90.098,160.907 89.09,160.89C87.677,160.963 86.277,160.589 85.09,159.82C84.039,158.927 83.492,157.572 83.63,156.2L83.63,147.59L80.88,147.59L80.88,143.58Z" style="fill:rgb(88,89,91);fill-rule:nonzero;"/>
        <path d="M110,152.44C109.979,153.593 110.072,154.746 110.28,155.88C110.413,156.639 110.631,157.38 110.93,158.09C111.159,158.667 111.498,159.194 111.93,159.64L107.49,161C107.222,160.746 106.99,160.457 106.8,160.14C106.594,159.792 106.417,159.427 106.27,159.05C106.074,158.566 105.927,158.063 105.83,157.55C105.512,158.533 104.914,159.401 104.11,160.05C103.238,160.673 102.18,160.983 101.11,160.93C100.075,160.96 99.048,160.748 98.11,160.31C97.284,159.91 96.569,159.312 96.03,158.57C95.449,157.754 95.032,156.834 94.8,155.86C94.529,154.71 94.398,153.531 94.41,152.35C94.397,151.101 94.614,149.861 95.05,148.69C95.443,147.613 96.045,146.625 96.82,145.78C97.584,144.962 98.511,144.311 99.54,143.87C100.653,143.399 101.852,143.164 103.06,143.18C103.822,143.183 104.584,143.233 105.34,143.33C106.14,143.44 106.88,143.55 107.54,143.68C108.2,143.81 108.77,143.92 109.21,144.02L109.92,144.18L110,152.44ZM103,156.5C103.344,156.155 103.619,155.748 103.81,155.3C104.056,154.743 104.234,154.159 104.34,153.56C104.471,152.871 104.535,152.171 104.53,151.47L104.53,147.47C104.313,147.385 104.089,147.321 103.86,147.28C103.616,147.233 103.368,147.206 103.12,147.2C102.635,147.183 102.155,147.308 101.74,147.56C101.363,147.809 101.059,148.154 100.86,148.56C100.624,149.042 100.469,149.558 100.4,150.09C100.305,150.729 100.259,151.374 100.26,152.02L100.26,153.87C100.279,154.4 100.356,154.927 100.49,155.44C100.584,155.841 100.765,156.216 101.02,156.54C101.269,156.827 101.641,156.98 102.02,156.95C102.393,156.936 102.746,156.774 103,156.5Z" style="fill:rgb(88,89,91);fill-rule:nonzero;"/>
        <path d="M116.57,160.54C116.037,160.328 115.556,160.004 115.16,159.59C114.781,159.192 114.497,158.714 114.33,158.19C114.153,157.634 114.066,157.053 114.07,156.47L114.07,136.68L119.52,135.75L119.52,155.3C119.482,155.705 119.584,156.111 119.81,156.45C120.112,156.706 120.507,156.826 120.9,156.78C121.181,156.779 121.462,156.756 121.74,156.71C122.05,156.71 122.33,156.62 122.59,156.57L123.1,159.99C122.536,160.225 121.954,160.416 121.36,160.56C120.464,160.781 119.543,160.889 118.62,160.88C117.921,160.9 117.225,160.784 116.57,160.54Z" style="fill:rgb(88,89,91);fill-rule:nonzero;"/>
        <path d="M124.43,148.49C124.832,147.37 125.466,146.348 126.29,145.49C127.081,144.703 128.028,144.09 129.07,143.69C130.169,143.262 131.34,143.048 132.52,143.06C133.452,143.041 134.382,143.176 135.27,143.46C135.965,143.689 136.602,144.064 137.14,144.56C137.612,145.028 137.974,145.595 138.2,146.22C138.437,146.877 138.555,147.571 138.55,148.27C138.551,149.091 138.337,149.897 137.93,150.61C137.49,151.399 136.882,152.081 136.15,152.61C135.296,153.214 134.355,153.686 133.36,154.01C132.158,154.402 130.912,154.644 129.65,154.73C129.784,155.357 130.088,155.935 130.53,156.4C131.067,156.866 131.771,157.097 132.48,157.04C133.024,157.035 133.567,156.978 134.1,156.87C134.68,156.75 135.2,156.63 135.69,156.49C136.18,156.35 136.83,156.15 137.38,155.94L138.38,159.52C137.733,159.834 137.065,160.101 136.38,160.32C135.76,160.5 135.04,160.67 134.22,160.83C133.364,160.998 132.493,161.081 131.62,161.08C130.39,161.111 129.166,160.897 128.02,160.45C127.076,160.083 126.236,159.493 125.57,158.73C124.918,157.953 124.447,157.041 124.19,156.06C123.891,154.928 123.746,153.761 123.76,152.59C123.731,151.194 123.959,149.804 124.43,148.49ZM130.71,147.37C130.387,147.641 130.13,147.984 129.96,148.37C129.768,148.812 129.631,149.275 129.55,149.75C129.46,150.239 129.403,150.733 129.38,151.23C129.973,151.225 130.561,151.12 131.12,150.92C131.546,150.769 131.937,150.534 132.27,150.23C132.552,149.98 132.777,149.674 132.93,149.33C133.06,149.051 133.132,148.748 133.14,148.44C133.161,148.055 133.028,147.677 132.77,147.39C132.533,147.122 132.187,146.975 131.83,146.99C131.424,146.981 131.027,147.116 130.71,147.37Z" style="fill:rgb(88,89,91);fill-rule:nonzero;"/>
        <path d="M151,148.33C150.744,148.026 150.455,147.751 150.14,147.51C149.81,147.269 149.408,147.145 149,147.16C148.685,147.168 148.373,147.215 148.07,147.3C147.68,147.407 147.331,147.63 147.07,147.94C146.719,148.362 146.466,148.858 146.33,149.39C146.103,150.237 146.002,151.113 146.03,151.99C146.002,152.869 146.114,153.746 146.36,154.59C146.518,155.147 146.802,155.66 147.19,156.09C147.488,156.414 147.868,156.653 148.29,156.78C148.666,156.893 149.057,156.951 149.45,156.95C149.749,156.949 150.048,156.915 150.34,156.85C150.66,156.78 150.97,156.71 151.26,156.63L152,156.38L152.34,156.26L153.34,159.88L152.96,160.06C152.622,160.23 152.271,160.374 151.91,160.49C151.38,160.659 150.839,160.79 150.29,160.88C149.6,161.005 148.901,161.065 148.2,161.06C146.967,161.09 145.74,160.876 144.59,160.43C143.635,160.063 142.781,159.474 142.1,158.71C141.439,157.935 140.957,157.023 140.69,156.04C140.379,154.91 140.227,153.742 140.24,152.57C140.215,151.183 140.431,149.802 140.88,148.49C141.252,147.379 141.851,146.357 142.64,145.49C143.371,144.69 144.278,144.07 145.29,143.68C146.351,143.268 147.481,143.061 148.62,143.07C149.661,143.043 150.692,143.277 151.62,143.75C152.437,144.174 153.145,144.779 153.69,145.52L151,148.33Z" style="fill:rgb(88,89,91);fill-rule:nonzero;"/>
        <path d="M160.58,136C161.09,136.605 161.357,137.379 161.33,138.17C161.361,138.989 161.086,139.791 160.56,140.42C159.954,141.047 159.1,141.374 158.23,141.31C157.396,141.363 156.581,141.04 156.01,140.43C155.494,139.862 155.214,139.117 155.23,138.35C155.203,137.511 155.488,136.691 156.03,136.05C156.639,135.42 157.495,135.087 158.37,135.14C159.197,135.088 160.006,135.403 160.58,136ZM156.78,159.88C155.96,159.155 155.517,158.092 155.58,157L155.58,143.44L161,143.44L161,155.44C160.958,155.812 161.046,156.187 161.25,156.5C161.435,156.698 161.7,156.801 161.97,156.78C162.154,156.778 162.338,156.762 162.52,156.73C162.639,156.712 162.757,156.682 162.87,156.64L163.35,160.06L163.04,160.21L162.31,160.49C161.963,160.604 161.609,160.694 161.25,160.76C160.818,160.841 160.379,160.881 159.94,160.88C158.801,160.927 157.681,160.569 156.78,159.87L156.78,159.88Z" style="fill:rgb(88,89,91);fill-rule:nonzero;"/>
        <path d="M165.21,148.49C165.612,147.37 166.246,146.348 167.07,145.49C167.861,144.703 168.808,144.09 169.85,143.69C170.949,143.262 172.12,143.048 173.3,143.06C174.232,143.042 175.161,143.177 176.05,143.46C176.745,143.689 177.382,144.064 177.92,144.56C178.392,145.028 178.754,145.595 178.98,146.22C179.217,146.877 179.335,147.571 179.33,148.27C179.331,149.091 179.117,149.897 178.71,150.61C178.27,151.399 177.662,152.081 176.93,152.61C176.076,153.214 175.135,153.686 174.14,154.01C172.938,154.402 171.692,154.644 170.43,154.73C170.564,155.357 170.868,155.935 171.31,156.4C171.847,156.866 172.551,157.097 173.26,157.04C173.804,157.035 174.347,156.978 174.88,156.87C175.46,156.75 175.98,156.63 176.47,156.49C176.96,156.35 177.6,156.15 178.16,155.94L179.16,159.52C178.513,159.834 177.845,160.101 177.16,160.32C176.54,160.5 175.82,160.67 175,160.83C174.144,160.998 173.273,161.081 172.4,161.08C171.17,161.111 169.946,160.897 168.8,160.45C167.856,160.083 167.016,159.493 166.35,158.73C165.701,157.933 165.239,157 165,156C164.701,154.868 164.556,153.701 164.57,152.53C164.539,151.156 164.756,149.787 165.21,148.49ZM171.49,147.37C171.167,147.641 170.91,147.984 170.74,148.37C170.548,148.812 170.411,149.275 170.33,149.75C170.24,150.239 170.183,150.733 170.16,151.23C170.753,151.225 171.341,151.12 171.9,150.92C172.326,150.769 172.717,150.534 173.05,150.23C173.332,149.98 173.557,149.674 173.71,149.33C173.84,149.051 173.912,148.748 173.92,148.44C173.941,148.055 173.808,147.677 173.55,147.39C173.313,147.122 172.967,146.975 172.61,146.99C172.204,146.981 171.807,147.116 171.49,147.37Z" style="fill:rgb(88,89,91);fill-rule:nonzero;"/>
        <path d="M192.05,160.74L192.05,150C192.077,149.321 191.979,148.643 191.76,148C191.604,147.538 191.157,147.234 190.67,147.26C189.897,147.344 189.22,147.821 188.88,148.52C188.269,149.592 187.981,150.818 188.05,152.05L188.05,160.7L182.6,160.7L182.6,151.7C182.619,150.55 182.522,149.401 182.31,148.27C182.158,147.51 181.933,146.767 181.64,146.05C181.412,145.488 181.098,144.966 180.71,144.5L185.08,143.12C185.307,143.369 185.517,143.633 185.71,143.91C185.923,144.223 186.101,144.558 186.24,144.91C186.425,145.353 186.569,145.811 186.67,146.28C187.219,145.244 188.085,144.41 189.14,143.9C190.209,143.385 191.383,143.125 192.57,143.14C194.039,142.994 195.484,143.614 196.39,144.78C197.209,146.081 197.607,147.604 197.53,149.14L197.53,160.68L192.05,160.74Z" style="fill:rgb(88,89,91);fill-rule:nonzero;"/>
        <path d="M213.28,161L213.08,160.76C212.894,160.557 212.73,160.336 212.59,160.1C212.37,159.746 212.173,159.379 212,159C211.806,158.528 211.669,158.034 211.59,157.53C211.268,158.511 210.671,159.379 209.87,160.03C208.998,160.653 207.94,160.963 206.87,160.91C205.852,160.932 204.843,160.72 203.92,160.29C203.091,159.891 202.373,159.293 201.83,158.55C201.249,157.736 200.834,156.815 200.61,155.84C200.331,154.691 200.196,153.512 200.21,152.33C200.203,151.082 200.419,149.842 200.85,148.67C201.251,147.595 201.855,146.607 202.63,145.76C203.391,144.937 204.318,144.286 205.35,143.85C206.463,143.379 207.662,143.144 208.87,143.16L209.54,143.16L210.28,143.23L210.28,135.72L215.73,136.61L215.73,152.37C215.708,153.514 215.805,154.656 216.02,155.78C216.166,156.538 216.38,157.281 216.66,158C216.809,158.43 217.029,158.832 217.31,159.19L217.62,159.57L213.28,161ZM208.79,156.48C209.134,156.135 209.409,155.728 209.6,155.28C209.837,154.72 210.015,154.137 210.13,153.54C210.261,152.851 210.325,152.151 210.32,151.45L210.32,147.45C210.103,147.366 209.879,147.303 209.65,147.26C209.406,147.213 209.158,147.187 208.91,147.18C208.424,147.16 207.944,147.285 207.53,147.54C207.153,147.789 206.849,148.134 206.65,148.54C206.411,149.021 206.252,149.538 206.18,150.07C206.072,150.708 206.012,151.353 206,152L206,153.85C206.016,154.38 206.089,154.906 206.22,155.42C206.322,155.82 206.506,156.194 206.76,156.52C207.009,156.807 207.381,156.96 207.76,156.93C208.147,156.932 208.519,156.777 208.79,156.5L208.79,156.48Z" style="fill:rgb(88,89,91);fill-rule:nonzero;"/>
        <path d="M233.16,145.44C234.511,147.32 235.175,149.609 235.04,151.92C235.049,153.151 234.881,154.377 234.54,155.56C234.233,156.616 233.716,157.599 233.02,158.45C232.327,159.278 231.455,159.938 230.47,160.38C229.346,160.873 228.127,161.115 226.9,161.09C225.683,161.118 224.471,160.915 223.33,160.49C222.385,160.116 221.544,159.519 220.88,158.75C220.221,157.932 219.741,156.985 219.47,155.97C219.148,154.774 218.994,153.539 219.01,152.3C218.997,151.062 219.165,149.829 219.51,148.64C219.809,147.577 220.323,146.586 221.02,145.73C221.716,144.905 222.587,144.245 223.57,143.8C224.708,143.306 225.94,143.064 227.18,143.09C229.91,143.09 231.9,143.88 233.16,145.44ZM225.83,147.56C225.534,147.833 225.314,148.177 225.19,148.56C225.028,149.046 224.924,149.55 224.88,150.06C224.88,150.63 224.8,151.25 224.8,151.92C224.795,152.588 224.828,153.256 224.9,153.92C224.953,154.473 225.073,155.017 225.26,155.54C225.408,155.961 225.663,156.337 226,156.63C226.345,156.899 226.773,157.041 227.21,157.03C227.579,157.033 227.936,156.898 228.21,156.65C228.502,156.374 228.722,156.031 228.85,155.65C229.017,155.165 229.121,154.661 229.16,154.15C229.222,153.542 229.252,152.931 229.25,152.32C229.25,151.61 229.25,150.95 229.15,150.32C229.096,149.773 228.972,149.235 228.78,148.72C228.633,148.298 228.378,147.922 228.04,147.63C227.699,147.363 227.273,147.225 226.84,147.24C226.476,147.223 226.118,147.337 225.83,147.56Z" style="fill:rgb(88,89,91);fill-rule:nonzero;"/>
        <path d="M37.63,204.93C37.091,204.706 36.609,204.365 36.22,203.93C35.841,203.536 35.557,203.061 35.39,202.54C35.214,201.98 35.126,201.397 35.13,200.81L35.13,181.08L40.58,180.15L40.58,199.69C40.542,200.098 40.644,200.508 40.87,200.85C41.173,201.102 41.568,201.218 41.96,201.17C42.241,201.168 42.522,201.148 42.8,201.11L43.65,200.97L44.16,204.38C43.596,204.615 43.014,204.806 42.42,204.95C41.525,205.18 40.604,205.291 39.68,205.28C38.98,205.297 38.284,205.178 37.63,204.93Z" style="fill:rgb(88,89,91);fill-rule:nonzero;"/>
        <path d="M60.33,196.83C60.309,197.986 60.403,199.142 60.61,200.28C60.742,201.036 60.961,201.774 61.26,202.48C61.489,203.06 61.829,203.59 62.26,204.04L57.88,205.41C57.61,205.158 57.377,204.869 57.19,204.55C56.986,204.204 56.809,203.843 56.66,203.47C56.467,202.985 56.32,202.483 56.22,201.97C55.899,202.951 55.302,203.819 54.5,204.47C53.626,205.088 52.57,205.398 51.5,205.35C50.481,205.373 49.471,205.157 48.55,204.72C47.717,204.327 46.993,203.737 46.44,203C45.857,202.189 45.439,201.272 45.21,200.3C44.939,199.147 44.808,197.965 44.82,196.78C44.807,195.534 45.024,194.297 45.46,193.13C45.851,192.049 46.453,191.057 47.23,190.21C48.008,189.38 48.952,188.723 50,188.28C51.109,187.808 52.305,187.573 53.51,187.59C54.273,187.592 55.034,187.646 55.79,187.75C56.59,187.85 57.33,187.97 57.99,188.09C58.65,188.21 59.22,188.33 59.66,188.44L60.37,188.59L60.33,196.83ZM53.33,200.9C53.674,200.552 53.949,200.141 54.14,199.69C54.389,199.134 54.567,198.55 54.67,197.95C54.801,197.265 54.865,196.568 54.86,195.87L54.86,191.87C54.645,191.78 54.42,191.716 54.19,191.68C53.947,191.625 53.699,191.595 53.45,191.59C52.965,191.573 52.485,191.698 52.07,191.95C51.695,192.201 51.392,192.546 51.19,192.95C50.955,193.435 50.799,193.955 50.73,194.49C50.635,195.129 50.589,195.774 50.59,196.42L50.59,198.26C50.608,198.79 50.685,199.317 50.82,199.83C50.912,200.232 51.093,200.608 51.35,200.93C51.595,201.224 51.969,201.381 52.35,201.35C52.73,201.341 53.091,201.179 53.35,200.9L53.33,200.9Z" style="fill:rgb(88,89,91);fill-rule:nonzero;"/>
        <path d="M86.84,187.49C86.355,186.832 85.726,186.295 85,185.92C84.437,185.665 83.828,185.529 83.21,185.52C81.797,185.469 80.494,186.305 79.95,187.61C79.195,189.436 78.853,191.406 78.95,193.38C78.945,194.461 79.022,195.541 79.18,196.61C79.29,197.482 79.55,198.328 79.95,199.11C80.291,199.768 80.798,200.327 81.42,200.73C82.111,201.142 82.907,201.343 83.71,201.31C84.483,201.302 85.252,201.198 86,201C86.719,200.818 87.427,200.595 88.12,200.33L89.36,204.19C88.49,204.536 87.589,204.8 86.67,204.98C85.446,205.225 84.199,205.343 82.95,205.33C79.41,205.33 76.823,204.33 75.19,202.33C73.557,200.33 72.74,197.473 72.74,193.76C72.727,192.095 72.942,190.436 73.38,188.83C73.779,187.438 74.444,186.137 75.34,185C76.205,183.905 77.315,183.028 78.58,182.44C80.032,181.806 81.606,181.495 83.19,181.53C84.006,181.52 84.821,181.6 85.62,181.77C86.256,181.912 86.873,182.126 87.46,182.41C87.961,182.656 88.431,182.962 88.86,183.32C89.244,183.651 89.605,184.009 89.94,184.39L86.84,187.49Z" style="fill:rgb(88,89,91);fill-rule:nonzero;"/>
        <path d="M97.15,180.39C97.664,180.994 97.935,181.768 97.91,182.56C97.938,183.377 97.659,184.176 97.13,184.8C96.529,185.435 95.672,185.765 94.8,185.7C93.967,185.749 93.154,185.426 92.58,184.82C92.061,184.25 91.782,183.501 91.8,182.73C91.772,181.894 92.058,181.077 92.6,180.44C93.203,179.8 94.063,179.465 94.94,179.53C95.768,179.471 96.58,179.787 97.15,180.39ZM93.35,204.26C92.53,203.535 92.087,202.472 92.15,201.38L92.15,187.83L97.6,187.83L97.6,199.83C97.559,200.203 97.643,200.58 97.84,200.9C98.028,201.092 98.292,201.191 98.56,201.17C98.743,201.19 98.927,201.19 99.11,201.17C99.229,201.155 99.346,201.128 99.46,201.09L99.94,204.5C99.841,204.558 99.737,204.608 99.63,204.65C99.395,204.756 99.155,204.849 98.91,204.93C98.56,205.046 98.202,205.14 97.84,205.21C97.408,205.291 96.969,205.332 96.53,205.33C95.376,205.369 94.246,204.989 93.35,204.26Z" style="fill:rgb(88,89,91);fill-rule:nonzero;"/>
        <path d="M111.45,187.83L116.9,187.83L116.9,196.83C116.879,197.986 116.973,199.142 117.18,200.28C117.312,201.036 117.531,201.774 117.83,202.48C118.059,203.06 118.399,203.59 118.83,204.04L114.45,205.41C114.212,205.173 114.004,204.908 113.83,204.62C113.61,204.308 113.425,203.973 113.28,203.62C113.075,203.173 112.924,202.703 112.83,202.22C112.283,203.253 111.416,204.081 110.36,204.58C109.301,205.083 108.142,205.34 106.97,205.33C106.182,205.348 105.399,205.201 104.67,204.9C104.063,204.627 103.532,204.212 103.12,203.69C102.7,203.133 102.406,202.492 102.26,201.81C102.08,200.996 101.992,200.164 102,199.33L102,187.83L107.48,187.83L107.48,198.62C107.456,199.283 107.558,199.945 107.78,200.57C107.926,201.035 108.374,201.342 108.86,201.31C109.51,201.31 110.1,200.88 110.66,200.02C111.265,198.931 111.549,197.693 111.48,196.45L111.45,187.83Z" style="fill:rgb(88,89,91);fill-rule:nonzero;"/>
        <path d="M133.34,205.41L133.14,205.17C132.952,204.973 132.787,204.755 132.65,204.52C132.445,204.168 132.261,203.804 132.1,203.43C131.905,202.962 131.767,202.471 131.69,201.97C131.366,202.952 130.765,203.82 129.96,204.47C129.087,205.092 128.03,205.402 126.96,205.35C125.924,205.382 124.896,205.166 123.96,204.72C123.131,204.321 122.413,203.723 121.87,202.98C121.287,202.171 120.872,201.253 120.65,200.28C120.371,199.128 120.236,197.945 120.25,196.76C120.237,195.514 120.454,194.277 120.89,193.11C121.289,192.031 121.893,191.039 122.67,190.19C123.433,189.37 124.36,188.719 125.39,188.28C126.5,187.81 127.695,187.575 128.9,187.59C129.126,187.576 129.354,187.576 129.58,187.59L130.32,187.66L130.32,180.14L135.76,181.04L135.76,196.79C135.74,197.934 135.841,199.077 136.06,200.2C136.207,200.961 136.421,201.707 136.7,202.43C136.847,202.861 137.067,203.263 137.35,203.62L137.66,204L133.34,205.41ZM128.84,200.9C129.184,200.552 129.459,200.141 129.65,199.69C129.898,199.133 130.079,198.549 130.19,197.95C130.316,197.264 130.38,196.568 130.38,195.87L130.38,191.87C130.165,191.782 129.94,191.718 129.71,191.68C129.464,191.625 129.212,191.595 128.96,191.59C128.478,191.571 128.001,191.697 127.59,191.95C127.212,192.198 126.908,192.544 126.71,192.95C126.471,193.435 126.312,193.955 126.24,194.49C126.145,195.129 126.099,195.774 126.1,196.42L126.1,198.26C126.115,198.79 126.189,199.316 126.32,199.83C126.42,200.231 126.604,200.606 126.86,200.93C127.104,201.225 127.478,201.382 127.86,201.35C128.234,201.338 128.587,201.176 128.84,200.9Z" style="fill:rgb(88,89,91);fill-rule:nonzero;"/>
        <path d="M154.58,196.83C154.561,197.986 154.652,199.141 154.85,200.28C154.99,201.035 155.211,201.773 155.51,202.48C155.739,203.06 156.078,203.59 156.51,204.04L152.14,205.41C151.864,205.164 151.631,204.873 151.45,204.55C151.238,204.207 151.058,203.845 150.91,203.47C150.725,202.983 150.581,202.481 150.48,201.97C150.159,202.951 149.562,203.819 148.76,204.47C147.886,205.088 146.83,205.398 145.76,205.35C144.741,205.374 143.73,205.158 142.81,204.72C141.984,204.32 141.269,203.722 140.73,202.98C140.143,202.171 139.725,201.253 139.5,200.28C139.226,199.127 139.091,197.945 139.1,196.76C139.092,195.515 139.308,194.278 139.74,193.11C140.139,192.031 140.743,191.039 141.52,190.19C142.285,189.372 143.211,188.722 144.24,188.28C145.353,187.809 146.552,187.574 147.76,187.59C148.519,187.592 149.278,187.645 150.03,187.75C150.84,187.85 151.57,187.97 152.24,188.09C152.91,188.21 153.46,188.33 153.91,188.44L154.62,188.59L154.58,196.83ZM147.58,200.9C147.924,200.552 148.199,200.141 148.39,199.69C148.634,199.133 148.812,198.549 148.92,197.95C149.051,197.265 149.115,196.568 149.11,195.87L149.11,191.87C148.895,191.78 148.67,191.716 148.44,191.68C148.197,191.626 147.949,191.596 147.7,191.59C147.215,191.573 146.735,191.698 146.32,191.95C145.945,192.201 145.642,192.546 145.44,192.95C145.205,193.436 145.047,193.956 144.97,194.49C144.879,195.129 144.835,195.774 144.84,196.42L144.84,198.26C144.853,198.791 144.93,199.318 145.07,199.83C145.162,200.232 145.343,200.608 145.6,200.93C145.844,201.225 146.218,201.382 146.6,201.35C146.98,201.341 147.341,201.179 147.6,200.9L147.58,200.9Z" style="fill:rgb(88,89,91);fill-rule:nonzero;"/>
        <path d="M170.85,205.41L170.64,205.17C170.452,204.975 170.291,204.757 170.16,204.52C169.951,204.17 169.767,203.806 169.61,203.43C169.412,202.962 169.27,202.472 169.19,201.97C168.869,202.951 168.272,203.819 167.47,204.47C166.596,205.088 165.54,205.398 164.47,205.35C163.451,205.374 162.44,205.158 161.52,204.72C160.694,204.32 159.979,203.722 159.44,202.98C158.857,202.169 158.439,201.252 158.21,200.28C157.939,199.127 157.808,197.945 157.82,196.76C157.807,195.514 158.024,194.277 158.46,193.11C158.851,192.029 159.453,191.037 160.23,190.19C160.997,189.375 161.923,188.725 162.95,188.28C164.063,187.809 165.262,187.574 166.47,187.59C166.693,187.576 166.917,187.576 167.14,187.59L167.88,187.66L167.88,180.14L173.33,181.04L173.33,196.79C173.313,197.933 173.41,199.076 173.62,200.2C173.772,200.96 173.986,201.705 174.26,202.43C174.414,202.86 174.637,203.261 174.92,203.62L175.23,204L170.85,205.41ZM166.35,200.9C166.694,200.552 166.969,200.141 167.16,199.69C167.409,199.134 167.587,198.55 167.69,197.95C167.821,197.265 167.885,196.568 167.88,195.87L167.88,191.87C167.665,191.78 167.44,191.716 167.21,191.68C166.967,191.625 166.719,191.595 166.47,191.59C165.985,191.573 165.505,191.698 165.09,191.95C164.715,192.201 164.412,192.546 164.21,192.95C163.975,193.435 163.819,193.955 163.75,194.49C163.655,195.129 163.609,195.774 163.61,196.42L163.61,198.26C163.628,198.79 163.705,199.317 163.84,199.83C163.932,200.232 164.113,200.608 164.37,200.93C164.615,201.224 164.989,201.381 165.37,201.35C165.743,201.336 166.096,201.174 166.35,200.9Z" style="fill:rgb(88,89,91);fill-rule:nonzero;"/>
        <path d="M192.08,196.83C192.064,197.986 192.158,199.141 192.36,200.28C192.492,201.036 192.711,201.774 193.01,202.48C193.239,203.06 193.579,203.59 194.01,204.04L189.63,205.41C189.36,205.158 189.127,204.869 188.94,204.55C188.736,204.204 188.559,203.843 188.41,203.47C188.229,202.993 188.092,202.501 188,202C187.676,202.982 187.075,203.85 186.27,204.5C185.396,205.12 184.34,205.43 183.27,205.38C182.254,205.403 181.247,205.187 180.33,204.75C179.501,204.351 178.783,203.753 178.24,203.01C177.657,202.201 177.242,201.283 177.02,200.31C176.741,199.158 176.606,197.975 176.62,196.79C176.607,195.544 176.824,194.307 177.26,193.14C177.655,192.061 178.256,191.069 179.03,190.22C179.799,189.402 180.728,188.752 181.76,188.31C182.869,187.839 184.065,187.604 185.27,187.62C186.033,187.622 186.795,187.675 187.55,187.78C188.35,187.88 189.09,188 189.76,188.12C190.43,188.24 190.98,188.36 191.43,188.47L192.13,188.62L192.08,196.83ZM185.08,200.9C185.424,200.552 185.699,200.141 185.89,199.69C186.138,199.133 186.319,198.549 186.43,197.95C186.556,197.264 186.62,196.568 186.62,195.87L186.62,191.87C186.402,191.78 186.173,191.716 185.94,191.68C185.697,191.625 185.449,191.594 185.2,191.59C184.715,191.573 184.235,191.698 183.82,191.95C183.448,192.202 183.148,192.546 182.95,192.95C182.711,193.435 182.552,193.955 182.48,194.49C182.385,195.129 182.339,195.774 182.34,196.42L182.34,198.26C182.35,198.79 182.424,199.317 182.56,199.83C182.66,200.231 182.844,200.606 183.1,200.93C183.343,201.227 183.718,201.384 184.1,201.35C184.481,201.343 184.843,201.181 185.1,200.9L185.08,200.9Z" style="fill:rgb(88,89,91);fill-rule:nonzero;"/>
        <path d="M205.63,205.14L205.63,194.38C205.651,193.721 205.553,193.064 205.34,192.44C205.188,191.974 204.739,191.666 204.25,191.69C203.477,191.774 202.8,192.251 202.46,192.95C201.849,194.025 201.56,195.255 201.63,196.49L201.63,205.14L196.19,205.14L196.19,196.14C196.212,194.989 196.111,193.84 195.89,192.71C195.741,191.946 195.516,191.199 195.22,190.48C194.99,189.919 194.676,189.397 194.29,188.93L198.67,187.55C198.89,187.806 199.097,188.073 199.29,188.35C199.503,188.663 199.681,188.998 199.82,189.35C200.011,189.787 200.155,190.243 200.25,190.71C200.802,189.676 201.667,188.843 202.72,188.33C203.791,187.82 204.964,187.561 206.15,187.57C207.619,187.426 209.063,188.046 209.97,189.21C210.788,190.512 211.186,192.034 211.11,193.57L211.11,205.12L205.63,205.14Z" style="fill:rgb(88,89,91);fill-rule:nonzero;"/>
        <path d="M215.56,204.26C214.734,203.539 214.287,202.475 214.35,201.38L214.35,187.83L219.8,187.83L219.8,199.83C219.759,200.203 219.843,200.58 220.04,200.9C220.228,201.092 220.492,201.191 220.76,201.17C220.946,201.19 221.134,201.19 221.32,201.17C221.436,201.154 221.549,201.127 221.66,201.09L222.14,204.5C222.042,204.56 221.938,204.611 221.83,204.65C221.597,204.759 221.356,204.853 221.11,204.93C220.76,205.046 220.402,205.14 220.04,205.21C219.608,205.292 219.17,205.332 218.73,205.33C217.579,205.371 216.451,204.991 215.56,204.26ZM214.39,184.08L219.39,176.7L223.01,180.08C222.27,181 221.53,181.84 220.78,182.61L218.78,184.61C218.06,185.277 217.37,185.897 216.71,186.47L214.39,184.08Z" style="fill:rgb(88,89,91);fill-rule:nonzero;"/>
        <path d="M238.86,196.83C238.839,197.986 238.933,199.142 239.14,200.28C239.272,201.036 239.491,201.774 239.79,202.48C240.019,203.06 240.359,203.59 240.79,204.04L236.41,205.41C236.14,205.158 235.907,204.869 235.72,204.55C235.516,204.204 235.339,203.843 235.19,203.47C234.996,202.986 234.852,202.483 234.76,201.97C234.432,202.95 233.832,203.818 233.03,204.47C232.156,205.088 231.1,205.398 230.03,205.35C229.014,205.374 228.007,205.158 227.09,204.72C226.263,204.326 225.546,203.736 225,203C224.417,202.191 224.002,201.273 223.78,200.3C223.501,199.148 223.366,197.965 223.38,196.78C223.367,195.534 223.584,194.297 224.02,193.13C224.411,192.049 225.013,191.057 225.79,190.21C226.559,189.392 227.488,188.742 228.52,188.3C229.629,187.828 230.825,187.593 232.03,187.61C232.793,187.612 233.554,187.666 234.31,187.77C235.11,187.87 235.85,187.99 236.51,188.11C237.17,188.23 237.74,188.35 238.19,188.46L238.89,188.61L238.86,196.83ZM231.86,200.9C232.204,200.552 232.479,200.141 232.67,199.69C232.918,199.133 233.099,198.549 233.21,197.95C233.336,197.264 233.4,196.568 233.4,195.87L233.4,191.87C233.181,191.782 232.953,191.718 232.72,191.68C232.477,191.625 232.229,191.594 231.98,191.59C231.495,191.573 231.015,191.698 230.6,191.95C230.227,192.204 229.924,192.548 229.72,192.95C229.489,193.437 229.334,193.956 229.26,194.49C229.165,195.129 229.119,195.774 229.12,196.42L229.12,198.26C229.13,198.79 229.204,199.317 229.34,199.83C229.436,200.23 229.617,200.605 229.87,200.93C230.116,201.222 230.489,201.379 230.87,201.35C231.254,201.344 231.619,201.181 231.88,200.9L231.86,200.9Z" style="fill:rgb(88,89,91);fill-rule:nonzero;"/>
        <path d="M252.1,181.8L259.77,181.8C261.478,181.765 263.177,182.064 264.77,182.68C266.113,183.22 267.311,184.066 268.27,185.15C269.196,186.251 269.878,187.536 270.27,188.92C270.721,190.483 270.94,192.104 270.92,193.73C270.944,195.365 270.718,196.993 270.25,198.56C269.84,199.91 269.133,201.15 268.18,202.19C267.202,203.225 265.992,204.013 264.65,204.49C263.019,205.048 261.303,205.315 259.58,205.28L252,205.28L252.1,181.8ZM258.65,185.75L257.79,185.75L257.79,201.15C258.053,201.163 258.317,201.163 258.58,201.15L259.58,201.15C260.453,201.181 261.32,201.002 262.11,200.63C262.78,200.293 263.346,199.782 263.75,199.15C264.193,198.427 264.495,197.626 264.64,196.79C264.837,195.762 264.931,194.717 264.92,193.67C264.92,188.337 263.14,185.67 259.58,185.67L258.65,185.75Z" style="fill:rgb(88,89,91);fill-rule:nonzero;"/>
        <path d="M279.06,180.39C279.571,180.995 279.839,181.769 279.81,182.56C279.841,183.376 279.567,184.175 279.04,184.8C278.439,185.435 277.582,185.765 276.71,185.7C275.877,185.749 275.064,185.426 274.49,184.82C273.971,184.25 273.692,183.501 273.71,182.73C273.682,181.894 273.968,181.077 274.51,180.44C275.113,179.8 275.973,179.465 276.85,179.53C277.678,179.471 278.49,179.787 279.06,180.39ZM275.26,204.26C274.44,203.535 273.997,202.472 274.06,201.38L274.06,187.83L279.5,187.83L279.5,199.83C279.456,200.205 279.545,200.583 279.75,200.9C279.938,201.092 280.202,201.191 280.47,201.17C280.653,201.19 280.837,201.19 281.02,201.17C281.139,201.155 281.256,201.128 281.37,201.09L281.85,204.5C281.751,204.558 281.647,204.608 281.54,204.65C281.302,204.757 281.059,204.851 280.81,204.93C280.463,205.047 280.109,205.141 279.75,205.21C279.318,205.291 278.879,205.332 278.44,205.33C277.286,205.369 276.156,204.989 275.26,204.26Z" style="fill:rgb(88,89,91);fill-rule:nonzero;"/>
        <path d="M286.74,206.9C287.747,207.24 288.627,207.51 289.38,207.71C290.165,207.906 290.971,208.003 291.78,208C292.595,208.04 293.394,207.756 294,207.21C294.589,206.603 294.894,205.774 294.84,204.93C294.856,203.968 294.694,203.012 294.36,202.11C294.033,203.058 293.434,203.889 292.64,204.5C291.76,205.103 290.706,205.402 289.64,205.35C288.624,205.374 287.617,205.158 286.7,204.72C285.871,204.321 285.153,203.723 284.61,202.98C284.027,202.171 283.612,201.253 283.39,200.28C283.111,199.128 282.976,197.945 282.99,196.76C282.977,195.514 283.194,194.277 283.63,193.11C284.025,192.031 284.626,191.039 285.4,190.19C286.169,189.372 287.098,188.722 288.13,188.28C289.239,187.809 290.435,187.574 291.64,187.59C292.362,187.594 293.083,187.64 293.8,187.73C294.54,187.82 295.25,187.93 295.9,188.04L297.62,188.37C298.12,188.47 298.45,188.55 298.62,188.59L298.48,197.18C298.477,197.851 298.541,198.521 298.67,199.18C298.79,199.81 298.93,200.43 299.08,201.04C299.23,201.65 299.38,202.27 299.51,202.92C299.654,203.6 299.725,204.294 299.72,204.99C299.855,207.049 299.109,209.071 297.67,210.55C296.152,211.927 294.147,212.646 292.1,212.55C290.986,212.542 289.877,212.415 288.79,212.17C287.645,211.92 286.527,211.561 285.45,211.1L286.74,206.9ZM291.57,200.9C291.906,200.53 292.174,200.104 292.36,199.64C292.609,199.056 292.79,198.445 292.9,197.82C293.026,197.1 293.089,196.371 293.09,195.64L293.09,191.89C292.872,191.8 292.643,191.736 292.41,191.7C292.167,191.645 291.919,191.614 291.67,191.61C291.185,191.593 290.705,191.718 290.29,191.97C289.918,192.222 289.618,192.566 289.42,192.97C289.181,193.455 289.022,193.975 288.95,194.51C288.855,195.149 288.809,195.794 288.81,196.44L288.81,198.28C288.82,198.81 288.894,199.337 289.03,199.85C289.129,200.249 289.31,200.624 289.56,200.95C289.806,201.242 290.179,201.399 290.56,201.37C290.951,201.358 291.319,201.18 291.57,200.88L291.57,200.9Z" style="fill:rgb(88,89,91);fill-rule:nonzero;"/>
        <path d="M307.46,180.39C307.978,180.991 308.25,181.767 308.22,182.56C308.248,183.377 307.969,184.176 307.44,184.8C306.842,185.434 305.989,185.765 305.12,185.7C304.284,185.75 303.467,185.428 302.89,184.82C302.383,184.243 302.108,183.498 302.12,182.73C302.089,181.895 302.371,181.078 302.91,180.44C303.514,179.801 304.374,179.467 305.25,179.53C306.078,179.469 306.891,179.786 307.46,180.39ZM303.67,204.26C302.844,203.539 302.397,202.475 302.46,201.38L302.46,187.83L307.91,187.83L307.91,199.83C307.869,200.203 307.953,200.58 308.15,200.9C308.338,201.092 308.602,201.191 308.87,201.17C309.056,201.19 309.244,201.19 309.43,201.17C309.546,201.154 309.659,201.127 309.77,201.09L310.25,204.5C310.152,204.56 310.048,204.611 309.94,204.65C309.707,204.759 309.466,204.853 309.22,204.93C308.87,205.046 308.512,205.14 308.15,205.21C307.718,205.292 307.28,205.332 306.84,205.33C305.689,205.371 304.561,204.991 303.67,204.26Z" style="fill:rgb(88,89,91);fill-rule:nonzero;"/>
        <path d="M310.7,188L313.53,188L314.11,184.45L318.84,183.45L318.84,188L322.9,188L322.25,192L318.84,192L318.84,199.69C318.84,200.69 319.37,201.2 320.42,201.2C320.978,201.205 321.535,201.148 322.08,201.03L322.9,200.83L323.84,204.48C323.209,204.689 322.569,204.866 321.92,205.01C320.936,205.229 319.928,205.33 318.92,205.31C317.491,205.389 316.073,205.014 314.87,204.24C313.811,203.353 313.26,201.994 313.4,200.62L313.4,192L310.7,192L310.7,188Z" style="fill:rgb(88,89,91);fill-rule:nonzero;"/>
        <path d="M339.8,196.83C339.781,197.986 339.872,199.141 340.07,200.28C340.205,201.036 340.427,201.774 340.73,202.48C340.955,203.062 341.295,203.593 341.73,204.04L337.35,205.41C337.08,205.158 336.847,204.869 336.66,204.55C336.456,204.204 336.279,203.843 336.13,203.47C335.941,202.984 335.797,202.482 335.7,201.97C335.375,202.95 334.779,203.817 333.98,204.47C333.106,205.088 332.05,205.398 330.98,205.35C329.961,205.374 328.95,205.158 328.03,204.72C327.19,204.329 326.459,203.738 325.9,203C325.317,202.191 324.902,201.273 324.68,200.3C324.406,199.147 324.271,197.965 324.28,196.78C324.272,195.535 324.488,194.298 324.92,193.13C325.319,192.051 325.923,191.059 326.7,190.21C327.463,189.39 328.39,188.739 329.42,188.3C330.533,187.829 331.732,187.594 332.94,187.61C333.699,187.612 334.458,187.665 335.21,187.77C336.02,187.87 336.75,187.99 337.42,188.11C338.09,188.23 338.64,188.35 339.09,188.46L339.8,188.61L339.8,196.83ZM332.8,200.9C333.144,200.552 333.419,200.141 333.61,199.69C333.85,199.131 334.028,198.548 334.14,197.95C334.271,197.265 334.335,196.568 334.33,195.87L334.33,191.87C334.115,191.782 333.89,191.718 333.66,191.68C333.417,191.626 333.169,191.596 332.92,191.59C332.434,191.57 331.954,191.695 331.54,191.95C331.165,192.201 330.862,192.546 330.66,192.95C330.421,193.435 330.262,193.955 330.19,194.49C330.095,195.129 330.049,195.774 330.05,196.42L330.05,198.26C330.065,198.79 330.139,199.316 330.27,199.83C330.37,200.231 330.554,200.606 330.81,200.93C331.054,201.225 331.428,201.382 331.81,201.35C332.193,201.341 332.557,201.179 332.82,200.9L332.8,200.9Z" style="fill:rgb(88,89,91);fill-rule:nonzero;"/>
        <path d="M346.4,204.93C345.857,204.709 345.371,204.367 344.98,203.93C344.604,203.536 344.323,203.06 344.16,202.54C343.979,201.981 343.891,201.397 343.9,200.81L343.9,181.08L349.34,180.15L349.34,199.69C349.3,200.1 349.406,200.511 349.64,200.85C349.939,201.104 350.331,201.22 350.72,201.17C351.004,201.168 351.288,201.148 351.57,201.11L352.41,200.97L352.93,204.38C352.365,204.612 351.783,204.803 351.19,204.95C350.295,205.18 349.374,205.29 348.45,205.28C347.75,205.298 347.054,205.179 346.4,204.93Z" style="fill:rgb(88,89,91);fill-rule:nonzero;"/>
        <path d="M49.78,240.06C49.76,241.213 49.853,242.365 50.06,243.5C50.193,244.259 50.411,245 50.71,245.71C50.939,246.287 51.278,246.814 51.71,247.26L47.33,248.64C47.062,248.386 46.83,248.097 46.64,247.78C46.434,247.432 46.257,247.067 46.11,246.69C45.913,246.207 45.769,245.704 45.68,245.19C45.352,246.17 44.752,247.038 43.95,247.69C43.078,248.313 42.02,248.623 40.95,248.57C39.936,248.609 38.926,248.414 38,248C37.171,247.601 36.453,247.003 35.91,246.26C35.329,245.446 34.914,244.525 34.69,243.55C34.411,242.401 34.276,241.222 34.29,240.04C34.277,238.791 34.494,237.551 34.93,236.38C35.321,235.302 35.923,234.313 36.7,233.47C37.466,232.649 38.396,231.998 39.43,231.56C40.539,231.088 41.735,230.853 42.94,230.87C43.702,230.873 44.464,230.923 45.22,231.02C46.02,231.12 46.76,231.24 47.42,231.37C48.08,231.5 48.65,231.61 49.1,231.71L49.8,231.87L49.78,240.06ZM42.78,244.12C43.122,243.773 43.396,243.367 43.59,242.92C43.835,242.362 44.016,241.778 44.13,241.18C44.256,240.491 44.32,239.791 44.32,239.09L44.32,235.09C44.1,235.006 43.872,234.943 43.64,234.9C43.397,234.845 43.149,234.814 42.9,234.81C42.414,234.796 41.934,234.925 41.52,235.18C41.145,235.432 40.842,235.776 40.64,236.18C40.407,236.663 40.252,237.179 40.18,237.71C40.085,238.349 40.039,238.994 40.04,239.64L40.04,241.49C40.051,242.017 40.125,242.541 40.26,243.05C40.358,243.453 40.539,243.831 40.79,244.16C41.041,244.445 41.411,244.596 41.79,244.57C42.174,244.564 42.539,244.401 42.8,244.12L42.78,244.12Z" style="fill:rgb(88,89,91);fill-rule:nonzero;"/>
        <path d="M61.23,231.2L64.05,231.2L64.64,227.64L69.36,226.64L69.36,231.23L73.43,231.23L72.77,235.23L69.36,235.23L69.36,242.92C69.36,243.92 69.89,244.44 70.95,244.44C71.504,244.44 72.057,244.383 72.6,244.27L73.43,244.06L74.36,247.71C73.9,247.87 73.26,248.05 72.45,248.25C71.464,248.46 70.458,248.557 69.45,248.54C68.038,248.611 66.638,248.237 65.45,247.47C64.386,246.57 63.841,245.194 64,243.81L64,235.19L61.23,235.19L61.23,231.2Z" style="fill:rgb(88,89,91);fill-rule:nonzero;"/>
        <path d="M84.15,236.23C83.825,236.386 83.533,236.603 83.29,236.87C82.988,237.186 82.753,237.56 82.6,237.97C82.405,238.481 82.31,239.024 82.32,239.57L82.32,248.36L76.88,248.36L76.88,239.36C76.901,238.209 76.801,237.06 76.58,235.93C76.433,235.169 76.208,234.425 75.91,233.71C75.687,233.143 75.373,232.616 74.98,232.15L79.36,230.78C79.54,231.01 79.74,231.27 79.95,231.57C80.143,231.891 80.313,232.225 80.46,232.57C80.658,233.003 80.808,233.455 80.91,233.92C81.349,232.96 82.04,232.138 82.91,231.54C83.762,231.044 84.735,230.795 85.72,230.82C86.153,230.815 86.585,230.856 87.01,230.94C87.35,230.998 87.685,231.085 88.01,231.2L86.6,236.4C86.396,236.292 86.182,236.205 85.96,236.14C85.634,236.051 85.297,236.01 84.96,236.02C84.678,236.032 84.402,236.104 84.15,236.23Z" style="fill:rgb(88,89,91);fill-rule:nonzero;"/>
        <path d="M103.52,240.06C103.505,241.213 103.598,242.365 103.8,243.5C103.931,244.26 104.152,245.002 104.46,245.71C104.685,246.289 105.025,246.817 105.46,247.26L101,248.64C100.732,248.386 100.5,248.097 100.31,247.78C100.104,247.432 99.927,247.067 99.78,246.69C99.588,246.205 99.444,245.703 99.35,245.19C99.026,246.172 98.425,247.04 97.62,247.69C96.75,248.316 95.691,248.627 94.62,248.57C93.585,248.6 92.558,248.388 91.62,247.95C90.791,247.551 90.073,246.953 89.53,246.21C88.949,245.396 88.534,244.475 88.31,243.5C88.062,242.351 87.958,241.175 88,240C87.987,238.751 88.204,237.511 88.64,236.34C89.035,235.264 89.636,234.276 90.41,233.43C91.176,232.609 92.106,231.958 93.14,231.52C94.25,231.05 95.445,230.815 96.65,230.83C97.412,230.833 98.174,230.883 98.93,230.98C99.73,231.08 100.47,231.2 101.14,231.33C101.81,231.46 102.36,231.57 102.81,231.67L103.51,231.83L103.52,240.06ZM96.52,244.12C96.862,243.773 97.136,243.367 97.33,242.92C97.575,242.362 97.756,241.778 97.87,241.18C97.996,240.491 98.06,239.791 98.06,239.09L98.06,235.09C97.604,234.923 97.125,234.828 96.64,234.81C95.685,234.772 94.795,235.314 94.39,236.18C94.15,236.66 93.991,237.177 93.92,237.71C93.825,238.349 93.779,238.994 93.78,239.64L93.78,241.49C93.796,242.017 93.869,242.54 94,243.05C94.101,243.453 94.285,243.831 94.54,244.16C94.789,244.447 95.161,244.6 95.54,244.57C95.921,244.563 96.283,244.401 96.54,244.12L96.52,244.12Z" style="fill:rgb(88,89,91);fill-rule:nonzero;"/>
        <path d="M122.24,231.06C122.37,231.65 122.463,232.248 122.52,232.85C122.613,233.707 122.66,234.568 122.66,235.43C122.694,237.475 122.503,239.517 122.09,241.52C121.799,242.978 121.218,244.362 120.38,245.59C119.655,246.604 118.656,247.392 117.5,247.86C116.185,248.36 114.786,248.601 113.38,248.57C111.745,248.708 110.135,248.084 109.02,246.88C108.042,245.598 107.549,244.01 107.63,242.4L107.63,231.06L113.07,231.06L113.07,242.3C113.059,242.879 113.154,243.455 113.35,244C113.482,244.436 113.895,244.729 114.35,244.71C114.92,244.704 115.447,244.395 115.73,243.9C116.143,243.256 116.441,242.546 116.61,241.8C116.844,240.847 117.005,239.878 117.09,238.9C117.198,237.84 117.251,236.775 117.25,235.71C117.264,234.761 117.21,233.812 117.09,232.87C116.99,232.12 116.91,231.52 116.84,231.06L122.24,231.06Z" style="fill:rgb(88,89,91);fill-rule:nonzero;"/>
        <path d="M125.53,236.11C125.929,234.986 126.567,233.963 127.4,233.11C128.188,232.322 129.131,231.705 130.17,231.3C131.271,230.881 132.441,230.67 133.62,230.68C134.556,230.662 135.488,230.797 136.38,231.08C137.074,231.305 137.709,231.681 138.24,232.18C138.719,232.644 139.085,233.212 139.31,233.84C139.538,234.482 139.653,235.159 139.65,235.84C139.651,236.661 139.437,237.467 139.03,238.18C138.594,238.968 137.989,239.651 137.26,240.18C136.402,240.784 135.458,241.256 134.46,241.58C133.26,241.967 132.018,242.209 130.76,242.3C130.886,242.93 131.191,243.51 131.64,243.97C132.173,244.438 132.874,244.669 133.58,244.61C134.124,244.605 134.667,244.548 135.2,244.44C135.78,244.32 136.31,244.2 136.79,244.06C137.27,243.92 137.93,243.71 138.48,243.51L139.48,247.09C138.833,247.401 138.165,247.665 137.48,247.88C136.769,248.09 136.048,248.264 135.32,248.4C134.463,248.564 133.592,248.645 132.72,248.64C131.491,248.674 130.267,248.463 129.12,248.02C128.179,247.649 127.339,247.059 126.67,246.3C126.02,245.522 125.549,244.61 125.29,243.63C124.996,242.497 124.851,241.33 124.86,240.16C124.841,238.781 125.068,237.41 125.53,236.11ZM131.81,234.99C131.484,235.257 131.23,235.601 131.07,235.99C130.875,236.431 130.734,236.895 130.65,237.37C130.56,237.859 130.503,238.353 130.48,238.85C131.073,238.845 131.661,238.74 132.22,238.54C132.644,238.379 133.036,238.145 133.38,237.85C133.656,237.598 133.878,237.292 134.03,236.95C134.16,236.671 134.232,236.368 134.24,236.06C134.258,235.674 134.13,235.295 133.88,235C133.635,234.739 133.288,234.597 132.93,234.61C132.522,234.599 132.123,234.737 131.81,235L131.81,234.99ZM130.69,226.71L136.96,219.34L140.55,222.75C139.808,223.65 138.999,224.493 138.13,225.27C137.26,226.05 136.45,226.73 135.69,227.27C134.825,227.935 133.927,228.555 133,229.13L130.69,226.71Z" style="fill:rgb(88,89,91);fill-rule:nonzero;"/>
        <path d="M147.75,230.75C148.565,230.743 149.379,230.817 150.18,230.97C150.855,231.1 151.523,231.267 152.18,231.47C152.847,231.697 153.457,231.937 154.01,232.19L152.29,236.06L151.58,235.71C151.29,235.57 150.98,235.43 150.65,235.3C150.325,235.162 149.991,235.045 149.65,234.95C149.3,234.861 148.941,234.814 148.58,234.81C148.252,234.801 147.929,234.888 147.65,235.06C147.397,235.222 147.251,235.51 147.27,235.81C147.323,236.264 147.586,236.668 147.98,236.9C148.56,237.315 149.192,237.651 149.86,237.9C151.043,238.37 152.114,239.086 153,240C153.783,240.872 154.189,242.02 154.13,243.19C154.128,243.915 153.992,244.634 153.73,245.31C153.469,245.976 153.07,246.579 152.56,247.08C152,247.613 151.336,248.025 150.61,248.29C149.749,248.604 148.837,248.756 147.92,248.74C147.163,248.742 146.408,248.685 145.66,248.57C145.008,248.464 144.363,248.317 143.73,248.13C143.15,247.96 142.62,247.79 142.16,247.62C141.7,247.45 141.34,247.29 141.06,247.15L142.85,243.15C143.06,243.239 143.264,243.343 143.46,243.46C143.784,243.639 144.118,243.8 144.46,243.94C144.85,244.109 145.251,244.252 145.66,244.37C146.058,244.494 146.473,244.558 146.89,244.56C147.3,244.576 147.708,244.483 148.07,244.29C148.374,244.128 148.557,243.804 148.54,243.46C148.534,243.005 148.324,242.576 147.97,242.29C147.542,241.912 147.046,241.617 146.51,241.42C145.111,240.943 143.841,240.149 142.8,239.1C142.04,238.199 141.64,237.048 141.68,235.87C141.678,235.182 141.817,234.501 142.09,233.87C142.37,233.248 142.783,232.695 143.3,232.25C143.864,231.772 144.512,231.403 145.21,231.16C146.028,230.884 146.887,230.746 147.75,230.75Z" style="fill:rgb(88,89,91);fill-rule:nonzero;"/>
        <path d="M177.78,248.64L177.57,248.4C177.385,248.199 177.224,247.978 177.09,247.74C176.879,247.395 176.695,247.034 176.54,246.66C176.338,246.19 176.197,245.696 176.12,245.19C175.799,246.171 175.202,247.039 174.4,247.69C173.528,248.313 172.47,248.623 171.4,248.57C170.365,248.6 169.338,248.388 168.4,247.95C167.574,247.55 166.859,246.952 166.32,246.21C165.739,245.394 165.322,244.474 165.09,243.5C164.819,242.35 164.688,241.171 164.7,239.99C164.689,238.742 164.903,237.502 165.33,236.33C165.729,235.254 166.333,234.265 167.11,233.42C167.874,232.602 168.801,231.951 169.83,231.51C170.943,231.039 172.142,230.804 173.35,230.82L174.02,230.82L174.76,230.89L174.76,223.4L180.21,224.3L180.21,240.06C180.193,241.203 180.29,242.346 180.5,243.47C180.65,244.227 180.865,244.969 181.14,245.69C181.294,246.12 181.517,246.521 181.8,246.88L182.11,247.26L177.78,248.64ZM173.28,244.12C173.622,243.773 173.896,243.367 174.09,242.92C174.336,242.363 174.514,241.779 174.62,241.18C174.751,240.491 174.815,239.791 174.81,239.09L174.81,235.09C174.593,235.005 174.369,234.941 174.14,234.9C173.897,234.845 173.649,234.815 173.4,234.81C172.914,234.796 172.434,234.925 172.02,235.18C171.643,235.429 171.339,235.774 171.14,236.18C170.903,236.661 170.748,237.178 170.68,237.71C170.58,238.348 170.534,238.994 170.54,239.64L170.54,241.49C170.559,242.017 170.636,242.54 170.77,243.05C170.864,243.454 171.045,243.833 171.3,244.16C171.549,244.447 171.921,244.6 172.3,244.57C172.673,244.556 173.026,244.394 173.28,244.12Z" style="fill:rgb(88,89,91);fill-rule:nonzero;"/>
        <path d="M184.17,236.11C184.569,234.989 185.203,233.966 186.03,233.11C186.824,232.324 187.77,231.708 188.81,231.3C189.911,230.879 191.081,230.669 192.26,230.68C193.192,230.662 194.121,230.797 195.01,231.08C195.705,231.303 196.34,231.679 196.87,232.18C197.352,232.641 197.719,233.21 197.94,233.84C198.171,234.482 198.289,235.158 198.29,235.84C198.291,236.661 198.077,237.467 197.67,238.18C197.23,238.969 196.622,239.651 195.89,240.18C195.036,240.784 194.095,241.256 193.1,241.58C191.896,241.967 190.651,242.209 189.39,242.3C189.52,242.929 189.825,243.508 190.27,243.97C190.807,244.436 191.511,244.667 192.22,244.61C192.764,244.605 193.307,244.548 193.84,244.44C194.42,244.32 194.94,244.2 195.43,244.06C195.92,243.92 196.56,243.71 197.12,243.51L198.12,247.09C197.473,247.401 196.805,247.665 196.12,247.88C195.409,248.09 194.688,248.264 193.96,248.4C193.103,248.564 192.232,248.645 191.36,248.64C190.131,248.674 188.907,248.463 187.76,248.02C186.819,247.649 185.979,247.059 185.31,246.3C184.66,245.522 184.189,244.61 183.93,243.63C183.631,242.498 183.486,241.331 183.5,240.16C183.477,238.781 183.704,237.408 184.17,236.11ZM190.45,234.99C190.124,235.259 189.867,235.602 189.7,235.99C189.508,236.432 189.371,236.895 189.29,237.37C189.2,237.859 189.143,238.353 189.12,238.85C189.713,238.845 190.301,238.74 190.86,238.54C191.281,238.379 191.67,238.145 192.01,237.85C192.289,237.598 192.514,237.292 192.67,236.95C192.8,236.671 192.872,236.368 192.88,236.06C192.894,235.673 192.762,235.294 192.51,235C192.269,234.738 191.925,234.596 191.57,234.61C191.162,234.599 190.763,234.737 190.45,235L190.45,234.99Z" style="fill:rgb(88,89,91);fill-rule:nonzero;"/>
        <path d="M224.31,240.06C224.295,241.213 224.388,242.365 224.59,243.5C224.721,244.26 224.942,245.002 225.25,245.71C225.475,246.289 225.815,246.817 226.25,247.26L221.87,248.64C221.602,248.386 221.37,248.097 221.18,247.78C220.974,247.432 220.797,247.067 220.65,246.69C220.458,246.205 220.314,245.703 220.22,245.19C219.896,246.172 219.295,247.04 218.49,247.69C217.619,248.315 216.561,248.626 215.49,248.57C214.476,248.591 213.47,248.379 212.55,247.95C211.721,247.551 211.003,246.953 210.46,246.21C209.879,245.396 209.464,244.475 209.24,243.5C208.961,242.351 208.826,241.172 208.84,239.99C208.827,238.741 209.044,237.501 209.48,236.33C209.875,235.254 210.476,234.266 211.25,233.42C212.016,232.599 212.946,231.948 213.98,231.51C215.089,231.039 216.285,230.804 217.49,230.82C218.252,230.823 219.014,230.873 219.77,230.97C220.57,231.07 221.31,231.19 221.98,231.32C222.65,231.45 223.2,231.56 223.65,231.66L224.35,231.82L224.31,240.06ZM217.31,244.12C217.652,243.773 217.926,243.367 218.12,242.92C218.365,242.362 218.546,241.778 218.66,241.18C218.786,240.491 218.85,239.791 218.85,239.09L218.85,235.09C218.394,234.923 217.915,234.828 217.43,234.81C216.475,234.772 215.585,235.314 215.18,236.18C214.94,236.66 214.781,237.177 214.71,237.71C214.615,238.349 214.569,238.994 214.57,239.64L214.57,241.49C214.581,242.017 214.655,242.541 214.79,243.05C214.891,243.453 215.075,243.831 215.33,244.16C215.579,244.447 215.951,244.6 216.33,244.57C216.711,244.563 217.073,244.401 217.33,244.12L217.31,244.12Z" style="fill:rgb(88,89,91);fill-rule:nonzero;"/>
        <path d="M238.28,236C238.021,235.696 237.729,235.421 237.41,235.18C237.084,234.939 236.685,234.815 236.28,234.83C235.965,234.837 235.653,234.884 235.35,234.97C234.958,235.074 234.608,235.297 234.35,235.61C234.001,236.03 233.748,236.522 233.61,237.05C233.387,237.901 233.29,238.781 233.32,239.66C233.291,240.538 233.399,241.415 233.64,242.26C233.807,242.813 234.09,243.325 234.47,243.76C234.771,244.081 235.15,244.319 235.57,244.45C235.948,244.557 236.338,244.615 236.73,244.62C237.029,244.619 237.328,244.585 237.62,244.52C237.95,244.45 238.25,244.37 238.54,244.29C238.83,244.21 239.07,244.13 239.28,244.05L239.62,243.93L240.62,247.55L240.24,247.72C239.904,247.894 239.552,248.038 239.19,248.15C238.661,248.324 238.119,248.458 237.57,248.55C236.884,248.672 236.187,248.728 235.49,248.72C234.254,248.753 233.024,248.542 231.87,248.1C230.92,247.73 230.07,247.14 229.39,246.38C228.724,245.607 228.239,244.695 227.97,243.71C227.659,242.58 227.507,241.412 227.52,240.24C227.499,238.853 227.715,237.473 228.16,236.16C228.534,235.049 229.133,234.028 229.92,233.16C230.653,232.362 231.56,231.743 232.57,231.35C233.631,230.936 234.761,230.729 235.9,230.74C236.941,230.714 237.972,230.947 238.9,231.42C239.719,231.836 240.425,232.443 240.96,233.19L238.28,236Z" style="fill:rgb(88,89,91);fill-rule:nonzero;"/>
        <path d="M252.38,236C252.121,235.696 251.829,235.421 251.51,235.18C251.183,234.94 250.785,234.817 250.38,234.83C250.062,234.837 249.746,234.884 249.44,234.97C249.05,235.077 248.701,235.3 248.44,235.61C248.091,236.03 247.838,236.522 247.7,237.05C247.477,237.901 247.38,238.781 247.41,239.66C247.381,240.538 247.489,241.415 247.73,242.26C247.897,242.813 248.18,243.325 248.56,243.76C248.861,244.081 249.24,244.319 249.66,244.45C250.037,244.558 250.427,244.615 250.82,244.62C251.119,244.619 251.418,244.585 251.71,244.52C252.04,244.45 252.34,244.37 252.63,244.29C252.92,244.21 253.16,244.13 253.37,244.05L253.71,243.93L254.71,247.55L254.33,247.72C253.994,247.894 253.642,248.038 253.28,248.15C252.751,248.324 252.209,248.458 251.66,248.55C250.974,248.672 250.277,248.728 249.58,248.72C248.344,248.754 247.114,248.543 245.96,248.1C245.01,247.73 244.16,247.14 243.48,246.38C242.814,245.607 242.329,244.695 242.06,243.71C241.749,242.58 241.597,241.412 241.61,240.24C241.589,238.853 241.805,237.473 242.25,236.16C242.624,235.049 243.223,234.028 244.01,233.16C244.743,232.362 245.65,231.743 246.66,231.35C247.721,230.936 248.851,230.729 249.99,230.74C251.031,230.714 252.062,230.947 252.99,231.42C253.807,231.839 254.513,232.446 255.05,233.19L252.38,236Z" style="fill:rgb(88,89,91);fill-rule:nonzero;"/>
        <path d="M262,223.61C262.512,224.215 262.783,224.988 262.76,225.78C262.789,226.598 262.511,227.397 261.98,228.02C261.379,228.655 260.522,228.985 259.65,228.92C258.816,228.973 258.001,228.65 257.43,228.04C256.914,227.472 256.634,226.727 256.65,225.96C256.623,225.121 256.908,224.301 257.45,223.66C258.054,223.021 258.914,222.687 259.79,222.75C260.617,222.695 261.427,223.01 262,223.61ZM258.21,247.48C257.38,246.762 256.932,245.695 257,244.6L257,231.06L262.45,231.06L262.45,243.06C262.409,243.433 262.493,243.81 262.69,244.13C262.875,244.328 263.14,244.431 263.41,244.41C263.594,244.408 263.778,244.392 263.96,244.36L264.31,244.27L264.79,247.68C264.695,247.748 264.59,247.802 264.48,247.84C264.3,247.92 264.05,248.01 263.76,248.11C263.411,248.231 263.053,248.324 262.69,248.39C262.258,248.471 261.819,248.512 261.38,248.51C260.22,248.573 259.077,248.206 258.17,247.48L258.21,247.48Z" style="fill:rgb(88,89,91);fill-rule:nonzero;"/>
        <path d="M280.07,233.06C281.428,234.937 282.093,237.228 281.95,239.54C281.96,240.768 281.791,241.991 281.45,243.17C281.147,244.229 280.634,245.215 279.94,246.07C279.245,246.901 278.37,247.561 277.38,248C276.259,248.492 275.044,248.734 273.82,248.71C272.602,248.74 271.389,248.533 270.25,248.1C269.299,247.737 268.456,247.138 267.8,246.36C267.141,245.546 266.661,244.602 266.39,243.59C266.065,242.394 265.907,241.159 265.92,239.92C265.912,238.682 266.08,237.45 266.42,236.26C266.722,235.196 267.24,234.206 267.94,233.35C268.633,232.522 269.505,231.862 270.49,231.42C271.624,230.925 272.853,230.683 274.09,230.71C276.83,230.71 278.823,231.493 280.07,233.06ZM272.75,235.18C272.451,235.45 272.23,235.795 272.11,236.18C271.948,236.666 271.844,237.17 271.8,237.68C271.738,238.298 271.708,238.919 271.71,239.54C271.708,240.208 271.745,240.876 271.82,241.54C271.875,242.092 271.996,242.636 272.18,243.16C272.327,243.582 272.582,243.958 272.92,244.25C273.265,244.519 273.693,244.657 274.13,244.64C274.498,244.645 274.854,244.513 275.13,244.27C275.42,243.993 275.64,243.65 275.77,243.27C275.93,242.783 276.034,242.28 276.08,241.77C276.2,240.503 276.2,239.227 276.08,237.96C276.024,237.414 275.903,236.877 275.72,236.36C275.573,235.938 275.318,235.562 274.98,235.27C274.636,235 274.208,234.858 273.77,234.87C273.404,234.846 273.041,234.956 272.75,235.18Z" style="fill:rgb(88,89,91);fill-rule:nonzero;"/>
        <path d="M294.84,248.36L294.84,237.61C294.873,236.931 294.775,236.252 294.55,235.61C294.398,235.15 293.954,234.846 293.47,234.87C292.693,234.95 292.011,235.428 291.67,236.13C291.062,237.203 290.778,238.429 290.85,239.66L290.85,248.31L285.4,248.31L285.4,239.31C285.419,238.16 285.322,237.011 285.11,235.88C284.96,235.119 284.732,234.375 284.43,233.66C284.207,233.093 283.893,232.566 283.5,232.1L287.88,230.73C288.103,230.98 288.311,231.244 288.5,231.52C288.713,231.835 288.894,232.17 289.04,232.52C289.22,232.961 289.364,233.416 289.47,233.88C290.018,232.847 290.879,232.014 291.93,231.5C293.002,230.995 294.175,230.738 295.36,230.75C296.829,230.606 298.275,231.221 299.19,232.38C300.007,233.682 300.405,235.205 300.33,236.74L300.33,248.29L294.84,248.36Z" style="fill:rgb(88,89,91);fill-rule:nonzero;"/>
        <path d="M303.72,236.11C304.119,234.989 304.753,233.966 305.58,233.11C306.374,232.324 307.32,231.708 308.36,231.3C309.458,230.88 310.625,230.67 311.8,230.68C312.736,230.662 313.668,230.797 314.56,231.08C315.255,231.303 315.89,231.679 316.42,232.18C316.902,232.641 317.269,233.21 317.49,233.84C317.721,234.482 317.839,235.158 317.84,235.84C317.841,236.661 317.627,237.467 317.22,238.18C316.78,238.969 316.172,239.651 315.44,240.18C314.586,240.784 313.645,241.256 312.65,241.58C311.446,241.967 310.201,242.209 308.94,242.3C309.07,242.929 309.375,243.508 309.82,243.97C310.357,244.436 311.061,244.667 311.77,244.61C312.314,244.605 312.857,244.548 313.39,244.44C313.96,244.32 314.49,244.2 314.98,244.06C315.47,243.92 316.11,243.71 316.67,243.51L317.67,247.09C317.023,247.401 316.355,247.665 315.67,247.88C315.04,248.07 314.33,248.24 313.51,248.4C312.653,248.564 311.782,248.644 310.91,248.64C309.681,248.674 308.457,248.463 307.31,248.02C306.369,247.649 305.529,247.059 304.86,246.3C304.21,245.522 303.739,244.61 303.48,243.63C303.181,242.498 303.036,241.331 303.05,240.16C303.027,238.781 303.254,237.408 303.72,236.11ZM310,235C309.677,235.27 309.423,235.612 309.26,236C309.068,236.442 308.931,236.905 308.85,237.38C308.76,237.869 308.703,238.363 308.68,238.86C309.273,238.855 309.861,238.75 310.42,238.55C310.841,238.389 311.23,238.155 311.57,237.86C311.849,237.608 312.074,237.302 312.23,236.96C312.358,236.68 312.426,236.377 312.43,236.07C312.448,235.684 312.32,235.305 312.07,235.01C311.829,234.748 311.485,234.606 311.13,234.62C310.72,234.608 310.319,234.743 310,235Z" style="fill:rgb(88,89,91);fill-rule:nonzero;"/>
        <path d="M325.94,230.75C326.755,230.743 327.569,230.817 328.37,230.97C329.045,231.101 329.713,231.268 330.37,231.47C331.037,231.697 331.647,231.937 332.2,232.19L330.47,236.06L329.77,235.71C329.48,235.57 329.17,235.43 328.84,235.3C328.494,235.161 328.14,235.044 327.78,234.95C327.434,234.861 327.078,234.814 326.72,234.81C326.392,234.801 326.069,234.888 325.79,235.06C325.534,235.219 325.387,235.509 325.41,235.81C325.459,236.263 325.719,236.667 326.11,236.9C326.691,237.313 327.323,237.649 327.99,237.9C329.185,238.353 330.271,239.052 331.18,239.95C331.96,240.823 332.363,241.971 332.3,243.14C332.303,243.866 332.167,244.585 331.9,245.26C331.647,245.93 331.247,246.534 330.73,247.03C330.172,247.565 329.508,247.978 328.78,248.24C327.922,248.554 327.013,248.706 326.1,248.69C325.343,248.692 324.588,248.635 323.84,248.52C323.188,248.415 322.543,248.268 321.91,248.08C321.32,247.91 320.8,247.74 320.34,247.57C319.88,247.4 319.51,247.24 319.24,247.1L321.03,243.1C321.236,243.192 321.436,243.295 321.63,243.41C321.955,243.587 322.288,243.748 322.63,243.89C323.024,244.059 323.428,244.202 323.84,244.32C324.235,244.444 324.646,244.508 325.06,244.51C325.473,244.526 325.884,244.433 326.25,244.24C326.55,244.074 326.732,243.753 326.72,243.41C326.714,242.955 326.504,242.526 326.15,242.24C325.719,241.86 325.221,241.564 324.68,241.37C323.284,240.893 322.017,240.099 320.98,239.05C320.22,238.149 319.82,236.998 319.86,235.82C319.854,235.132 319.994,234.45 320.27,233.82C320.55,233.198 320.963,232.645 321.48,232.2C322.042,231.719 322.69,231.349 323.39,231.11C324.214,230.85 325.076,230.728 325.94,230.75Z" style="fill:rgb(88,89,91);fill-rule:nonzero;"/>
    </g>
    <g transform="matrix(1.54286,0,0,1.54286,-41.1007,-157.441)">
        <g transform="matrix(1.13088,0,0,1.13088,-23.9702,-35.8264)">
            <path d="M52.57,274.93L57.66,274.93C58.804,274.901 59.942,275.098 61.01,275.51C61.896,275.867 62.687,276.425 63.32,277.14C63.945,277.866 64.406,278.719 64.67,279.64C64.967,280.673 65.112,281.745 65.1,282.82C65.113,283.903 64.965,284.981 64.66,286.02C64.384,286.913 63.916,287.736 63.29,288.43C62.649,289.089 61.866,289.592 61,289.9C59.92,290.275 58.783,290.454 57.64,290.43L52.62,290.43L52.57,274.93ZM56.91,277.55L56.34,277.55L56.34,287.75L57.5,287.75C58.079,287.771 58.655,287.654 59.18,287.41C59.624,287.181 59.997,286.835 60.26,286.41C60.56,285.931 60.764,285.397 60.86,284.84C60.986,284.161 61.046,283.471 61.04,282.78C61.04,279.253 59.86,277.487 57.5,277.48L56.91,277.55Z" style="fill:rgb(225,147,78);fill-rule:nonzero;"/>
        </g>
        <g transform="matrix(1.13088,0,0,1.13088,-23.9702,-35.8264)">
            <path d="M67,282.27C67.262,281.521 67.686,280.838 68.24,280.27C68.756,279.743 69.381,279.333 70.07,279.07C70.798,278.793 71.571,278.654 72.35,278.66C72.97,278.647 73.588,278.735 74.18,278.92C74.637,279.073 75.057,279.322 75.41,279.65C75.729,279.957 75.972,280.333 76.12,280.75C76.274,281.183 76.352,281.64 76.35,282.1C76.349,282.646 76.208,283.184 75.94,283.66C75.642,284.188 75.232,284.645 74.74,285C74.178,285.408 73.553,285.722 72.89,285.93C72.095,286.185 71.273,286.346 70.44,286.41C70.528,286.823 70.729,287.204 71.02,287.51C71.373,287.824 71.839,287.98 72.31,287.94C72.67,287.937 73.028,287.897 73.38,287.82C73.76,287.75 74.11,287.66 74.43,287.57C74.75,287.48 75.19,287.34 75.55,287.21L76.24,289.58C75.804,289.788 75.353,289.962 74.89,290.1C74.42,290.241 73.942,290.358 73.46,290.45C72.893,290.556 72.317,290.61 71.74,290.61C70.928,290.629 70.119,290.49 69.36,290.2C68.733,289.934 68.177,289.523 67.74,289C67.304,288.491 66.989,287.889 66.82,287.24C66.625,286.489 66.531,285.716 66.54,284.94C66.535,284.03 66.69,283.126 67,282.27ZM71.16,281.53C70.946,281.707 70.778,281.934 70.67,282.19C70.537,282.48 70.443,282.786 70.39,283.1C70.329,283.43 70.292,283.764 70.28,284.1C70.672,284.099 71.061,284.032 71.43,283.9C71.71,283.797 71.969,283.641 72.19,283.44C72.378,283.277 72.528,283.076 72.63,282.85C72.716,282.665 72.763,282.464 72.77,282.26C72.782,282.005 72.697,281.754 72.53,281.56C72.37,281.383 72.138,281.287 71.9,281.3C71.627,281.28 71.356,281.362 71.14,281.53L71.16,281.53Z" style="fill:rgb(225,147,78);fill-rule:nonzero;"/>
        </g>
        <g transform="matrix(1.13088,0,0,1.13088,-23.9702,-35.8264)">
            <path d="M79.69,290.24C79.34,290.102 79.023,289.89 78.76,289.62C78.509,289.355 78.322,289.037 78.21,288.69C78.095,288.321 78.038,287.936 78.04,287.55L78.04,274.45L81.64,273.84L81.64,286.78C81.614,287.049 81.685,287.318 81.84,287.54C82.042,287.704 82.301,287.783 82.56,287.76C82.748,287.756 82.935,287.739 83.12,287.71L83.67,287.62L84.02,289.88C83.643,290.035 83.256,290.162 82.86,290.26C82.268,290.406 81.66,290.477 81.05,290.47C80.586,290.485 80.124,290.406 79.69,290.24Z" style="fill:rgb(225,147,78);fill-rule:nonzero;"/>
        </g>
        <g transform="matrix(1.13088,0,0,1.13088,-23.9702,-35.8264)">
            <path d="M97.5,275.78L97.5,290.38L93.9,290.38L93.9,279.7C93.503,280.007 93.081,280.281 92.64,280.52C92.197,280.769 91.731,280.976 91.25,281.14L90,278.81C90.816,278.461 91.614,278.07 92.39,277.64C93.26,277.143 94.049,276.515 94.73,275.78L97.5,275.78Z" style="fill:rgb(225,147,78);fill-rule:nonzero;"/>
        </g>
        <g transform="matrix(1.13088,0,0,1.13088,-23.9702,-35.8264)">
            <path d="M105.92,290.59C105.266,290.59 104.614,290.509 103.98,290.35C103.372,290.199 102.791,289.953 102.26,289.62C101.759,289.3 101.338,288.868 101.03,288.36C100.705,287.821 100.542,287.199 100.56,286.57C100.553,285.796 100.807,285.042 101.28,284.43C101.864,283.7 102.579,283.086 103.39,282.62C102.74,282.299 102.162,281.85 101.69,281.3C101.238,280.757 100.999,280.067 101.02,279.36C101.006,278.77 101.166,278.189 101.48,277.69C101.789,277.222 102.199,276.829 102.68,276.54C103.186,276.244 103.731,276.021 104.3,275.88C104.869,275.739 105.453,275.665 106.04,275.66C106.617,275.664 107.191,275.738 107.75,275.88C108.282,276.018 108.789,276.241 109.25,276.54C109.685,276.834 110.05,277.22 110.32,277.67C110.607,278.153 110.753,278.708 110.74,279.27C110.749,279.933 110.538,280.58 110.14,281.11C109.691,281.681 109.134,282.157 108.5,282.51C109.337,282.92 110.059,283.532 110.6,284.29C111.039,284.917 111.277,285.664 111.28,286.43C111.295,287.072 111.14,287.707 110.83,288.27C110.532,288.787 110.122,289.232 109.63,289.57C109.108,289.922 108.53,290.182 107.92,290.34C107.266,290.504 106.594,290.588 105.92,290.59ZM104.39,286.71C104.366,287.128 104.536,287.534 104.85,287.81C105.181,288.089 105.607,288.232 106.04,288.21C106.422,288.23 106.792,288.071 107.04,287.78C107.273,287.499 107.401,287.145 107.4,286.78C107.396,286.326 107.249,285.885 106.98,285.52C106.697,285.101 106.361,284.721 105.98,284.39C105.084,284.834 104.481,285.714 104.39,286.71ZM107.04,279.15C107.068,278.815 106.925,278.487 106.66,278.28C106.436,278.128 106.171,278.044 105.9,278.04C105.617,278.046 105.34,278.129 105.1,278.28C104.813,278.471 104.655,278.807 104.69,279.15C104.689,279.532 104.804,279.905 105.02,280.22C105.263,280.565 105.577,280.855 105.94,281.07C106.602,280.658 107.004,279.93 107,279.15L107.04,279.15Z" style="fill:rgb(225,147,78);fill-rule:nonzero;"/>
        </g>
        <g transform="matrix(1.13088,0,0,1.13088,-23.9702,-35.8264)">
            <path d="M129,284.88C128.987,285.644 129.047,286.408 129.18,287.16C129.27,287.661 129.414,288.15 129.61,288.62C129.759,288.99 129.976,289.33 130.25,289.62L127.35,290.53C127.172,290.364 127.02,290.172 126.9,289.96C126.76,289.731 126.64,289.49 126.54,289.24C126.415,288.917 126.321,288.582 126.26,288.24C126.047,288.891 125.651,289.467 125.12,289.9C124.536,290.309 123.832,290.514 123.12,290.48C122.447,290.493 121.781,290.353 121.17,290.07C120.628,289.798 120.155,289.404 119.79,288.92C119.41,288.376 119.135,287.765 118.98,287.12C118.801,286.36 118.714,285.581 118.72,284.8C118.712,283.975 118.854,283.154 119.14,282.38C119.399,281.663 119.8,281.007 120.32,280.45C120.826,279.907 121.439,279.475 122.12,279.18C122.858,278.872 123.651,278.719 124.45,278.73C124.952,278.73 125.453,278.764 125.95,278.83C126.48,278.9 126.95,278.97 127.41,279.06C127.87,279.15 128.22,279.22 128.52,279.29L128.99,279.39L129,284.88ZM124.38,287.57C124.605,287.343 124.785,287.074 124.91,286.78C125.071,286.407 125.192,286.018 125.27,285.62C125.352,285.165 125.392,284.703 125.39,284.24L125.39,281.6C125.248,281.541 125.101,281.498 124.95,281.47C124.789,281.434 124.625,281.414 124.46,281.41C124.137,281.399 123.817,281.482 123.54,281.65C123.295,281.818 123.095,282.045 122.96,282.31C122.807,282.626 122.703,282.963 122.65,283.31C122.588,283.734 122.558,284.162 122.56,284.59L122.56,285.81C122.577,286.147 122.628,286.482 122.71,286.81C122.776,287.076 122.899,287.325 123.07,287.54C123.229,287.725 123.466,287.825 123.71,287.81C123.945,287.808 124.172,287.723 124.35,287.57L124.38,287.57Z" style="fill:rgb(225,147,78);fill-rule:nonzero;"/>
        </g>
        <g transform="matrix(1.13088,0,0,1.13088,-23.9702,-35.8264)">
            <path d="M133.34,290.24C132.985,290.104 132.664,289.893 132.4,289.62C132.153,289.352 131.966,289.035 131.85,288.69C131.735,288.321 131.678,287.936 131.68,287.55L131.68,274.45L135.29,273.84L135.29,286.78C135.262,287.048 135.329,287.317 135.48,287.54C135.682,287.704 135.941,287.783 136.2,287.76C136.388,287.756 136.575,287.74 136.76,287.71L137.32,287.62L137.66,289.88C137.287,290.036 136.902,290.163 136.51,290.26C135.915,290.406 135.303,290.477 134.69,290.47C134.229,290.486 133.77,290.407 133.34,290.24Z" style="fill:rgb(225,147,78);fill-rule:nonzero;"/>
        </g>
        <g transform="matrix(1.13088,0,0,1.13088,-23.9702,-35.8264)">
            <path d="M144.28,277.1C144.6,276.95 144.96,276.79 145.37,276.62C145.78,276.45 146.22,276.3 146.67,276.15C147.133,276.008 147.604,275.891 148.08,275.8C148.541,275.709 149.01,275.663 149.48,275.66C150.084,275.657 150.686,275.735 151.27,275.89C151.796,276.029 152.287,276.278 152.71,276.62C153.135,276.966 153.477,277.404 153.71,277.9C153.957,278.499 154.076,279.143 154.06,279.79C154.053,280.814 153.785,281.819 153.28,282.71C152.621,283.863 151.81,284.922 150.87,285.86L149.5,287.3L154.45,287.3L154.45,290.38L144.25,290.38L143.84,289.38C144.09,289.05 144.35,288.69 144.62,288.31C144.89,287.93 145.17,287.54 145.46,287.15L146.31,285.98C146.58,285.6 146.84,285.24 147.08,284.89C147.65,284.28 148.08,283.74 148.52,283.28C148.885,282.883 149.219,282.458 149.52,282.01C149.732,281.699 149.907,281.363 150.04,281.01C150.144,280.718 150.198,280.41 150.2,280.1C150.209,279.735 150.084,279.38 149.85,279.1C149.6,278.813 149.23,278.658 148.85,278.68C148.376,278.69 147.908,278.788 147.47,278.97C146.96,279.17 146.34,279.44 145.63,279.77L144.28,277.1Z" style="fill:rgb(225,147,78);fill-rule:nonzero;"/>
        </g>
        <g transform="matrix(1.13088,0,0,1.13088,-23.9702,-35.8264)">
            <path d="M155.8,277.1C156.12,276.95 156.48,276.79 156.89,276.62C157.3,276.45 157.74,276.3 158.19,276.15C158.653,276.008 159.124,275.891 159.6,275.8C160.061,275.71 160.53,275.663 161,275.66C161.604,275.657 162.206,275.734 162.79,275.89C163.317,276.026 163.808,276.276 164.23,276.62C164.655,276.966 164.997,277.404 165.23,277.9C165.477,278.499 165.596,279.143 165.58,279.79C165.571,280.812 165.306,281.816 164.81,282.71C164.144,283.861 163.33,284.92 162.39,285.86L161,287.3L166,287.3L166,290.38L155.78,290.38L155.37,289.38L156.14,288.31L156.99,287.15L157.83,285.98L158.61,284.89C159.17,284.28 159.61,283.74 160.04,283.28C160.405,282.883 160.739,282.458 161.04,282.01C161.252,281.696 161.429,281.361 161.57,281.01C161.669,280.717 161.723,280.41 161.73,280.1C161.735,279.734 161.607,279.379 161.37,279.1C161.122,278.81 160.751,278.654 160.37,278.68C159.897,278.7 159.433,278.809 159,279C158.49,279.2 157.88,279.47 157.16,279.8L155.8,277.1Z" style="fill:rgb(225,147,78);fill-rule:nonzero;"/>
        </g>
        <g transform="matrix(1.13088,0,0,1.13088,-23.9702,-35.8264)">
            <path d="M181.74,290.56L181.6,290.4C181.48,290.269 181.376,290.125 181.29,289.97C181.147,289.741 181.023,289.5 180.92,289.25C180.788,288.929 180.698,288.593 180.65,288.25C180.437,288.901 180.041,289.477 179.51,289.91C178.925,290.318 178.222,290.522 177.51,290.49C176.82,290.512 176.135,290.371 175.51,290.08C174.964,289.813 174.491,289.419 174.13,288.93C173.743,288.39 173.468,287.778 173.32,287.13C173.136,286.371 173.049,285.591 173.06,284.81C173.052,283.985 173.194,283.164 173.48,282.39C173.739,281.676 174.137,281.02 174.65,280.46C175.162,279.919 175.777,279.487 176.46,279.19C177.194,278.883 177.984,278.73 178.78,278.74C178.93,278.73 179.08,278.73 179.23,278.74L179.72,278.74L179.72,273.74L183.32,274.33L183.32,284.76C183.309,285.518 183.376,286.276 183.52,287.02C183.618,287.521 183.759,288.013 183.94,288.49C184.041,288.774 184.186,289.041 184.37,289.28L184.58,289.53L181.74,290.56ZM178.74,287.56C178.971,287.336 179.155,287.067 179.28,286.77C179.442,286.399 179.56,286.009 179.63,285.61C179.721,285.156 179.764,284.693 179.76,284.23L179.76,281.6C179.615,281.541 179.464,281.498 179.31,281.47C179.149,281.433 178.985,281.413 178.82,281.41C178.5,281.398 178.183,281.482 177.91,281.65C177.662,281.815 177.462,282.043 177.33,282.31C177.177,282.626 177.073,282.963 177.02,283.31C176.958,283.734 176.928,284.162 176.93,284.59L176.93,285.81C176.947,286.147 176.998,286.482 177.08,286.81C177.146,287.076 177.269,287.325 177.44,287.54C177.596,287.724 177.829,287.824 178.07,287.81C178.323,287.83 178.574,287.743 178.76,287.57L178.74,287.56Z" style="fill:rgb(225,147,78);fill-rule:nonzero;"/>
        </g>
        <g transform="matrix(1.13088,0,0,1.13088,-23.9702,-35.8264)">
            <path d="M186,282.27C186.262,281.521 186.686,280.838 187.24,280.27C187.756,279.743 188.381,279.333 189.07,279.07C189.801,278.792 190.578,278.653 191.36,278.66C191.977,278.648 192.591,278.735 193.18,278.92C193.637,279.073 194.057,279.322 194.41,279.65C194.729,279.957 194.972,280.333 195.12,280.75C195.274,281.183 195.352,281.64 195.35,282.1C195.349,282.646 195.208,283.184 194.94,283.66C194.641,284.165 194.239,284.601 193.76,284.94C193.198,285.348 192.573,285.662 191.91,285.87C191.115,286.125 190.293,286.286 189.46,286.35C189.548,286.763 189.749,287.144 190.04,287.45C190.393,287.764 190.859,287.92 191.33,287.88C191.693,287.877 192.055,287.837 192.41,287.76C192.78,287.69 193.13,287.6 193.41,287.51C193.69,287.42 194.17,287.28 194.53,287.15L195.22,289.52C194.784,289.728 194.333,289.902 193.87,290.04C193.4,290.181 192.922,290.298 192.44,290.39C191.873,290.496 191.297,290.55 190.72,290.55C189.908,290.569 189.099,290.43 188.34,290.14C187.718,289.888 187.163,289.495 186.72,288.99C186.284,288.481 185.969,287.879 185.8,287.23C185.605,286.479 185.511,285.706 185.52,284.93C185.522,284.022 185.685,283.122 186,282.27ZM190.16,281.53C189.946,281.707 189.778,281.934 189.67,282.19C189.537,282.48 189.443,282.786 189.39,283.1C189.329,283.43 189.292,283.764 189.28,284.1C189.672,284.1 190.061,284.033 190.43,283.9C190.712,283.794 190.973,283.638 191.2,283.44C191.382,283.274 191.528,283.074 191.63,282.85C191.716,282.665 191.763,282.464 191.77,282.26C191.782,282.005 191.697,281.754 191.53,281.56C191.37,281.383 191.138,281.287 190.9,281.3C190.624,281.278 190.349,281.36 190.13,281.53L190.16,281.53Z" style="fill:rgb(225,147,78);fill-rule:nonzero;"/>
        </g>
        <g transform="matrix(1.13088,0,0,1.13088,-23.9702,-35.8264)">
            <path d="M212.82,275.28C213.649,275.614 214.384,276.146 214.96,276.83C215.551,277.545 215.978,278.382 216.21,279.28C216.485,280.341 216.62,281.434 216.61,282.53C216.623,283.63 216.471,284.725 216.16,285.78C215.895,286.706 215.443,287.567 214.83,288.31C214.216,289.016 213.45,289.573 212.59,289.94C211.583,290.344 210.505,290.541 209.42,290.52C208.357,290.545 207.298,290.369 206.3,290C205.469,289.688 204.729,289.172 204.15,288.5C203.567,287.795 203.14,286.973 202.9,286.09C202.625,285.032 202.494,283.943 202.51,282.85C202.496,281.744 202.644,280.643 202.95,279.58C203.217,278.638 203.673,277.76 204.29,277C204.894,276.271 205.661,275.695 206.53,275.32C207.542,274.908 208.628,274.707 209.72,274.73C210.78,274.703 211.834,274.89 212.82,275.28ZM207.24,278.78C206.737,279.988 206.508,281.293 206.57,282.6C206.565,283.309 206.615,284.018 206.72,284.72C206.793,285.297 206.962,285.858 207.22,286.38C207.446,286.827 207.792,287.201 208.22,287.46C208.688,287.736 209.227,287.872 209.77,287.85C210.688,287.894 211.543,287.363 211.91,286.52C212.409,285.332 212.635,284.047 212.57,282.76C212.578,282.044 212.531,281.329 212.43,280.62C212.35,280.031 212.182,279.458 211.93,278.92C211.708,278.461 211.361,278.073 210.93,277.8C210.47,277.521 209.938,277.382 209.4,277.4C208.465,277.365 207.601,277.917 207.24,278.78Z" style="fill:rgb(225,147,78);fill-rule:nonzero;"/>
        </g>
        <g transform="matrix(1.13088,0,0,1.13088,-23.9702,-35.8264)">
            <path d="M225.19,282.17C225.018,281.969 224.827,281.785 224.62,281.62C224.399,281.461 224.132,281.381 223.86,281.39C223.654,281.393 223.449,281.424 223.25,281.48C223,281.554 222.777,281.7 222.61,281.9C222.377,282.194 222.209,282.535 222.12,282.9C221.971,283.464 221.903,284.047 221.92,284.63C221.906,285.211 221.98,285.791 222.14,286.35C222.246,286.72 222.434,287.062 222.69,287.35C222.888,287.566 223.14,287.725 223.42,287.81C223.668,287.879 223.923,287.916 224.18,287.92C224.382,287.919 224.583,287.896 224.78,287.85C224.983,287.812 225.183,287.762 225.38,287.7C225.547,287.659 225.711,287.605 225.87,287.54L226.1,287.47L226.76,289.86L226.51,289.98C226.284,290.092 226.05,290.185 225.81,290.26C225.461,290.376 225.103,290.463 224.74,290.52C224.285,290.603 223.823,290.643 223.36,290.64C222.541,290.658 221.726,290.519 220.96,290.23C220.332,289.979 219.77,289.585 219.32,289.08C218.881,288.572 218.562,287.97 218.39,287.32C218.183,286.571 218.082,285.797 218.09,285.02C218.074,284.103 218.216,283.189 218.51,282.32C218.756,281.579 219.154,280.897 219.68,280.32C220.161,279.788 220.761,279.377 221.43,279.12C222.131,278.847 222.878,278.712 223.63,278.72C224.322,278.702 225.009,278.853 225.63,279.16C226.172,279.441 226.641,279.846 227,280.34L225.19,282.17Z" style="fill:rgb(225,147,78);fill-rule:nonzero;"/>
        </g>
        <g transform="matrix(1.13088,0,0,1.13088,-23.9702,-35.8264)">
            <path d="M227.26,279L229.13,279L229.52,276.65L232.65,275.96L232.65,278.96L235.34,278.96L234.91,281.61L232.65,281.61L232.65,286.69C232.65,287.36 233,287.69 233.65,287.69C234.017,287.691 234.382,287.651 234.74,287.57L235.29,287.44L235.91,289.86C235.6,289.96 235.18,290.08 234.64,290.21C233.983,290.351 233.312,290.415 232.64,290.4C231.692,290.456 230.75,290.211 229.95,289.7C229.244,289.113 228.869,288.215 228.95,287.3L228.95,281.6L227.15,281.6L227.26,279Z" style="fill:rgb(225,147,78);fill-rule:nonzero;"/>
        </g>
        <g transform="matrix(1.13088,0,0,1.13088,-23.9702,-35.8264)">
            <path d="M243.44,278.93L247,278.93L247,284.88C246.99,285.644 247.053,286.408 247.19,287.16C247.275,287.662 247.42,288.152 247.62,288.62C247.765,288.993 247.982,289.333 248.26,289.62L245.36,290.53C245.224,290.365 245.103,290.187 245,290C244.861,289.794 244.741,289.577 244.64,289.35C244.506,289.052 244.405,288.74 244.34,288.42C243.977,289.109 243.402,289.663 242.7,290C241.995,290.327 241.227,290.494 240.45,290.49C239.929,290.502 239.41,290.403 238.93,290.2C238.534,290.023 238.19,289.748 237.93,289.4C237.647,289.036 237.452,288.612 237.36,288.16C237.238,287.622 237.181,287.071 237.19,286.52L237.19,278.9L240.81,278.9L240.81,286.04C240.797,286.479 240.864,286.916 241.01,287.33C241.113,287.635 241.408,287.837 241.73,287.82C242.245,287.757 242.692,287.431 242.91,286.96C243.316,286.243 243.507,285.423 243.46,284.6L243.44,278.93Z" style="fill:rgb(225,147,78);fill-rule:nonzero;"/>
        </g>
        <g transform="matrix(1.13088,0,0,1.13088,-23.9702,-35.8264)">
            <path d="M250,274.45L253.6,273.84L253.6,279.91C254.162,279.168 255.05,278.743 255.98,278.77C256.631,278.752 257.276,278.892 257.86,279.18C258.394,279.447 258.855,279.842 259.2,280.33C259.582,280.868 259.854,281.476 260,282.12C260.188,282.889 260.279,283.678 260.27,284.47C260.28,285.293 260.134,286.111 259.84,286.88C259.579,287.59 259.181,288.242 258.67,288.8C258.166,289.343 257.552,289.772 256.87,290.06C256.134,290.375 255.34,290.532 254.54,290.52C254.049,290.519 253.558,290.489 253.07,290.43C252.56,290.37 252.07,290.3 251.65,290.22C251.23,290.14 250.85,290.07 250.55,290C250.363,289.971 250.178,289.924 250,289.86L250,274.45ZM254.6,281.73C254.374,281.979 254.194,282.267 254.07,282.58C253.913,282.977 253.799,283.389 253.73,283.81C253.641,284.291 253.597,284.78 253.6,285.27L253.6,287.71C253.74,287.755 253.884,287.788 254.03,287.81C254.197,287.847 254.368,287.868 254.54,287.87C254.86,287.882 255.177,287.798 255.45,287.63C255.683,287.469 255.872,287.253 256,287C256.158,286.686 256.263,286.348 256.31,286C256.372,285.58 256.402,285.155 256.4,284.73L256.4,283.5C256.387,283.146 256.336,282.794 256.25,282.45C256.189,282.184 256.069,281.934 255.9,281.72C255.741,281.534 255.505,281.43 255.26,281.44C255.007,281.441 254.764,281.546 254.59,281.73L254.6,281.73Z" style="fill:rgb(225,147,78);fill-rule:nonzero;"/>
        </g>
        <g transform="matrix(1.13088,0,0,1.13088,-23.9702,-35.8264)">
            <path d="M267.33,282.35C267.114,282.451 266.921,282.594 266.76,282.77C266.564,282.984 266.408,283.231 266.3,283.5C266.173,283.839 266.112,284.198 266.12,284.56L266.12,290.38L262.52,290.38L262.52,284.45C262.532,283.688 262.465,282.928 262.32,282.18C262.218,281.678 262.071,281.186 261.88,280.71C261.724,280.348 261.515,280.011 261.26,279.71L264.16,278.8C264.28,278.95 264.41,279.12 264.55,279.32C264.674,279.527 264.788,279.741 264.89,279.96C265.019,280.245 265.117,280.543 265.18,280.85C265.483,280.213 265.953,279.67 266.54,279.28C267.104,278.951 267.748,278.785 268.4,278.8C268.689,278.794 268.977,278.82 269.26,278.88C269.471,278.92 269.678,278.977 269.88,279.05L268.95,282.49C268.814,282.423 268.674,282.366 268.53,282.32C268.318,282.264 268.099,282.237 267.88,282.24C267.691,282.238 267.504,282.275 267.33,282.35Z" style="fill:rgb(225,147,78);fill-rule:nonzero;"/>
        </g>
        <g transform="matrix(1.13088,0,0,1.13088,-23.9702,-35.8264)">
            <path d="M270.33,282.27C270.593,281.523 271.012,280.841 271.56,280.27C272.082,279.745 272.709,279.335 273.4,279.07C274.128,278.793 274.901,278.654 275.68,278.66C276.3,278.648 276.918,278.735 277.51,278.92C277.967,279.073 278.387,279.322 278.74,279.65C279.055,279.96 279.297,280.336 279.45,280.75C279.6,281.184 279.675,281.641 279.67,282.1C279.674,282.647 279.532,283.186 279.26,283.66C278.968,284.167 278.569,284.604 278.09,284.94C277.527,285.346 276.902,285.66 276.24,285.87C275.445,286.125 274.623,286.286 273.79,286.35C273.874,286.765 274.075,287.147 274.37,287.45C274.723,287.764 275.189,287.92 275.66,287.88C276.02,287.877 276.378,287.837 276.73,287.76C277.11,287.69 277.46,287.6 277.73,287.51C278,287.42 278.48,287.28 278.85,287.15L279.53,289.52C279.097,289.727 278.649,289.9 278.19,290.04C277.72,290.181 277.242,290.298 276.76,290.39C276.193,290.496 275.617,290.55 275.04,290.55C274.224,290.569 273.413,290.43 272.65,290.14C272.028,289.888 271.473,289.495 271.03,288.99C270.597,288.48 270.286,287.878 270.12,287.23C269.921,286.48 269.824,285.706 269.83,284.93C269.834,284.02 270.003,283.119 270.33,282.27ZM274.48,281.53C274.269,281.71 274.101,281.936 273.99,282.19C273.864,282.482 273.774,282.787 273.72,283.1C273.661,283.431 273.621,283.765 273.6,284.1C273.995,284.099 274.387,284.032 274.76,283.9C275.039,283.794 275.297,283.639 275.52,283.44C275.705,283.277 275.852,283.076 275.95,282.85C276.04,282.666 276.088,282.465 276.09,282.26C276.102,282.005 276.017,281.754 275.85,281.56C275.69,281.383 275.458,281.287 275.22,281.3C274.954,281.286 274.691,281.368 274.48,281.53Z" style="fill:rgb(225,147,78);fill-rule:nonzero;"/>
        </g>
        <g transform="matrix(1.13088,0,0,1.13088,-23.9702,-35.8264)">
            <path d="M281.1,287.61C281.215,287.54 281.335,287.48 281.46,287.43C281.664,287.348 281.875,287.285 282.09,287.24C282.39,287.185 282.695,287.158 283,287.16C283.566,287.104 284.123,287.338 284.48,287.78C284.766,288.212 284.913,288.722 284.9,289.24C284.892,290.242 284.597,291.221 284.05,292.06C283.377,293.065 282.439,293.865 281.34,294.37L280.02,292.57C280.492,292.256 280.872,291.821 281.12,291.31C281.304,290.894 281.403,290.445 281.41,289.99C281.414,289.548 281.343,289.108 281.2,288.69C281.084,288.366 281,288.031 280.95,287.69L281.1,287.61Z" style="fill:rgb(225,147,78);fill-rule:nonzero;"/>
        </g>
        <g transform="matrix(1.13088,0,0,1.13088,-23.9702,-35.8264)">
            <path d="M292.56,277.1C292.88,276.95 293.25,276.79 293.66,276.62C294.07,276.45 294.5,276.3 294.96,276.15C295.42,276.009 295.887,275.892 296.36,275.8C296.825,275.71 297.297,275.663 297.77,275.66C298.374,275.657 298.976,275.735 299.56,275.89C300.085,276.031 300.576,276.279 301,276.62C301.41,276.968 301.735,277.406 301.95,277.9C302.205,278.497 302.328,279.141 302.31,279.79C302.303,280.814 302.035,281.819 301.53,282.71C300.87,283.865 300.056,284.925 299.11,285.86L297.74,287.3L302.74,287.3L302.74,290.38L292.54,290.38L292.13,289.38C292.38,289.05 292.63,288.69 292.91,288.31C293.19,287.93 293.46,287.54 293.75,287.15L294.6,285.98C294.87,285.6 295.13,285.24 295.37,284.89C295.93,284.28 296.37,283.74 296.81,283.28C297.169,282.877 297.503,282.453 297.81,282.01C298.022,281.699 298.197,281.363 298.33,281.01C298.434,280.718 298.488,280.41 298.49,280.1C298.494,279.736 298.37,279.382 298.14,279.1C297.89,278.813 297.52,278.658 297.14,278.68C296.666,278.689 296.198,278.787 295.76,278.97C295.25,279.17 294.63,279.44 293.92,279.77L292.56,277.1Z" style="fill:rgb(225,147,78);fill-rule:nonzero;"/>
        </g>
        <g transform="matrix(1.13088,0,0,1.13088,-23.9702,-35.8264)">
            <path d="M314.67,277.59C315.736,279.173 316.253,281.064 316.14,282.97C316.151,284.02 316.02,285.066 315.75,286.08C315.521,286.948 315.13,287.766 314.6,288.49C314.097,289.148 313.446,289.679 312.7,290.04C311.882,290.417 310.99,290.605 310.09,290.59C308.428,290.695 306.813,289.99 305.76,288.7C304.684,287.125 304.166,285.234 304.29,283.33C304.283,282.273 304.417,281.221 304.69,280.2C304.926,279.331 305.323,278.513 305.86,277.79C306.363,277.126 307.013,276.589 307.76,276.22C308.583,275.837 309.482,275.645 310.39,275.66C312.047,275.552 313.654,276.276 314.67,277.59ZM308.61,279.42C308.268,280.608 308.119,281.844 308.17,283.08C308.17,283.84 308.17,284.53 308.26,285.14C308.302,285.679 308.413,286.21 308.59,286.72C308.721,287.109 308.956,287.455 309.27,287.72C309.578,287.967 309.965,288.094 310.36,288.08C311.065,288.066 311.67,287.561 311.81,286.87C312.137,285.689 312.279,284.464 312.23,283.24C312.23,282.48 312.2,281.79 312.14,281.17C312.096,280.632 311.985,280.101 311.81,279.59C311.678,279.209 311.455,278.865 311.16,278.59C310.861,278.341 310.479,278.212 310.09,278.23C309.383,278.235 308.767,278.73 308.61,279.42Z" style="fill:rgb(225,147,78);fill-rule:nonzero;"/>
        </g>
        <g transform="matrix(1.13088,0,0,1.13088,-23.9702,-35.8264)">
            <path d="M317.64,277.1C317.96,276.95 318.33,276.79 318.74,276.62C319.15,276.45 319.58,276.3 320.04,276.15C320.5,276.006 320.967,275.889 321.44,275.8C321.901,275.71 322.37,275.664 322.84,275.66C323.444,275.657 324.046,275.734 324.63,275.89C325.157,276.026 325.648,276.276 326.07,276.62C326.495,276.966 326.837,277.404 327.07,277.9C327.322,278.497 327.441,279.142 327.42,279.79C327.411,280.812 327.146,281.816 326.65,282.71C325.984,283.861 325.17,284.92 324.23,285.86L322.86,287.3L327.81,287.3L327.81,290.38L317.62,290.38L317.21,289.38L317.98,288.31L318.83,287.15L319.67,285.98C319.95,285.6 320.2,285.24 320.45,284.89C321.01,284.28 321.45,283.74 321.88,283.28C322.245,282.883 322.579,282.458 322.88,282.01C323.095,281.699 323.273,281.363 323.41,281.01C323.509,280.717 323.563,280.41 323.57,280.1C323.575,279.734 323.447,279.379 323.21,279.1C322.962,278.81 322.591,278.654 322.21,278.68C321.736,278.69 321.268,278.788 320.83,278.97C320.32,279.17 319.71,279.44 318.99,279.77L317.64,277.1Z" style="fill:rgb(225,147,78);fill-rule:nonzero;"/>
        </g>
        <g transform="matrix(1.13088,0,0,1.13088,-23.9702,-35.8264)">
            <path d="M336,275.78L336,290.38L332.4,290.38L332.4,279.7C332.003,280.007 331.581,280.281 331.14,280.52C330.697,280.769 330.231,280.976 329.75,281.14L328.49,278.81C329.307,278.463 330.105,278.072 330.88,277.64C331.75,277.143 332.539,276.515 333.22,275.78L336,275.78Z" style="fill:rgb(225,147,78);fill-rule:nonzero;"/>
        </g>
    </g>
    <g transform="matrix(1,0,0,1,-21.84,-6)">
        <path d="M82,109.24L66.67,109.24L39,35.17L58,35.17L67.85,64.71C69.303,69.157 70.58,73.333 71.68,77.24C72.78,81.147 73.69,84.48 74.41,87.24C75.137,84.467 76.05,81.183 77.15,77.39C78.25,73.597 79.583,69.403 81.15,64.81L91.29,35.17L109.67,35.17L82,109.24Z" style="fill:rgb(88,89,91);fill-rule:nonzero;"/>
        <path d="M151.85,60.66C155.85,65.62 157.85,72.477 157.85,81.23C157.886,85.134 157.35,89.022 156.26,92.77C155.297,96.131 153.66,99.261 151.45,101.97C149.246,104.594 146.476,106.686 143.35,108.09C139.776,109.659 135.902,110.427 132,110.34C128.135,110.431 124.289,109.779 120.67,108.42C117.659,107.259 114.988,105.36 112.9,102.9C110.805,100.31 109.279,97.308 108.42,94.09C107.388,90.291 106.89,86.366 106.94,82.43C106.908,78.51 107.443,74.606 108.53,70.84C109.48,67.459 111.118,64.31 113.34,61.59C115.543,58.962 118.312,56.866 121.44,55.46C125.043,53.895 128.943,53.13 132.87,53.22C141.55,53.22 147.877,55.7 151.85,60.66ZM128.6,67.39C127.671,68.256 126.982,69.349 126.6,70.56C126.081,72.102 125.746,73.7 125.6,75.32C125.42,77.153 125.33,79.123 125.33,81.23C125.324,83.315 125.435,85.398 125.66,87.47C125.83,89.224 126.216,90.951 126.81,92.61C127.274,93.948 128.085,95.138 129.16,96.06C130.25,96.921 131.612,97.364 133,97.31C134.208,97.354 135.386,96.923 136.28,96.11C137.203,95.215 137.891,94.105 138.28,92.88C138.8,91.338 139.135,89.741 139.28,88.12C139.46,86.3 139.56,84.37 139.56,82.33C139.568,80.225 139.458,78.122 139.23,76.03C139.049,74.312 138.66,72.623 138.07,71C137.606,69.662 136.795,68.472 135.72,67.55C134.633,66.69 133.275,66.243 131.89,66.29C130.695,66.234 129.521,66.626 128.6,67.39Z" style="fill:rgb(88,89,91);fill-rule:nonzero;"/>
        <path d="M197.86,69.85C197.042,68.886 196.127,68.008 195.13,67.23C194.084,66.469 192.812,66.082 191.52,66.13C190.505,66.146 189.497,66.294 188.52,66.57C187.328,66.925 186.264,67.621 185.46,68.57C184.359,69.919 183.558,71.487 183.11,73.17C182.406,75.865 182.093,78.646 182.18,81.43C182.078,84.219 182.415,87.006 183.18,89.69C183.688,91.452 184.583,93.078 185.8,94.45C186.755,95.474 187.962,96.229 189.3,96.64C191.412,97.289 193.659,97.365 195.81,96.86C196.81,96.64 197.81,96.4 198.71,96.15C199.61,95.9 200.41,95.64 201.07,95.38C201.424,95.228 201.788,95.101 202.16,95L205.33,106.49L204.13,107.03C203.059,107.583 201.941,108.042 200.79,108.4C199.108,108.939 197.391,109.36 195.65,109.66C193.464,110.039 191.249,110.223 189.03,110.21C185.107,110.293 181.205,109.613 177.54,108.21C174.522,107.027 171.823,105.154 169.66,102.74C167.553,100.283 166.022,97.385 165.18,94.26C164.194,90.678 163.712,86.975 163.75,83.26C163.661,78.844 164.338,74.445 165.75,70.26C166.949,66.761 168.848,63.542 171.33,60.8C173.664,58.272 176.544,56.309 179.75,55.06C183.117,53.758 186.7,53.107 190.31,53.14C193.574,53.068 196.806,53.799 199.72,55.27C202.369,56.625 204.658,58.588 206.4,61L197.86,69.85Z" style="fill:rgb(88,89,91);fill-rule:nonzero;"/>
        <path d="M210.72,70.34C211.995,66.817 214.011,63.609 216.63,60.93C219.133,58.422 222.135,56.467 225.44,55.19C228.929,53.843 232.64,53.164 236.38,53.19C239.346,53.122 242.303,53.547 245.13,54.45C247.324,55.188 249.328,56.4 251,58C252.511,59.472 253.67,61.267 254.39,63.25C255.132,65.339 255.501,67.543 255.48,69.76C255.475,72.372 254.786,74.938 253.48,77.2C252.067,79.642 250.143,81.75 247.84,83.38C245.131,85.304 242.143,86.802 238.98,87.82C235.166,89.051 231.218,89.82 227.22,90.11C227.62,92.111 228.589,93.955 230.01,95.42C231.343,96.753 233.403,97.42 236.19,97.42C237.917,97.407 239.638,97.226 241.33,96.88C243.15,96.513 244.817,96.11 246.33,95.67C248.16,95.16 249.94,94.58 251.69,93.92L254.98,105.3C252.891,106.297 250.732,107.139 248.52,107.82C246.52,108.4 244.24,108.947 241.68,109.46C238.958,109.984 236.192,110.242 233.42,110.23C229.516,110.317 225.633,109.637 221.99,108.23C219.003,107.048 216.34,105.173 214.22,102.76C212.205,100.291 210.764,97.404 210,94.31C209.054,90.721 208.594,87.021 208.63,83.31C208.538,78.896 209.246,74.502 210.72,70.34ZM230.63,66.79C229.601,67.657 228.795,68.758 228.28,70C227.684,71.391 227.254,72.848 227,74.34C226.707,75.892 226.524,77.462 226.45,79.04C228.336,79.018 230.205,78.68 231.98,78.04C233.323,77.539 234.563,76.797 235.64,75.85C236.517,75.056 237.216,74.084 237.69,73C238.102,72.108 238.326,71.142 238.35,70.16C238.405,68.941 237.994,67.746 237.2,66.82C236.43,65.986 235.335,65.526 234.2,65.56C232.902,65.534 231.636,65.97 230.63,66.79Z" style="fill:rgb(88,89,91);fill-rule:nonzero;"/>
        <path d="M281.24,53.33C283.842,53.298 286.442,53.522 289,54C291.125,54.412 293.225,54.943 295.29,55.59C297.261,56.258 299.197,57.026 301.09,57.89L295.62,70.14C295.04,69.85 294.29,69.48 293.38,69.05C292.47,68.62 291.48,68.17 290.38,67.73C289.28,67.301 288.15,66.95 287,66.68C285.889,66.396 284.747,66.248 283.6,66.24C282.563,66.208 281.539,66.475 280.65,67.01C279.844,67.531 279.383,68.452 279.45,69.41C279.45,70.58 280.19,71.73 281.69,72.86C283.545,74.187 285.561,75.273 287.69,76.09C291.482,77.526 294.931,79.745 297.81,82.6C300.183,85.12 301.37,88.493 301.37,92.72C301.377,95.023 300.949,97.306 300.11,99.45C299.289,101.572 298.02,103.493 296.39,105.08C294.619,106.773 292.514,108.078 290.21,108.91C287.475,109.905 284.58,110.39 281.67,110.34C279.272,110.349 276.878,110.165 274.51,109.79C272.441,109.459 270.393,109.002 268.38,108.42C266.52,107.87 264.86,107.33 263.38,106.78C261.9,106.23 260.76,105.78 259.88,105.3L265.57,92.72C266.223,93.02 266.861,93.354 267.48,93.72C268.51,94.294 269.571,94.808 270.66,95.26C271.91,95.785 273.189,96.24 274.49,96.62C275.746,97.014 277.054,97.22 278.37,97.23C279.686,97.284 280.993,96.979 282.15,96.35C283.098,95.824 283.669,94.803 283.62,93.72C283.585,92.279 282.928,90.922 281.82,90C280.449,88.814 278.873,87.889 277.17,87.27C271.723,85.09 267.81,82.62 265.43,79.86C263.011,77.013 261.741,73.363 261.87,69.63C261.849,67.412 262.295,65.214 263.18,63.18C264.055,61.192 265.359,59.423 267,58C268.791,56.484 270.85,55.317 273.07,54.56C275.703,53.688 278.467,53.272 281.24,53.33Z" style="fill:rgb(88,89,91);fill-rule:nonzero;"/>
        <path d="M76.22,103.12L60.9,103.12L33.22,29.05L52.22,29.05L62.1,58.59C63.56,63.037 64.837,67.213 65.93,71.12C67.023,75.027 67.937,78.36 68.67,81.12C69.403,78.347 70.313,75.063 71.4,71.27C72.487,67.477 73.82,63.283 75.4,58.69L85.52,29.05L103.9,29.05L76.22,103.12Z" style="fill:rgb(225,147,78);fill-rule:nonzero;"/>
        <path d="M146.08,54.54C150.08,59.5 152.08,66.357 152.08,75.11C152.114,79.016 151.581,82.906 150.5,86.66C149.531,90.018 147.891,93.144 145.68,95.85C143.481,98.476 140.715,100.569 137.59,101.97C134.022,103.536 130.155,104.304 126.26,104.22C122.399,104.31 118.556,103.658 114.94,102.3C111.927,101.144 109.254,99.245 107.17,96.78C105.061,94.203 103.518,91.212 102.64,88C101.617,84.203 101.123,80.282 101.17,76.35C101.134,72.427 101.666,68.52 102.75,64.75C103.704,61.368 105.345,58.219 107.57,55.5C109.771,52.874 112.537,50.779 115.66,49.37C119.264,47.795 123.168,47.021 127.1,47.1C135.78,47.1 142.107,49.58 146.08,54.54ZM122.83,61.27C121.9,62.135 121.211,63.228 120.83,64.44C120.306,65.981 119.971,67.579 119.83,69.2C119.65,71.027 119.56,72.997 119.56,75.11C119.554,77.195 119.665,79.278 119.89,81.35C120.047,83.103 120.42,84.829 121,86.49C121.464,87.83 122.279,89.022 123.36,89.94C124.445,90.803 125.804,91.251 127.19,91.2C128.404,91.247 129.589,90.816 130.49,90C131.414,89.109 132.101,88.003 132.49,86.78C133.014,85.239 133.349,83.641 133.49,82.02C133.67,80.193 133.76,78.26 133.76,76.22C133.768,74.115 133.658,72.012 133.43,69.92C133.256,68.186 132.87,66.48 132.28,64.84C131.82,63.5 131.008,62.309 129.93,61.39C128.844,60.528 127.486,60.081 126.1,60.13C124.906,60.089 123.739,60.496 122.83,61.27Z" style="fill:rgb(225,147,78);fill-rule:nonzero;"/>
        <path d="M192.09,63.73C191.268,62.766 190.35,61.888 189.35,61.11C188.305,60.348 187.033,59.96 185.74,60.01C184.725,60.025 183.717,60.173 182.74,60.45C181.545,60.801 180.481,61.497 179.68,62.45C178.576,63.798 177.771,65.367 177.32,67.05C176.616,69.745 176.303,72.526 176.39,75.31C176.293,78.099 176.63,80.885 177.39,83.57C177.901,85.333 178.8,86.959 180.02,88.33C180.966,89.365 182.176,90.122 183.52,90.52C184.708,90.875 185.94,91.061 187.18,91.07C188.139,91.061 189.094,90.95 190.03,90.74C191.03,90.52 192.03,90.28 192.93,90.03C193.83,89.78 194.63,89.52 195.28,89.26C195.637,89.107 196.005,88.98 196.38,88.88L199.55,100.37L198.35,100.91C197.278,101.461 196.16,101.92 195.01,102.28C191.21,103.498 187.241,104.109 183.25,104.09C179.327,104.173 175.425,103.493 171.76,102.09C168.79,100.905 166.134,99.05 164,96.67C161.893,94.211 160.359,91.315 159.51,88.19C158.527,84.607 158.049,80.905 158.09,77.19C158.002,72.774 158.679,68.376 160.09,64.19C161.289,60.688 163.191,57.469 165.68,54.73C168.009,52.203 170.886,50.243 174.09,49C177.456,47.697 181.04,47.045 184.65,47.08C187.914,47.009 191.145,47.741 194.06,49.21C196.656,50.553 198.903,52.485 200.62,54.85L192.09,63.73Z" style="fill:rgb(225,147,78);fill-rule:nonzero;"/>
        <path d="M205,64.22C206.276,60.7 208.287,57.492 210.9,54.81C213.407,52.306 216.407,50.352 219.71,49.07C223.199,47.723 226.91,47.045 230.65,47.07C233.62,47.001 236.58,47.427 239.41,48.33C241.611,49.053 243.628,50.247 245.32,51.83C246.831,53.302 247.99,55.097 248.71,57.08C249.452,59.169 249.821,61.373 249.8,63.59C249.792,66.202 249.103,68.767 247.8,71.03C246.392,73.475 244.471,75.587 242.17,77.22C239.455,79.137 236.464,80.631 233.3,81.65C229.482,82.905 225.527,83.694 221.52,84C221.928,85.998 222.896,87.84 224.31,89.31C225.643,90.643 227.703,91.31 230.49,91.31C232.22,91.294 233.945,91.109 235.64,90.76C237.46,90.387 239.127,89.987 240.64,89.56C242.46,89.047 244.247,88.46 246,87.8L249.28,99.18C247.194,100.175 245.038,101.018 242.83,101.7C240.83,102.28 238.55,102.827 235.99,103.34C233.268,103.864 230.502,104.122 227.73,104.11C223.823,104.195 219.937,103.515 216.29,102.11C213.307,100.926 210.648,99.051 208.53,96.64C206.454,94.177 204.957,91.279 204.15,88.16C203.204,84.571 202.744,80.871 202.78,77.16C202.729,72.748 203.481,68.363 205,64.22ZM224.91,60.67C223.884,61.523 223.077,62.61 222.56,63.84C221.943,65.241 221.499,66.712 221.24,68.22C220.956,69.773 220.775,71.343 220.7,72.92C222.583,72.898 224.449,72.56 226.22,71.92C227.571,71.429 228.816,70.686 229.89,69.73C230.774,68.939 231.483,67.972 231.97,66.89C232.374,65.993 232.595,65.024 232.62,64.04C232.679,62.821 232.267,61.624 231.47,60.7C230.701,59.866 229.604,59.409 228.47,59.45C227.159,59.409 225.877,59.842 224.86,60.67L224.91,60.67Z" style="fill:rgb(225,147,78);fill-rule:nonzero;"/>
        <path d="M275.46,47.21C278.05,47.195 280.636,47.432 283.18,47.92C285.303,48.338 287.403,48.869 289.47,49.51C291.58,50.24 293.47,51 295.27,51.81L289.8,64.06C289.21,63.77 288.46,63.4 287.55,62.97C286.64,62.54 285.66,62.09 284.6,61.65C283.514,61.208 282.398,60.843 281.26,60.56C280.152,60.276 279.014,60.129 277.87,60.12C276.833,60.086 275.808,60.354 274.92,60.89C274.105,61.409 273.64,62.337 273.71,63.3C273.71,64.46 274.46,65.61 275.96,66.74C277.815,68.067 279.831,69.153 281.96,69.97C285.723,71.418 289.142,73.636 292,76.48C294.373,79 295.56,82.373 295.56,86.6C295.562,88.902 295.134,91.184 294.3,93.33C293.496,95.463 292.241,97.397 290.62,99C288.848,100.691 286.743,101.996 284.44,102.83C281.705,103.825 278.81,104.309 275.9,104.26C273.499,104.268 271.101,104.084 268.73,103.71C266.664,103.378 264.62,102.92 262.61,102.34C260.75,101.79 259.09,101.25 257.61,100.7C256.419,100.267 255.251,99.773 254.11,99.22L259.8,86.64C260.16,86.79 260.8,87.12 261.71,87.64C262.738,88.207 263.797,88.717 264.88,89.17C266.13,89.694 267.409,90.148 268.71,90.53C269.969,90.924 271.28,91.13 272.6,91.14C273.913,91.195 275.217,90.891 276.37,90.26C277.32,89.74 277.895,88.722 277.85,87.64C277.825,86.194 277.162,84.831 276.04,83.92C274.675,82.723 273.098,81.794 271.39,81.18C265.917,78.993 261.997,76.53 259.63,73.79C257.215,70.942 255.948,67.292 256.08,63.56C256.054,61.341 256.501,59.143 257.39,57.11C258.268,55.133 259.577,53.377 261.22,51.97C263.008,50.447 265.067,49.277 267.29,48.52C269.919,47.62 272.682,47.177 275.46,47.21Z" style="fill:rgb(225,147,78);fill-rule:nonzero;"/>
    </g>
</svg>
